<svg width="17" height="17" viewBox="0 0 17 17" fill="none" xmlns="http://www.w3.org/2000/svg">
<g clip-path="url(#clip0_4551_717)">
<path d="M4.56006 4.8001C3.74228 4.8001 3.04006 5.09344 2.45339 5.6801C1.86673 6.26677 1.57339 6.96899 1.57339 7.78677V13.8134H7.54673V7.78677C7.54673 6.96899 7.25339 6.26677 6.66673 5.6801C6.08006 5.09344 5.37784 4.8001 4.56006 4.8001ZM4.56006 3.78677H12.5601C13.2712 3.78677 13.9378 3.96455 14.5601 4.3201C15.1823 4.67566 15.6712 5.16455 16.0267 5.78677C16.3823 6.40899 16.5601 7.07566 16.5601 7.78677V13.8134C16.5601 14.0979 16.4623 14.329 16.2667 14.5068C16.0712 14.6845 15.8312 14.7734 15.5467 14.7734H1.57339C1.28895 14.7734 1.04895 14.6845 0.853392 14.5068C0.657836 14.329 0.560059 14.0979 0.560059 13.8134V7.78677C0.560059 7.07566 0.737836 6.40899 1.09339 5.78677C1.44895 5.16455 1.93784 4.67566 2.56006 4.3201C3.18228 3.96455 3.84895 3.78677 4.56006 3.78677ZM7.22673 4.8001C7.65339 5.19122 7.98228 5.64455 8.21339 6.1601C8.4445 6.67566 8.56006 7.21788 8.56006 7.78677V13.8134H15.5467V7.78677C15.5467 6.96899 15.2534 6.26677 14.6667 5.6801C14.0801 5.09344 13.3778 4.8001 12.5601 4.8001H7.22673ZM12.3467 9.2801H9.57339V8.3201H14.5867C14.6934 8.3201 14.8001 8.36455 14.9067 8.45344C15.0134 8.54233 15.0667 8.65788 15.0667 8.8001V9.81344C15.0667 9.95566 15.0134 10.0712 14.9067 10.1601C14.8001 10.249 14.6934 10.2934 14.5867 10.2934H13.5734C13.4312 10.2934 13.3067 10.2401 13.2001 10.1334L12.3467 9.2801ZM5.57339 7.78677C5.57339 7.96455 5.53784 8.05344 5.46673 8.05344C5.39561 8.05344 5.28895 8.01788 5.14673 7.94677C4.89784 7.8401 4.70228 7.78677 4.56006 7.78677C4.41784 7.78677 4.22228 7.8401 3.97339 7.94677C3.83117 8.01788 3.7245 8.05344 3.65339 8.05344C3.58228 8.05344 3.54673 7.96455 3.54673 7.78677C3.54673 7.50233 3.6445 7.26233 3.84006 7.06677C4.03561 6.87121 4.27561 6.77344 4.56006 6.77344C4.8445 6.77344 5.0845 6.87121 5.28006 7.06677C5.47561 7.26233 5.57339 7.50233 5.57339 7.78677Z" fill="white"/>
</g>
<defs>
<clipPath id="clip0_4551_717">
<rect width="16" height="16" fill="white" transform="matrix(1 0 0 -1 0.560059 16.8)"/>
</clipPath>
</defs>
</svg>
