<svg width="17" height="17" viewBox="0 0 17 17" fill="none" xmlns="http://www.w3.org/2000/svg">
<g clip-path="url(#clip0_4551_729)">
<path d="M4.82945 5.28013C4.82945 5.13791 4.8739 5.02235 4.96279 4.93347C5.05167 4.84458 5.16723 4.80013 5.30945 4.80013H6.85612C6.96279 4.80013 7.06945 4.84458 7.17612 4.93347C7.28279 5.02235 7.33612 5.13791 7.33612 5.28013C7.33612 5.42235 7.28279 5.5468 7.17612 5.65347C7.06945 5.76013 6.94501 5.81347 6.80279 5.81347V6.29347H10.9628L11.3361 5.12013C11.3717 5.04902 11.4339 4.97791 11.5228 4.9068C11.6117 4.83569 11.7095 4.80013 11.8161 4.80013H12.8295C12.9717 4.80013 13.0872 4.84458 13.1761 4.93347C13.265 5.02235 13.3095 5.13791 13.3095 5.28013C13.3095 5.42235 13.265 5.5468 13.1761 5.65347C13.0872 5.76013 12.9717 5.81347 12.8295 5.81347H12.1895L11.8695 6.72013L12.6695 8.00013C13.4161 7.71569 14.1539 7.7068 14.8828 7.97346C15.6117 8.24013 16.1539 8.72013 16.5095 9.41347C16.865 10.1068 16.9361 10.8357 16.7228 11.6001C16.5095 12.3646 16.0739 12.9512 15.4161 13.3601C14.7583 13.769 14.0472 13.9024 13.2828 13.7601C12.5183 13.6179 11.905 13.2357 11.4428 12.6135C10.9806 11.9912 10.785 11.289 10.8561 10.5068C10.9272 9.72458 11.2472 9.0668 11.8161 8.53346L11.3361 7.73347L9.25612 11.0401C9.14945 11.2179 9.00723 11.3068 8.82945 11.3068H6.80279C6.69612 11.9468 6.41167 12.489 5.94945 12.9335C5.48723 13.3779 4.94501 13.6535 4.32279 13.7601C3.70056 13.8668 3.10501 13.7779 2.53612 13.4935C1.96723 13.209 1.52279 12.7912 1.20279 12.2401C0.882786 11.689 0.758341 11.0935 0.829453 10.4535C0.900564 9.81347 1.14945 9.26235 1.57612 8.80013C2.00279 8.33791 2.52723 8.03569 3.14945 7.89347C3.77167 7.75124 4.38501 7.7868 4.98945 8.00013L5.84279 6.6668V5.81347H5.30945C5.16723 5.81347 5.05167 5.76013 4.96279 5.65347C4.8739 5.5468 4.82945 5.42235 4.82945 5.28013ZM6.32279 7.73347L5.84279 8.53346C6.34056 9.03124 6.66056 9.61791 6.80279 10.2935H7.92279L6.32279 7.73347ZM8.82945 9.8668L10.4295 7.3068H7.22945L8.82945 9.8668ZM5.78945 10.2935C5.68279 9.97346 5.50501 9.68902 5.25612 9.44013L4.72279 10.2935H5.78945ZM4.45612 8.9068C4.06501 8.76458 3.6739 8.75569 3.28279 8.88013C2.89167 9.00458 2.56279 9.2268 2.29612 9.5468C2.02945 9.8668 1.87834 10.2312 1.84279 10.6401C1.80723 11.049 1.88723 11.4312 2.08279 11.7868C2.27834 12.1424 2.56279 12.409 2.93612 12.5868C3.30945 12.7646 3.69167 12.8268 4.08279 12.7735C4.4739 12.7201 4.82945 12.5601 5.14945 12.2935C5.46945 12.0268 5.68279 11.6979 5.78945 11.3068H3.81612C3.63834 11.3068 3.49612 11.2179 3.38945 11.0401C3.28279 10.8624 3.28279 10.7024 3.38945 10.5601L4.45612 8.9068ZM12.4028 9.44013C12.0472 9.79569 11.8606 10.2224 11.8428 10.7201C11.825 11.2179 11.9761 11.6624 12.2961 12.0535C12.6161 12.4446 13.025 12.6846 13.5228 12.7735C14.0206 12.8624 14.4828 12.7735 14.9095 12.5068C15.3361 12.2401 15.6206 11.8668 15.7628 11.3868C15.905 10.9068 15.8695 10.4357 15.6561 9.97346C15.4428 9.51124 15.105 9.17347 14.6428 8.96013C14.1806 8.7468 13.7006 8.72902 13.2028 8.9068L14.2695 10.5601C14.3761 10.7024 14.3761 10.8624 14.2695 11.0401C14.1628 11.2179 14.0206 11.3068 13.8428 11.3068C13.665 11.3068 13.5228 11.2179 13.4161 11.0401L12.4028 9.44013Z" fill="white"/>
</g>
<defs>
<clipPath id="clip0_4551_729">
<rect width="16" height="16" fill="white" transform="matrix(1 0 0 -1 0.810059 16.8)"/>
</clipPath>
</defs>
</svg>
