<svg width="17" height="17" viewBox="0 0 17 17" fill="none" xmlns="http://www.w3.org/2000/svg">
<g clip-path="url(#clip0_4551_732)">
<path d="M0.379883 4.32007C0.379883 3.8934 0.522105 3.52895 0.806549 3.22673C1.09099 2.92451 1.44655 2.79118 1.87322 2.82673H10.8865C11.3132 2.79118 11.6688 2.92451 11.9532 3.22673C12.2377 3.52895 12.3799 3.8934 12.3799 4.32007V5.8134H13.3932C13.891 5.8134 14.2821 5.99118 14.5666 6.34673L16.0599 8.2134C16.2732 8.49784 16.3799 8.81784 16.3799 9.1734V11.3067C16.3799 11.7334 16.2377 12.089 15.9532 12.3734C15.6688 12.6578 15.3132 12.8001 14.8865 12.8001H14.4065C14.4065 13.369 14.211 13.8401 13.8199 14.2134C13.4288 14.5867 12.9488 14.7734 12.3799 14.7734C11.811 14.7734 11.3399 14.5867 10.9665 14.2134C10.5932 13.8401 10.4065 13.369 10.4065 12.8001H5.39322C5.39322 13.1556 5.29544 13.4934 5.09988 13.8134C4.90433 14.1334 4.65544 14.3823 4.35322 14.5601C4.05099 14.7378 3.71322 14.8178 3.33988 14.8001C2.96655 14.7823 2.62877 14.6845 2.32655 14.5067C2.02433 14.329 1.78433 14.0801 1.60655 13.7601C1.42877 13.4401 1.35766 13.0845 1.39322 12.6934C1.07322 12.5867 0.824327 12.409 0.646549 12.1601C0.468772 11.9112 0.379883 11.6267 0.379883 11.3067V4.32007ZM1.65988 11.7334C1.83766 11.449 2.08655 11.2178 2.40655 11.0401C2.72655 10.8623 3.06433 10.7823 3.41988 10.8001C3.77544 10.8178 4.10433 10.9156 4.40655 11.0934C4.70877 11.2712 4.94877 11.5023 5.12655 11.7867H10.6732C10.851 11.5023 11.0821 11.2712 11.3665 11.0934V4.32007C11.3665 4.17784 11.3221 4.0534 11.2332 3.94673C11.1443 3.84007 11.0288 3.78673 10.8865 3.78673H1.87322C1.73099 3.78673 1.61544 3.84007 1.52655 3.94673C1.43766 4.0534 1.39322 4.17784 1.39322 4.32007V11.3067C1.39322 11.5201 1.48211 11.6623 1.65988 11.7334ZM12.3799 10.7734C12.7354 10.809 13.0643 10.9156 13.3665 11.0934C13.6688 11.2712 13.9088 11.5023 14.0865 11.7867H14.8865C15.0288 11.7867 15.1443 11.7423 15.2332 11.6534C15.3221 11.5645 15.3665 11.449 15.3665 11.3067V9.1734C15.3665 9.03118 15.331 8.92451 15.2599 8.8534L13.7666 6.98673C13.6954 6.88007 13.571 6.82673 13.3932 6.82673H12.3799V10.7734ZM3.36655 11.7867C3.08211 11.7867 2.85099 11.8845 2.67322 12.0801C2.49544 12.2756 2.40655 12.5156 2.40655 12.8001C2.40655 13.0845 2.49544 13.3245 2.67322 13.5201C2.85099 13.7156 3.08211 13.8134 3.36655 13.8134C3.65099 13.8134 3.89099 13.7156 4.08655 13.5201C4.28211 13.3245 4.37988 13.0845 4.37988 12.8001C4.37988 12.5156 4.28211 12.2756 4.08655 12.0801C3.89099 11.8845 3.65099 11.7867 3.36655 11.7867ZM12.3799 11.7867C12.0954 11.7867 11.8554 11.8845 11.6599 12.0801C11.4643 12.2756 11.3665 12.5156 11.3665 12.8001C11.3665 13.0845 11.4643 13.3245 11.6599 13.5201C11.8554 13.7156 12.0954 13.8134 12.3799 13.8134C12.6643 13.8134 12.9043 13.7156 13.0999 13.5201C13.2954 13.3245 13.3932 13.0845 13.3932 12.8001C13.3932 12.5156 13.2954 12.2756 13.0999 12.0801C12.9043 11.8845 12.6643 11.7867 12.3799 11.7867Z" fill="white"/>
</g>
<defs>
<clipPath id="clip0_4551_732">
<rect width="16" height="16" fill="white" transform="matrix(1 0 0 -1 0.379883 16.8)"/>
</clipPath>
</defs>
</svg>
