<svg width="16" height="17" viewBox="0 0 16 17" fill="none" xmlns="http://www.w3.org/2000/svg">
<g clip-path="url(#clip0_4551_713)">
<path d="M4.75 3.18994C4.55109 3.18994 4.36032 3.26896 4.21967 3.40961C4.07902 3.55026 4 3.74103 4 3.93994V12.4399C4 12.8539 4.336 13.1899 4.75 13.1899H11.25C11.4489 13.1899 11.6397 13.1109 11.7803 12.9703C11.921 12.8296 12 12.6389 12 12.4399V3.93994C12 3.74103 11.921 3.55026 11.7803 3.40961C11.6397 3.26896 11.4489 3.18994 11.25 3.18994H4.75ZM11 12.1899H5V4.18994H11V12.1899Z" fill="white"/>
<path d="M3.5 1.18994C3.76522 1.18994 4.01957 1.08458 4.20711 0.897048C4.39464 0.709512 4.5 0.455158 4.5 0.189941H5.5C5.5 0.455158 5.60536 0.709512 5.79289 0.897048C5.98043 1.08458 6.23478 1.18994 6.5 1.18994C6.76522 1.18994 7.01957 1.08458 7.20711 0.897048C7.39464 0.709512 7.5 0.455158 7.5 0.189941H8.5C8.5 0.455158 8.60536 0.709512 8.79289 0.897048C8.98043 1.08458 9.23478 1.18994 9.5 1.18994C9.76522 1.18994 10.0196 1.08458 10.2071 0.897048C10.3946 0.709512 10.5 0.455158 10.5 0.189941H11.5C11.5 0.455158 11.6054 0.709512 11.7929 0.897048C11.9804 1.08458 12.2348 1.18994 12.5 1.18994C12.7652 1.18994 13.0196 1.08458 13.2071 0.897048C13.3946 0.709512 13.5 0.455158 13.5 0.189941H15V1.18994C14.7348 1.18994 14.4804 1.2953 14.2929 1.48283C14.1054 1.67037 14 1.92472 14 2.18994C14 2.45516 14.1054 2.70951 14.2929 2.89705C14.4804 3.08458 14.7348 3.18994 15 3.18994V4.18994C14.7348 4.18994 14.4804 4.2953 14.2929 4.48283C14.1054 4.67037 14 4.92473 14 5.18994C14 5.45516 14.1054 5.70951 14.2929 5.89705C14.4804 6.08458 14.7348 6.18994 15 6.18994V7.18994C14.7348 7.18994 14.4804 7.2953 14.2929 7.48283C14.1054 7.67037 14 7.92473 14 8.18994C14 8.45516 14.1054 8.70951 14.2929 8.89705C14.4804 9.08458 14.7348 9.18994 15 9.18994V10.1899C14.7348 10.1899 14.4804 10.2953 14.2929 10.4828C14.1054 10.6704 14 10.9247 14 11.1899C14 11.4552 14.1054 11.7095 14.2929 11.897C14.4804 12.0846 14.7348 12.1899 15 12.1899V13.1899C14.7348 13.1899 14.4804 13.2953 14.2929 13.4828C14.1054 13.6704 14 13.9247 14 14.1899C14 14.4552 14.1054 14.7095 14.2929 14.897C14.4804 15.0846 14.7348 15.1899 15 15.1899V16.1899H13.5C13.5 15.9247 13.3946 15.6704 13.2071 15.4828C13.0196 15.2953 12.7652 15.1899 12.5 15.1899C12.2348 15.1899 11.9804 15.2953 11.7929 15.4828C11.6054 15.6704 11.5 15.9247 11.5 16.1899H10.5C10.5 15.9247 10.3946 15.6704 10.2071 15.4828C10.0196 15.2953 9.76522 15.1899 9.5 15.1899C9.23478 15.1899 8.98043 15.2953 8.79289 15.4828C8.60536 15.6704 8.5 15.9247 8.5 16.1899H7.5C7.5 15.9247 7.39464 15.6704 7.20711 15.4828C7.01957 15.2953 6.76522 15.1899 6.5 15.1899C6.23478 15.1899 5.98043 15.2953 5.79289 15.4828C5.60536 15.6704 5.5 15.9247 5.5 16.1899H4.5C4.5 15.9247 4.39464 15.6704 4.20711 15.4828C4.01957 15.2953 3.76522 15.1899 3.5 15.1899C3.23478 15.1899 2.98043 15.2953 2.79289 15.4828C2.60536 15.6704 2.5 15.9247 2.5 16.1899H1V15.1899C1.26522 15.1899 1.51957 15.0846 1.70711 14.897C1.89464 14.7095 2 14.4552 2 14.1899C2 13.9247 1.89464 13.6704 1.70711 13.4828C1.51957 13.2953 1.26522 13.1899 1 13.1899V12.1899C1.26522 12.1899 1.51957 12.0846 1.70711 11.897C1.89464 11.7095 2 11.4552 2 11.1899C2 10.9247 1.89464 10.6704 1.70711 10.4828C1.51957 10.2953 1.26522 10.1899 1 10.1899V9.18994C1.26522 9.18994 1.51957 9.08458 1.70711 8.89705C1.89464 8.70951 2 8.45516 2 8.18994C2 7.92473 1.89464 7.67037 1.70711 7.48283C1.51957 7.2953 1.26522 7.18994 1 7.18994V6.18994C1.26522 6.18994 1.51957 6.08458 1.70711 5.89705C1.89464 5.70951 2 5.45516 2 5.18994C2 4.92473 1.89464 4.67037 1.70711 4.48283C1.51957 4.2953 1.26522 4.18994 1 4.18994V3.18994C1.26522 3.18994 1.51957 3.08458 1.70711 2.89705C1.89464 2.70951 2 2.45516 2 2.18994C2 1.92472 1.89464 1.67037 1.70711 1.48283C1.51957 1.2953 1.26522 1.18994 1 1.18994V0.189941H2.5C2.5 0.455158 2.60536 0.709512 2.79289 0.897048C2.98043 1.08458 3.23478 1.18994 3.5 1.18994ZM3 3.18994V13.1899C3 13.4552 3.10536 13.7095 3.29289 13.897C3.48043 14.0846 3.73478 14.1899 4 14.1899H12C12.2652 14.1899 12.5196 14.0846 12.7071 13.897C12.8946 13.7095 13 13.4552 13 13.1899V3.18994C13 2.92472 12.8946 2.67037 12.7071 2.48283C12.5196 2.2953 12.2652 2.18994 12 2.18994H4C3.73478 2.18994 3.48043 2.2953 3.29289 2.48283C3.10536 2.67037 3 2.92472 3 3.18994Z" fill="white"/>
</g>
<defs>
<clipPath id="clip0_4551_713">
<rect width="16" height="16" fill="white" transform="translate(0 0.189941)"/>
</clipPath>
</defs>
</svg>
