<svg width="17" height="17" viewBox="0 0 17 17" fill="none" xmlns="http://www.w3.org/2000/svg">
<g clip-path="url(#clip0_4551_720)">
<path d="M0.129883 4.8001C0.129883 4.23122 0.325438 3.75121 0.71655 3.3601C1.10766 2.96899 1.58766 2.77344 2.15655 2.77344H14.1565C14.6899 2.77344 15.1521 2.96899 15.5432 3.3601C15.9343 3.75121 16.1299 4.23122 16.1299 4.8001V12.8001C16.1299 13.369 15.9343 13.8401 15.5432 14.2134C15.1521 14.5868 14.6721 14.7734 14.1032 14.7734H2.15655C1.58766 14.7734 1.10766 14.5868 0.71655 14.2134C0.325438 13.8401 0.129883 13.369 0.129883 12.8001V4.8001ZM2.15655 3.78677C1.87211 3.78677 1.63211 3.88455 1.43655 4.0801C1.24099 4.27566 1.14322 4.51566 1.14322 4.8001V5.01344L8.12988 9.22677L15.1165 5.01344V4.8001C15.1165 4.51566 15.0188 4.27566 14.8232 4.0801C14.6277 3.88455 14.4054 3.78677 14.1565 3.78677H2.15655ZM15.1165 6.18677L10.4232 9.01344L15.1165 11.8934V6.18677ZM15.1165 13.0668L9.46322 9.6001L8.12988 10.4001L6.79655 9.6001L1.14322 13.0668C1.21433 13.2801 1.33877 13.4579 1.51655 13.6001C1.69433 13.7423 1.90766 13.8134 2.15655 13.8134H14.1565C14.3699 13.8134 14.5654 13.7423 14.7432 13.6001C14.921 13.4579 15.0454 13.2801 15.1165 13.0668ZM1.14322 11.8934L5.83655 9.01344L1.14322 6.18677V11.8934Z" fill="white"/>
</g>
<defs>
<clipPath id="clip0_4551_720">
<rect width="16" height="16" fill="white" transform="matrix(1 0 0 -1 0.129883 16.8)"/>
</clipPath>
</defs>
</svg>
