<svg width="17" height="17" viewBox="0 0 17 17" fill="none" xmlns="http://www.w3.org/2000/svg">
<g clip-path="url(#clip0_4551_735)">
<path d="M10.9666 1.81338C11.2511 1.81338 11.4911 1.91116 11.6866 2.10672C11.8822 2.30227 11.9799 2.52449 11.9799 2.77338V14.7734C11.9799 15.0578 11.8822 15.2978 11.6866 15.4934C11.4911 15.6889 11.2511 15.7867 10.9666 15.7867H2.96661C2.68216 15.7867 2.44216 15.6889 2.24661 15.4934C2.05105 15.2978 1.95327 15.0578 1.95327 14.7734V2.77338C1.95327 2.52449 2.05105 2.30227 2.24661 2.10672C2.44216 1.91116 2.68216 1.81338 2.96661 1.81338H10.9666ZM2.96661 0.800049C2.39772 0.800049 1.91772 0.995604 1.52661 1.38671C1.1355 1.77783 0.939941 2.25783 0.939941 2.82672V14.7734C0.975497 15.3423 1.17994 15.8223 1.55327 16.2134C1.92661 16.6045 2.39772 16.8 2.96661 16.8H10.9666C11.5355 16.8 12.0155 16.6045 12.4066 16.2134C12.7977 15.8223 12.9933 15.3423 12.9933 14.7734V2.77338C12.9933 2.24005 12.7977 1.77783 12.4066 1.38671C12.0155 0.995604 11.5355 0.800049 10.9666 0.800049H2.96661ZM2.96661 3.30672C2.96661 3.16449 3.01105 3.04005 3.09994 2.93338C3.18883 2.82672 3.30439 2.77338 3.44661 2.77338H10.4866C10.6288 2.77338 10.7444 2.82672 10.8333 2.93338C10.9222 3.04005 10.9666 3.16449 10.9666 3.30672V5.28005C10.9666 5.42227 10.9222 5.54671 10.8333 5.65338C10.7444 5.76005 10.6288 5.81338 10.4866 5.81338H3.44661C3.30439 5.81338 3.18883 5.76005 3.09994 5.65338C3.01105 5.54671 2.96661 5.42227 2.96661 5.28005V3.30672ZM2.96661 7.30672C2.96661 7.16449 3.01105 7.04005 3.09994 6.93338C3.18883 6.82672 3.30439 6.77338 3.44661 6.77338H4.45994C4.60216 6.77338 4.72661 6.82672 4.83327 6.93338C4.93994 7.04005 4.99327 7.16449 4.99327 7.30672V8.32005C4.95772 8.46227 4.8955 8.57783 4.80661 8.66672C4.71772 8.7556 4.60216 8.80005 4.45994 8.80005H3.44661C3.30439 8.80005 3.18883 8.7556 3.09994 8.66672C3.01105 8.57783 2.96661 8.46227 2.96661 8.32005V7.30672ZM2.96661 10.2934C2.96661 10.1512 3.01105 10.0356 3.09994 9.94672C3.18883 9.85783 3.30439 9.81338 3.44661 9.81338H4.45994C4.60216 9.81338 4.72661 9.85783 4.83327 9.94672C4.93994 10.0356 4.99327 10.1512 4.99327 10.2934V11.3067C4.95772 11.4489 4.8955 11.5645 4.80661 11.6534C4.71772 11.7423 4.60216 11.7867 4.45994 11.7867H3.44661C3.30439 11.7867 3.18883 11.7423 3.09994 11.6534C3.01105 11.5645 2.96661 11.4489 2.96661 11.3067V10.2934ZM2.96661 13.28C2.96661 13.1378 3.01105 13.0223 3.09994 12.9334C3.18883 12.8445 3.30439 12.8 3.44661 12.8H4.45994C4.60216 12.8 4.72661 12.8445 4.83327 12.9334C4.93994 13.0223 4.99327 13.1378 4.99327 13.28V14.2934C4.95772 14.4356 4.8955 14.5512 4.80661 14.64C4.71772 14.7289 4.60216 14.7734 4.45994 14.7734H3.44661C3.30439 14.7734 3.18883 14.7289 3.09994 14.64C3.01105 14.5512 2.96661 14.4356 2.96661 14.2934V13.28ZM5.95327 7.30672C5.95327 7.16449 6.00661 7.04005 6.11328 6.93338C6.21994 6.82672 6.34439 6.77338 6.48661 6.77338H7.44661C7.58883 6.77338 7.71327 6.82672 7.81994 6.93338C7.92661 7.04005 7.97994 7.16449 7.97994 7.30672V8.32005C7.97994 8.46227 7.92661 8.57783 7.81994 8.66672C7.71327 8.7556 7.58883 8.80005 7.44661 8.80005H6.48661C6.34439 8.80005 6.21994 8.7556 6.11328 8.66672C6.00661 8.57783 5.95327 8.46227 5.95327 8.32005V7.30672ZM5.95327 10.2934C5.95327 10.1512 6.00661 10.0356 6.11328 9.94672C6.21994 9.85783 6.34439 9.81338 6.48661 9.81338H7.44661C7.58883 9.81338 7.71327 9.85783 7.81994 9.94672C7.92661 10.0356 7.97994 10.1512 7.97994 10.2934V11.3067C7.97994 11.4489 7.92661 11.5645 7.81994 11.6534C7.71327 11.7423 7.58883 11.7867 7.44661 11.7867H6.48661C6.34439 11.7867 6.21994 11.7423 6.11328 11.6534C6.00661 11.5645 5.95327 11.4489 5.95327 11.3067V10.2934ZM5.95327 13.28C5.95327 13.1378 6.00661 13.0223 6.11328 12.9334C6.21994 12.8445 6.34439 12.8 6.48661 12.8H7.44661C7.58883 12.8 7.71327 12.8445 7.81994 12.9334C7.92661 13.0223 7.97994 13.1378 7.97994 13.28V14.2934C7.97994 14.4356 7.92661 14.5512 7.81994 14.64C7.71327 14.7289 7.58883 14.7734 7.44661 14.7734H6.48661C6.34439 14.7734 6.21994 14.7289 6.11328 14.64C6.00661 14.5512 5.95327 14.4356 5.95327 14.2934V13.28ZM8.99327 7.30672C8.99327 7.16449 9.03772 7.04005 9.12661 6.93338C9.2155 6.82672 9.33105 6.77338 9.47328 6.77338H10.4866C10.6288 6.77338 10.7444 6.82672 10.8333 6.93338C10.9222 7.04005 10.9666 7.16449 10.9666 7.30672V8.32005C10.9666 8.46227 10.9222 8.57783 10.8333 8.66672C10.7444 8.7556 10.6288 8.80005 10.4866 8.80005H9.47328C9.33105 8.80005 9.20661 8.7556 9.09994 8.66672C8.99327 8.57783 8.93994 8.46227 8.93994 8.32005L8.99327 7.30672ZM8.99327 10.2934C8.99327 10.1512 9.03772 10.0356 9.12661 9.94672C9.2155 9.85783 9.33105 9.81338 9.47328 9.81338H10.4866C10.6288 9.81338 10.7444 9.85783 10.8333 9.94672C10.9222 10.0356 10.9666 10.1512 10.9666 10.2934V14.2934C10.9666 14.4356 10.9222 14.5512 10.8333 14.64C10.7444 14.7289 10.6288 14.7734 10.4866 14.7734H9.47328C9.33105 14.7734 9.2155 14.7289 9.12661 14.64C9.03772 14.5512 8.9755 14.4356 8.93994 14.2934L8.99327 10.2934Z" fill="white"/>
</g>
<defs>
<clipPath id="clip0_4551_735">
<rect width="16" height="16" fill="white" transform="matrix(1 0 0 -1 0.939941 16.8)"/>
</clipPath>
</defs>
</svg>
