<svg width="17" height="17" viewBox="0 0 17 17" fill="none" xmlns="http://www.w3.org/2000/svg">
<g clip-path="url(#clip0_4551_726)">
<path d="M6.75667 1.81333C6.33 1.81333 5.97444 1.95555 5.69 2.23999C5.40556 2.52444 5.26333 2.87999 5.26333 3.30666V3.78666H1.74333C1.31667 3.78666 0.961111 3.93777 0.676667 4.23999C0.392222 4.54222 0.25 4.88888 0.25 5.27999V13.28C0.25 13.7067 0.392222 14.0711 0.676667 14.3733C0.961111 14.6755 1.31667 14.8267 1.74333 14.8267H14.7567C15.1833 14.7911 15.5389 14.6311 15.8233 14.3467C16.1078 14.0622 16.25 13.7067 16.25 13.28V5.27999C16.25 4.88888 16.1078 4.54222 15.8233 4.23999C15.5389 3.93777 15.1833 3.78666 14.7567 3.78666H11.2367V3.30666C11.2367 2.87999 11.0944 2.52444 10.81 2.23999C10.5256 1.95555 10.17 1.81333 9.74333 1.81333H6.75667ZM6.75667 2.77333H9.74333C9.88556 2.77333 10.01 2.82666 10.1167 2.93333C10.2233 3.03999 10.2767 3.16444 10.2767 3.30666V3.78666H6.27667V3.30666C6.27667 3.16444 6.32111 3.03999 6.41 2.93333C6.49889 2.82666 6.61444 2.77333 6.75667 2.77333ZM8.62333 9.70666L15.2367 7.94666V13.28C15.2367 13.4222 15.1922 13.5467 15.1033 13.6533C15.0144 13.76 14.8989 13.8133 14.7567 13.8133H1.74333C1.60111 13.8133 1.48556 13.76 1.39667 13.6533C1.30778 13.5467 1.26333 13.4222 1.26333 13.28V7.94666L7.87667 9.70666C8.12556 9.77777 8.37444 9.77777 8.62333 9.70666ZM1.74333 4.79999H14.7567C14.8989 4.79999 15.0144 4.84444 15.1033 4.93333C15.1922 5.02222 15.2367 5.13777 15.2367 5.27999V6.93333L8.35667 8.74666C8.28556 8.78222 8.21444 8.78222 8.14333 8.74666L1.26333 6.93333V5.27999C1.26333 5.13777 1.30778 5.02222 1.39667 4.93333C1.48556 4.84444 1.60111 4.79999 1.74333 4.79999Z" fill="white"/>
</g>
<defs>
<clipPath id="clip0_4551_726">
<rect width="16" height="16" fill="white" transform="matrix(1 0 0 -1 0.25 16.8)"/>
</clipPath>
</defs>
</svg>
