<svg width="17" height="17" viewBox="0 0 17 17" fill="none" xmlns="http://www.w3.org/2000/svg">
<g clip-path="url(#clip0_4551_723)">
<path d="M8.84994 1.92005C8.74327 1.84894 8.63661 1.84894 8.52994 1.92005L2.55661 4.32005L4.95661 5.28005L11.0899 2.77338L8.84994 1.92005ZM12.4233 3.36005L6.28994 5.81338L8.68994 6.77338L14.8233 4.32005L12.4233 3.36005ZM15.6766 5.01338L9.16994 7.62672V15.5734L15.6766 12.96V5.01338ZM8.20994 15.5734V7.62672L1.70327 5.01338V12.96L8.20994 15.5734ZM8.15661 0.960049C8.51216 0.817826 8.86772 0.817826 9.22328 0.960049L16.3699 3.84005C16.5833 3.91116 16.6899 4.07116 16.6899 4.32005V12.96C16.6899 13.1734 16.6366 13.36 16.5299 13.52C16.4233 13.68 16.2633 13.7956 16.0499 13.8667L8.84994 16.7467C8.74327 16.8178 8.63661 16.8178 8.52994 16.7467L1.32994 13.8667C1.11661 13.7956 0.956608 13.68 0.849941 13.52C0.743275 13.36 0.689941 13.1734 0.689941 12.96V4.32005C0.689941 4.07116 0.796608 3.91116 1.00994 3.84005L8.15661 0.960049Z" fill="white"/>
</g>
<defs>
<clipPath id="clip0_4551_723">
<rect width="16" height="16" fill="white" transform="matrix(1 0 0 -1 0.689941 16.8)"/>
</clipPath>
</defs>
</svg>
