<svg width="95" height="107" viewBox="0 0 95 107" fill="none" xmlns="http://www.w3.org/2000/svg">
<g clip-path="url(#clip0_3188_12594)">
<path d="M17.9295 0.229622H84.54C90.0009 0.229622 94.4309 4.65964 94.4309 10.1205V96.687C94.4309 102.148 90.0009 106.578 84.54 106.578H17.9295C12.4686 106.578 8.03857 102.148 8.03857 96.687V10.1136C8.03857 4.65268 12.4686 0.222656 17.9295 0.222656V0.229622Z" fill="#5F6D10"/>
<path d="M9.89141 0.229622H76.5019C81.9628 0.229622 86.3929 4.65964 86.3929 10.1205V96.687C86.3929 102.148 81.9628 106.578 76.5019 106.578H9.89141C4.43051 106.578 0.000488281 102.148 0.000488281 96.687V10.1136C0.000488281 4.65268 4.43051 0.222656 9.89141 0.222656V0.229622Z" fill="#AFCA0B"/>
<path d="M77.3306 5.16016H16.369C15.0957 5.16016 14.0635 6.19239 14.0635 7.46572V93.0083C14.0635 94.2816 15.0957 95.3139 16.369 95.3139H77.3306C78.6039 95.3139 79.6361 94.2816 79.6361 93.0083V7.46572C79.6361 6.19239 78.6039 5.16016 77.3306 5.16016Z" fill="#BBE1FE"/>
<path d="M71.3057 5.16016H10.3441C9.07081 5.16016 8.03857 6.19239 8.03857 7.46572V93.0083C8.03857 94.2816 9.07081 95.3139 10.3441 95.3139H71.3057C72.579 95.3139 73.6112 94.2816 73.6112 93.0083V7.46572C73.6112 6.19239 72.579 5.16016 71.3057 5.16016Z" fill="white"/>
<path d="M64.7028 22.1497H56.3234C55.5641 22.1497 54.9512 21.5367 54.9512 20.7775C54.9512 20.0182 55.5641 19.4053 56.3234 19.4053H64.7028C65.462 19.4053 66.075 20.0182 66.075 20.7775C66.075 21.5367 65.462 22.1497 64.7028 22.1497Z" fill="#BBE1FE"/>
<path d="M45.4363 22.1497H17.693C16.9338 22.1497 16.3208 21.5367 16.3208 20.7775C16.3208 20.0182 16.9338 19.4053 17.693 19.4053H45.4363C46.1956 19.4053 46.8085 20.0182 46.8085 20.7775C46.8085 21.5367 46.1956 22.1497 45.4363 22.1497Z" fill="#BBE1FE"/>
<path d="M64.7028 31.4622H17.693C16.9338 31.4622 16.3208 30.8492 16.3208 30.09C16.3208 29.3307 16.9338 28.7178 17.693 28.7178H64.7028C65.462 28.7178 66.0749 29.3307 66.0749 30.09C66.0749 30.8492 65.462 31.4622 64.7028 31.4622Z" fill="#BBE1FE"/>
<path d="M64.7027 40.7815H41.2013C40.4421 40.7815 39.8291 40.1685 39.8291 39.4093C39.8291 38.6501 40.4421 38.0371 41.2013 38.0371H64.7027C65.4619 38.0371 66.0749 38.6501 66.0749 39.4093C66.0749 40.1685 65.4619 40.7815 64.7027 40.7815Z" fill="#BBE1FE"/>
<path d="M30.0636 40.7815H17.693C16.9338 40.7815 16.3208 40.1685 16.3208 39.4093C16.3208 38.6501 16.9338 38.0371 17.693 38.0371H30.0636C30.8228 38.0371 31.4358 38.6501 31.4358 39.4093C31.4358 40.1685 30.8228 40.7815 30.0636 40.7815Z" fill="#BBE1FE"/>
<path d="M64.7028 50.1018H17.693C16.9338 50.1018 16.3208 49.4888 16.3208 48.7296C16.3208 47.9704 16.9338 47.3574 17.693 47.3574H64.7028C65.462 47.3574 66.0749 47.9704 66.0749 48.7296C66.0749 49.4888 65.462 50.1018 64.7028 50.1018Z" fill="#BBE1FE"/>
<path d="M64.7025 59.4143H56.2604C55.5011 59.4143 54.8882 58.8013 54.8882 58.0421C54.8882 57.2829 55.5011 56.6699 56.2604 56.6699H64.7025C65.4617 56.6699 66.0747 57.2829 66.0747 58.0421C66.0747 58.8013 65.4617 59.4143 64.7025 59.4143Z" fill="#BBE1FE"/>
<path d="M45.91 59.4143H17.693C16.9338 59.4143 16.3208 58.8013 16.3208 58.0421C16.3208 57.2829 16.9338 56.6699 17.693 56.6699H45.91C46.6692 56.6699 47.2822 57.2829 47.2822 58.0421C47.2822 58.8013 46.6692 59.4143 45.91 59.4143Z" fill="#BBE1FE"/>
<path d="M64.7026 68.7336H47.8253C47.0661 68.7336 46.4531 68.1207 46.4531 67.3615C46.4531 66.6022 47.0661 65.9893 47.8253 65.9893H64.7026C65.4618 65.9893 66.0748 66.6022 66.0748 67.3615C66.0748 68.1207 65.4618 68.7336 64.7026 68.7336Z" fill="#BBE1FE"/>
<path d="M37.0082 68.7336H17.693C16.9338 68.7336 16.3208 68.1207 16.3208 67.3615C16.3208 66.6022 16.9338 65.9893 17.693 65.9893H37.0082C37.7674 65.9893 38.3804 66.6022 38.3804 67.3615C38.3804 68.1207 37.7674 68.7336 37.0082 68.7336Z" fill="#BBE1FE"/>
<path d="M64.7026 78.0471H47.8253C47.0661 78.0471 46.4531 77.4342 46.4531 76.6749C46.4531 75.9157 47.0661 75.3027 47.8253 75.3027H64.7026C65.4618 75.3027 66.0748 75.9157 66.0748 76.6749C66.0748 77.4342 65.4618 78.0471 64.7026 78.0471Z" fill="#BBE1FE"/>
</g>
<defs>
<clipPath id="clip0_3188_12594">
<rect width="94.73" height="106.571" fill="white"/>
</clipPath>
</defs>
</svg>
