<svg width="90" height="90" viewBox="0 0 90 90" fill="none" xmlns="http://www.w3.org/2000/svg">
<path d="M72.8421 17.1808C69.1923 13.495 64.8503 10.5666 60.0654 8.56386C55.2805 6.56116 50.147 5.52363 44.9599 5.51086C39.7729 5.49809 34.6344 6.51035 29.8397 8.48947C25.045 10.4686 20.6885 13.3756 17.0207 17.0434C13.3529 20.7113 10.4459 25.0677 8.46676 29.8624C6.48764 34.6571 5.47539 39.7956 5.48816 44.9827C5.50092 50.1697 6.53846 55.3032 8.54116 60.0881C10.5439 64.873 13.4722 69.215 17.1581 72.8648C20.8078 76.5506 25.1499 79.479 29.9348 81.4817C34.7197 83.4844 39.8531 84.522 45.0402 84.5347C50.2273 84.5475 55.3658 83.5352 60.1605 81.5561C64.9552 79.577 69.3116 76.67 72.9795 73.0022C76.6473 69.3343 79.5543 64.9779 81.5334 60.1832C83.5125 55.3885 84.5248 50.25 84.512 45.0629C84.4993 39.8758 83.4617 34.7424 81.459 29.9575C79.4563 25.1726 76.5279 20.8305 72.8421 17.1808ZM11.2501 45.0228C11.2488 42.0358 11.6449 39.0618 12.4278 36.1792C13.7181 38.9566 15.5919 41.356 16.8663 44.2054C18.5134 47.8687 22.936 46.8527 24.889 50.0624C26.6222 52.9119 24.7712 56.5154 26.0684 59.4966C27.0106 61.6605 29.2325 62.1333 30.7653 63.7154C32.3315 65.3115 32.2981 67.4982 32.5372 69.5794C32.807 72.0247 33.2445 74.4486 33.8468 76.8339C33.8468 76.8515 33.8468 76.8708 33.8608 76.8884C20.7071 72.2689 11.2501 59.7304 11.2501 45.0228ZM45.0001 78.7728C43.1153 78.7722 41.2338 78.6146 39.3751 78.3017C39.3944 77.8253 39.4032 77.3806 39.4507 77.0712C39.8778 74.2763 41.277 71.5429 43.1649 69.4511C45.03 67.3874 47.5858 65.9917 49.1608 63.6503C50.7042 61.3652 51.1665 58.289 50.5302 55.6189C49.5933 51.6744 44.2337 50.3578 41.3438 48.2185C39.6827 46.988 38.2044 45.0861 36.0229 44.9314C35.0175 44.8611 34.1755 45.0773 33.1788 44.8206C32.2647 44.5833 31.5476 44.0912 30.5737 44.2195C28.7544 44.4585 27.6065 46.4027 25.6518 46.139C23.7974 45.8912 21.8866 43.7203 21.4647 41.9537C20.9233 39.6826 22.7198 38.946 24.6446 38.7439C25.4479 38.6595 26.3497 38.5681 27.1214 38.8634C28.1374 39.2396 28.6173 40.2345 29.5296 40.7372C31.2399 41.6759 31.5862 40.1765 31.3243 38.6578C30.9323 36.3831 30.4753 35.4568 32.5038 33.8906C33.9101 32.8113 35.1124 32.0308 34.8874 30.0919C34.7538 28.9529 34.1298 28.4378 34.7116 27.304C35.1528 26.441 36.364 25.6622 37.1532 25.1472C39.1905 23.8183 45.8808 23.9167 43.1474 20.1972C42.344 19.1056 40.8622 17.1544 39.456 16.8872C37.6981 16.555 36.9177 18.5167 35.6925 19.3816C34.4268 20.2763 31.9624 21.2923 30.695 19.9089C28.9899 18.0474 31.8253 17.4374 32.4528 16.1367C32.7429 15.5302 32.4528 14.6882 31.9642 13.8955C32.5981 13.6283 33.2427 13.3804 33.8977 13.1519C34.3083 13.4551 34.7953 13.6378 35.304 13.6792C36.48 13.7566 37.5891 13.1203 38.6157 13.9218C39.7548 14.8007 40.5757 15.9117 42.0874 16.1859C43.5499 16.4513 45.0985 15.5988 45.4606 14.1011C45.6804 13.1906 45.4606 12.229 45.2497 11.2886C51.824 11.3264 58.2422 13.2953 63.7067 16.9505C63.3552 16.8169 62.9351 16.8328 62.4165 17.0736C61.3495 17.5693 59.8378 18.8314 59.713 20.083C59.5706 21.5033 61.6659 21.7037 62.6608 21.7037C64.155 21.7037 65.6685 21.0357 65.1868 19.3095C64.9776 18.5607 64.6929 17.782 64.2341 17.3109C65.3369 18.0762 66.3935 18.9061 67.3981 19.7964C67.3823 19.8122 67.3665 19.8263 67.3507 19.8439C66.3382 20.8986 65.1622 21.7335 64.4696 23.0167C63.981 23.9203 63.4308 24.3492 62.4411 24.583C61.8962 24.7113 61.2739 24.7587 60.8169 25.1244C59.5442 26.1263 60.2685 28.5345 61.4743 29.257C62.9983 30.1693 65.2589 29.7404 66.4085 28.4378C67.3067 27.4183 67.8358 25.6482 69.4513 25.6499C70.1625 25.6485 70.8457 25.9269 71.3532 26.4251C72.0212 27.1177 71.8894 27.7646 72.0317 28.6294C72.2831 30.1658 73.6384 29.3326 74.4628 28.5574C75.0637 29.6269 75.6059 30.7283 76.087 31.8568C75.18 33.1628 74.4593 34.5867 72.2778 33.0644C70.9718 32.1521 70.1684 30.8285 68.5284 30.4171C67.0958 30.0656 65.628 30.4312 64.213 30.6755C62.6046 30.955 60.6974 31.0781 59.4774 32.2962C58.2979 33.4704 57.6739 35.0419 56.4188 36.2214C53.9913 38.5066 52.9665 41.0009 54.538 44.2318C56.0497 47.3378 59.212 49.0236 62.6239 48.8021C65.9761 48.5788 69.4583 46.6347 69.3616 51.5056C69.3265 53.23 69.6868 54.4236 70.2159 56.0249C70.7063 57.5015 70.6729 58.9324 70.7854 60.4564C70.8924 62.241 71.1714 64.0111 71.6186 65.7421C68.4679 69.7988 64.4317 73.0816 59.8184 75.34C55.205 77.5984 50.1366 78.7726 45.0001 78.7728Z" fill="#AFCA0B"/>
</svg>
