<svg width="50" height="107" viewBox="0 0 50 107" fill="none" xmlns="http://www.w3.org/2000/svg">
<g clip-path="url(#clip0_3188_14580)">
<path d="M43.463 15.2098C41.8309 15.2098 40.5078 13.8867 40.5078 12.2546V2.96109C40.5078 1.32898 41.8309 0.00585938 43.463 0.00585938C45.0952 0.00585938 46.4183 1.32898 46.4183 2.96109V12.2625C46.4183 13.8946 45.0952 15.2178 43.463 15.2178V15.2098Z" fill="#AFCA0B"/>
<path d="M43.4631 41.6324C39.874 41.6324 36.9663 38.7248 36.9663 35.1357V12.2624C36.9663 8.67332 39.874 5.76562 43.4631 5.76562C47.0521 5.76562 49.9598 8.67332 49.9598 12.2624V35.1436C49.9598 38.7327 47.0521 41.6404 43.4631 41.6404V41.6324Z" fill="#C5AC19"/>
<path d="M43.4632 75.0039C40.8566 75.0039 38.7412 72.8885 38.7412 70.2818V36.475C38.7412 33.8683 40.8566 31.7529 43.4632 31.7529C46.0699 31.7529 48.1853 33.8683 48.1853 36.475V70.2818C48.1853 72.8885 46.0699 75.0039 43.4632 75.0039Z" fill="#FFDA00"/>
<path d="M43.4631 94.9301C39.874 94.9301 36.9663 92.0224 36.9663 88.4333V70.2741C36.9663 66.685 39.874 63.7773 43.4631 63.7773C47.0521 63.7773 49.9598 66.685 49.9598 70.2741V88.4333C49.9598 92.0224 47.0521 94.9301 43.4631 94.9301Z" fill="#C5AC19"/>
<path d="M43.4632 102.314C40.8566 102.314 38.7412 100.198 38.7412 97.5915V93.0121C38.7412 90.4054 40.8566 88.29 43.4632 88.29C46.0699 88.29 48.1853 90.4054 48.1853 93.0121V97.5915C48.1853 100.198 46.0699 102.314 43.4632 102.314Z" fill="#AFCA0B"/>
<path d="M43.4631 106.299C42.1558 106.299 41.1021 105.238 41.1021 103.938V99.3591C41.1021 98.0518 42.1637 96.998 43.4631 96.998C44.7624 96.998 45.8241 98.0597 45.8241 99.3591V103.938C45.8241 105.246 44.7624 106.299 43.4631 106.299Z" fill="#5F6D10"/>
<path d="M32.8301 37.203C31.6892 37.203 30.7622 36.2761 30.7622 35.1352V16.9046C30.7622 13.5295 33.5114 10.7803 36.8866 10.7803C38.0275 10.7803 38.9545 11.7072 38.9545 12.8481C38.9545 13.989 38.0275 14.916 36.8866 14.916C35.7457 14.916 34.8979 15.8113 34.8979 16.9126V35.1431C34.8979 36.284 33.971 37.211 32.8301 37.211V37.203Z" fill="#FFDA00"/>
<path d="M5.98779 17.8079C2.92956 17.8079 0.449707 15.328 0.449707 12.2698V6.08203C0.449707 3.0238 2.92956 0.543945 5.98779 0.543945C9.04602 0.543945 11.5259 3.0238 11.5259 6.08203V12.2698C11.5259 15.328 9.04602 17.8079 5.98779 17.8079Z" fill="#FFDA00"/>
<path d="M5.98779 24.0835C2.92956 24.0835 0.449707 21.6036 0.449707 18.5454V12.2705C0.449707 9.21228 2.92956 6.73242 5.98779 6.73242C9.04602 6.73242 11.5259 9.21228 11.5259 12.2705V18.5454C11.5259 21.6036 9.04602 24.0835 5.98779 24.0835Z" fill="white"/>
<path d="M5.98779 81.2782C2.92956 81.2782 0.449707 78.7983 0.449707 75.7401V18.5449C0.449707 15.4867 2.92956 13.0068 5.98779 13.0068C9.04602 13.0068 11.5259 15.4867 11.5259 18.5449V75.7401C11.5259 78.7983 9.04602 81.2782 5.98779 81.2782Z" fill="#AFCA0B"/>
<path d="M11.5259 75.7402H0.449707V91.6652H11.5259V75.7402Z" fill="#AFCA0B"/>
<path d="M5.98785 78.5057C4.45873 78.5057 3.21484 77.2698 3.21484 75.7327V15.6695C3.21484 14.1404 4.45081 12.8965 5.98785 12.8965C7.52488 12.8965 8.76085 14.1325 8.76085 15.6695V75.7407C8.76085 77.2698 7.52488 78.5137 5.98785 78.5137V78.5057Z" fill="#5F6D10"/>
<path d="M8.76074 75.7402H3.22266V91.6652H8.76074V75.7402Z" fill="#5F6D10"/>
<path d="M6.13821 86.4754C6.2016 86.4754 6.26498 86.4754 6.32836 86.4754C6.97804 86.4991 7.59602 86.6338 8.15854 86.8557C10.9632 87.9649 12.4765 91.3162 11.1851 94.3031L8.70522 100.023L5.74999 106.845L3.69797 101.426L3.1196 99.8888L0.917044 94.0575C-0.461535 90.4051 2.23224 86.412 6.13821 86.4754Z" fill="#F4A669"/>
<path d="M6.13832 86.4756C6.20171 86.4756 6.26509 86.4756 6.32847 86.4756C6.97815 86.4994 7.59613 86.634 8.15865 86.8559C8.70533 88.1949 8.76079 89.7636 8.11112 91.2372L5.63126 96.9575L3.69016 101.434L3.11179 99.8969L0.909231 94.0657C-0.469348 90.4133 2.22443 86.4201 6.1304 86.4835L6.13832 86.4756Z" fill="#FFB39A"/>
<path d="M3.11974 99.8897C3.16728 97.9011 8.7529 98.0358 8.70536 100.024L5.74221 106.854L3.11182 99.8897H3.11974Z" fill="#5F6D10"/>
<path d="M3.23868 74.1405C2.56523 74.1405 2.01855 73.5938 2.01855 72.9204V48.7318C2.01855 48.0584 2.56523 47.5117 3.23868 47.5117C3.91212 47.5117 4.4588 48.0584 4.4588 48.7318V72.9204C4.4588 73.5938 3.91212 74.1405 3.23868 74.1405Z" fill="white"/>
<path d="M41.9975 41.9023C41.324 41.9023 40.7773 41.3556 40.7773 40.6822V36.4672C40.7773 35.7937 41.324 35.2471 41.9975 35.2471C42.6709 35.2471 43.2176 35.7937 43.2176 36.4672V40.6822C43.2176 41.3556 42.6709 41.9023 41.9975 41.9023Z" fill="white"/>
<path d="M41.9975 58.865C41.324 58.865 40.7773 58.3183 40.7773 57.6449V49.1674C40.7773 48.4939 41.324 47.9473 41.9975 47.9473C42.6709 47.9473 43.2176 48.4939 43.2176 49.1674V57.6449C43.2176 58.3183 42.6709 58.865 41.9975 58.865Z" fill="white"/>
</g>
<defs>
<clipPath id="clip0_3188_14580">
<rect width="49.51" height="106.848" fill="white" transform="translate(0.450195 0.00585938)"/>
</clipPath>
</defs>
</svg>
