<svg width="324" height="55" viewBox="0 0 324 55" fill="none" xmlns="http://www.w3.org/2000/svg">
<g clip-path="url(#clip0_4551_739)">
<g clip-path="url(#clip1_4551_739)">
<path fill-rule="evenodd" clip-rule="evenodd" d="M289.223 12.7729C289.65 12.742 290.08 12.7266 290.512 12.7266C292.567 12.7266 294.683 13.0587 296.483 14.0988C298.259 15.1235 299.477 16.6889 300.113 18.6327C300.77 20.646 300.731 22.8524 300.425 24.9275C299.953 28.1045 298.756 31.1142 296.346 33.3257C294.325 35.1794 291.872 36.1063 289.225 36.338V27.2472C289.279 27.224 289.333 27.1957 289.382 27.1622C289.709 26.9485 289.938 26.6216 290.111 26.2766C290.443 25.6149 290.628 24.858 290.736 24.1268C290.832 23.4909 290.927 22.5898 290.785 21.9564C290.775 21.9127 290.757 21.8354 290.734 21.7788C290.543 21.7067 290.149 21.6912 289.995 21.6912C289.766 21.6912 289.48 21.7093 289.228 21.7762V12.7729H289.223ZM281.553 16.0658C281.733 15.883 281.921 15.7079 282.117 15.538C284.146 13.7822 286.617 12.966 289.223 12.7729V21.7762C289.102 21.8071 288.988 21.8509 288.89 21.9101C288.633 22.0671 288.455 22.34 288.329 22.6052C287.992 23.3055 287.812 24.1628 287.698 24.9275C287.611 25.5119 287.487 26.7323 287.74 27.3347C287.899 27.3836 288.195 27.3939 288.332 27.3939C288.615 27.3939 288.947 27.363 289.22 27.2446V36.3354C288.764 36.374 288.303 36.3946 287.84 36.3946C284.715 36.3946 281.592 35.5656 279.63 32.9499C279.437 32.6924 279.262 32.4272 279.105 32.1569C278.829 32.5611 278.512 32.9447 278.155 33.3C277.017 34.4302 275.647 35.2361 274.12 35.7201C272.699 36.1706 271.224 36.3946 269.736 36.3946C268.425 36.3946 267.086 36.2711 265.833 35.8746C264.898 35.5785 263.984 35.2181 263.106 34.7855L261.824 34.1573C260.91 34.8499 259.885 35.37 258.776 35.7227C257.355 36.1732 255.879 36.3972 254.391 36.3972C253.081 36.3972 251.742 36.2736 250.488 35.8771C249.554 35.5811 248.64 35.2206 247.762 34.7881L247.36 34.5899L246.194 35.0481C245.128 35.4652 244.023 35.7793 242.903 36.0136C241.572 36.2917 240.21 36.3946 238.851 36.3946C236.843 36.3946 234.863 35.9904 233.125 34.9503C231.763 34.1367 230.708 33.0245 229.969 31.6729C229.709 32.144 229.389 32.5817 229.014 32.9859C228.205 33.8535 227.232 34.5255 226.156 35.0198C225.139 35.4858 224.068 35.8231 222.971 36.0471C222.186 36.2093 221.39 36.3148 220.59 36.3637V27.2523C220.801 27.2446 221.02 27.2266 221.233 27.1931L222.034 21.7917C222.008 21.7917 221.98 21.7917 221.954 21.7917C221.506 21.7917 221.007 21.8431 220.59 22.0311V12.7909C220.924 12.7704 221.259 12.7601 221.599 12.7601C222.188 12.7601 222.773 12.8167 223.357 12.8914L224.364 6.10736H234.173L232.685 16.1353C232.778 16.0426 232.87 15.95 232.966 15.8598C235.275 13.6715 238.171 12.724 241.318 12.724C243.47 12.724 245.635 13.1771 247.36 14.5365C248.212 15.2085 248.876 16.0143 249.373 16.918C250.092 15.9397 250.982 15.1209 252.025 14.4953C252.988 13.916 254.031 13.4835 255.125 13.2235C256.116 12.9866 257.136 12.8708 258.155 12.8939C259.479 12.9223 260.877 13.0458 262.128 13.499C263.021 13.8208 263.886 14.225 264.702 14.7116L266.013 15.4942C266.43 15.1209 266.883 14.7888 267.37 14.4953C268.333 13.916 269.375 13.4835 270.469 13.2235C271.461 12.9866 272.48 12.8708 273.5 12.8939C274.823 12.9223 276.221 13.0458 277.472 13.499C278.366 13.8208 279.231 14.225 280.047 14.7116L281.615 15.6462L281.553 16.0632V16.0658ZM220.587 36.3637C220.263 36.3843 219.938 36.3921 219.611 36.3921C218.247 36.3921 216.885 36.2324 215.569 35.8668C214.864 35.6712 214.192 35.4009 213.564 35.0533L213.744 35.8797H203.319L202.194 30.3186H197.2L194.45 35.8797H183.717L183.953 35.4343C183.366 35.6094 182.769 35.7587 182.169 35.8823C180.838 36.1604 179.476 36.2633 178.117 36.2633C176.109 36.2633 174.129 35.8591 172.391 34.819C170.663 33.7866 169.428 32.2753 168.709 30.3985C167.955 28.4212 167.911 26.2714 168.22 24.1989C168.339 23.4059 168.498 22.6207 168.712 21.8534C168.236 21.8174 167.757 21.8071 167.28 21.8148C166.972 21.82 166.66 21.8303 166.351 21.8483L164.286 35.751H145.932L146.375 32.7645C146.349 32.7954 146.321 32.8237 146.293 32.8546C145.484 33.7222 144.511 34.3942 143.435 34.8885C142.418 35.3545 141.347 35.6918 140.25 35.9158C139.465 36.078 138.669 36.1835 137.869 36.2324V27.121C138.08 27.1133 138.299 27.0953 138.512 27.0618L139.313 21.6604C139.287 21.6604 139.259 21.6604 139.233 21.6604C138.785 21.6604 138.286 21.7118 137.869 21.8998V12.6648C138.203 12.6442 138.538 12.6339 138.878 12.6339C139.467 12.6339 140.052 12.6905 140.636 12.7652L141.643 5.9812H151.452L151.305 6.96984H160.151L158.975 14.8995C159.541 14.5983 160.146 14.3589 160.741 14.1297C161.815 13.7178 162.922 13.3985 164.039 13.1334C165.326 12.8296 166.642 12.6674 167.965 12.6674C168.846 12.6674 169.747 12.7189 170.599 12.9454C171.284 13.1282 171.948 13.3857 172.535 13.7847L173.686 14.5648C175.71 13.2055 178.065 12.5979 180.581 12.5979C182.733 12.5979 184.898 13.051 186.623 14.4104C188.268 15.7079 189.218 17.5076 189.612 19.5441C189.929 21.1738 189.932 22.8627 189.759 24.5207L198.724 7.67785H207.57L210.361 20.4323C210.989 18.7768 211.908 17.2527 213.195 15.9551C215.219 13.9135 217.801 12.9712 220.582 12.7935V22.0337C220.556 22.044 220.53 22.0568 220.507 22.0697C220.219 22.2139 220.026 22.4533 219.869 22.7339C219.519 23.3647 219.336 24.1886 219.23 24.894C219.138 25.5119 219.089 26.2096 219.204 26.8301C219.225 26.9434 219.251 27.0515 219.336 27.1262C219.542 27.2369 220.1 27.26 220.324 27.26C220.407 27.26 220.494 27.26 220.582 27.2549V36.3663L220.587 36.3637ZM137.871 36.2376C137.547 36.2582 137.222 36.2659 136.895 36.2659C135.531 36.2659 134.169 36.1063 132.853 35.7407C131.437 35.3494 130.155 34.6542 129.087 33.6398C128.271 32.8623 127.676 31.9278 127.264 30.9082L126.754 34.3427L125.287 34.9194C124.221 35.3365 123.116 35.6506 121.996 35.8849C120.665 36.1629 119.303 36.2659 117.944 36.2659C115.936 36.2659 113.956 35.8617 112.218 34.8216C110.709 33.9205 109.577 32.6538 108.835 31.0987C107.846 32.6074 106.567 33.8613 104.994 34.7727C103.459 35.6609 101.776 36.1089 100.027 36.2093V26.9665C100.311 26.8069 100.511 26.5495 100.671 26.2688C101.019 25.6509 101.199 24.8297 101.302 24.1345C101.402 23.4574 101.464 22.7108 101.369 22.0285C101.364 21.9847 101.343 21.8766 101.322 21.82C101.117 21.7479 100.697 21.735 100.522 21.735C100.383 21.735 100.213 21.735 100.03 21.7427V12.6313C100.432 12.6107 100.836 12.6004 101.238 12.6004C103.104 12.6004 104.955 12.9248 106.644 13.7435C108.379 14.5829 109.636 15.9499 110.418 17.6749C110.887 16.9824 111.43 16.331 112.056 15.7363C114.365 13.5479 117.262 12.6004 120.408 12.6004C122.56 12.6004 124.725 13.0536 126.45 14.4129C127.596 15.3166 128.404 16.4649 128.924 17.7676C129.37 17.0802 129.887 16.4314 130.482 15.8289C132.506 13.7873 135.088 12.845 137.871 12.6674V21.9075C137.845 21.9178 137.82 21.9307 137.796 21.9436C137.508 22.0877 137.315 22.3272 137.158 22.6078C136.808 23.2386 136.625 24.0624 136.519 24.7679C136.427 25.3858 136.378 26.0835 136.494 26.7039C136.514 26.8172 136.54 26.9254 136.625 27C136.831 27.1107 137.39 27.1339 137.614 27.1339C137.696 27.1339 137.784 27.1339 137.871 27.1287V36.2402V36.2376ZM100.03 36.2118C99.7726 36.2273 99.5151 36.235 99.2551 36.235C98.6269 36.235 98.0039 36.1732 97.3808 36.0934C97.3628 36.0934 97.3448 36.0883 97.3293 36.0857L96.4102 42.2698H86.6345L87.9836 33.1764C87.3631 33.7428 86.6757 34.2346 85.9343 34.6517V17.832C86.166 17.9298 86.3951 18.0302 86.6242 18.1332C87.582 18.5709 88.4754 19.1373 89.2503 19.853C89.4717 20.0564 89.6777 20.2727 89.8656 20.5018L89.9274 20.077L87.2679 17.9736C86.8431 17.6363 86.3951 17.3248 85.9343 17.0364H85.9317V7.22215C86.0578 7.24017 86.1814 7.25819 86.3076 7.27879C87.1366 7.41781 87.9527 7.6315 88.7354 7.9353C89.4717 8.21851 90.1875 8.55063 90.8877 8.91621L92.6076 9.81474L91.7476 15.605C91.7785 15.5741 91.8069 15.5457 91.8378 15.5148C92.6513 14.7296 93.6194 14.1426 94.6646 13.7204C95.697 13.3033 96.7809 13.0252 97.8803 12.8527C98.5909 12.742 99.304 12.6699 100.022 12.6313V21.7427C99.8344 21.7505 99.6336 21.7633 99.4456 21.7839L98.6372 27.2317C98.663 27.2317 98.6913 27.2317 98.717 27.2317C99.1367 27.2317 99.6258 27.1802 99.9992 26.9794L100.022 26.9665V36.2093L100.03 36.2118ZM85.9368 34.6517C85.7849 34.7366 85.6305 34.819 85.476 34.8988C83.6635 35.8179 81.6502 36.1655 79.6317 36.1655C78.504 36.1655 77.3738 36.1166 76.2539 35.9724C75.2524 35.8437 74.2611 35.63 73.3086 35.2953C72.4332 34.9889 71.5836 34.6002 70.7726 34.1496L69.1274 33.2331L70.8292 21.7788L74.6164 25.2622C75.2421 25.8389 76.0041 26.2431 76.8022 26.5289C77.7368 26.8661 78.7074 27.0335 79.7012 27.0335C80.005 27.0335 80.6075 27.0026 80.9344 26.8455C80.7671 26.758 80.5946 26.6833 80.4478 26.6241C79.6085 26.2869 78.7589 25.9753 77.9093 25.6638C77.1575 25.3883 76.4238 25.0665 75.7029 24.7138C74.8121 24.2761 74.0063 23.6994 73.3163 22.9888C72.5182 22.1675 71.9698 21.1686 71.6454 20.0718C71.2798 18.836 71.2901 17.5204 71.478 16.2537C71.6557 15.0643 72.0522 13.9315 72.6211 12.8733C73.2339 11.7354 74.0552 10.739 75.0284 9.8894C76.1123 8.94711 77.3815 8.27 78.7332 7.80142C80.247 7.27621 81.851 7.07025 83.4472 7.07025C84.2788 7.07025 85.113 7.10629 85.9368 7.22215V17.0338C85.5403 16.7841 85.1104 16.5859 84.6676 16.434C84.2222 16.2795 83.7356 16.2203 83.267 16.2074C82.8705 16.1971 82.42 16.2203 82.0389 16.3439C82.0106 16.3542 81.9771 16.3645 81.9411 16.3799C82.5976 16.6477 83.2644 16.8794 83.939 17.0982C84.6135 17.317 85.2803 17.5591 85.9368 17.8345V34.6542V34.6517Z" fill="#3C3C3B"/>
<path fill-rule="evenodd" clip-rule="evenodd" d="M179.417 34.0468V29.3095C179.461 29.3095 179.505 29.3095 179.551 29.3095C180.207 29.3095 180.859 29.2478 181.502 29.1165C182.115 28.9903 182.723 28.8255 183.31 28.6093C183.82 28.4239 184.327 28.2282 184.826 28.0197L185.717 27.6489L184.957 32.7698L184.664 32.8856C183.711 33.2589 182.723 33.537 181.724 33.7481C180.967 33.9052 180.195 34.0004 179.42 34.0468H179.417ZM179.417 26.0347V22.0106H182.434C182.422 21.385 182.331 20.6821 182.041 20.1904C181.6 19.4438 180.709 19.2816 179.904 19.2816C179.739 19.2816 179.577 19.2893 179.417 19.3099V14.8327C179.801 14.7967 180.189 14.7812 180.581 14.7812C182.223 14.7812 183.953 15.085 185.274 16.1252C186.502 17.0932 187.179 18.4423 187.475 19.9638C187.831 21.7892 187.715 23.751 187.424 25.579L187.352 26.0373H179.42L179.417 26.0347ZM179.417 14.8301V19.3073C178.948 19.3614 178.503 19.4978 178.083 19.7373C177.476 20.0823 177.041 20.6641 176.724 21.2717C176.6 21.5086 176.495 21.7557 176.402 22.0081H179.42V26.0321H175.723C175.753 26.7736 175.916 27.5305 176.361 28.1304C177.054 29.065 178.318 29.2915 179.42 29.307V34.0442C178.984 34.0699 178.552 34.0828 178.119 34.0828C176.51 34.0828 174.906 33.7816 173.511 32.9474C172.327 32.2394 171.467 31.2482 170.911 30.0098V22.1007C171.454 20.3037 172.337 18.6328 173.732 17.312C175.341 15.7879 177.285 15.0232 179.42 14.8276L179.417 14.8301ZM170.908 19.9252L170.978 19.9355L171.595 15.7802L171.312 15.5871C171.186 15.5021 171.05 15.4249 170.908 15.3579V19.9226V19.9252ZM170.908 15.3605V19.9252L170.437 19.8531C169.945 19.7785 169.446 19.727 168.949 19.6884C168.38 19.642 167.808 19.6291 167.237 19.6394C166.663 19.6497 166.088 19.6781 165.517 19.7218C165.159 19.7502 164.801 19.7862 164.443 19.8325L162.402 33.573H156.967L159.4 17.1833L159.608 17.0494C160.164 16.6916 160.906 16.4006 161.521 16.1638C162.499 15.7879 163.519 15.497 164.539 15.2549C165.661 14.9898 166.809 14.8482 167.963 14.8482C168.632 14.8482 169.386 14.8816 170.038 15.0541C170.329 15.1314 170.627 15.2292 170.908 15.3631V15.3605ZM170.908 22.1059C170.669 22.8937 170.496 23.7073 170.375 24.5234C170.125 26.2123 170.131 28.0094 170.746 29.6236C170.797 29.7575 170.851 29.8862 170.908 30.015V22.1059ZM148.692 33.573V32.0077L151.148 15.4583H156.581L153.926 33.5705H148.689L148.692 33.573ZM148.692 9.72476V8.15942H148.924L148.692 9.72476ZM151.29 13.8209L151.982 9.14806H157.621L156.928 13.8209H151.29ZM148.692 8.15942V9.72476L145.824 29.0495C145.693 29.9377 145.312 30.7153 144.699 31.3718C144.084 32.0309 143.345 32.5355 142.526 32.9114C141.658 33.3079 140.744 33.5936 139.812 33.7867C139.215 33.9103 138.61 33.9978 138.002 34.0442V29.3044C138.607 29.2786 139.223 29.1911 139.787 28.9877C139.998 28.9131 140.477 28.7148 140.515 28.4471L141.759 20.0771C141.429 19.8995 141.079 19.7682 140.713 19.6755C140.229 19.5545 139.735 19.4875 139.238 19.4875C138.826 19.4875 138.409 19.521 138.005 19.5983V14.843C138.296 14.825 138.589 14.8147 138.883 14.8147C139.398 14.8147 139.928 14.8713 140.438 14.9383C141.102 15.0258 141.754 15.1957 142.382 15.4274C142.402 15.4352 142.426 15.4429 142.446 15.4532L143.527 8.162H148.695L148.692 8.15942ZM148.692 32.0077L148.46 33.573H148.692V32.0077ZM138 14.8379V19.5931C137.59 19.6729 137.194 19.7991 136.818 19.987C136.131 20.332 135.624 20.8701 135.253 21.5395C134.766 22.4123 134.509 23.4601 134.362 24.441C134.233 25.3061 134.187 26.2278 134.347 27.0928C134.468 27.7468 134.756 28.2952 135.276 28.7097C135.896 29.2014 136.846 29.307 137.611 29.307C137.74 29.307 137.869 29.307 138 29.2992V34.039C137.632 34.0674 137.264 34.0828 136.895 34.0828C135.727 34.0828 134.563 33.9489 133.435 33.6374C132.362 33.3413 131.399 32.8264 130.588 32.0566C129.71 31.2225 129.203 30.1205 128.927 28.9568C128.564 27.4353 128.67 25.7129 128.896 24.1784C129.275 21.6347 130.191 19.2121 132.029 17.3584C133.664 15.7081 135.752 14.982 138 14.8379ZM119.244 34.0442V29.307C119.288 29.307 119.334 29.307 119.378 29.307C120.034 29.307 120.686 29.2452 121.329 29.1139C121.942 28.9877 122.55 28.823 123.137 28.6067C123.647 28.4213 124.154 28.2256 124.653 28.0171L125.544 27.6464L124.785 32.7672L124.491 32.8831C123.538 33.2564 122.55 33.5344 121.551 33.7455C120.794 33.9026 120.022 33.9978 119.247 34.0442H119.244ZM119.244 26.0321V22.0081H122.261C122.249 21.3824 122.159 20.6796 121.868 20.1878C121.427 19.4412 120.537 19.279 119.731 19.279C119.566 19.279 119.404 19.2867 119.244 19.3073V14.8301C119.628 14.7941 120.014 14.7787 120.408 14.7787C122.05 14.7787 123.78 15.0825 125.101 16.1226C126.329 17.0906 127.006 18.4397 127.303 19.9613C127.658 21.7866 127.542 23.7485 127.251 25.5764L127.179 26.0347H119.247L119.244 26.0321ZM119.244 14.8276V19.3048C118.776 19.3588 118.33 19.4953 117.91 19.7347C117.303 20.0797 116.868 20.6616 116.551 21.2692C116.428 21.506 116.322 21.7532 116.229 22.0055H119.247V26.0295H115.55C115.58 26.771 115.743 27.5279 116.188 28.1278C116.881 29.0624 118.145 29.2889 119.247 29.3044V34.0416C118.812 34.0674 118.379 34.0802 117.947 34.0802C116.337 34.0802 114.733 33.779 113.338 32.9448C112.033 32.1647 111.119 31.0397 110.576 29.6185C109.96 28.0042 109.955 26.2072 110.205 24.5183C110.604 21.8381 111.554 19.2121 113.559 17.312C115.169 15.7879 117.112 15.0232 119.247 14.8276H119.244ZM99.8987 34.0287V29.2992C100.295 29.2194 100.681 29.0881 101.039 28.895C101.706 28.5346 102.2 27.9888 102.571 27.3348C103.058 26.4698 103.313 25.4245 103.457 24.4513C103.588 23.5631 103.65 22.6182 103.526 21.7248C103.439 21.0967 103.202 20.5354 102.708 20.1235C102.141 19.6472 101.227 19.5519 100.517 19.5519C100.321 19.5519 100.112 19.5545 99.8962 19.5648V14.8224C100.342 14.7941 100.787 14.7787 101.235 14.7787C102.769 14.7787 104.304 15.031 105.692 15.7029C107.069 16.3697 108.004 17.4768 108.567 18.8928C109.273 20.6667 109.154 22.8989 108.881 24.7525C108.627 26.4672 108.101 28.1278 107.195 29.6133C106.366 30.9701 105.28 32.0901 103.9 32.8882C102.661 33.6039 101.304 33.9541 99.8962 34.0339L99.8987 34.0287ZM89.6957 10.7469C89.7575 10.7778 89.8219 10.8112 89.8837 10.8447L90.2286 11.0249L89.6957 14.6087V10.7494V10.7469ZM99.8987 14.8173V19.5596C99.2911 19.5854 98.6398 19.66 98.1171 19.8531C97.9009 19.9329 97.4941 20.108 97.4555 20.3783L96.2042 28.8101C96.5466 28.9877 96.9071 29.1242 97.283 29.2194C97.7541 29.3379 98.2381 29.4074 98.7247 29.4074C99.1186 29.4074 99.5151 29.3765 99.9013 29.2967V34.0262C99.6876 34.039 99.4714 34.0442 99.2551 34.0442C98.7247 34.0442 98.1789 33.9875 97.6537 33.9206C96.9612 33.8331 96.284 33.6657 95.6275 33.4314C95.5941 33.4186 95.558 33.4057 95.5245 33.3928L94.5308 40.0816H89.6957V36.4978L92.26 19.2275C92.3836 18.3882 92.7492 17.6622 93.3593 17.0726C93.9695 16.483 94.7058 16.0479 95.4885 15.7312C96.3639 15.376 97.2881 15.1442 98.2201 14.9975C98.7762 14.9125 99.3375 14.8507 99.8987 14.8121V14.8173ZM79.6291 33.9772C78.5967 33.9772 77.554 33.9335 76.5319 33.8022C75.6823 33.694 74.8378 33.5138 74.0294 33.2306C73.2699 32.9654 72.5362 32.6282 71.8359 32.2368L71.5063 32.054L72.3817 26.1608L73.1386 26.8586C73.9805 27.6335 74.9872 28.1845 76.0608 28.5706C77.2348 28.9929 78.4525 29.204 79.7012 29.204C80.5637 29.204 81.5523 29.0778 82.2784 28.5681C82.8808 28.1458 83.1949 27.5588 83.3005 26.8354C83.37 26.3617 83.3005 25.942 82.9478 25.6022C82.4818 25.1542 81.8561 24.8298 81.2614 24.5904C80.4015 24.2454 79.5313 23.9261 78.6611 23.6069C77.9814 23.3571 77.3172 23.0662 76.6684 22.7495C76.0041 22.4226 75.4017 21.9952 74.8842 21.4622C74.3332 20.8933 73.9625 20.2033 73.7385 19.4464C73.4656 18.5272 73.4965 17.5077 73.6381 16.568C73.7771 15.6283 74.0964 14.7349 74.5443 13.9007C75.0309 12.9945 75.6875 12.2067 76.4624 11.5295C77.3326 10.77 78.3624 10.2345 79.4515 9.85607C80.7336 9.41067 82.1007 9.24589 83.4524 9.24589C84.284 9.24589 85.1361 9.28709 85.9574 9.42354C86.6423 9.5394 87.3168 9.71447 87.9656 9.9642C88.5577 10.1933 89.137 10.4559 89.7034 10.7443V14.6036L89.3713 16.8383L88.6324 16.2539C88.1432 15.8677 87.6335 15.5098 87.1057 15.1803C86.565 14.8404 85.9883 14.5727 85.3859 14.3641C84.7268 14.1376 84.0291 14.0372 83.3365 14.0192C82.6774 14.0011 81.9952 14.0578 81.367 14.2637C80.8881 14.4208 80.4401 14.6654 80.0951 15.0387C79.7862 15.3734 79.606 15.7647 79.539 16.2153C79.4747 16.6452 79.4901 17.1292 79.7733 17.4845C80.0951 17.8887 80.5817 18.1668 81.0529 18.3599C81.7815 18.6585 82.5281 18.9211 83.2799 19.1631C84.1115 19.4309 84.9327 19.7424 85.7283 20.108C86.4775 20.4504 87.1778 20.8881 87.7854 21.4494C88.4007 22.0158 88.8255 22.7135 89.0804 23.509C89.3765 24.4359 89.3584 25.4631 89.2168 26.4157C89.0134 27.7802 88.514 29.0366 87.7339 30.1746C86.91 31.3795 85.8004 32.2883 84.5028 32.9448C83.0018 33.7043 81.3129 33.9747 79.642 33.9747L79.6291 33.9772ZM89.6957 36.5003V40.0841H89.1628L89.6957 36.5003Z" fill="#AFCA0B"/>
<path fill-rule="evenodd" clip-rule="evenodd" d="M289.22 34.142V29.5C289.699 29.4151 290.16 29.2529 290.574 28.98C291.231 28.55 291.707 27.945 292.057 27.2473C292.495 26.3745 292.747 25.4064 292.889 24.4436C293.028 23.5116 293.118 22.3993 292.907 21.4725C292.773 20.8829 292.51 20.3423 292.001 19.9947C291.432 19.6059 290.662 19.5081 289.987 19.5081C289.732 19.5081 289.472 19.5235 289.217 19.557V14.9588C289.645 14.9228 290.075 14.9048 290.51 14.9048C292.163 14.9048 293.939 15.1468 295.391 15.9835C296.702 16.7404 297.569 17.8732 298.038 19.3047C298.584 20.9756 298.519 22.8834 298.264 24.6032C297.868 27.2756 296.897 29.8527 294.869 31.7142C293.259 33.1894 291.318 33.9283 289.22 34.142ZM289.22 14.9588V19.557C288.708 19.6265 288.206 19.7733 287.76 20.0436C287.129 20.4272 286.681 20.9962 286.365 21.6553C285.93 22.559 285.69 23.6145 285.543 24.6032C285.371 25.772 285.278 27.3322 285.845 28.4161C286.334 29.3533 287.353 29.5721 288.337 29.5721C288.636 29.5721 288.934 29.5489 289.223 29.5V34.142C288.769 34.1883 288.309 34.2115 287.843 34.2115C285.438 34.2115 282.899 33.6683 281.378 31.6395C279.854 29.6082 279.81 26.8534 280.168 24.4436C280.559 21.802 281.46 18.988 283.546 17.1858C285.168 15.7827 287.147 15.1365 289.225 14.9588H289.22ZM263.801 32.6951V32.0128L264.478 27.4429L265.204 27.9681C265.675 28.308 266.165 28.6195 266.667 28.9104C267.184 29.2065 267.738 29.4305 268.312 29.5927C268.963 29.7755 269.648 29.845 270.323 29.845C270.899 29.845 271.594 29.7678 272.084 29.4305C272.416 29.2014 272.653 28.9104 272.712 28.5037C272.745 28.2745 272.722 28.0789 272.542 27.9218C272.246 27.6669 271.852 27.4867 271.486 27.358C270.948 27.17 270.405 26.9924 269.862 26.8225C269.28 26.6757 268.711 26.4852 268.157 26.2535C267.563 26.0063 267.022 25.6665 266.548 25.2314C266.036 24.7602 265.688 24.1732 265.477 23.5141C265.225 22.7315 265.238 21.8716 265.356 21.0657C265.508 20.0462 265.843 19.0704 266.453 18.2311C267.007 17.4742 267.686 16.846 268.49 16.362C269.262 15.896 270.091 15.551 270.969 15.3424C271.782 15.1493 272.611 15.0541 273.448 15.0721C274.504 15.0953 275.727 15.1854 276.728 15.5484C277.49 15.8239 278.229 16.1663 278.927 16.5834L279.241 16.7713L278.541 21.4802L277.843 21.0683C277.153 20.6615 276.455 20.2727 275.742 19.9072C275.055 19.5544 274.259 19.4386 273.494 19.4386C272.882 19.4386 272.174 19.5158 271.633 19.8273C271.278 20.0307 271.038 20.3036 270.977 20.713C270.941 20.955 270.946 21.2202 271.118 21.4133C271.342 21.6656 271.664 21.8329 271.975 21.9462C272.462 22.1239 272.956 22.2835 273.453 22.4302C274.022 22.5976 274.589 22.7752 275.153 22.9658C275.773 23.1743 276.355 23.4729 276.885 23.8617C277.475 24.2942 277.889 24.8761 278.152 25.5532C278.476 26.3899 278.461 27.3503 278.322 28.223C278.111 29.5592 277.583 30.7873 276.615 31.7476C275.721 32.6333 274.656 33.2563 273.456 33.6374C272.248 34.021 270.997 34.2089 269.73 34.2089C268.657 34.2089 267.514 34.1162 266.486 33.7918C265.655 33.5292 264.844 33.2074 264.061 32.8238L263.799 32.6951H263.801ZM263.801 17.4072L263.896 16.7713L263.801 16.7147V17.4072ZM263.801 16.7147V17.4072L263.196 21.4828L262.498 21.0709C261.809 20.6641 261.111 20.2753 260.4 19.9097C259.713 19.557 258.917 19.4412 258.153 19.4412C257.54 19.4412 256.832 19.5184 256.291 19.8299C255.936 20.0333 255.696 20.3062 255.635 20.7156C255.599 20.9576 255.604 21.2228 255.776 21.4159C256 21.6682 256.322 21.8355 256.634 21.9488C257.12 22.1264 257.615 22.2861 258.111 22.4328C258.68 22.6002 259.247 22.7778 259.811 22.9683C260.431 23.1769 261.013 23.4755 261.543 23.8643C262.133 24.2968 262.547 24.8787 262.81 25.5558C263.134 26.3925 263.119 27.3528 262.98 28.2256C262.769 29.5618 262.241 30.7899 261.273 31.7502C260.38 32.6358 259.314 33.2589 258.117 33.6399C256.909 34.0235 255.658 34.2115 254.391 34.2115C253.318 34.2115 252.174 34.1188 251.147 33.7944C250.316 33.5318 249.505 33.21 248.722 32.8264L248.398 32.6667V32.4299L249.136 27.4481L249.862 27.9733C250.334 28.3131 250.823 28.6247 251.325 28.9156C251.842 29.2117 252.396 29.4357 252.97 29.5979C253.621 29.7806 254.306 29.8502 254.981 29.8502C255.557 29.8502 256.253 29.7729 256.742 29.4357C257.074 29.2065 257.308 28.9156 257.37 28.5088C257.403 28.2797 257.38 28.084 257.2 27.927C256.904 27.6721 256.51 27.4919 256.144 27.3631C255.606 27.1752 255.063 26.9975 254.52 26.8276C253.938 26.6809 253.369 26.4903 252.816 26.2586C252.221 26.0115 251.68 25.6716 251.206 25.2365C250.694 24.7654 250.346 24.1784 250.135 23.5193C249.883 22.7366 249.896 21.8767 250.014 21.0709C250.166 20.0513 250.501 19.0756 251.111 18.2363C251.665 17.4793 252.344 16.8511 253.148 16.3671C253.92 15.9011 254.749 15.5561 255.627 15.3476C256.441 15.1545 257.27 15.0592 258.106 15.0773C259.162 15.1004 260.385 15.1905 261.386 15.5536C262.148 15.829 262.887 16.1715 263.585 16.5885L263.804 16.7198L263.801 16.7147ZM263.801 32.0128L263.706 32.6487L263.801 32.6951V32.0128ZM248.392 23.5785C248.434 22.9014 248.439 22.2191 248.392 21.5446V23.5785ZM248.392 21.5446V23.5785C248.349 24.2942 248.264 25.0074 248.153 25.6999L248.081 26.1582H240.149V22.1342H243.166C243.153 21.5085 243.063 20.8057 242.772 20.3139C242.332 19.5673 241.441 19.4051 240.635 19.4051C240.47 19.4051 240.308 19.4128 240.149 19.4334V14.9563C240.532 14.9202 240.921 14.9048 241.312 14.9048C242.955 14.9048 244.685 15.2086 246.006 16.2487C247.234 17.2167 247.911 18.5658 248.207 20.0874C248.3 20.5663 248.361 21.0554 248.395 21.5472L248.392 21.5446ZM248.392 32.4247V32.6616L248.359 32.6461L248.392 32.4247ZM240.149 34.1703V29.4331C240.192 29.4331 240.236 29.4331 240.282 29.4331C240.939 29.4331 241.59 29.3713 242.234 29.24C242.847 29.1138 243.454 28.9491 244.041 28.7328C244.551 28.5474 245.058 28.3518 245.558 28.1432L246.449 27.7725L245.689 32.8933L245.396 33.0092C244.443 33.3825 243.454 33.6605 242.455 33.8716C241.698 34.0287 240.926 34.124 240.151 34.1703H240.149ZM240.149 14.9537V19.4309C239.68 19.4849 239.235 19.6214 238.815 19.8608C238.207 20.2058 237.772 20.7877 237.456 21.3953C237.332 21.6321 237.226 21.8793 237.134 22.1316H240.151V26.1556H236.454C236.485 26.8971 236.65 27.654 237.093 28.2539C237.785 29.1885 239.049 29.4151 240.151 29.4305V34.1677C239.716 34.1935 239.284 34.2063 238.851 34.2063C237.242 34.2063 235.638 33.9051 234.243 33.071C232.937 32.2909 232.023 31.1658 231.48 29.7446C231.413 29.567 231.351 29.3867 231.297 29.2039V23.5811C231.776 21.2794 232.724 19.0859 234.461 17.4381C236.07 15.914 238.014 15.1493 240.149 14.9537ZM231.295 10.6026V8.28296H231.64L231.295 10.6026ZM231.295 8.28296V10.6026L228.537 29.1705C228.406 30.0587 228.025 30.8362 227.412 31.4927C226.797 32.1518 226.058 32.6564 225.239 33.0323C224.372 33.4288 223.458 33.7146 222.526 33.9077C221.928 34.0313 221.323 34.1188 220.716 34.1651V29.4254C221.321 29.3996 221.936 29.3121 222.5 29.1087C222.711 29.034 223.19 28.8358 223.229 28.568L224.472 20.1981C224.142 20.0204 223.792 19.8891 223.427 19.7965C222.943 19.6754 222.448 19.6085 221.952 19.6085C221.54 19.6085 221.123 19.642 220.718 19.7192V14.964C221.009 14.946 221.303 14.9357 221.596 14.9357C222.111 14.9357 222.642 14.9923 223.151 15.0592C223.816 15.1468 224.467 15.3167 225.095 15.5484C225.116 15.5561 225.139 15.5639 225.159 15.5742L226.241 8.28296H231.297H231.295ZM231.295 23.5811C231.22 23.9338 231.158 24.2891 231.107 24.6444C230.883 26.1479 230.862 27.7364 231.295 29.2065V23.5836V23.5811ZM203.976 28.1355H200.588V23.4987H203.036L201.612 16.4727L200.588 18.5478V9.85602H205.819L211.038 33.6992H205.106L203.981 28.1381L203.976 28.1355ZM220.716 14.964V19.7192C220.306 19.799 219.91 19.9252 219.534 20.1131C218.847 20.4581 218.339 20.9962 217.969 21.6656C217.482 22.5384 217.225 23.5862 217.078 24.5671C216.949 25.4322 216.903 26.3539 217.062 27.2189C217.183 27.8729 217.472 28.4213 217.992 28.8358C218.612 29.3275 219.562 29.4331 220.327 29.4331C220.456 29.4331 220.584 29.4331 220.713 29.4254V34.1651C220.345 34.1935 219.977 34.2089 219.609 34.2089C218.44 34.2089 217.276 34.075 216.148 33.7635C215.075 33.4674 214.112 32.9525 213.301 32.1827C212.423 31.3486 211.916 30.2466 211.64 29.0829C211.277 27.5614 211.383 25.839 211.609 24.3045C211.988 21.7609 212.904 19.3382 214.743 17.4845C216.378 15.8342 218.466 15.1082 220.713 14.964H220.716ZM200.588 28.1355H195.845L193.096 33.6966H187.347L200.039 9.85345H200.59V18.5478L198.142 23.4987H200.59V28.1355H200.588Z" fill="#FFDA00"/>
<path fill-rule="evenodd" clip-rule="evenodd" d="M33.8919 45.7146L18.2565 32.4685L18.0454 32.2882L18.0248 32.0128L16.0836 5.26551L16.0398 4.66821L16.6345 4.57038L40.8484 0.615834L41.0106 0.590088L41.1676 0.644154L59.8359 7.1295L60.3044 7.2917L60.2761 7.78602L58.7288 35.3983L58.7056 35.8128L58.3246 35.9699L34.569 45.8202L34.1983 45.9721L33.8919 45.7146Z" fill="#3C3C3B"/>
<path fill-rule="evenodd" clip-rule="evenodd" d="M19.8269 5.7213L34.1827 12.6958L55.4796 7.44112L40.9024 2.24048L19.8269 5.7213Z" fill="#AFCA0B"/>
<path fill-rule="evenodd" clip-rule="evenodd" d="M34.9423 14.915L58.044 8.80298L57.0991 34.5487L34.5845 43.9742L34.9423 14.915Z" fill="#FFDA00"/>
<path fill-rule="evenodd" clip-rule="evenodd" d="M38.6753 25.6046L47.0839 22.7932L46.7106 37.1027L38.3535 40.3981L38.6753 25.6046Z" fill="white" stroke="white" stroke-width="0.146751" stroke-miterlimit="22.93"/>
<path fill-rule="evenodd" clip-rule="evenodd" d="M39.4607 29.5823L45.0475 27.896V28.5242L39.4607 30.2131V29.5823Z" fill="#1D1D1B"/>
<path fill-rule="evenodd" clip-rule="evenodd" d="M39.4993 28.4289L45.0861 26.74V27.3708L39.4993 29.0571V28.4289Z" fill="#1D1D1B"/>
<path fill-rule="evenodd" clip-rule="evenodd" d="M39.489 27.2343L45.0784 25.5454V26.1762L39.489 27.8625V27.2343Z" fill="#1D1D1B"/>
<path fill-rule="evenodd" clip-rule="evenodd" d="M39.4194 26.0809L43.0496 24.9841V25.6149L39.4194 26.7091V26.0809Z" fill="#1D1D1B"/>
<path fill-rule="evenodd" clip-rule="evenodd" d="M39.3242 33.7043L39.6229 33.5962V39.1315L39.3242 39.2371V33.7043Z" fill="#1D1D1B"/>
<path fill-rule="evenodd" clip-rule="evenodd" d="M40.0811 33.4288L40.3771 33.3232V38.856L40.0811 38.9641V33.4288Z" fill="#1D1D1B"/>
<path fill-rule="evenodd" clip-rule="evenodd" d="M40.6631 33.2176L40.9592 33.1121V38.6448L40.6631 38.753V33.2176Z" fill="#1D1D1B"/>
<path fill-rule="evenodd" clip-rule="evenodd" d="M41.3916 32.9551L42.1357 32.6848V38.2176L41.3916 38.4879V32.9551Z" fill="#1D1D1B"/>
<path fill-rule="evenodd" clip-rule="evenodd" d="M42.2954 32.6256L42.8541 32.4248V37.9576L42.2954 38.161V32.6256Z" fill="#1D1D1B"/>
<path fill-rule="evenodd" clip-rule="evenodd" d="M43.1011 32.3345L43.3791 32.2341V37.7669L43.1011 37.8673V32.3345Z" fill="#1D1D1B"/>
<path fill-rule="evenodd" clip-rule="evenodd" d="M43.9507 32.0257L44.2287 31.9253V37.4581L43.9507 37.5585V32.0257Z" fill="#1D1D1B"/>
<path fill-rule="evenodd" clip-rule="evenodd" d="M44.6021 31.7888L44.8981 31.6807V37.216L44.6021 37.3241V31.7888Z" fill="#1D1D1B"/>
<path fill-rule="evenodd" clip-rule="evenodd" d="M45.0603 31.624L45.3564 31.5159V37.0486L45.0603 37.1568V31.624Z" fill="#1D1D1B"/>
<path fill-rule="evenodd" clip-rule="evenodd" d="M41.4225 31.5312V31.4153L41.6027 31.351L41.492 31.0935C41.4611 31.024 41.4379 30.9622 41.4225 30.9133V30.7846L41.4972 30.7588L41.9271 31.6779L41.7675 31.7346L41.6465 31.454L41.4225 31.5338V31.5312ZM42.7896 30.9983L42.9286 30.9854C42.9003 31.1115 42.8462 31.2197 42.7716 31.3072C42.6943 31.3947 42.6016 31.4591 42.4935 31.4977C42.3802 31.5389 42.2876 31.5466 42.2155 31.526C42.1434 31.5029 42.0893 31.4565 42.0533 31.3793C42.0172 31.3046 41.9966 31.2145 41.9966 31.1115C41.9966 31.0008 42.0172 30.8953 42.0584 30.7974C42.0996 30.6996 42.1614 30.6146 42.2386 30.5451C42.3159 30.4756 42.4008 30.4241 42.4935 30.3907C42.5991 30.3546 42.6866 30.3495 42.7587 30.3778C42.8308 30.4061 42.8797 30.4653 42.908 30.5554L42.7716 30.6378C42.7484 30.5683 42.7124 30.5245 42.666 30.5065C42.6197 30.4859 42.5605 30.4911 42.4909 30.5142C42.4111 30.5426 42.3416 30.5863 42.2876 30.6455C42.2335 30.7048 42.1949 30.7691 42.1743 30.8438C42.1511 30.9184 42.1408 30.9905 42.1408 31.06C42.1408 31.1502 42.1537 31.2248 42.1794 31.284C42.2052 31.3433 42.2464 31.3793 42.3004 31.3922C42.3545 31.4076 42.4163 31.4025 42.4781 31.3793C42.5553 31.351 42.6222 31.3046 42.6763 31.2403C42.7304 31.1759 42.7664 31.0961 42.787 30.9983H42.7896ZM43.096 31.266V30.1976L43.235 30.1486V30.679L43.7602 29.9633L43.9482 29.8963L43.5053 30.4859L43.9662 30.9596L43.7808 31.024L43.4049 30.6172L43.2324 30.8464V31.2171L43.0934 31.266H43.096ZM44.1078 30.9081V29.8397L44.2468 29.7908V30.8592L44.1078 30.9081ZM44.4914 30.7717V29.7032L44.6356 29.6518L45.1891 30.2954V29.4561L45.323 29.4097V30.4782L45.1788 30.5297L44.6253 29.886V30.7254L44.4914 30.7717ZM46.0516 29.8011V29.6749L46.4996 29.5179V29.9144C46.43 29.9942 46.3605 30.0611 46.2859 30.1152C46.2138 30.1692 46.1391 30.2079 46.0619 30.2362C45.9589 30.2722 45.8636 30.2825 45.7787 30.2697C45.6937 30.2542 45.6293 30.213 45.5882 30.1409C45.5444 30.0714 45.5238 29.9839 45.5238 29.8783C45.5238 29.7728 45.5444 29.6698 45.5882 29.5642C45.6319 29.4587 45.6937 29.3711 45.7735 29.299C45.8533 29.227 45.946 29.1729 46.0516 29.1343C46.1288 29.1085 46.1958 29.0956 46.2575 29.0982C46.3193 29.1008 46.3683 29.1188 46.4017 29.1523C46.4378 29.1858 46.4635 29.2347 46.4815 29.299L46.3554 29.3789C46.3399 29.3299 46.3193 29.2939 46.2962 29.2707C46.273 29.2475 46.2395 29.2347 46.1958 29.2321C46.152 29.2295 46.1031 29.2372 46.0516 29.2553C45.9872 29.2784 45.9331 29.3068 45.8868 29.3428C45.8405 29.3789 45.8018 29.4175 45.7735 29.4612C45.7452 29.5024 45.722 29.5462 45.7066 29.59C45.6808 29.6646 45.6654 29.7419 45.6654 29.8191C45.6654 29.9144 45.6808 29.989 45.7143 30.0431C45.7478 30.0972 45.7941 30.1281 45.8559 30.1358C45.9177 30.1461 45.9846 30.1358 46.0542 30.1126C46.1134 30.092 46.1726 30.0585 46.2318 30.0148C46.2884 29.971 46.3322 29.9298 46.3631 29.8938V29.6929L46.0542 29.8011H46.0516ZM41.4225 30.7846V30.9133L41.4173 30.8953C41.4019 30.9699 41.3839 31.0446 41.3581 31.1218L41.2423 31.4771L41.4225 31.4128V31.5286L41.2011 31.6059L41.0878 31.9714L40.9385 32.0229L41.3427 30.8103L41.4199 30.782L41.4225 30.7846ZM40.4133 31.7552V31.6136L40.4339 31.6059C40.4982 31.5827 40.5471 31.5595 40.5832 31.5338C40.6192 31.508 40.645 31.4771 40.6656 31.4411C40.6836 31.405 40.6939 31.369 40.6939 31.3355C40.6939 31.284 40.6759 31.248 40.6398 31.23C40.6038 31.2094 40.5471 31.2145 40.4699 31.2403L40.4158 31.2583V31.1399L40.4648 31.1218C40.56 31.0884 40.6295 31.0729 40.6784 31.0755C40.7274 31.0755 40.766 31.0961 40.7969 31.1347C40.8252 31.1733 40.8406 31.2222 40.8406 31.2815C40.8406 31.3587 40.8175 31.4308 40.7686 31.5003C40.7196 31.5698 40.645 31.629 40.5446 31.6779C40.5832 31.6831 40.6089 31.6908 40.6295 31.7011C40.6707 31.7243 40.7093 31.7578 40.7454 31.8041L40.9282 32.0307L40.7531 32.0925L40.6141 31.92C40.5729 31.871 40.5394 31.8324 40.5137 31.8092C40.4879 31.7835 40.4648 31.7681 40.4442 31.7629C40.4364 31.7629 40.4287 31.7578 40.421 31.7578L40.4133 31.7552ZM39.3603 32.5816V31.6368L39.0127 31.7603V31.6342L39.8494 31.3407V31.4668L39.5019 31.5904V32.5353L39.3628 32.5842L39.3603 32.5816ZM40.4133 31.1399V31.2583L40.1326 31.3561V31.7114L40.4133 31.6136V31.7552C40.4004 31.7552 40.3875 31.7552 40.3721 31.7552C40.3566 31.7552 40.3309 31.7655 40.2948 31.7784L40.1326 31.835V32.3087L39.9936 32.3576V31.2892L40.4133 31.1424V31.1399Z" fill="#1D1D1B"/>
<path fill-rule="evenodd" clip-rule="evenodd" d="M45.6243 31.333L45.9229 31.2249V36.7576L45.6243 36.8657V31.333Z" fill="#1D1D1B"/>
<path fill-rule="evenodd" clip-rule="evenodd" d="M304.809 9.67312C305.682 9.67312 306.472 10.0516 307.044 10.6643C307.61 11.2719 307.96 12.1087 307.96 13.0329C307.96 13.9572 307.61 14.7939 307.044 15.4015C306.472 16.0143 305.682 16.3928 304.809 16.3928V15.865H304.943L304.958 15.8598H305.01L305.018 15.8547H305.046L305.074 15.8495H305.108L305.136 15.8418H305.141L305.164 15.8366H305.172L305.193 15.8315L305.218 15.8263H305.236L305.249 15.8212H305.267L305.278 15.8161L305.301 15.8109H305.308L305.334 15.8032H305.337L305.365 15.7955L305.393 15.7877H305.396L305.422 15.78H305.429L305.45 15.7723H305.463L305.489 15.762H305.491L305.507 15.7568L305.522 15.7517H305.532L305.553 15.7414H305.561L305.584 15.7311H305.589L305.615 15.7208L305.643 15.7105L305.669 15.7002H305.674L305.697 15.6899H305.705V15.6847L305.733 15.6744L305.749 15.6667L305.762 15.6616L305.774 15.6564H305.782L305.8 15.6461L305.821 15.6358H305.826L305.849 15.623H305.852L305.877 15.6101L305.903 15.5972H305.906L305.929 15.5843C305.944 15.5766 305.96 15.5689 305.975 15.5586H305.98L305.998 15.5457H306.001L306.016 15.5354L306.042 15.52L306.05 15.5148L306.071 15.502H306.076L306.099 15.4865L306.122 15.4711L306.145 15.4556L306.168 15.4402L306.176 15.435L306.194 15.4247L306.235 15.3938L306.243 15.3887L306.284 15.3578L306.305 15.3423H306.307L306.331 15.3217L306.354 15.3037L306.374 15.2857L306.398 15.2677L306.405 15.2599L306.421 15.2471L306.431 15.2393L306.444 15.229L306.464 15.211H306.467L306.488 15.1904H306.127L305.602 14.3614C305.45 14.122 305.321 13.9392 305.223 13.813C305.123 13.6869 305.036 13.5968 304.956 13.5479C304.904 13.5144 304.85 13.4886 304.799 13.468V12.9686H304.945C305.185 12.9686 305.373 12.9428 305.509 12.8939C305.643 12.845 305.746 12.7652 305.816 12.6545C305.885 12.5463 305.921 12.4279 305.921 12.2992C305.921 12.1112 305.854 11.9542 305.718 11.8332C305.581 11.7122 305.368 11.6504 305.074 11.6504H304.801V11.2101H305.054C305.409 11.2101 305.679 11.2462 305.862 11.3183C306.047 11.3904 306.194 11.5165 306.305 11.6967C306.416 11.877 306.47 12.0778 306.47 12.2966C306.47 12.5798 306.377 12.8167 306.194 13.0098C306.011 13.2029 305.731 13.3264 305.347 13.3779C305.486 13.4449 305.592 13.5118 305.664 13.5762C305.818 13.7178 305.962 13.8928 306.099 14.1065L306.673 15.0102C306.701 14.9793 306.73 14.9458 306.758 14.9124L306.776 14.8892L306.794 14.8635C306.815 14.8377 306.833 14.8094 306.853 14.7836C306.905 14.7141 306.954 14.6395 306.997 14.5648V14.5597L307.015 14.5365C307.026 14.5185 307.039 14.4979 307.049 14.4798V14.4747L307.064 14.4515V14.4464L307.08 14.4232V14.4155L307.095 14.3923V14.3846L307.111 14.3614L307.126 14.3305L307.131 14.3228L307.142 14.3022L307.147 14.2919L307.157 14.2713L307.17 14.243L307.183 14.2121L307.206 14.1529V14.1477L307.214 14.1349L307.221 14.1168L307.227 14.104L307.234 14.0859L307.239 14.0731L307.245 14.055V14.0499L307.265 13.9958V13.9855C307.275 13.9675 307.281 13.9469 307.286 13.9289L307.291 13.9083L307.296 13.8928L307.301 13.8748V13.8697L307.309 13.8465V13.8414L307.314 13.8285V13.8233L307.322 13.7976L307.327 13.7744V13.7615L307.335 13.7409L307.34 13.71V13.6946L307.348 13.6714V13.6534L307.355 13.6277L307.36 13.6019V13.5916L307.368 13.5659V13.5556L307.373 13.5298V13.5221L307.378 13.4964V13.4886L307.384 13.4552V13.4268L307.389 13.4191V13.3908L307.394 13.3831V13.347L307.402 13.3161V13.2801L307.407 13.2441V13.208V13.172V13.1359V13.0999V13.0638V13.0278C307.407 12.2425 307.111 11.532 306.632 11.0196C306.158 10.5124 305.504 10.1983 304.783 10.1983V9.67054L304.809 9.67312ZM304.809 9.67312V10.2009C304.088 10.2009 303.434 10.515 302.96 11.0222C302.482 11.5345 302.186 12.2451 302.186 13.0304C302.186 13.8156 302.482 14.5262 302.96 15.0385C303.434 15.5457 304.088 15.8598 304.809 15.8598V16.3876C303.936 16.3876 303.146 16.0091 302.574 15.3964C302.008 14.7888 301.658 13.9521 301.658 13.0278C301.658 12.1035 302.008 11.2668 302.574 10.6592C303.146 10.0464 303.936 9.66797 304.809 9.66797V9.67312ZM304.809 11.2127H303.298V15.193H303.826V13.4243H304.436C304.572 13.4243 304.67 13.4294 304.729 13.4423C304.758 13.45 304.783 13.4577 304.812 13.468V12.9686H303.828V11.6504H304.812V11.2101L304.809 11.2127Z" fill="#3C3C3B"/>
<path fill-rule="evenodd" clip-rule="evenodd" d="M266.996 51.1934V49.4684C267.37 49.6615 267.825 49.6152 268.222 49.4942C268.43 49.4272 268.618 49.3474 268.783 49.2573C268.92 49.1749 269.028 49.1311 269.159 49.0256C269.239 49.2135 269.311 49.3835 269.37 49.5328C269.434 49.6821 269.481 49.8108 269.519 49.919C269.146 50.282 268.804 50.56 268.5 50.7454C268.127 50.972 267.552 51.1651 266.999 51.1934H266.996ZM266.996 48.2094V46.9479C267.03 46.9144 267.063 46.881 267.097 46.8475C267.169 46.7703 267.236 46.6982 267.3 46.6261C267.38 46.536 267.442 46.4484 267.48 46.3558C267.522 46.2656 267.542 46.173 267.545 46.0854C267.545 46.0262 267.537 45.9799 267.514 45.9438C267.491 45.9078 267.46 45.8898 267.413 45.8898C267.305 45.8898 267.166 45.9953 266.999 46.2116V44.466C267.141 44.3399 267.285 44.2189 267.434 44.1004C267.511 44.0747 267.601 44.0541 267.697 44.0335C269.677 43.6241 268.793 46.1343 268.088 47.0226C267.807 47.3727 267.444 47.7692 266.999 48.2069L266.996 48.2094ZM272.305 42.1824C272.269 42.1952 272.225 42.203 272.179 42.203L272.014 42.0974L271.986 41.961C271.988 41.8116 272.04 41.5979 272.14 41.3122C272.238 41.029 272.285 40.8204 272.274 40.684V40.1716C272.261 40.0789 272.267 39.9811 272.292 39.8653C272.318 39.752 272.357 39.6413 272.411 39.5203C272.612 39.0182 273 38.941 273.402 38.6372C273.513 38.5471 273.613 38.4621 273.708 38.3694C273.873 38.2613 274.022 38.1738 274.156 38.1094C274.29 38.0476 274.409 38.0141 274.512 38.0141C274.597 38.0141 274.656 38.0528 274.692 38.1377C274.728 38.2175 274.741 38.3385 274.738 38.4982C274.728 38.9925 274.54 39.4971 274.439 39.9811C274.403 40.1356 274.38 40.2617 274.373 40.357C274.362 40.4986 274.329 40.7561 274.27 41.1268C274.213 41.4975 274.125 41.9738 274.012 42.5531C273.932 42.9393 273.837 43.4336 273.721 44.0309C273.608 44.6256 273.471 45.3182 273.322 46.106C273.322 46.1781 273.312 46.2605 273.294 46.3583C273.152 47.1178 272.998 47.5323 272.9 48.4231C272.882 48.5467 272.704 48.7475 272.38 49.0282C272.053 49.3088 271.834 49.4478 271.723 49.4478C271.651 49.4401 271.607 49.4221 271.589 49.3886C271.602 48.7295 271.587 47.2182 271.803 46.7497C271.824 46.6827 271.842 46.6184 271.852 46.5437C272.053 45.5834 272.303 43.1324 272.303 42.1875L272.305 42.1824ZM272.189 50.0992C272.39 50.0992 272.547 50.1224 272.666 50.1713C272.781 50.2202 272.848 50.2871 272.874 50.3695L272.763 51.1213C272.743 51.2114 272.727 51.3041 272.72 51.3993C272.712 51.492 272.696 51.5847 272.676 51.6748C272.645 51.7598 272.588 51.8216 272.511 51.8602C272.431 51.8988 272.326 51.9194 272.189 51.9194C272.084 51.9194 271.94 51.9426 271.754 51.9915C271.569 52.0404 271.425 52.0636 271.329 52.0636C271.18 52.0636 271.069 51.9966 271 51.8653C270.925 51.734 270.894 51.5255 270.899 51.2474C270.905 50.99 271.054 50.7325 271.347 50.4802C271.641 50.2253 271.924 50.0992 272.194 50.0992H272.189ZM266.996 44.466V46.2116C266.942 46.2811 266.886 46.3583 266.826 46.451C266.579 46.8243 266.453 47.0998 266.451 47.2749C266.451 47.3109 266.456 47.3418 266.471 47.3573C266.487 47.3727 266.523 47.3804 266.574 47.3804C266.646 47.3804 266.708 47.3444 266.752 47.2672C266.798 47.1951 266.844 47.1256 266.886 47.0586C266.924 47.0226 266.96 46.9865 266.999 46.9505V48.212C266.929 48.2815 266.857 48.351 266.783 48.4231C266.59 48.6265 266.564 48.92 266.68 49.1672C266.729 49.2727 266.796 49.35 266.883 49.4015C266.922 49.4272 266.96 49.4504 266.999 49.471V51.196C266.512 51.2217 266.041 51.1161 265.745 50.7917C265.683 50.7248 265.619 50.6295 265.56 50.5034C265.495 50.3747 265.434 50.2253 265.364 50.0477C265.31 49.9061 265.256 49.8005 265.204 49.7336C264.98 49.4143 264.066 50.4107 263.951 50.4879C263.595 50.8896 263.065 51.4019 262.676 51.8036C262.517 51.976 262.367 52.0945 262.215 52.1717C262.066 52.249 261.924 52.285 261.796 52.285C261.513 52.285 261.301 52.2 261.165 52.0301C261.029 51.8602 260.964 51.6027 260.972 51.2603C260.98 50.8844 260.998 50.5549 261.029 50.282C261.08 49.7799 261.371 48.6085 261.471 48.073C261.52 47.9726 261.904 47.3341 261.531 47.5504C261.433 47.7048 261.304 47.867 261.144 48.0395C260.985 48.212 260.797 48.3897 260.583 48.5776C260.063 49.0694 259.463 49.7696 258.93 50.2047C258.809 50.3052 258.696 50.3953 258.585 50.4854C258.433 50.6218 258.294 50.7171 258.163 50.7737C258.034 50.8304 257.903 50.8561 257.774 50.8561C257.625 50.8561 257.483 50.8226 257.349 50.7608C256.492 50.3386 256.348 48.4309 255.46 48.9921C255.339 49.0694 255.207 49.1698 255.074 49.2933C254.777 49.5508 254.564 49.7104 254.432 49.7774C254.301 49.8392 254.216 49.9164 254.167 49.9988C254.075 50.1533 253.915 50.3566 253.694 50.6012C253.47 50.8458 253.192 51.1367 252.854 51.4714C252.653 51.6748 252.326 52.0301 252.056 52.1074C251.951 52.1382 251.83 52.1511 251.701 52.1511C251.443 52.1511 251.302 52.061 251.286 51.8834C251.204 51.1393 251.353 51.0441 251.58 50.3257C251.606 50.2459 252.244 48.3897 252.247 48.176C252.247 48.055 252.144 48.0292 252.043 48.0292C251.981 48.0292 251.894 48.0653 251.786 48.1451C251.675 48.2223 251.546 48.3433 251.394 48.5132C251.209 48.7089 251.06 48.8608 250.949 48.9689C250.838 49.0771 250.761 49.144 250.725 49.1646C250.063 49.5894 249.984 50.1507 248.99 50.7557C248.683 50.9436 247.955 51.1625 247.489 51.2088V49.4736C247.641 49.5457 247.826 49.5894 248.022 49.6306C248.277 49.61 248.508 49.5688 248.714 49.5045C249.448 49.2727 249.628 48.9226 250.138 48.4669C250.244 48.3716 250.359 48.2584 250.491 48.1296C250.609 48.0009 250.759 47.8413 250.926 47.6533C251.098 47.4602 251.307 47.2337 251.552 46.9608C251.66 46.8526 251.791 46.7136 251.951 46.5437C252.11 46.3712 252.296 46.1678 252.514 45.9284C252.7 45.7173 252.895 45.5602 253.104 45.4598C253.315 45.3568 253.534 45.3053 253.768 45.3053C254.003 45.3053 254.17 45.3774 254.278 45.5242C254.384 45.6709 254.438 45.8769 254.432 46.1549C254.43 46.3043 254.368 46.5875 254.252 47.0045C254.136 47.4242 253.954 47.9777 253.709 48.6677C253.652 48.7862 253.127 49.9602 253.696 49.3551C253.804 49.1492 255.287 47.6199 255.444 47.504C255.563 47.4139 255.699 47.3186 255.856 47.2234C256.029 47.1333 256.191 47.0612 256.33 47.0071C256.469 46.9582 256.59 46.9299 256.696 46.9299C256.894 46.9299 257.071 46.9788 257.226 47.0766C257.375 47.1719 257.506 47.3238 257.615 47.5298C257.736 47.9288 257.851 48.2996 257.962 48.642C258.029 48.8428 258.104 48.9921 258.191 49.0874C258.276 49.1826 258.374 49.2341 258.482 49.2341C258.814 49.2341 258.902 48.9921 259.087 48.7656C259.149 48.6883 259.224 48.6008 259.311 48.4978C259.78 48.0704 260.236 47.5658 260.681 46.9762C261.129 46.3918 261.572 45.7121 262.012 44.9475C262.066 44.8754 262.128 44.7827 262.192 44.6668C262.661 43.8713 262.295 44.1828 261.901 44.1828C261.327 44.1828 260.748 44.1622 260.179 44.1622C260.112 44.1313 260.055 44.103 260.001 44.0798C259.945 44.0592 259.893 44.0335 259.842 44.0077C259.767 43.9846 259.708 43.9485 259.664 43.9073C259.623 43.8636 259.602 43.8147 259.605 43.7554C259.612 43.3409 259.661 43.0268 259.754 42.8054C259.844 42.5866 259.978 42.4784 260.161 42.4784C260.344 42.4784 260.511 42.4862 260.671 42.5016C261.222 42.5583 262.058 42.5763 262.607 42.4682L262.923 42.5634C263.153 42.5377 263.397 42.2184 263.662 41.6108C263.927 41.0032 264.206 40.6968 264.496 40.6968C264.651 40.6968 264.769 40.7458 264.852 40.8436C264.937 40.9389 264.975 41.0805 264.973 41.271C264.97 41.4203 264.921 41.616 264.829 41.8554C264.738 42.1 264.684 42.2828 264.669 42.4038C264.682 42.4295 264.697 42.4578 264.72 42.4862C265.055 42.9264 264.968 43.2328 264.852 43.8455C264.811 44.0541 264.754 44.1622 264.677 44.1699L264.015 44.3064C263.881 44.9217 263.667 45.4856 263.49 46.0932C263.348 46.5849 263.186 47.1719 263.006 47.8464C262.893 48.3897 262.805 48.8248 262.746 49.1595C262.684 49.4967 262.653 49.7207 262.65 49.8366C262.65 49.9396 262.663 50.0194 262.697 50.0683C262.725 50.1224 262.774 50.1481 262.841 50.1481C262.877 50.1481 263.021 50.0554 263.266 49.8675C263.969 49.3268 264.43 48.6806 265.053 48.2069C265.076 48.0781 265.096 47.9494 265.12 47.8233C265.222 47.1307 265.341 46.8372 265.655 46.1936C265.972 45.537 266.458 44.9655 267.007 44.4737L266.996 44.466ZM247.486 48.2094C247.932 47.7718 248.295 47.3753 248.575 47.0251C248.897 46.6184 249.106 46.2605 249.204 45.949C249.407 45.2616 249.742 44.0052 248.506 44.0052C248.387 44.0052 248.282 44.0155 248.184 44.0361C247.929 44.0876 247.7 44.2343 247.486 44.4197V46.2116C247.656 45.9979 247.793 45.8898 247.901 45.8898C247.947 45.8898 247.981 45.9052 248.001 45.9438C248.024 45.9799 248.032 46.0262 248.032 46.0854C248.032 46.1755 248.009 46.2682 247.968 46.3558C247.929 46.4484 247.867 46.5385 247.787 46.6261C247.723 46.6982 247.656 46.7728 247.584 46.8475C247.551 46.881 247.517 46.9144 247.484 46.9479V48.2094H247.486ZM247.486 44.4171V46.209C247.432 46.2785 247.376 46.3558 247.316 46.4484C247.069 46.8218 246.943 47.0972 246.94 47.2723C246.94 47.3083 246.946 47.3392 246.961 47.3547C246.976 47.3701 247.013 47.3779 247.064 47.3779C247.136 47.3779 247.198 47.3418 247.242 47.2646C247.288 47.1925 247.334 47.123 247.376 47.056C247.414 47.02 247.45 46.984 247.489 46.9479V48.2094C247.419 48.279 247.347 48.3485 247.273 48.4206C247.229 48.4669 247.188 48.5235 247.154 48.5905C247.123 48.66 247.105 48.7321 247.103 48.8093C247.095 49.1723 247.255 49.3551 247.489 49.4684V51.2037C247.43 51.2088 247.376 51.214 247.327 51.214C247.09 51.214 246.879 51.1779 246.693 51.1084C246.511 51.0363 246.359 50.9308 246.235 50.7943C246.173 50.7274 246.109 50.6321 246.05 50.506C245.985 50.3772 245.924 50.2279 245.854 50.0503C245.8 49.9087 245.746 49.8031 245.694 49.7362C245.645 49.6667 245.586 49.6332 245.522 49.6332C245.473 49.6332 245.411 49.6564 245.349 49.7053C245.282 49.7542 245.21 49.8289 245.131 49.9241V49.9087C244.819 50.1841 244.415 50.5034 244.083 50.7403C243.815 50.9333 243.586 51.0775 243.4 51.1702C243.2 51.2706 242.901 51.3247 242.61 51.3195V47.9005L242.625 47.9932C242.662 48.1991 242.69 48.4025 242.713 48.6085C242.754 48.7372 242.806 48.9329 242.865 49.1929C242.927 49.4555 242.97 49.6023 243.001 49.6435C243.03 49.7053 243.079 49.7516 243.14 49.7825C243.205 49.8134 243.285 49.8263 243.38 49.8263C243.918 49.8263 244.155 49.4864 244.536 49.1749C244.623 49.1028 244.706 49.0333 244.791 48.9664C244.865 48.8557 244.953 48.7424 245.061 48.6291C245.187 48.4901 245.347 48.351 245.537 48.2069C245.56 48.0781 245.581 47.9494 245.604 47.8233C245.707 47.1307 245.826 46.8372 246.14 46.1936C246.243 45.9773 246.379 45.7404 246.547 45.4753C246.837 45.1612 247.139 44.7364 247.491 44.4274L247.486 44.4171ZM242.605 43.9073V41.7292L242.767 41.5413C242.831 41.495 242.916 41.4589 243.019 41.428C243.122 41.3971 243.241 41.3843 243.377 41.3843C243.539 41.3843 243.658 41.4177 243.73 41.4795C243.805 41.5465 243.841 41.6391 243.838 41.7601C243.794 41.9429 243.758 42.0948 243.733 42.2158C243.663 42.4476 243.601 42.6381 243.55 42.7874C243.501 42.9367 243.462 43.0423 243.434 43.1092C243.372 43.2482 243.29 43.3744 243.189 43.48C243.089 43.5855 242.965 43.6808 242.821 43.7683C242.741 43.8224 242.669 43.8687 242.602 43.9073H242.605ZM242.605 41.7292V43.9073C242.546 43.9408 242.494 43.9666 242.445 43.9871C242.345 44.0258 242.275 44.0464 242.237 44.0412C242.129 44.0283 242.023 44.0155 241.923 44.0052C241.825 43.9974 241.724 43.9923 241.629 43.9923C241.544 43.946 241.48 43.861 241.436 43.7297C241.39 43.601 241.369 43.4259 241.372 43.2071C241.374 43.0114 241.495 42.7668 241.74 42.4759C241.979 42.1824 242.19 42.0227 242.373 42.0022C242.443 41.9172 242.52 41.8271 242.605 41.7267V41.7292ZM242.605 47.8954V51.3144C242.304 51.3092 242.005 51.2423 241.83 51.1033C241.598 50.9179 241.287 49.9936 240.993 49.5328C240.916 49.3835 240.852 49.2702 240.795 49.1981C240.741 49.1208 240.692 49.0848 240.651 49.0848C240.548 49.0848 240.409 49.1543 240.234 49.2933C240.025 49.4555 239.232 50.1764 238.99 50.3824C238.836 50.5137 238.607 50.7119 238.475 50.7686C238.347 50.8252 238.215 50.851 238.086 50.851C237.937 50.851 237.796 50.8175 237.662 50.7557C237.528 50.6888 237.415 50.5935 237.319 50.4648C237.185 50.3386 236.797 49.6074 236.588 49.3294C236.485 49.1904 236.362 49.0282 236.223 48.8402L236.138 48.8093C236.014 48.8479 235.89 48.9097 235.769 48.9844C235.648 49.0616 235.517 49.162 235.383 49.2856C234.606 49.9627 234.716 49.8108 234.003 50.5935C233.779 50.8381 233.501 51.129 233.164 51.4637C232.963 51.6671 232.636 52.0224 232.366 52.0996C232.26 52.1305 232.139 52.1434 232.01 52.1434C230.942 52.1434 232.173 49.4221 232.337 48.8917C232.337 48.8608 232.353 48.8196 232.376 48.763C232.397 48.7063 232.428 48.6343 232.458 48.5441C232.492 48.4618 232.518 48.3897 232.533 48.3253C232.549 48.2661 232.556 48.2094 232.556 48.1657C232.556 48.1193 232.541 48.0833 232.51 48.0575C232.476 48.0344 232.428 48.0215 232.355 48.0215C232.294 48.0215 232.206 48.0575 232.098 48.1374C231.987 48.2146 231.859 48.3356 231.707 48.5055C231.521 48.7012 231.372 48.8531 231.261 48.9612C231.151 49.0694 231.073 49.1363 231.037 49.1569C230.97 49.2007 230.893 49.265 230.806 49.3474C230.031 50.1095 228.98 51.1831 227.801 51.232V49.4839C228.164 49.6589 228.7 49.5946 229.027 49.4942C229.235 49.4272 229.423 49.3474 229.588 49.2573C229.621 49.2367 229.675 49.2058 229.745 49.1723C229.753 49.1672 230.77 48.1554 230.806 48.1193C230.924 47.9906 231.073 47.831 231.241 47.643C231.413 47.4499 231.622 47.2234 231.866 46.9505C231.974 46.8424 232.106 46.7033 232.265 46.5334C232.425 46.3609 232.61 46.1575 232.829 45.9181C233.015 45.707 233.21 45.5499 233.419 45.4495C233.63 45.3465 233.849 45.295 234.083 45.295C234.317 45.295 234.485 45.3671 234.593 45.5139C234.698 45.6606 234.752 45.8666 234.747 46.1446C234.745 46.294 234.683 46.5772 234.567 46.9943C234.451 47.4139 234.268 47.9674 234.024 48.6574C233.962 48.7862 233.903 48.9097 233.851 49.0256C233.254 50.2253 234.59 48.7269 234.642 48.6857C234.837 48.3408 235.463 47.7203 235.759 47.4937C235.878 47.4036 236.014 47.3083 236.171 47.2131C236.344 47.123 236.506 47.0509 236.645 46.9968C236.784 46.9479 236.905 46.9196 237.01 46.9196C237.209 46.9196 237.386 46.9685 237.541 47.0663C237.69 47.1616 237.821 47.3135 237.929 47.5195C238.05 47.9185 238.166 48.2893 238.277 48.6317C238.344 48.8325 238.421 48.9818 238.506 49.0771C238.962 49.5868 240.092 48.0473 240.234 47.9262C240.471 47.7229 241.261 46.8372 241.39 46.7677C241.472 46.7239 241.557 46.7008 241.642 46.7008C241.866 46.7008 242.056 46.7574 242.211 46.8707C242.365 46.9839 242.463 47.1539 242.51 47.3804C242.546 47.5529 242.579 47.7229 242.61 47.8954H242.605ZM227.801 48.2094C228.246 47.7718 228.609 47.3753 228.89 47.0251C229.212 46.6184 229.42 46.2605 229.518 45.949C229.771 45.1045 229.995 43.7245 228.499 44.0335C228.216 44.0927 228.218 44.1262 227.981 44.2755C227.922 44.3141 227.863 44.3579 227.801 44.412V46.2116C227.971 45.9979 228.107 45.8898 228.216 45.8898C228.262 45.8898 228.295 45.9052 228.316 45.9438C228.339 45.9799 228.347 46.0262 228.347 46.0854C228.347 46.1755 228.324 46.2682 228.283 46.3558C228.244 46.4484 228.182 46.5385 228.102 46.6261C228.038 46.6982 227.971 46.7728 227.899 46.8475C227.865 46.881 227.832 46.9144 227.798 46.9479V48.2094H227.801ZM227.801 44.412V46.2116C227.747 46.2811 227.69 46.3583 227.631 46.451C227.384 46.8243 227.258 47.0998 227.255 47.2749C227.255 47.3109 227.26 47.3418 227.276 47.3573C227.291 47.3727 227.327 47.3804 227.379 47.3804C227.451 47.3804 227.513 47.3444 227.556 47.2672C227.603 47.1951 227.649 47.1256 227.69 47.0586C227.729 47.0226 227.765 46.9865 227.804 46.9505V48.212C227.734 48.2815 227.662 48.351 227.587 48.4231C227.544 48.4695 227.502 48.5261 227.469 48.5931C227.438 48.6626 227.42 48.7347 227.42 48.8119C227.42 48.9484 227.438 49.0668 227.487 49.1698C227.554 49.3191 227.667 49.4221 227.806 49.489V51.2371C227.546 51.2474 227.281 51.2114 227.011 51.1084C226.233 50.7995 226.388 50.2202 226.009 49.7362C225.96 49.6667 225.901 49.6332 225.837 49.6332C225.788 49.6332 225.726 49.6564 225.664 49.7053C225.597 49.7542 225.525 49.8289 225.445 49.9241C225.42 49.8289 225.376 49.7053 225.314 49.5637L225.273 49.471V48.745C225.306 48.7063 225.34 48.6651 225.378 48.6265C225.505 48.4875 225.664 48.3485 225.855 48.2043C225.878 48.0756 225.898 47.9468 225.922 47.8207C225.94 47.6945 225.955 47.5658 225.965 47.4371C226.063 47.0303 226.274 46.5669 226.457 46.191C226.56 45.9747 226.697 45.7379 226.864 45.4727C227.142 45.174 227.479 44.7029 227.809 44.4171L227.801 44.412ZM225.265 46.1652C225.301 46.052 225.332 45.9515 225.355 45.864C225.43 45.5937 225.469 45.3311 225.471 45.071C225.471 45.0015 225.461 44.9475 225.435 44.9114C225.409 44.8754 225.366 44.8574 225.301 44.8574C225.288 44.8574 225.278 44.8574 225.265 44.8574V46.1652ZM225.265 44.8574V46.1652C224.714 47.8876 222.732 52.3391 221.45 52.3391C221.102 52.3391 220.839 52.2078 220.662 51.9426C220.476 51.6645 220.312 49.7696 220.306 49.2624C220.306 49.1337 220.296 49.0436 220.278 49.0024L220.353 48.7784L220.255 48.7218C220.211 48.7372 220.09 48.8479 219.892 49.0462C219.524 49.4144 218.427 50.56 217.946 50.7686C217.817 50.8252 217.686 50.851 217.557 50.851C217.408 50.851 217.266 50.8175 217.132 50.7557C216.998 50.6888 216.885 50.5935 216.79 50.4648C216.028 49.7362 216.113 48.436 215.242 48.987C215.121 49.0642 214.99 49.1646 214.856 49.2882C214.166 49.8906 214.081 49.9293 213.476 50.5961C213.031 51.0852 212.227 52.1434 211.483 52.1434C211.226 52.1434 211.084 52.0533 211.069 51.8756C210.987 51.1316 211.136 51.0363 211.362 50.318C211.491 49.9112 211.643 49.4375 211.813 48.8917C211.813 48.8608 211.828 48.8196 211.852 48.763C211.872 48.7063 211.903 48.6343 211.934 48.5441C211.967 48.4618 211.993 48.3897 212.009 48.3253C212.024 48.2661 212.032 48.2094 212.032 48.1657C212.032 48.1193 212.016 48.0833 211.985 48.0575C211.952 48.0344 211.903 48.0215 211.831 48.0215C211.769 48.0215 211.682 48.0575 211.574 48.1374C211.463 48.2146 211.334 48.3356 211.182 48.5055C210.997 48.7012 210.848 48.8531 210.737 48.9612C210.263 49.4246 209.156 50.5781 208.667 50.7737C208.533 50.8304 208.404 50.8561 208.276 50.8561C208.126 50.8561 208.005 50.8226 207.907 50.7506C207.812 50.6785 207.737 50.5781 207.681 50.4468C207.516 50.663 207.315 50.8613 207.083 51.0389C206.978 51.1187 206.847 51.2063 206.695 51.2886V50.2099C206.934 50.0451 207.161 49.8031 207.38 49.489C207.485 49.3654 207.583 49.2496 207.673 49.1389C207.727 49.1028 207.771 49.0385 207.802 48.9509C207.835 48.866 207.871 48.7553 207.907 48.6265L208.09 48.073C208.039 47.8799 207.985 47.7254 207.936 47.6121C207.884 47.4989 207.833 47.4294 207.784 47.4036C207.75 47.383 207.681 47.365 207.57 47.3418C207.462 47.3186 207.302 47.2955 207.099 47.2697C207.065 47.2775 207.019 47.3083 206.957 47.3727C206.893 47.4319 206.831 47.5092 206.775 47.6019L206.695 47.7254V45.2229C206.847 45.192 207.001 45.2023 207.143 45.2693C207.215 45.3053 207.253 45.3542 207.259 45.4186C207.194 45.5679 207.12 45.7173 207.047 45.864L207.101 45.9541C207.387 45.8408 207.611 45.761 207.773 45.7095C207.936 45.6606 208.039 45.6323 208.085 45.6323C208.554 45.6323 208.906 45.7739 209.135 46.0623C209.365 46.3506 209.475 46.7857 209.465 47.365C209.465 47.4783 209.447 47.607 209.419 47.7563C209.39 47.9031 209.347 48.0653 209.285 48.2403C209.218 48.436 209.146 48.5931 209.068 48.7244C208.994 48.8557 208.922 48.9484 208.855 49.005C208.881 49.0771 208.909 49.1337 208.942 49.1698C208.971 49.2032 209.014 49.2238 209.066 49.2238C209.292 49.2238 209.406 49.0076 209.511 48.8788C209.735 48.5905 210.013 48.3794 210.276 48.1219C210.394 47.9932 210.544 47.8336 210.711 47.6456C210.884 47.4525 211.092 47.226 211.337 46.9531C211.445 46.8449 211.576 46.7059 211.736 46.536C211.895 46.3635 212.081 46.1601 212.3 45.9207C212.485 45.7095 212.681 45.5525 212.889 45.4521C213.1 45.3491 213.319 45.2976 213.553 45.2976C213.788 45.2976 213.955 45.3697 214.063 45.5164C214.169 45.6632 214.223 45.8692 214.218 46.1472C214.215 46.2965 214.153 46.5797 214.037 46.9968C213.922 47.4165 213.739 47.97 213.494 48.66C213.432 48.7887 213.373 48.9123 213.322 49.0282C212.879 49.9164 213.494 49.2702 213.721 49.041C213.991 48.7836 214.115 48.6137 214.346 48.3639C214.519 48.1708 215.034 47.6456 215.229 47.4963C215.348 47.4062 215.484 47.3109 215.641 47.2157C215.814 47.1256 215.976 47.0535 216.115 46.9994C216.254 46.9505 216.375 46.9222 216.481 46.9222C216.679 46.9222 216.857 46.9711 217.011 47.0689C217.16 47.1642 217.292 47.3161 217.4 47.522C217.521 47.9211 217.637 48.2918 217.747 48.6343C217.814 48.8351 217.889 48.9844 217.976 49.0797C218.412 49.5765 219.014 48.5673 219.274 48.2944C219.99 47.6044 220.255 46.9119 220.659 46.0185C220.68 45.985 220.821 45.8795 221.081 45.7018C221.341 45.5242 221.506 45.4341 221.573 45.4341C221.656 45.4341 221.717 45.4933 221.759 45.6117C221.797 45.7353 221.815 45.9155 221.81 46.1601C221.787 47.3624 221.617 48.6729 221.782 49.8572C221.831 50.2382 221.908 50.4262 222.003 50.4262C222.127 50.4262 222.304 50.264 222.533 49.937C222.768 49.61 223.051 49.1157 223.383 48.454C223.718 47.8155 223.973 47.2903 224.15 46.8784C224.325 46.469 224.428 46.1575 224.459 45.949C224.526 45.5885 224.624 45.3131 224.763 45.1328C224.892 44.9578 225.059 44.8651 225.268 44.8548L225.265 44.8574ZM225.265 48.7398C225.185 48.8351 225.116 48.9303 225.059 49.0256C225.139 49.1955 225.208 49.3423 225.265 49.4658V48.7398ZM206.692 45.2204V47.7229C206.617 47.8361 206.54 47.9546 206.453 48.0833C206.378 48.1631 206.303 48.2223 206.221 48.2609C206.141 48.3047 206.049 48.333 205.946 48.3536C205.879 48.3613 205.812 48.4231 205.737 48.5416C205.665 48.66 205.593 48.8351 205.516 49.0616C205.443 49.2625 205.387 49.4324 205.351 49.574C205.315 49.7156 205.299 49.834 205.297 49.9344C205.294 50.1121 205.333 50.2485 205.425 50.3412C205.513 50.4313 205.652 50.4776 205.837 50.4776C206.136 50.4776 206.409 50.3953 206.661 50.2305L206.692 50.2099V51.2886C206.206 51.559 205.544 51.8061 205.088 51.8061C204.72 51.8061 204.39 51.6517 204.102 51.3376C203.811 51.026 203.667 50.6759 203.675 50.2923C203.677 50.1378 203.719 49.9318 203.793 49.6744C203.87 49.4195 203.909 49.2702 203.912 49.2238C203.912 49.1775 203.896 49.1414 203.868 49.1106C203.842 49.0848 203.798 49.0668 203.749 49.0668C203.716 49.0668 203.639 49.1157 203.513 49.2135C202.959 49.6409 202.601 50.0631 202.048 50.5188C201.798 50.7248 201.515 50.8922 201.195 51.0209C201.092 51.1058 201.005 51.1831 200.93 51.2552C200.603 51.5796 200.222 51.8267 199.792 51.9915C199.36 52.1563 198.868 52.2387 198.322 52.2387C197.776 52.2387 196.937 51.7031 196.708 51.2243C196.651 51.1342 196.613 51.0235 196.592 50.8947C196.149 48.1528 196.7 48.6188 198.708 46.935C198.932 46.7419 199.154 46.5746 199.375 46.4356C199.795 46.1755 200.372 45.7585 200.771 45.5654C201.144 45.3826 201.448 45.295 201.679 45.295C201.772 45.295 201.844 45.3208 201.896 45.3723C201.95 45.4263 201.983 45.4907 201.994 45.5679L201.983 46.1034C201.981 46.2914 201.924 46.4562 201.816 46.6029C201.705 46.7497 201.543 46.8835 201.329 47.0071C201.185 47.0689 201.044 47.1436 200.899 47.2234C200.24 47.571 199.736 48.0524 199.136 48.5132C198.958 48.6497 198.811 48.7707 198.693 48.8763C198.575 48.9844 198.495 49.0719 198.446 49.1337C198.381 49.2573 198.327 49.3912 198.289 49.5405C198.25 49.6924 198.23 49.8623 198.227 50.0554C198.224 50.2047 198.245 50.3335 198.286 50.439C198.33 50.5472 198.394 50.6295 198.484 50.6965C199.053 51.0981 199.46 50.8947 200.078 50.7171C200.299 50.5858 200.523 50.4493 200.758 50.3077C200.989 50.161 201.216 50.0168 201.445 49.8675C201.479 49.8469 201.52 49.8289 201.569 49.8057C201.615 49.7825 201.667 49.7465 201.721 49.7027C201.785 49.6177 201.875 49.5199 201.991 49.4092C202.622 48.799 202.684 48.6368 203.487 48.0962C203.582 47.988 203.724 47.849 203.914 47.6791C204.421 47.2337 205.397 46.3068 205.871 45.7893C205.961 45.6941 206.049 45.5963 206.144 45.5087C206.296 45.3774 206.496 45.2641 206.702 45.2229L206.692 45.2204ZM189.188 51.1882V49.4813C189.685 49.713 190.537 49.5045 190.972 49.2573C191.005 49.2367 191.059 49.2084 191.129 49.1723C191.204 49.1363 191.273 49.0874 191.345 49.0256C191.425 49.2135 191.497 49.3835 191.559 49.5328C191.623 49.6821 191.67 49.8108 191.708 49.919C191.335 50.282 190.992 50.56 190.689 50.7454C190.328 50.9642 189.733 51.1522 189.188 51.1882ZM189.188 48.2094V46.9479C189.221 46.9144 189.255 46.881 189.288 46.8475C189.36 46.7703 189.427 46.6982 189.491 46.6261C189.571 46.536 189.633 46.4484 189.672 46.3558C189.713 46.2656 189.733 46.173 189.736 46.0854C189.736 46.0262 189.728 45.9799 189.705 45.9438C189.682 45.9078 189.651 45.8898 189.605 45.8898C189.497 45.8898 189.358 45.9953 189.19 46.2116V44.4094C189.252 44.3579 189.311 44.3141 189.37 44.2755C189.697 44.0695 189.816 44.0052 190.21 44.0052C191.185 44.0052 191.214 44.9629 191 45.6426C190.825 46.227 190.673 46.5283 190.279 47.0251C189.999 47.3753 189.636 47.7718 189.19 48.2094H189.188ZM189.188 44.4094V46.2116C189.134 46.2811 189.077 46.3583 189.018 46.451C188.771 46.8243 188.644 47.0998 188.642 47.2749C188.642 47.3109 188.647 47.3418 188.662 47.3573C188.678 47.3727 188.714 47.3804 188.765 47.3804C188.837 47.3804 188.899 47.3444 188.943 47.2672C188.989 47.1951 189.036 47.1256 189.077 47.0586C189.116 47.0226 189.152 46.9865 189.19 46.9505V48.212C189.121 48.2815 189.049 48.351 188.974 48.4231C188.93 48.4695 188.889 48.5261 188.855 48.5931C188.825 48.6626 188.807 48.7347 188.804 48.8119C188.796 49.1672 188.953 49.3757 189.19 49.4864V51.1934C188.897 51.214 188.616 51.1934 188.395 51.1058C188.212 51.0338 188.06 50.9282 187.936 50.7917C187.875 50.7248 187.81 50.6295 187.751 50.5034C187.687 50.3747 187.625 50.2253 187.555 50.0477C187.501 49.9061 187.447 49.8005 187.396 49.7336C187.347 49.6641 187.288 49.6306 187.223 49.6306C187.174 49.6306 187.113 49.6538 187.051 49.7027C186.984 49.7516 186.912 49.8263 186.832 49.9215C186.806 49.8263 186.762 49.7027 186.701 49.5611C186.636 49.4195 186.554 49.2444 186.453 49.0282C186.536 48.8969 186.636 48.7604 186.765 48.624C186.891 48.4849 187.051 48.3459 187.241 48.2017C187.264 48.073 187.285 47.9443 187.308 47.8181C187.383 47.3161 187.419 47.2028 187.597 46.7188C187.872 46.088 188.583 44.9243 189.195 44.4094H189.188ZM179.35 51.196V49.471C179.723 49.6641 180.179 49.6177 180.576 49.4967C180.784 49.4298 180.972 49.35 181.137 49.2599C181.17 49.2393 181.224 49.211 181.294 49.1749C181.369 49.1389 181.438 49.09 181.513 49.0282C181.593 49.2161 181.665 49.386 181.724 49.5354C181.788 49.6847 181.835 49.8134 181.873 49.9215C181.5 50.2846 181.158 50.5626 180.854 50.748C180.48 50.9745 179.906 51.1676 179.353 51.196H179.35ZM179.35 48.212V46.9505C179.384 46.917 179.417 46.8835 179.451 46.8501C179.523 46.7728 179.59 46.7008 179.654 46.6287C179.734 46.5386 179.796 46.451 179.834 46.3583C179.875 46.2682 179.896 46.1755 179.899 46.088C179.899 46.0288 179.891 45.9824 179.868 45.9464C179.844 45.9104 179.814 45.8923 179.767 45.8923C179.659 45.8923 179.52 45.9979 179.353 46.2142V44.4017C179.409 44.3605 179.469 44.3193 179.533 44.2806C179.618 44.2266 179.703 44.1725 179.788 44.1056C179.865 44.0798 179.955 44.0592 180.05 44.0386C182.115 43.6138 181.101 46.1961 180.442 47.0277C180.161 47.3779 179.798 47.7743 179.353 48.212H179.35ZM179.35 44.3991V46.2116C179.296 46.2811 179.239 46.3583 179.18 46.451C178.933 46.8243 178.807 47.0998 178.804 47.2749C178.804 47.3109 178.81 47.3418 178.825 47.3573C178.84 47.3727 178.876 47.3804 178.928 47.3804C179 47.3804 179.062 47.3444 179.106 47.2672C179.152 47.1951 179.198 47.1256 179.239 47.0586C179.278 47.0226 179.314 46.9865 179.353 46.9505V48.212C179.283 48.2815 179.211 48.351 179.136 48.4231C178.943 48.6265 178.918 48.92 179.034 49.1672C179.082 49.2727 179.149 49.35 179.237 49.4015C179.276 49.4272 179.314 49.4504 179.353 49.471V51.196C178.866 51.2217 178.395 51.1161 178.099 50.7917C178.037 50.7248 177.973 50.6295 177.914 50.5034C177.849 50.3747 177.787 50.2253 177.718 50.0477C177.664 49.9061 177.61 49.8005 177.558 49.7336C177.509 49.6641 177.45 49.6306 177.386 49.6306C177.257 49.6306 176.315 50.4725 176.256 50.5214C176.047 50.6939 174.134 51.9452 174 51.9966C172.958 52.3957 172.298 52.406 171.475 51.7958C171.158 51.5641 170.864 51.3067 170.8 50.8999C170.759 50.6527 170.756 50.4107 170.826 50.1687C171.037 49.4324 170.352 50.5394 169.757 50.7763C169.623 50.8329 169.495 50.8587 169.366 50.8587C169.217 50.8587 169.096 50.8252 168.998 50.7531C168.903 50.681 168.828 50.5806 168.771 50.4493C168.606 50.6656 168.406 50.8638 168.174 51.0415C168.056 51.1316 167.927 51.2217 167.785 51.3041V50.215C168.596 49.6692 168.895 48.9432 169.181 48.0781C168.969 47.3135 168.939 47.3701 168.189 47.2749C168.156 47.2826 168.11 47.3135 168.048 47.3779C167.947 47.4731 167.865 47.5993 167.785 47.728V45.2307C167.826 45.2255 167.868 45.2229 167.909 45.2229C168.05 45.2229 168.156 45.2384 168.233 45.277C168.305 45.3131 168.344 45.362 168.349 45.4263C168.285 45.5757 168.21 45.725 168.138 45.8717L168.192 45.9618C168.478 45.8486 168.702 45.7688 168.864 45.7173C169.026 45.6683 169.129 45.64 169.175 45.64C169.644 45.64 169.997 45.7816 170.226 46.07C170.455 46.3583 170.566 46.7934 170.555 47.3727C170.555 47.486 170.537 47.6147 170.509 47.764C170.481 47.9108 170.437 48.073 170.375 48.2481C170.308 48.4437 170.236 48.6008 170.159 48.7321C170.046 48.9303 169.871 48.9973 170.033 49.1775C170.061 49.211 170.105 49.2393 170.156 49.2316C170.53 49.1646 170.54 48.9149 170.728 48.7089C171.343 48.0112 174.585 45.7662 174.976 45.5757C175.349 45.3929 175.653 45.3053 175.885 45.3053C175.977 45.3053 176.05 45.3311 176.101 45.3826C176.155 45.4366 176.189 45.501 176.199 45.5782L176.189 46.1137C176.186 46.3017 176.129 46.4665 176.021 46.6132C175.797 46.9067 174.713 47.4499 174.255 47.8078C174.031 47.9855 173.725 48.2249 173.339 48.5235C173.161 48.66 173.014 48.781 172.896 48.8866C172.777 48.9947 172.697 49.0822 172.649 49.144C172.466 49.4864 172.347 50.0863 172.489 50.4519C172.533 50.56 172.597 50.6424 172.687 50.7094C172.752 50.7557 172.842 50.7995 172.952 50.8458C174.234 51.3787 176.214 49.404 176.922 48.6368C177.049 48.5004 177.208 48.3588 177.399 48.2146C177.422 48.0859 177.442 47.9571 177.466 47.831C177.569 47.1384 177.687 46.8449 178.001 46.2013C178.344 45.4907 178.794 45.0479 179.296 44.4583C179.314 44.4428 179.332 44.43 179.35 44.4145V44.3991ZM167.777 45.2255V47.7229C167.644 47.9391 167.515 48.1631 167.306 48.2635C167.227 48.3073 167.134 48.3356 167.031 48.3562C166.964 48.3639 166.897 48.4257 166.822 48.5441C166.652 48.8273 166.39 49.5971 166.385 49.937C166.382 50.1146 166.421 50.2511 166.513 50.3438C166.601 50.4339 166.74 50.4802 166.925 50.4802C167.224 50.4802 167.497 50.3978 167.749 50.2331L167.78 50.2125V51.3015C166.972 51.7804 165.857 52.0636 165.19 51.3376C164.899 51.026 164.755 50.6759 164.763 50.2923C164.765 50.1378 164.806 49.9318 164.881 49.6744C164.92 49.5508 165.059 49.2187 164.953 49.1131C164.927 49.0874 164.884 49.0694 164.835 49.0694C164.801 49.0694 164.724 49.1183 164.598 49.2161C164.093 49.6074 163.818 49.9576 163.352 50.3798C162.935 50.766 162.304 51.1367 161.663 51.3015V49.8623C161.719 49.8675 161.779 49.87 161.84 49.87C161.871 49.87 161.967 49.8469 162.129 49.8005C163.321 49.4864 163.537 48.7887 164.564 48.0962C164.66 47.988 164.801 47.849 164.992 47.6791C165.455 47.2723 167.111 45.501 167.543 45.295C167.618 45.2616 167.698 45.2384 167.78 45.2281L167.777 45.2255ZM161.66 46.0442C162.252 45.1534 163.04 43.6653 163.318 42.8775C163.733 41.7009 164.212 40.5166 164.235 39.2448C164.243 38.8457 164.178 38.5728 164.042 38.4286C163.905 38.2819 163.653 38.2098 163.277 38.2098C163.089 38.2098 162.875 38.3385 162.636 38.596C162.397 38.8534 162.121 39.2371 161.807 39.7468C161.758 39.8292 161.709 39.9142 161.66 39.9966V42.9264C161.776 42.6303 161.864 42.4089 161.882 42.3832C163.316 40.0069 162.564 42.5145 162.245 43.3126C162.008 43.897 161.838 44.2626 161.732 44.4042L161.66 44.5252V46.0442ZM156.303 45.8898C156.194 45.8898 156.055 45.9953 155.888 46.209V44.4094C156.081 44.2317 156.297 44.0901 156.586 44.0335C156.681 44.0129 156.789 44.0026 156.908 44.0026C158.656 44.0026 157.446 46.4304 156.977 47.0226C156.696 47.3727 156.333 47.7692 155.888 48.2069V46.9453C155.922 46.9119 155.955 46.8784 155.988 46.8449C156.061 46.7677 156.128 46.6956 156.192 46.6235C156.272 46.5334 156.333 46.4459 156.372 46.3532C156.413 46.2631 156.434 46.1704 156.436 46.0828C156.436 46.0236 156.429 45.9773 156.406 45.9412C156.382 45.9052 156.352 45.8872 156.305 45.8872L156.303 45.8898ZM161.66 39.9966C161.485 40.2978 161.326 40.5939 161.179 40.8822C160.61 42.0125 160.098 43.3306 159.716 44.5381C159.516 45.1792 159.106 47.038 159.15 47.7177C159.15 47.7769 159.15 47.8207 159.145 47.8542C159.142 47.8876 159.127 47.9134 159.101 47.9314L158.447 48.4901C157.822 49.1646 158.102 49.1878 157.119 49.4993C156.913 49.5611 156.681 49.6049 156.426 49.6255C156.272 49.592 156.14 49.556 156.025 49.5199C155.976 49.5019 155.932 49.4839 155.896 49.4684V51.2037C156.359 51.1573 157.088 50.9359 157.397 50.7506C157.986 50.3927 158.607 49.7387 159.127 49.2264C159.469 49.574 159.294 50.2459 159.768 50.8484C160.224 51.4251 160.95 51.492 161.665 51.3041V49.8649C161.256 49.8314 160.945 49.6744 160.733 49.3912C160.491 49.0745 160.378 48.6008 160.388 47.9726C160.605 47.6508 160.818 47.3109 161.024 46.9582C161.174 46.7394 161.308 46.5463 161.429 46.3867C161.503 46.2888 161.58 46.1755 161.665 46.0494V44.5304C161.568 44.6926 161.48 44.8368 161.4 44.9629C161.302 45.1174 161.223 45.2538 161.171 45.3697C161.058 45.5808 160.955 45.743 160.872 45.8537C160.787 45.967 160.713 46.0236 160.659 46.0288L160.6 45.9515C160.6 45.8511 160.638 45.6941 160.705 45.465C160.775 45.241 160.872 44.9449 161.001 44.5845C161.117 44.3424 161.444 43.5006 161.668 42.9316V40.0017L161.66 39.9966ZM155.888 46.209C155.834 46.2785 155.777 46.3558 155.718 46.4484C155.471 46.8218 155.345 47.0972 155.342 47.2723C155.342 47.3083 155.347 47.3392 155.363 47.3547C155.378 47.3701 155.414 47.3779 155.466 47.3779C155.538 47.3779 155.6 47.3418 155.643 47.2646C155.69 47.1925 155.736 47.123 155.777 47.056C155.816 47.02 155.852 46.984 155.891 46.9479V48.2094C155.821 48.279 155.749 48.3485 155.674 48.4206C155.631 48.4669 155.589 48.5235 155.556 48.5905C155.525 48.66 155.507 48.7321 155.504 48.8093C155.504 48.9458 155.523 49.0642 155.571 49.1672C155.62 49.2727 155.687 49.35 155.775 49.4015C155.803 49.4221 155.842 49.4427 155.891 49.4658V51.2011C155.831 51.2063 155.777 51.2114 155.728 51.2114C154.817 51.2114 154.547 50.7969 154.256 50.0477C154.202 49.9061 154.148 49.8005 154.096 49.7336C154.047 49.6641 153.988 49.6306 153.924 49.6306C153.875 49.6306 153.813 49.6538 153.751 49.7027C153.684 49.7516 153.612 49.8263 153.532 49.9215C153.507 49.8263 153.463 49.7027 153.401 49.5611L153.36 49.4684V48.7424C153.393 48.7038 153.427 48.6626 153.465 48.624C153.592 48.4849 153.751 48.3459 153.942 48.2017C153.965 48.073 153.985 47.9443 154.009 47.8181C154.027 47.692 154.042 47.5632 154.052 47.4345C154.073 47.3444 154.106 47.2388 154.15 47.1178C154.197 46.9943 154.246 46.8629 154.297 46.7213C154.359 46.5797 154.441 46.3995 154.544 46.1884C154.647 45.9721 154.784 45.7353 154.951 45.4701C155.09 45.3208 155.232 45.1586 155.383 44.9809C155.556 44.7827 155.713 44.5819 155.896 44.4145V46.2142L155.888 46.209ZM153.352 46.173C153.386 46.0648 153.416 45.9593 153.442 45.8614C153.517 45.5911 153.556 45.3285 153.558 45.0685C153.558 44.999 153.548 44.9449 153.522 44.9088C153.496 44.8728 153.453 44.8548 153.388 44.8548C153.375 44.8548 153.365 44.8548 153.352 44.8548V46.1704V46.173ZM153.352 44.8574V46.173C153.041 47.1899 152.441 48.5982 151.99 49.3886C151.475 50.2974 149.792 53.5028 148.749 51.9426C147.935 50.7274 149.009 48.0138 147.979 49.0462C147.781 49.2444 147.5 49.5354 147.14 49.919C147.096 49.7774 147.042 49.6332 146.98 49.4916C146.916 49.35 146.844 49.1929 146.761 49.0256C146.79 48.9715 146.849 48.8866 146.944 48.7604C147.042 48.6343 147.181 48.4798 147.359 48.2944C147.544 48.1168 147.698 47.9468 147.822 47.7872C148.049 47.5066 148.218 47.1307 148.375 46.8037C148.486 46.5746 148.61 46.3146 148.744 46.0159C148.8 45.9232 149.542 45.4315 149.658 45.4315C149.74 45.4315 149.802 45.4907 149.843 45.6091C149.882 45.7327 149.9 45.9129 149.894 46.1575C149.887 46.5205 149.876 46.8269 149.861 47.0663C149.82 47.9855 149.735 48.92 149.866 49.8546C149.915 50.2356 149.992 50.4236 150.088 50.4236C150.211 50.4236 150.389 50.2614 150.618 49.9344C150.852 49.6074 151.135 49.1131 151.468 48.4515C151.802 47.813 152.057 47.2878 152.235 46.8758C152.41 46.4665 152.513 46.1549 152.544 45.9464C152.611 45.586 152.708 45.3105 152.848 45.1303C152.976 44.9552 153.144 44.8625 153.352 44.8522V44.8574ZM153.352 48.7398C153.272 48.8351 153.203 48.9303 153.146 49.0256C153.226 49.1955 153.295 49.3423 153.352 49.4658V48.7398ZM134.694 51.2938V50.2073C134.934 50.0425 135.16 49.8005 135.379 49.4864C135.485 49.3629 135.582 49.247 135.673 49.1363C135.727 49.1003 135.77 49.0359 135.801 48.9484C135.835 48.8634 135.871 48.7527 135.907 48.624L136.09 48.0704C136.038 47.8773 135.984 47.7229 135.935 47.6096C135.884 47.4963 135.832 47.4268 135.783 47.401C135.75 47.3804 135.68 47.3624 135.57 47.3392C135.461 47.3161 135.302 47.2929 135.098 47.2672C135.065 47.2749 135.019 47.3058 134.957 47.3701C134.892 47.4294 134.833 47.5066 134.774 47.5993L134.694 47.7229V45.2229C134.735 45.2178 134.777 45.2152 134.818 45.2152C134.959 45.2152 135.065 45.2307 135.142 45.2693C135.214 45.3053 135.253 45.3542 135.258 45.4186C135.194 45.5679 135.119 45.7173 135.047 45.864L135.101 45.9541C135.387 45.8408 135.611 45.761 135.773 45.7095C135.935 45.6606 136.038 45.6323 136.084 45.6323C136.553 45.6323 136.906 45.7739 137.135 46.0623C137.364 46.3506 137.475 46.7857 137.464 47.365C137.464 47.4783 137.446 47.607 137.418 47.7563C137.356 48.0678 137.233 48.4515 137.065 48.7218C136.991 48.8531 136.919 48.9458 136.852 49.0024C136.877 49.0745 136.906 49.1311 136.939 49.1672C136.968 49.2007 137.011 49.2213 137.063 49.2213C137.112 49.2213 137.166 49.2058 137.222 49.1723C137.279 49.1389 137.346 49.0925 137.423 49.0256C137.488 49.1672 137.547 49.3165 137.603 49.4684C137.663 49.6203 137.724 49.7696 137.784 49.919C137.665 50.0219 137.552 50.1249 137.441 50.2228C137.076 50.5291 136.393 51.1161 135.899 50.748C135.804 50.6759 135.729 50.5755 135.673 50.4442C135.508 50.6604 135.307 50.8587 135.075 51.0363C134.952 51.1316 134.823 51.2166 134.686 51.2938H134.694ZM138.273 54.6021C138.201 54.5944 138.142 54.5815 138.095 54.5583C138.046 54.5352 138.023 54.5017 138.023 54.4554C138.023 54.3395 138.18 53.8787 138.484 53.0754C138.79 52.2721 138.947 51.6491 138.955 51.2088C138.955 51.129 138.945 51.0312 138.922 50.905C138.898 50.7763 138.886 50.681 138.888 50.6064C138.893 50.3026 138.955 50.0734 139.066 49.9138C139.179 49.7542 139.341 49.6744 139.558 49.6744C139.774 49.6744 139.951 49.7104 140.098 49.7877C140.245 49.8597 140.366 49.9833 140.451 50.1507C140.49 50.2125 140.531 50.3335 140.58 50.5008C140.629 50.6733 140.683 50.8973 140.742 51.1754C140.742 51.2474 140.719 51.3273 140.678 51.4225C140.639 51.5152 140.585 51.6156 140.518 51.716C140.454 51.8447 140.397 51.9503 140.353 52.0301C140.309 52.1125 140.281 52.1794 140.268 52.2284C140.018 53.0291 139.766 53.6315 139.509 54.028C139.246 54.4245 138.996 54.6201 138.747 54.6124L138.273 54.5918V54.6021ZM134.694 45.2229V47.7229C134.62 47.8361 134.542 47.9546 134.455 48.0833C134.38 48.1631 134.305 48.2223 134.223 48.2609C134.143 48.3047 134.051 48.333 133.948 48.3536C133.881 48.3613 133.814 48.4231 133.739 48.5416C133.667 48.66 133.595 48.8351 133.518 49.0616C133.446 49.2625 133.389 49.4324 133.353 49.574C133.317 49.7156 133.301 49.834 133.299 49.9344C133.296 50.1121 133.335 50.2485 133.428 50.3412C133.515 50.4313 133.654 50.4776 133.839 50.4776C134.138 50.4776 134.411 50.3953 134.663 50.2305L134.694 50.2099V51.2964C134.573 51.3659 134.447 51.4277 134.316 51.4817C134.066 51.6027 133.379 51.8061 133.09 51.8061C132.722 51.8061 132.393 51.6517 132.104 51.3376C131.813 51.026 131.669 50.6759 131.677 50.2923C131.679 50.1378 131.721 49.9318 131.793 49.6744C131.836 49.5276 132.042 49.0694 131.746 49.0694C131.713 49.0694 131.636 49.1183 131.509 49.2161C131.059 49.5637 130.742 49.9833 130.315 50.3515C130.093 50.5137 129.805 50.7094 129.447 50.9359C128.981 51.2346 128.232 51.7675 127.722 51.9271C127.452 51.9271 127.246 51.8885 127.112 51.8036C126.978 51.7237 126.914 51.5924 126.916 51.4122C126.916 51.3401 126.932 51.2603 126.963 51.1651C127.05 50.8741 127.233 50.6192 127.341 50.3386C127.488 49.9318 127.604 49.5534 127.686 49.2032C127.766 48.8557 127.807 48.5416 127.812 48.2635C127.818 47.9237 127.771 47.6611 127.668 47.4808C127.565 47.3032 127.406 47.1976 127.194 47.1745C127.05 47.2517 126.893 47.3598 126.721 47.5014C126.553 47.643 126.378 47.8233 126.198 48.0344C126.008 48.2687 125.838 48.4566 125.686 48.6059C125.485 48.8016 125.233 49.0462 125.027 49.2367C124.463 49.7619 124.061 50.1095 123.348 50.4571C123.096 50.5806 122.908 50.6398 122.787 50.6398C122.465 50.6398 122.202 50.5575 121.996 50.3875C121.796 50.2176 121.646 49.9705 121.556 49.6409C121.543 49.5637 121.515 49.4864 121.479 49.4092C121.438 49.3294 121.386 49.2547 121.322 49.1749C121.265 49.2419 121.196 49.3165 121.118 49.4092C121.044 49.4993 120.964 49.5868 120.879 49.6795C120.699 49.8906 120.521 50.0992 120.341 50.3052C120.166 50.5111 119.983 50.7119 119.798 50.9102C119.569 51.1754 119.337 51.371 119.105 51.4895C118.876 51.6079 118.66 51.6671 118.456 51.6671C118.163 51.6671 117.923 51.577 117.746 51.3993C117.568 51.2243 117.457 50.9591 117.409 50.609C117.36 50.2743 117.324 50.0142 117.308 49.8263C117.293 49.6383 117.29 49.5251 117.306 49.4864C117.295 49.2985 117.282 49.1569 117.259 49.0591C117.239 48.9638 117.205 48.9123 117.159 48.9123L117.102 48.9432C116.276 49.7722 116.435 49.7593 115.511 50.5214C115.125 50.8407 114.731 50.9282 114.394 51.2603C114.067 51.5847 113.686 51.8319 113.256 51.9966C112.226 52.3906 110.727 52.3828 110.171 51.2294C110.115 51.1393 110.076 51.0286 110.056 50.8999C110.035 50.7711 110.027 50.609 110.032 50.421C110.032 50.3721 110.05 50.2846 110.084 50.1687C110.11 50.0837 110.043 50.0631 110.007 50.04C109.924 50.1121 109.826 50.1919 109.716 50.2768C109.541 50.4081 109.332 50.5652 109.093 50.7403C108.825 50.9333 108.596 51.0775 108.41 51.1702C108.22 51.2655 108.081 51.3118 107.98 51.3118C107.849 51.3118 107.728 51.3092 107.62 51.3015V47.9005L107.635 47.9932C107.671 48.1991 107.7 48.4025 107.723 48.6085C107.764 48.7372 107.816 48.9329 107.875 49.1929C107.937 49.4555 107.98 49.6023 108.011 49.6435C108.04 49.7053 108.089 49.7516 108.15 49.7825C108.215 49.8134 108.295 49.8263 108.39 49.8263C108.506 49.8263 108.624 49.8057 108.748 49.7645C109.118 49.6409 110.336 48.4412 110.977 47.9546C111.392 47.6044 111.788 47.2672 112.174 46.9428C112.398 46.7497 112.62 46.5823 112.841 46.4433C113.065 46.3043 113.274 46.191 113.467 46.1086C113.606 45.9335 113.863 45.7559 114.237 45.5731C114.61 45.3903 114.914 45.3028 115.145 45.3028C115.238 45.3028 115.31 45.3285 115.362 45.38C115.416 45.4341 115.449 45.4984 115.46 45.5757L115.449 46.1112C115.447 46.2991 115.39 46.4639 115.282 46.6106C115.171 46.7574 115.009 46.8913 114.795 47.0148C114.651 47.0766 114.51 47.1513 114.365 47.2311C114.221 47.3083 114.077 47.3804 113.938 47.4422C113.884 47.5092 113.745 47.6276 113.518 47.8052C113.294 47.9829 112.988 48.2223 112.602 48.521C112.424 48.6574 112.277 48.7784 112.159 48.884C112.041 48.9921 111.961 49.0797 111.912 49.1414C111.847 49.265 111.793 49.3989 111.755 49.5482C111.492 50.5729 112.02 51.0904 113.014 50.8638C113.171 50.8278 113.346 50.7814 113.541 50.7248C113.763 50.5935 113.987 50.4571 114.221 50.3154C115.272 49.6538 115.045 49.7233 115.956 48.9252C115.962 48.9097 115.964 48.8917 115.964 48.8737C116.075 48.7836 116.204 48.6574 116.345 48.503C116.489 48.3433 116.652 48.1631 116.832 47.9494C116.979 47.7537 117.128 47.5632 117.282 47.3676C117.612 46.9531 117.908 46.6261 118.214 46.1807C118.356 45.9696 118.51 45.7636 118.67 45.5654C118.93 45.4392 119.131 45.3542 119.273 45.3002C119.417 45.2513 119.512 45.2229 119.566 45.2229C119.661 45.2229 119.739 45.2538 119.79 45.3156C119.839 45.3748 119.862 45.465 119.862 45.5808C119.862 45.6194 119.849 45.6761 119.829 45.7456C119.641 46.3944 119.383 47.0689 119.185 47.728C119 48.4515 118.853 49.1955 118.992 49.937C119.11 50.56 119.955 49.5946 120.127 49.3835C120.277 49.2007 120.454 48.9895 120.665 48.7424C120.784 48.5699 121.775 47.1384 121.796 47.1178C121.95 46.9659 122.12 46.8887 122.305 46.8887C122.475 46.8887 122.609 46.9119 122.707 46.9505C122.805 46.9943 122.874 47.056 122.913 47.1436C122.931 47.1873 122.946 47.2672 122.954 47.3753C122.964 47.4834 122.97 47.6302 122.967 47.813C122.918 50.4776 124.736 48.3073 125.444 47.4911C125.75 47.1307 125.977 46.796 126.118 46.4896L126.031 46.0236C126.116 45.8614 126.329 45.6735 126.667 45.4547C127.001 45.2332 127.274 45.1251 127.48 45.1251C127.702 45.1251 127.887 45.192 128.036 45.3208C128.482 45.7121 128.984 46.0674 129.187 46.6364C129.311 46.9762 129.367 47.3933 129.36 47.8825C129.355 48.1399 129.249 48.5107 129.038 48.9895C128.829 49.4736 128.721 49.8366 128.716 50.0812C128.716 50.1146 128.729 50.1378 128.752 50.1584C128.773 50.179 128.804 50.1893 128.84 50.1893C128.925 50.1893 129.025 50.1533 129.143 50.076C129.259 50.0039 129.385 49.9009 129.522 49.7722C130.086 49.2238 130.843 48.5313 131.481 48.1013C131.576 47.9932 131.718 47.8542 131.909 47.6842C132.349 47.2955 132.671 46.881 133.054 46.5386C133.443 46.1858 133.765 45.8666 134.138 45.5139C134.241 45.4238 134.349 45.3517 134.46 45.3002C134.535 45.2667 134.614 45.2435 134.697 45.2332L134.694 45.2229ZM107.617 43.9073V41.7292L107.78 41.5413C107.844 41.495 107.929 41.4589 108.032 41.428C108.135 41.3971 108.253 41.3843 108.39 41.3843C108.552 41.3843 108.67 41.4177 108.742 41.4795C108.817 41.5465 108.853 41.6391 108.851 41.7601C108.807 41.9429 108.771 42.0948 108.745 42.2158C108.676 42.4476 108.614 42.6381 108.562 42.7874C108.513 42.9367 108.475 43.0423 108.446 43.1092C108.385 43.2482 108.302 43.3744 108.202 43.48C108.101 43.5855 107.975 43.6808 107.834 43.7683C107.754 43.8224 107.682 43.8687 107.615 43.9073H107.617ZM107.617 41.7292V43.9073C107.558 43.9408 107.507 43.9666 107.458 43.9871C107.357 44.0258 107.288 44.0464 107.249 44.0412C107.141 44.0283 107.036 44.0155 106.935 44.0052C106.837 43.9974 106.737 43.9923 106.642 43.9923C106.557 43.946 106.492 43.861 106.449 43.7297C106.402 43.601 106.382 43.4259 106.384 43.2071C106.387 43.0114 106.508 42.7668 106.752 42.4759C106.992 42.1824 107.203 42.0227 107.386 42.0022C107.455 41.9172 107.532 41.8271 107.617 41.7267V41.7292ZM107.617 47.8954C107.589 47.7229 107.553 47.5529 107.517 47.3804C107.471 47.1564 107.373 46.9839 107.218 46.8707C107.064 46.7574 106.873 46.7008 106.649 46.7008C106.564 46.7008 106.479 46.7239 106.397 46.7677C106.31 46.814 106.235 46.8913 106.168 46.9917C105.995 47.2311 105.689 47.5401 105.241 47.9237C104.165 48.8479 103.879 50.0142 103.779 48.1708C103.768 47.9932 103.748 47.8413 103.722 47.7177C103.691 47.5632 103.632 47.401 103.544 47.2311C103.459 47.0612 103.349 46.8964 103.223 46.7291C103.197 46.7162 103.073 46.5772 102.852 46.312C102.628 46.0442 102.314 45.6709 101.904 45.1869C101.606 44.8368 101.361 44.5381 101.166 44.2884C100.975 44.0412 100.826 43.8352 100.728 43.673C100.589 43.4413 100.486 43.2174 100.416 42.9959C100.344 42.7771 100.311 42.5583 100.316 42.3471C100.321 42.0768 100.473 41.755 100.764 41.392C101.057 41.029 101.495 40.6145 102.069 40.1536C102.463 39.8756 102.533 40.1794 101.966 40.5861C101.67 40.7947 101.523 40.9852 101.518 41.1628C101.518 41.2658 101.541 41.3456 101.593 41.3946C101.642 41.4486 101.714 41.4744 101.804 41.4744C101.992 41.4744 102.319 41.3225 102.793 41.0135C103.828 40.3338 104.883 39.9373 104.906 38.632C104.912 38.3874 104.863 38.1995 104.757 38.0708C104.651 37.942 104.492 37.8777 104.281 37.8777C104.173 37.8777 104.008 37.9137 103.792 37.9935C102.788 38.3514 102.278 38.6732 101.418 39.165C100.79 39.5409 100.246 39.927 99.7186 40.442C99.3118 40.8384 98.6914 41.755 98.5086 42.3497C98.4339 42.5814 98.3979 42.8157 98.3927 43.0654C98.385 43.4388 98.4159 43.7529 98.488 44.0052C98.6785 44.7132 99.9684 45.9876 100.463 46.4716C100.702 46.7059 100.947 46.9737 101.186 47.2723C101.503 47.6533 101.74 47.9803 101.897 48.2506C102.054 48.521 102.128 48.7372 102.126 48.8994C102.126 48.9715 102.082 49.0642 101.997 49.1801C101.915 49.2985 101.789 49.4324 101.616 49.5791L101.598 49.6152L101.639 49.8392C101.644 49.9009 101.503 50.0606 101.209 50.3129C100.916 50.5652 100.725 50.6939 100.643 50.6939C100.609 50.6939 100.571 50.6604 100.53 50.5935C100.53 50.5446 100.653 50.4571 100.908 50.3386C101.158 50.2202 101.287 50.0709 101.289 49.8958C101.289 49.834 101.269 49.7799 101.222 49.7362C101.176 49.6924 101.104 49.6744 101.001 49.6744C100.288 50.0142 99.5667 50.3566 98.8355 50.6939C98.4725 50.8535 98.1945 51.0235 98.0014 51.2063C97.8083 51.389 97.713 51.5744 97.7104 51.7675C97.7104 51.8628 97.7491 51.9606 97.8315 52.0481C98.2872 52.5502 98.766 52.6274 99.3762 52.4446C99.9323 52.2696 100.499 51.9992 101.07 51.6285C101.639 51.2577 102.216 50.7943 102.793 50.2331C103.287 50.197 103.683 50.1507 103.992 50.0966C104.845 49.9499 104.626 49.7593 105.233 49.2856C105.408 49.1466 105.547 49.0771 105.65 49.0771C105.689 49.0771 105.738 49.1131 105.795 49.1904C105.854 49.2625 105.918 49.3757 105.993 49.5251C106.055 49.6203 106.111 49.7079 106.16 49.7774C106.212 49.8495 106.248 49.9087 106.273 49.9653C106.474 50.5832 106.662 50.9617 106.832 51.0955C106.966 51.2011 107.226 51.2655 107.607 51.2912V47.8902L107.617 47.8954Z" fill="#3C3C3B"/>
</g>
</g>
<defs>
<clipPath id="clip0_4551_739">
<rect width="324" height="54.03" fill="white" transform="translate(0 0.590088)"/>
</clipPath>
<clipPath id="clip1_4551_739">
<rect width="291.921" height="54.03" fill="white" transform="translate(16.0398 0.590088)"/>
</clipPath>
</defs>
</svg>
