<svg xmlns="http://www.w3.org/2000/svg" xmlns:xlink="http://www.w3.org/1999/xlink" width="100" zoomAndPan="magnify" viewBox="0 0 75 74.999997" height="100" preserveAspectRatio="xMidYMid meet" version="1.0"><defs><clipPath id="3b89c39943"><path d="M 14.828125 23 L 59.828125 23 L 59.828125 52 L 14.828125 52 Z M 14.828125 23 " clip-rule="nonzero"/></clipPath><clipPath id="ce13fc0e8e"><path d="M 14.828125 44 L 59.828125 44 L 59.828125 72.230469 L 14.828125 72.230469 Z M 14.828125 44 " clip-rule="nonzero"/></clipPath><clipPath id="8fef2e6718"><path d="M 14.828125 2.480469 L 59.828125 2.480469 L 59.828125 31 L 14.828125 31 Z M 14.828125 2.480469 " clip-rule="nonzero"/></clipPath></defs><g clip-path="url(#3b89c39943)"><path fill="#afca0b" d="M 51.867188 24.984375 L 51.46875 25.382812 C 51.441406 25.414062 51.421875 25.449219 51.394531 25.484375 L 37.480469 39.394531 L 23.742188 25.660156 C 23.738281 25.652344 23.1875 25.023438 22.863281 24.773438 C 22.855469 24.765625 22.847656 24.761719 22.839844 24.757812 C 22.007812 24.117188 20.972656 23.730469 19.84375 23.730469 C 18.585938 23.730469 17.441406 24.207031 16.570312 24.984375 L 16.167969 25.382812 C 15.394531 26.253906 14.917969 27.398438 14.917969 28.65625 C 14.917969 29.953125 15.421875 31.128906 16.238281 32.007812 L 16.296875 32.0625 C 16.292969 32.066406 16.289062 32.066406 16.289062 32.066406 C 16.289062 32.066406 34.351562 50.15625 34.46875 50.246094 C 35.300781 50.894531 36.34375 51.28125 37.480469 51.28125 C 38.613281 51.28125 39.65625 50.894531 40.488281 50.246094 C 40.820312 49.992188 58.320312 32.417969 58.320312 32.417969 L 58.902344 31.835938 C 59.625 30.976562 60.066406 29.867188 60.066406 28.65625 C 60.066406 27.515625 59.675781 26.46875 59.027344 25.636719 C 58.773438 25.3125 58.484375 25.023438 58.164062 24.773438 C 57.328125 24.121094 56.28125 23.730469 55.140625 23.730469 C 53.925781 23.730469 52.824219 24.179688 51.96875 24.910156 C 51.9375 24.9375 51.898438 24.953125 51.867188 24.984375 " fill-opacity="1" fill-rule="nonzero"/></g><g clip-path="url(#ce13fc0e8e)"><path fill="#afca0b" d="M 51.867188 45.945312 L 51.46875 46.34375 C 51.441406 46.375 51.421875 46.410156 51.394531 46.445312 L 37.480469 60.359375 L 23.742188 46.621094 C 23.738281 46.613281 23.1875 45.984375 22.863281 45.734375 C 22.855469 45.726562 22.847656 45.722656 22.839844 45.71875 C 22.007812 45.078125 20.972656 44.691406 19.84375 44.691406 C 18.585938 44.691406 17.441406 45.167969 16.570312 45.945312 L 16.167969 46.34375 C 15.394531 47.214844 14.917969 48.359375 14.917969 49.617188 C 14.917969 50.910156 15.421875 52.085938 16.238281 52.964844 L 16.296875 53.023438 C 16.292969 53.027344 16.289062 53.027344 16.289062 53.027344 C 16.289062 53.027344 34.351562 71.117188 34.46875 71.207031 C 35.300781 71.855469 36.34375 72.242188 37.480469 72.242188 C 38.613281 72.242188 39.65625 71.855469 40.488281 71.207031 C 40.820312 70.953125 58.320312 53.378906 58.320312 53.378906 L 58.902344 52.796875 C 59.625 51.9375 60.066406 50.832031 60.066406 49.617188 C 60.066406 48.476562 59.675781 47.429688 59.027344 46.597656 C 58.773438 46.273438 58.484375 45.984375 58.164062 45.734375 C 57.328125 45.082031 56.28125 44.691406 55.140625 44.691406 C 53.925781 44.691406 52.824219 45.140625 51.96875 45.871094 C 51.9375 45.894531 51.898438 45.917969 51.867188 45.945312 " fill-opacity="1" fill-rule="nonzero"/></g><g clip-path="url(#8fef2e6718)"><path fill="#afca0b" d="M 51.867188 4.019531 L 51.46875 4.421875 C 51.441406 4.453125 51.421875 4.488281 51.394531 4.523438 L 37.480469 18.433594 L 23.742188 4.699219 C 23.738281 4.691406 23.1875 4.0625 22.863281 3.808594 C 22.855469 3.804688 22.847656 3.800781 22.839844 3.792969 C 22.007812 3.15625 20.972656 2.769531 19.84375 2.769531 C 18.585938 2.769531 17.441406 3.246094 16.570312 4.019531 L 16.167969 4.421875 C 15.394531 5.292969 14.917969 6.4375 14.917969 7.695312 C 14.917969 8.992188 15.421875 10.164062 16.238281 11.046875 L 16.296875 11.101562 C 16.292969 11.101562 16.289062 11.105469 16.289062 11.105469 C 16.289062 11.105469 34.351562 29.195312 34.46875 29.285156 C 35.300781 29.933594 36.34375 30.320312 37.480469 30.320312 C 38.613281 30.320312 39.65625 29.929688 40.488281 29.285156 C 40.820312 29.027344 58.320312 11.457031 58.320312 11.457031 L 58.902344 10.875 C 59.625 10.015625 60.066406 8.90625 60.066406 7.695312 C 60.066406 6.554688 59.675781 5.507812 59.027344 4.671875 C 58.773438 4.351562 58.484375 4.0625 58.164062 3.808594 C 57.328125 3.160156 56.28125 2.769531 55.140625 2.769531 C 53.925781 2.769531 52.824219 3.21875 51.96875 3.949219 C 51.9375 3.976562 51.898438 3.992188 51.867188 4.019531 " fill-opacity="1" fill-rule="nonzero"/></g></svg>