<svg xmlns="http://www.w3.org/2000/svg" xmlns:xlink="http://www.w3.org/1999/xlink" width="100" zoomAndPan="magnify" viewBox="0 0 75 74.999997" height="100" preserveAspectRatio="xMidYMid meet" version="1.0"><defs><clipPath id="a8de900bcb"><path d="M 4.644531 4.351562 L 70.644531 4.351562 L 70.644531 70.351562 L 4.644531 70.351562 Z M 4.644531 4.351562 " clip-rule="nonzero"/></clipPath></defs><g clip-path="url(#a8de900bcb)"><path fill="#afca0b" d="M 37.496094 70.644531 C 36.410156 70.644531 35.328125 70.589844 34.246094 70.484375 C 33.167969 70.375 32.09375 70.21875 31.03125 70.007812 C 29.964844 69.792969 28.914062 69.53125 27.875 69.214844 C 26.835938 68.902344 25.816406 68.535156 24.8125 68.121094 C 23.808594 67.703125 22.828125 67.242188 21.871094 66.730469 C 20.914062 66.21875 19.984375 65.660156 19.082031 65.058594 C 18.179688 64.453125 17.308594 63.808594 16.46875 63.117188 C 15.628906 62.429688 14.824219 61.703125 14.058594 60.933594 C 13.289062 60.167969 12.5625 59.363281 11.875 58.523438 C 11.183594 57.683594 10.539062 56.8125 9.9375 55.910156 C 9.332031 55.007812 8.777344 54.078125 8.265625 53.121094 C 7.753906 52.164062 7.289062 51.183594 6.875 50.179688 C 6.457031 49.179688 6.09375 48.15625 5.777344 47.117188 C 5.460938 46.078125 5.199219 45.027344 4.988281 43.964844 C 4.773438 42.898438 4.617188 41.824219 4.507812 40.746094 C 4.402344 39.664062 4.351562 38.582031 4.351562 37.496094 C 4.351562 36.410156 4.402344 35.328125 4.507812 34.246094 C 4.617188 33.167969 4.773438 32.09375 4.988281 31.03125 C 5.199219 29.964844 5.460938 28.914062 5.777344 27.875 C 6.09375 26.835938 6.457031 25.816406 6.875 24.8125 C 7.289062 23.808594 7.753906 22.828125 8.265625 21.871094 C 8.777344 20.914062 9.332031 19.984375 9.9375 19.082031 C 10.539062 18.179688 11.183594 17.308594 11.875 16.46875 C 12.5625 15.628906 13.289062 14.824219 14.058594 14.058594 C 14.824219 13.289062 15.628906 12.5625 16.46875 11.875 C 17.308594 11.183594 18.179688 10.539062 19.082031 9.9375 C 19.984375 9.332031 20.914062 8.777344 21.871094 8.265625 C 22.828125 7.753906 23.808594 7.289062 24.8125 6.875 C 25.816406 6.457031 26.835938 6.09375 27.875 5.777344 C 28.914062 5.460938 29.964844 5.199219 31.03125 4.988281 C 32.09375 4.773438 33.167969 4.617188 34.246094 4.507812 C 35.328125 4.402344 36.410156 4.351562 37.496094 4.351562 C 38.582031 4.351562 39.664062 4.402344 40.746094 4.507812 C 41.824219 4.617188 42.898438 4.773438 43.964844 4.988281 C 45.027344 5.199219 46.078125 5.460938 47.117188 5.777344 C 48.15625 6.09375 49.179688 6.457031 50.179688 6.875 C 51.183594 7.289062 52.164062 7.753906 53.121094 8.265625 C 54.078125 8.777344 55.007812 9.332031 55.910156 9.9375 C 56.8125 10.539062 57.683594 11.183594 58.523438 11.875 C 59.363281 12.5625 60.167969 13.289062 60.933594 14.058594 C 61.703125 14.824219 62.429688 15.628906 63.117188 16.46875 C 63.808594 17.308594 64.453125 18.179688 65.058594 19.082031 C 65.660156 19.984375 66.21875 20.914062 66.730469 21.871094 C 67.242188 22.828125 67.703125 23.808594 68.121094 24.8125 C 68.535156 25.816406 68.902344 26.835938 69.214844 27.875 C 69.53125 28.914062 69.792969 29.964844 70.007812 31.03125 C 70.21875 32.09375 70.375 33.167969 70.484375 34.246094 C 70.589844 35.328125 70.644531 36.410156 70.644531 37.496094 C 70.644531 38.582031 70.589844 39.664062 70.484375 40.746094 C 70.375 41.824219 70.21875 42.898438 70.007812 43.964844 C 69.792969 45.027344 69.53125 46.078125 69.214844 47.117188 C 68.902344 48.15625 68.535156 49.179688 68.121094 50.179688 C 67.703125 51.183594 67.242188 52.164062 66.730469 53.121094 C 66.21875 54.078125 65.660156 55.007812 65.058594 55.910156 C 64.453125 56.8125 63.808594 57.683594 63.117188 58.523438 C 62.429688 59.363281 61.703125 60.167969 60.933594 60.933594 C 60.167969 61.703125 59.363281 62.429688 58.523438 63.117188 C 57.683594 63.808594 56.8125 64.453125 55.910156 65.058594 C 55.007812 65.660156 54.078125 66.21875 53.121094 66.730469 C 52.164062 67.242188 51.183594 67.703125 50.179688 68.121094 C 49.179688 68.535156 48.15625 68.902344 47.117188 69.214844 C 46.078125 69.53125 45.027344 69.792969 43.964844 70.007812 C 42.898438 70.21875 41.824219 70.375 40.746094 70.484375 C 39.664062 70.589844 38.582031 70.644531 37.496094 70.644531 Z M 37.496094 70.644531 " fill-opacity="1" fill-rule="nonzero"/></g><path fill="#ffffff" d="M 37.828125 56.066406 C 37.960938 56.066406 38.027344 56.066406 38.160156 56 C 38.296875 56 38.363281 55.933594 38.496094 55.933594 C 38.628906 55.933594 38.695312 55.867188 38.828125 55.800781 C 38.960938 55.734375 39.027344 55.734375 39.160156 55.667969 C 39.292969 55.601562 39.359375 55.535156 39.425781 55.46875 C 39.558594 55.402344 39.625 55.335938 39.757812 55.269531 C 39.824219 55.203125 39.824219 55.203125 39.894531 55.203125 L 54.136719 42.488281 C 55.667969 41.15625 55.734375 38.828125 54.402344 37.363281 C 53.070312 35.832031 50.742188 35.765625 49.277344 37.097656 L 37.496094 47.546875 L 25.714844 37.03125 C 24.183594 35.699219 21.921875 35.832031 20.589844 37.296875 C 19.992188 37.960938 19.660156 38.828125 19.660156 39.691406 C 19.660156 40.691406 20.058594 41.691406 20.855469 42.421875 L 35.035156 55.132812 C 35.101562 55.203125 35.101562 55.203125 35.167969 55.203125 C 35.300781 55.269531 35.367188 55.335938 35.5 55.402344 C 35.566406 55.46875 35.699219 55.535156 35.765625 55.601562 C 35.898438 55.667969 35.964844 55.734375 36.097656 55.734375 C 36.230469 55.800781 36.296875 55.800781 36.429688 55.867188 C 36.566406 55.867188 36.632812 55.933594 36.765625 55.933594 C 36.898438 55.933594 36.964844 56 37.097656 56 C 37.230469 56 37.296875 56 37.429688 56 C 37.628906 56.066406 37.695312 56.066406 37.828125 56.066406 Z M 37.828125 56.066406 " fill-opacity="1" fill-rule="nonzero"/><path fill="#ffffff" d="M 35.167969 38.027344 C 35.300781 38.09375 35.367188 38.160156 35.5 38.230469 C 35.566406 38.296875 35.699219 38.363281 35.765625 38.429688 C 35.898438 38.496094 35.964844 38.5625 36.097656 38.5625 C 36.230469 38.628906 36.296875 38.628906 36.429688 38.695312 C 36.566406 38.695312 36.632812 38.761719 36.765625 38.761719 C 36.898438 38.761719 36.964844 38.828125 37.097656 38.828125 C 37.230469 38.828125 37.296875 38.828125 37.429688 38.828125 C 37.5625 38.828125 37.628906 38.828125 37.761719 38.828125 C 37.894531 38.828125 37.960938 38.828125 38.09375 38.761719 C 38.230469 38.761719 38.296875 38.695312 38.429688 38.695312 C 38.5625 38.695312 38.628906 38.628906 38.761719 38.5625 C 38.894531 38.496094 38.960938 38.496094 39.09375 38.429688 C 39.226562 38.363281 39.292969 38.296875 39.359375 38.230469 C 39.492188 38.160156 39.558594 38.09375 39.691406 38.027344 C 39.757812 37.960938 39.757812 37.960938 39.824219 37.960938 L 54.136719 25.25 C 55.667969 23.917969 55.734375 21.589844 54.402344 20.125 C 53.070312 18.59375 50.742188 18.527344 49.277344 19.859375 L 37.496094 30.375 L 25.714844 19.859375 C 24.183594 18.527344 21.921875 18.660156 20.589844 20.125 C 19.992188 20.789062 19.660156 21.65625 19.660156 22.519531 C 19.660156 23.519531 20.058594 24.515625 20.855469 25.25 L 35.035156 37.960938 C 35.101562 38.027344 35.167969 38.027344 35.167969 38.027344 Z M 35.167969 38.027344 " fill-opacity="1" fill-rule="nonzero"/></svg>