<svg width="312" height="191" viewBox="0 0 312 191" fill="none" xmlns="http://www.w3.org/2000/svg">
<g clip-path="url(#clip0_5348_5665)">
<mask id="mask0_5348_5665" style="mask-type:luminance" maskUnits="userSpaceOnUse" x="170" y="0" width="82" height="82">
<path d="M251.972 0H170.141V81.831H251.972V0Z" fill="white"/>
</mask>
<g mask="url(#mask0_5348_5665)">
<path d="M211.066 81.8502C233.668 81.8502 251.991 63.5274 251.991 40.9251C251.991 18.3228 233.668 0 211.066 0C188.463 0 170.141 18.3228 170.141 40.9251C170.141 63.5274 188.463 81.8502 211.066 81.8502Z" fill="#EFF4CE"/>
</g>
<mask id="mask1_5348_5665" style="mask-type:luminance" maskUnits="userSpaceOnUse" x="22" y="0" width="181" height="180">
<path d="M202.537 0H22.5566V179.98H202.537V0Z" fill="white"/>
</mask>
<g mask="url(#mask1_5348_5665)">
<path d="M112.547 179.98C162.247 179.98 202.537 139.69 202.537 89.9901C202.537 40.29 162.247 0 112.547 0C62.8466 0 22.5566 40.29 22.5566 89.9901C22.5566 139.69 62.8466 179.98 112.547 179.98Z" fill="#AFCA0B"/>
</g>
<mask id="mask2_5348_5665" style="mask-type:luminance" maskUnits="userSpaceOnUse" x="44" y="12" width="268" height="173">
<path d="M311.965 12.2388H44.3945V184.06H311.965V12.2388Z" fill="white"/>
</mask>
<g mask="url(#mask2_5348_5665)">
<path d="M111.093 161.022C109.684 160.768 109.504 156.902 109.125 155.503C108.746 154.104 109.017 152.124 108.645 150.752C108.429 149.938 108.23 147.824 108.012 147.01C107.472 145.04 106.154 140.886 105.612 138.916C105.069 136.946 104.652 133.694 104.112 131.717C103.318 128.753 102.814 123.894 102 120.918C101.206 118.007 101.115 116.87 100.32 113.959C100.104 113.162 98.5326 109.025 98.3166 108.231C98.0454 107.237 96.4928 98.2741 96.2216 97.2806C95.6985 95.3464 94.6162 92.1476 94.6162 92.1476L97.4959 83.7101L311.605 12.6011L158.96 118.523L111.093 161.022Z" fill="#FFF5DB"/>
<path d="M127.426 146.24C126.831 142.161 125.422 132.437 125.242 130.575C125.098 129.219 124.719 128.098 124.282 126.817C123.903 125.75 123.578 124.665 123.308 123.565C123.006 122.205 122.777 120.829 122.622 119.445C122.442 118.072 122.278 116.752 121.935 115.651C121.56 114.369 121.264 113.065 121.05 111.746C120.925 111.06 120.81 110.41 120.671 109.826L120.635 109.699C119.389 104.569 118.614 101.118 118.324 99.4548C118.167 98.4966 117.817 97.5805 117.294 96.7623C116.888 96.1356 116.606 95.4366 116.464 94.7034C116.339 94.0338 116.267 93.5635 116.176 93.1123C116.032 92.2988 115.936 91.5765 115.581 89.9327C115.074 87.4393 111.662 79.1627 111.626 79.0715L112.293 78.8003C112.437 79.1459 115.761 87.221 116.303 89.7887C116.646 91.4493 116.771 92.1548 116.915 92.9851C116.989 93.4387 117.078 93.9066 117.186 94.5762C117.321 95.2325 117.579 95.8576 117.944 96.4192C118.506 97.3142 118.89 98.309 119.075 99.3492C119.363 100.993 120.14 104.427 121.386 109.539L121.422 109.666C121.566 110.263 121.693 110.93 121.818 111.636C122.017 112.926 122.308 114.2 122.686 115.449C123.046 116.606 123.21 117.942 123.389 119.351C123.54 120.711 123.763 122.063 124.057 123.399C124.328 124.484 124.654 125.559 125.017 126.579C125.468 127.916 125.866 129.056 126.01 130.5C126.19 132.343 127.599 142.045 128.194 146.13L127.426 146.24Z" fill="#FFDA00"/>
<path d="M144.877 130.786C143.288 117.794 142.168 109.771 141.825 108.814C141.121 106.844 139.821 101.187 139.497 98.7348C139.298 97.2182 138.503 94.1753 137.87 91.742C137.474 90.1894 137.111 88.8335 136.987 88.1832C136.931 87.8568 136.879 87.5137 136.804 87.1897C136.559 85.4347 136.117 83.7129 135.487 82.0567C134.441 79.3474 132.326 72.2825 132.31 72.2177L132.996 72.0186C133.013 72.0905 135.127 79.1362 136.156 81.8119C136.805 83.5151 137.259 85.2861 137.51 87.0913C137.563 87.4345 137.618 87.7584 137.673 88.0848C137.781 88.7159 138.141 90.0526 138.539 91.6076C139.17 94.0649 139.965 97.127 140.181 98.6916C140.507 101.113 141.789 106.678 142.475 108.61C142.955 110.002 144.623 123.066 145.563 130.745L144.877 130.786Z" fill="#FFDA00"/>
<path d="M250.177 55.4339H249.457C249.512 49.5785 249.532 46.1997 249.512 45.6933C249.457 44.5918 249.349 43.2936 248.591 41.8081C247.979 40.6347 248.087 37.8702 248.231 34.9065C248.267 34.345 248.284 33.8578 248.284 33.5146L249.004 33.5339C249.004 33.8938 248.968 34.381 248.932 34.9593C248.824 36.9847 248.644 40.3803 249.203 41.501C249.98 43.02 250.141 44.4095 250.196 45.6741C250.252 46.1901 250.232 49.4801 250.177 55.4339Z" fill="#FFDA00"/>
<path d="M261.59 46.915C261.247 40.4981 261.372 39.903 261.427 39.7158C261.483 39.4278 261.571 39.1566 261.643 38.8855C261.914 37.9448 262.15 37.1505 261.607 36.0058C261.156 35.0459 261.264 33.6205 261.367 32.2454C261.439 31.1631 261.531 30.0232 261.315 29.3009L262.001 29.085C262.241 29.9345 262.181 31.0719 262.09 32.3006C262.001 33.5845 261.893 34.9211 262.253 35.6986C262.903 37.0881 262.615 38.0984 262.325 39.0775C262.253 39.3174 262.181 39.6006 262.126 39.8526C262.07 40.1046 262.018 41.3716 262.308 46.8646L261.59 46.915Z" fill="#FFDA00"/>
<path d="M274.969 38.223L274.25 38.2038C274.322 33.9587 274.466 33.6875 274.557 33.5435C274.665 33.3252 274.629 32.7828 274.576 32.2045C274.472 31.2856 274.478 30.3576 274.593 29.44C274.72 28.5377 274.322 25.9364 274.142 25.0149L274.845 24.8877C274.864 25.0317 275.478 28.3385 275.296 29.548C275.191 30.4124 275.185 31.286 275.279 32.1517C275.334 32.9292 275.387 33.4884 275.171 33.8867C275.15 33.9395 275.025 34.537 274.969 38.223Z" fill="#FFDA00"/>
<path d="M286.416 30.3805L285.696 30.2725C286.075 27.6688 286.022 26.8385 285.967 26.5673C285.588 25.0507 285.389 21.3647 285.389 21.2015L286.109 21.1655C286.109 21.2015 286.308 24.9403 286.67 26.3874C286.814 26.9657 286.723 28.2663 286.416 30.3805Z" fill="#FFDA00"/>
<path d="M296.564 22.8622C296.544 22.0679 296.492 21.2736 296.42 20.4961C296.348 19.6298 296.42 17.6164 296.42 17.5156L297.14 17.5324C297.14 17.5516 297.068 19.6106 297.14 20.4241C297.212 21.2376 297.264 22.0319 297.284 22.8454L296.564 22.8622Z" fill="#FFDA00"/>
<path d="M111.094 161.382H111.041C109.721 161.142 109.342 158.836 109.035 156.974C108.946 156.432 108.874 155.925 108.783 155.601C108.606 154.795 108.526 153.97 108.543 153.144C108.507 152.331 108.488 151.498 108.303 150.848C108.195 150.416 108.087 149.691 107.977 148.928C107.869 148.225 107.78 147.488 107.672 147.104C107.401 146.127 106.93 144.575 106.472 143.075C106.014 141.575 105.534 140.003 105.272 139.026C105.01 138.05 104.749 136.696 104.514 135.396C104.279 134.095 104.034 132.792 103.772 131.834C103.376 130.335 103.033 128.328 102.707 126.413C102.38 124.498 102.059 122.528 101.66 121.048C101.262 119.567 101.046 118.554 100.811 117.561C100.576 116.567 100.36 115.555 99.9806 114.11C99.8726 113.728 99.4215 112.483 98.9871 111.271C98.5072 109.99 98.0848 108.797 97.9768 108.391C97.8329 107.885 97.3985 105.444 96.9306 102.872C96.4698 100.436 96.0163 97.9093 95.8915 97.4294C95.3851 95.5312 94.3028 92.3515 94.2836 92.3155C94.2661 92.2365 94.2661 92.1546 94.2836 92.0756L97.1633 83.6357C97.1823 83.58 97.2138 83.5294 97.2554 83.4877C97.297 83.4461 97.3476 83.4147 97.4033 83.3957L311.486 12.2579C311.57 12.2303 311.661 12.2343 311.743 12.2692C311.824 12.3041 311.889 12.3674 311.927 12.4473C311.965 12.5273 311.972 12.6182 311.948 12.7031C311.923 12.788 311.868 12.8609 311.793 12.9082L159.194 118.811L111.348 161.294C111.275 161.349 111.186 161.38 111.094 161.382ZM95.03 92.1763C95.2267 92.7739 96.1482 95.5024 96.5994 97.2158C96.7434 97.7221 97.1777 100.163 97.6481 102.735C98.0992 105.173 98.5504 107.703 98.6776 108.173C98.7856 108.552 99.2367 109.8 99.6687 111.009C100.149 112.293 100.573 113.486 100.681 113.889C101.077 115.353 101.296 116.382 101.528 117.376C101.761 118.369 101.98 119.382 102.359 120.829C102.757 122.329 103.1 124.333 103.424 126.248C103.748 128.163 104.075 130.133 104.473 131.616C104.744 132.61 104.996 133.946 105.231 135.247C105.466 136.547 105.711 137.851 105.97 138.808C106.23 139.766 106.712 141.337 107.17 142.837C107.629 144.337 108.109 145.909 108.37 146.883C108.478 147.318 108.586 148.04 108.694 148.803C108.804 149.506 108.893 150.243 109.001 150.627C109.181 151.433 109.267 152.258 109.256 153.084C109.292 153.898 109.308 154.728 109.496 155.378C109.587 155.741 109.678 156.247 109.767 156.818C109.985 158.1 110.328 160.197 111.031 160.576L158.736 118.221C158.753 118.204 158.753 118.204 158.772 118.204L309.326 13.7385L97.7873 84.0292L95.03 92.1763Z" fill="#333333"/>
<path d="M196.318 92.2124C195.018 82.9974 194.478 81.4136 194.295 81.1736C193.681 80.3049 193.014 77.3053 192.256 73.8544C191.677 71.3083 191.101 68.6686 190.523 66.9168C189.673 64.3155 188.392 54.3398 188.555 53.2383L189.275 53.3463C189.148 54.1766 190.341 63.9891 191.224 66.6816C191.802 68.4526 192.397 71.1091 192.976 73.6937C193.659 76.7917 194.379 79.9978 194.91 80.7585C195.073 80.9985 195.596 81.7328 197.057 92.1044L196.318 92.2124Z" fill="#FFDA00"/>
<path d="M162.841 115.632C161.596 107.537 160.838 102.894 160.682 102.205C160.574 101.79 160.358 101.005 160.086 100.019C159.328 97.2544 158.155 93.098 157.992 91.3462C157.692 87.8734 157.063 84.4368 156.115 81.0825C155.825 80.017 155.573 79.0955 155.409 78.138C154.886 75.2104 151.493 65.8994 151.457 65.8154L152.143 65.561C152.29 65.9402 155.594 75.0304 156.134 78.0109C156.297 78.9324 156.549 79.8371 156.82 80.8906C157.784 84.2788 158.419 87.7521 158.716 91.2622C158.879 92.942 160.017 97.0624 160.775 99.8101C161.046 100.804 161.255 101.598 161.37 102.015C161.589 102.918 162.69 109.855 163.557 115.512L162.841 115.632Z" fill="#FFDA00"/>
<path d="M179.831 103.868C178.586 97.4364 177.935 93.7312 177.883 92.8649C177.643 88.111 176.654 85.6369 175.788 83.4507C175.121 81.7517 174.542 80.3047 174.506 78.2097C174.487 76.3307 174.055 75.33 173.532 74.0725C172.737 72.2993 172.213 70.417 171.977 68.4884C171.797 67.1877 171.454 65.6087 171.111 64.0608C170.767 62.4722 170.391 60.8092 170.228 59.5013L170.947 59.4102C171.108 60.694 171.471 62.3186 171.814 63.9097C172.157 65.5007 172.5 67.0725 172.697 68.39C172.932 70.2596 173.446 72.0836 174.221 73.8014C174.763 75.0828 175.233 76.2011 175.25 78.2097C175.269 80.1607 175.829 81.5693 176.479 83.1963C177.328 85.3297 178.375 87.967 178.639 92.8265C178.675 93.6592 179.344 97.4172 180.558 103.724L179.831 103.868Z" fill="#FFDA00"/>
<path d="M208.65 83.7746C208.398 80.175 207.784 71.6512 207.513 69.8561C207.457 69.4602 207.385 68.9899 207.333 68.5027C207.025 66.1342 206.591 62.8825 205.562 60.8763C204.244 58.311 205.218 48.2273 205.254 47.793L205.974 47.8674C205.958 47.9753 204.983 58.167 206.214 60.55C207.299 62.6833 207.731 65.9902 208.057 68.4115C208.129 68.8915 208.182 69.3714 208.237 69.7674C208.509 71.5744 209.123 80.139 209.392 83.7338L208.65 83.7746Z" fill="#FFDA00"/>
<path d="M223.313 74.0366L222.593 74.0174C222.773 68.3972 222.701 66.7006 222.593 66.2662C222.353 65.3063 222.321 63.5905 222.266 61.7667C222.213 60.1037 222.158 58.3879 221.995 56.9792C221.873 55.9501 221.904 54.9085 222.086 53.8884C222.249 52.7509 222.357 51.9902 221.635 50.9247C220.195 48.8297 220.822 42.8472 220.858 42.5952L221.578 42.6672C221.578 42.7224 220.963 48.6473 222.247 50.5095C223.13 51.8102 222.986 52.8037 222.823 53.9796C222.66 54.9307 222.63 55.8999 222.734 56.8593C222.914 58.2991 222.974 60.0413 223.022 61.7211C223.077 63.5089 223.13 65.1911 223.329 66.0766C223.365 66.355 223.545 67.1325 223.313 74.0366Z" fill="#FFDA00"/>
<path d="M236.148 64.7111C236.096 57.9919 236.06 54.4115 236.06 54.0683C236.04 53.418 235.985 52.7509 235.913 52.1005C235.86 51.575 235.805 50.9966 235.733 50.3295C235.674 49.6623 235.668 48.9914 235.716 48.3233C235.767 47.7334 235.755 47.1397 235.68 46.5523C235.498 44.9805 235.066 38.2397 235.047 37.9517L235.767 37.8965C235.767 37.9685 236.218 44.9085 236.4 46.4611C236.475 47.0912 236.487 47.727 236.436 48.3593C236.388 48.9914 236.394 49.6264 236.453 50.2575C236.508 50.9247 236.58 51.503 236.616 52.0261C236.708 52.7031 236.756 53.3852 236.76 54.0683C236.76 54.4115 236.779 57.9895 236.851 64.6944L236.148 64.7111Z" fill="#FFDA00"/>
<path d="M136.842 119.372C135.901 120.419 136.245 123.274 135.522 124.323C134.404 125.967 133.338 127.865 132.218 129.526C131.767 130.176 131.188 134.152 130.756 134.805C129.871 136.089 128.625 137.498 127.975 138.926C126.206 142.827 120.754 146.967 119.218 149.225C118.316 150.543 117.973 151.575 117.071 152.892C116.365 153.921 114.09 156.686 113.387 157.718C112.826 158.548 112.187 160.192 111.129 161.025C111.129 161.025 114.561 159.163 115.734 158.277C117.087 157.264 118.854 155.261 120.212 154.248L123.425 151.862L126.514 149.568C127.416 148.882 130.113 147.778 131.008 147.092C131.75 146.549 133.247 144.582 133.989 144.039C135.613 142.839 139.748 140.533 141.373 139.321C143.125 138.021 144.84 135.907 146.592 134.606C147.459 133.956 154.139 130.361 154.991 129.711C158.404 127.162 161.231 124.94 163.568 123.042C162.128 117.349 154.36 116.104 154.36 116.104L136.842 119.372Z" fill="#FFDA00"/>
<path d="M140.958 140.008L140.452 139.482C140.507 139.43 145.972 134.169 146.691 130.483C146.963 129.13 148.479 126.817 149.571 125.137C149.895 124.63 150.183 124.215 150.365 123.889C150.581 123.527 151.393 121.83 153.994 115.919L154.661 116.21C152.568 121.009 151.321 123.709 150.997 124.268C150.797 124.594 150.517 125.026 150.183 125.533C149.173 127.088 147.637 129.418 147.404 130.63C146.624 134.532 141.174 139.79 140.958 140.008Z" fill="#FFDA00"/>
<path d="M111.093 161.383C110.998 161.383 110.906 161.345 110.839 161.277C110.771 161.21 110.733 161.118 110.733 161.023C110.734 160.966 110.747 160.911 110.772 160.861C110.797 160.811 110.833 160.767 110.877 160.732C111.545 160.19 112.051 159.268 112.502 158.455C112.701 158.095 112.881 157.752 113.061 157.495C113.424 156.972 114.182 155.995 114.921 155.057C115.66 154.119 116.402 153.159 116.745 152.672C117.132 152.088 117.487 151.485 117.81 150.865C118.14 150.222 118.508 149.6 118.912 149.002C119.49 148.153 120.592 147.071 121.854 145.806C123.949 143.744 126.55 141.16 127.632 138.758C128.083 137.745 128.832 136.752 129.552 135.813C129.876 135.379 130.183 134.981 130.435 134.585C130.618 134.314 130.889 133.066 131.122 132.072C131.448 130.592 131.664 129.672 131.916 129.308C132.477 128.494 133.017 127.592 133.56 126.723C134.102 125.854 134.661 124.935 135.22 124.103C135.491 123.687 135.599 122.838 135.7 122.027C135.847 120.923 135.971 119.766 136.569 119.116C136.619 119.057 136.689 119.018 136.766 119.008L154.262 115.701H154.389C154.713 115.756 162.388 117.057 163.888 122.9C163.904 122.967 163.901 123.036 163.878 123.101C163.856 123.165 163.815 123.221 163.76 123.263C161.377 125.233 158.481 127.472 155.184 129.948C154.733 130.292 152.89 131.321 150.941 132.425C149.098 133.471 147.185 134.539 146.787 134.846C145.882 135.566 145.026 136.344 144.224 137.176C143.396 138.033 142.509 138.83 141.57 139.562C140.74 140.176 139.276 141.078 137.85 141.947C136.425 142.816 134.971 143.699 134.184 144.296C133.67 144.752 133.193 145.247 132.758 145.777C132.163 146.427 131.621 147.061 131.225 147.349C130.484 147.824 129.711 148.247 128.911 148.614C128.15 148.966 127.414 149.371 126.708 149.825L120.428 154.543C119.656 155.163 118.921 155.828 118.225 156.533C117.506 157.255 116.746 157.937 115.95 158.575C114.751 159.46 111.437 161.267 111.293 161.356C111.228 161.374 111.161 161.383 111.093 161.383ZM137.039 119.697C136.66 120.203 136.559 121.18 136.425 122.118C136.291 123.056 136.185 123.961 135.813 124.518C135.252 125.329 134.712 126.234 134.169 127.1C133.627 127.966 133.068 128.89 132.509 129.72C132.326 129.992 132.057 131.239 131.822 132.233C131.496 133.714 131.28 134.633 131.028 134.997C130.757 135.413 130.45 135.811 130.126 136.243C129.439 137.164 128.717 138.105 128.302 139.063C127.164 141.592 124.51 144.212 122.36 146.327C121.115 147.555 120.049 148.621 119.507 149.417C119.12 150.001 118.765 150.604 118.441 151.224C118.114 151.867 117.746 152.488 117.34 153.084C116.98 153.607 116.222 154.584 115.48 155.525C114.739 156.465 113.999 157.421 113.659 157.925C113.467 158.216 113.291 158.518 113.133 158.829C112.963 159.159 112.777 159.479 112.574 159.789C113.62 159.192 114.868 158.45 115.48 157.999C116.253 157.381 116.989 156.717 117.683 156.012C118.403 155.289 119.162 154.607 119.958 153.97L126.243 149.271C126.983 148.797 127.755 148.374 128.554 148.006C129.315 147.657 130.051 147.256 130.757 146.807C131.271 146.351 131.748 145.855 132.182 145.324C132.649 144.757 133.163 144.232 133.718 143.752C134.548 143.137 136.01 142.235 137.438 141.366C138.866 140.498 140.317 139.615 141.102 139.017C142.008 138.298 142.864 137.519 143.667 136.687C144.495 135.83 145.382 135.033 146.321 134.302C146.773 133.958 148.613 132.929 150.564 131.827C152.405 130.779 154.32 129.713 154.735 129.406C157.948 127.006 160.766 124.815 163.112 122.881C161.673 117.914 155.023 116.577 154.32 116.431L137.039 119.697Z" fill="#333333"/>
<path d="M44.7549 80.3242L57.1615 77.1806C59.9764 76.4607 65.827 75.2296 69.3474 74.3249C72.5078 73.5306 74.6748 72.4651 78.3224 71.5436C82.8003 70.4037 88.1085 69.3191 93.2176 68.0376C94.6094 67.6753 96.0973 67.7832 97.5371 67.4233C98.257 67.2409 98.9097 66.5906 99.6321 66.4106C102.197 65.7603 104.868 65.3259 107.551 64.6396C109.068 64.2604 110.548 63.6461 112.111 63.2477C113.284 62.9598 114.51 62.8878 115.71 62.5806C118.655 61.8391 121.597 60.8456 124.649 60.0681C127.791 59.2738 131.004 58.6954 134.248 57.8819C135.621 57.5388 136.958 56.9604 138.347 56.5981C139.936 56.2021 141.467 55.5686 143.077 55.1582C145.587 54.5271 148.205 54.3447 150.756 53.6944C153.59 52.9745 156.391 52.0146 159.261 51.2946C161.121 50.8147 163.052 50.5747 164.929 50.0948C167.981 49.3173 171.015 48.3046 174.084 47.5295C175.401 47.1839 176.774 47.0759 178.111 46.7519C180.765 46.0824 183.39 45.1801 186.056 44.4938C187.318 44.1674 188.53 43.6251 189.793 43.2939C191.364 42.8956 192.574 43.0395 194.146 42.6412C196.221 42.118 196.673 41.6669 198.748 41.1246C200.735 40.6182 204.726 39.4975 206.711 38.9912C209.943 38.1801 213.248 37.8177 216.444 37.0042C219.82 36.1547 223.089 34.8444 226.393 34.0045C229.407 33.2462 232.441 32.7039 235.402 31.9624C236.523 31.6744 237.677 31.6192 238.778 31.348C241.776 30.5897 244.684 29.6154 247.59 28.8739L253.11 27.4821C255.709 26.8125 257.823 26.4886 260.309 25.855C260.851 25.711 261.789 25.2767 262.313 25.1351C265.473 24.3408 267.856 23.6953 270.834 22.9321C272.135 22.6058 274.103 22.1546 275.367 21.8283C277.841 21.1971 280.152 20.1293 282.463 19.5533C286.075 18.6318 289.578 18.2335 292.782 17.42C295.563 16.7144 298.145 15.8121 300.584 15.1978C303.346 14.4923 311.706 12.6133 311.706 12.6133L300.62 16.6784C299.571 17.0576 297.514 18.0703 296.449 18.4494C294.769 19.0638 291.373 20.0765 289.696 20.6908C288.287 21.2139 285.506 22.4786 284.081 22.985C282.293 23.6353 278.645 24.7392 276.857 25.3847C275.54 25.8646 272.958 27.0645 271.657 27.5445C269.977 28.1588 266.565 29.1691 264.885 29.7834C263.685 30.2369 261.221 30.8873 260.011 31.3192C258.929 31.7176 256.815 32.7303 255.733 33.1262C254.451 33.6062 252.176 34.7173 250.892 35.1876C249.068 35.8547 245.169 36.9946 243.345 37.6617C240.511 38.7104 234.86 41.0214 232.026 42.0533C231.267 42.3244 229.731 42.6484 228.992 42.9196C227.672 43.3995 226.228 44.3834 224.913 44.8537C222.993 45.5593 218.016 46.9319 216.101 47.6374C213.221 48.6837 208.609 50.5819 205.72 51.6474C205.069 51.8874 202.631 52.5689 201.981 52.8233C199.689 53.6728 196.44 55.0982 194.146 55.9429C191.746 56.8284 185.569 58.8514 183.167 59.7201L177.069 61.9135L170.535 64.3132C168.221 65.1627 164.485 65.9378 162.174 66.7873C159.592 67.728 153.535 70.5645 150.96 71.5028L147.802 72.6595C145.642 73.4562 136.156 76.2015 134.025 76.9958C132.669 77.4758 132.237 78.3709 130.884 78.8772C127.469 80.1227 122.161 81.5865 118.748 82.8344C117.829 83.1775 114.47 84.8934 113.548 85.2341C112.087 85.7765 111.436 86.4076 109.992 86.9499C107.969 87.6915 101.593 89.3905 99.5745 90.132C98.3458 90.5831 94.6814 92.1718 94.6814 92.1718C94.2015 91.1783 93.4815 91.1975 92.8576 90.7463C91.6121 89.8416 90.1675 89.1361 88.4685 88.0346C87.9453 87.6914 84.137 86.518 81.5908 85.4333C79.947 84.747 79.1167 83.7535 77.4561 83.2471C74.5764 82.3784 72.563 81.7641 69.7625 81.277C68.6971 81.097 67.814 81.5841 66.7845 81.4401C65.5846 81.277 62.5777 80.3746 61.4403 80.2643C57.7015 79.9043 55.2657 80.5906 52.4844 80.6266C49.9042 80.6807 47.323 80.5797 44.7549 80.3242Z" fill="white"/>
<path d="M152.966 70.8549C152.966 70.8549 151.047 67.3681 150.365 66.1226C149.683 64.8772 146.525 61.8751 145.021 60.7184C144.275 60.1601 143.483 59.6649 142.655 59.2378C142.275 59.0386 141.88 58.8226 141.428 58.5515C139.821 57.558 136.66 57.4836 136.629 57.4836L136.648 56.7637C136.792 56.7637 140.041 56.8549 141.812 57.9395C142.244 58.2107 142.607 58.3907 142.986 58.6067C143.847 59.0459 144.669 59.5599 145.441 60.1425C147.013 61.3424 150.262 64.4428 150.984 65.7627C151.663 67.0081 153.583 70.495 153.583 70.495L152.966 70.8549Z" fill="#FFF5DB"/>
<path d="M133.954 77.2162C133.934 77.197 132.598 75.6252 130.431 72.7719C130.168 72.4736 129.871 72.2063 129.548 71.9752C129.179 71.7049 128.835 71.403 128.518 71.0729C128.278 70.7825 128.038 70.4945 127.798 70.1874C127.325 69.576 126.812 68.9964 126.262 68.4524C125.709 67.9713 125.118 67.5363 124.494 67.1517C124.254 66.9885 124.014 66.8446 123.808 66.7006C123.346 66.3887 122.823 66.1792 122.274 66.0862C121.861 65.9988 121.458 65.8651 121.074 65.6879C120.769 65.5439 120.462 65.3975 120.136 65.2367C119.221 64.7556 118.266 64.3541 117.283 64.0369C114.775 63.3865 111.18 63.8905 111.144 63.9097L111.036 63.1898C111.18 63.1706 114.828 62.6474 117.465 63.3337C118.5 63.659 119.503 64.0766 120.462 64.5816C120.769 64.7256 121.074 64.8888 121.381 65.0135C121.73 65.1667 122.093 65.2817 122.466 65.3567C123.097 65.4782 123.698 65.7228 124.235 66.0766C124.451 66.2206 124.669 66.3646 124.904 66.5278C125.568 66.9381 126.196 67.4037 126.781 67.9196C127.36 68.4821 127.897 69.086 128.389 69.7266C128.629 70.0338 128.857 70.3026 129.092 70.5737C129.381 70.8644 129.689 71.1361 130.013 71.3872C130.387 71.6508 130.727 71.9604 131.024 72.3088C133.183 75.1452 134.491 76.7195 134.508 76.7363L133.954 77.2162Z" fill="#FFF5DB"/>
<path d="M113.911 85.0587C113.911 85.0395 113.296 83.3045 110.698 80.8112C110.047 80.1969 108.276 78.7882 107.554 78.2819C106.652 77.6316 105.207 76.7101 104.233 76.1221C103.603 75.7589 102.911 75.5149 102.193 75.4022C101.562 75.299 100.949 75.1109 100.369 74.8431C99.7942 74.5615 99.2393 74.2408 98.7084 73.8832C98.0581 73.4311 97.3545 73.0612 96.6135 72.7817C96.1578 72.6486 95.6924 72.5515 95.2216 72.4913C94.2537 72.3802 93.3129 72.0991 92.4427 71.661C91.8567 71.3712 91.2379 71.1528 90.5997 71.0107C88.6772 70.6742 86.735 70.4626 84.7852 70.3771L84.8236 69.6572C86.8032 69.7475 88.7751 69.9647 90.7269 70.3075C91.421 70.4513 92.0942 70.6819 92.7307 70.9939C93.2089 71.2237 93.7039 71.417 94.2113 71.5722C94.5905 71.6634 94.9528 71.7354 95.332 71.7882C95.8452 71.848 96.3526 71.9507 96.8486 72.0954C97.6415 72.4033 98.3979 72.7976 99.1044 73.2712C99.6132 73.6128 100.144 73.9206 100.693 74.1927C101.225 74.4254 101.782 74.5953 102.354 74.6991C103.157 74.8236 103.929 75.0996 104.629 75.5126C105.605 76.1077 107.067 77.0484 107.988 77.7155C108.747 78.2579 110.534 79.6665 111.221 80.3169C113.964 82.9374 114.597 84.7804 114.633 84.8524L113.911 85.0587Z" fill="#FFF5DB"/>
<path d="M171.102 64.2605L171.013 64.1525C169.99 62.9079 169.18 61.5038 168.613 59.9962C168.09 58.6403 166.825 57.3564 165.815 56.3269C165.396 55.9307 165.01 55.5023 164.658 55.0455C163.938 54.0688 160.339 52.2258 159.007 51.5947L159.314 50.9443C159.82 51.1843 164.279 53.3105 165.237 54.6111C165.579 55.0328 165.947 55.4335 166.338 55.811C167.404 56.8957 168.721 58.2323 169.299 59.7322C169.834 61.1669 170.606 62.502 171.581 63.6821L171.673 63.7901L171.102 64.2605Z" fill="#FFF5DB"/>
<path d="M188.878 57.7908C188.806 57.63 187.162 54.016 186.91 53.1473C186.67 52.3697 185.286 50.9875 183.625 49.4253C181.873 47.7623 178.749 46.9152 178.713 46.896L178.893 46.1904C179.02 46.2264 182.217 47.1119 184.112 48.9021C185.972 50.654 187.306 51.9738 187.597 52.9313C187.837 53.7448 189.517 57.4476 189.545 57.4908L188.878 57.7908Z" fill="#FFF5DB"/>
<path d="M204.714 51.9905C204.678 51.8825 203.792 49.5163 203.576 48.758C203.394 48.0885 202.221 46.4087 200.85 44.8368C199.55 43.337 196.497 42.1443 196.48 42.1251L196.72 41.458C196.848 41.5108 199.953 42.7227 201.378 44.3665C202.578 45.7583 203.996 47.6541 204.258 48.5756C204.455 49.3171 205.359 51.7385 205.376 51.7553L204.714 51.9905Z" fill="#FFF5DB"/>
<path d="M220.405 46.3151C220.369 46.2431 219.61 44.3449 219.411 43.6586C219.25 43.0635 218.166 41.5276 216.92 40.1166C215.72 38.7631 213.525 37.9856 213.508 37.9568L213.748 37.2705C213.837 37.3065 216.148 38.1392 217.467 39.6198C218.622 40.9205 219.886 42.6003 220.121 43.433C220.301 44.0834 221.081 45.9984 221.096 46.0176L220.405 46.3151Z" fill="#FFF5DB"/>
<path d="M234.579 41.0358C234.56 40.9638 233.982 39.4448 233.821 38.8496C233.674 38.3241 232.808 37.0234 231.815 35.7947C230.855 34.6381 228.765 33.7718 228.729 33.7526L229 33.0854C229.088 33.1214 231.311 34.0238 232.376 35.3244C233.295 36.4643 234.325 37.9281 234.536 38.6504C234.699 39.2096 235.277 40.7646 235.277 40.7646L234.579 41.0358Z" fill="#FFF5DB"/>
<path d="M248.084 35.9819C248.065 35.9099 247.487 34.4269 247.364 33.9589C247.273 33.6326 246.714 32.7111 245.864 31.6624C245.161 30.7961 243.705 30.2009 243.681 30.1817L243.952 29.5122C244.024 29.5482 245.593 30.2009 246.407 31.192C247.11 32.0583 247.887 33.179 248.051 33.7573C248.159 34.1917 248.754 35.6915 248.754 35.7083L248.084 35.9819Z" fill="#FFF5DB"/>
<path d="M261.445 30.9398C261.265 30.6998 259.765 28.6096 259.496 27.9401C259.46 27.8681 259.256 27.4889 257.996 26.6034L258.411 26.0083C259.405 26.7114 260.002 27.273 260.163 27.6689C260.362 28.1753 261.591 29.8935 262.042 30.5078L261.445 30.9398Z" fill="#FFF5DB"/>
<path d="M274.156 26.3973C274.156 26.3613 273.472 23.58 271.955 22.8745L272.26 22.2241C274.103 23.0736 274.842 26.1093 274.878 26.2365L274.156 26.3973Z" fill="#FFF5DB"/>
<path d="M285.658 22.2313C285.658 22.2121 285.278 20.2443 283.51 19.5748L283.75 18.9053C285.91 19.7188 286.332 22.0249 286.351 22.1233L285.658 22.2313Z" fill="#FFF5DB"/>
<path d="M297.052 18.3652L296.332 18.274C296.332 18.238 296.404 17.4797 295.466 16.8653L295.862 16.251C297.196 17.1365 297.052 18.3292 297.052 18.3652Z" fill="#FFF5DB"/>
<path d="M94.6458 92.5387C94.5777 92.542 94.5102 92.5247 94.452 92.4892C94.3939 92.4537 94.3477 92.4016 94.3194 92.3395C94.2193 92.1242 94.0764 91.9314 93.8994 91.773C93.7224 91.6146 93.515 91.4938 93.2899 91.418C93.0522 91.3087 92.8228 91.1819 92.6036 91.0389C91.8837 90.5325 91.123 90.0622 90.3647 89.6302C89.6975 89.2319 88.9944 88.8335 88.2361 88.3464C88.0177 88.2024 86.8443 87.7872 85.726 87.3865C84.3893 86.9065 82.7287 86.321 81.4064 85.7787C80.735 85.4835 80.0923 85.1268 79.4867 84.7132C78.8119 84.2326 78.0695 83.8549 77.2837 83.5925C74.3032 82.6878 72.3546 82.1095 69.6285 81.6415C69.152 81.584 68.6691 81.6083 68.2007 81.7135C67.6975 81.8242 67.1799 81.8542 66.6673 81.8023C65.8152 81.6588 64.9711 81.4722 64.1379 81.2431C63.2203 80.9884 62.2894 80.7841 61.3494 80.6312C59.0385 80.4152 57.2507 80.5952 55.5181 80.7752C54.4694 80.8832 53.4951 80.9744 52.4296 80.9936C49.8554 81.0285 47.2813 80.9196 44.7193 80.6672C44.6237 80.6569 44.536 80.6093 44.4753 80.5347C44.4147 80.4601 44.3859 80.3645 44.3953 80.2689C44.4052 80.1966 44.4362 80.1289 44.4844 80.0743C44.5327 80.0196 44.596 79.9804 44.6665 79.9617L57.0707 76.818C58.4074 76.4749 60.4111 76.0237 62.5421 75.5366C64.9251 74.9942 67.3992 74.4327 69.2614 73.9624C70.778 73.5832 72.0403 73.1512 73.3769 72.6809C74.8168 72.1745 76.3214 71.6682 78.234 71.181C80.3938 70.6387 82.7311 70.0964 85.2052 69.5372C87.8041 68.9397 90.4846 68.3374 93.1244 67.6582C93.842 67.4925 94.5727 67.3897 95.3081 67.3511C96.0261 67.3112 96.7391 67.2084 97.4391 67.0439C97.774 66.9315 98.0903 66.7698 98.3774 66.564C98.7312 66.3221 99.1218 66.139 99.5341 66.0216C100.816 65.6953 102.133 65.4241 103.414 65.1553C104.734 64.8841 106.088 64.5938 107.441 64.2506C108.183 64.0706 108.941 63.8163 109.663 63.5643C110.386 63.3123 111.197 63.0579 111.991 62.8588C112.589 62.7148 113.22 62.6068 113.815 62.5156C114.41 62.4244 115.015 62.3356 115.586 62.1916C117.026 61.8293 118.528 61.3781 119.953 60.963C121.434 60.5286 122.97 60.0775 124.513 59.6791C126.056 59.2808 127.69 58.9376 129.243 58.5944C130.831 58.2513 132.475 57.8913 134.081 57.493C134.76 57.3174 135.43 57.1059 136.087 56.8594C136.771 56.6194 137.457 56.3795 138.179 56.2091C138.957 56.0099 139.751 55.7579 140.51 55.506C141.268 55.254 142.098 54.9804 142.909 54.786C144.172 54.4621 145.491 54.2629 146.749 54.0469C148.006 53.8309 149.314 53.6318 150.588 53.3054C151.997 52.9431 153.425 52.5279 154.795 52.1055C156.204 51.6904 157.648 51.256 159.093 50.9057C160.031 50.6657 161.013 50.4881 161.946 50.3081C162.88 50.1282 163.842 49.9482 164.764 49.713C166.28 49.3314 167.833 48.8803 169.323 48.4291C170.813 47.978 172.373 47.5269 173.928 47.1453C174.612 46.9653 175.299 46.8573 175.968 46.7493C176.638 46.6413 177.305 46.5309 177.953 46.3702C179.273 46.027 180.607 45.6287 181.907 45.2495C183.208 44.8703 184.562 44.4528 185.898 44.1096C186.513 43.9488 187.127 43.7305 187.739 43.5313C188.351 43.3321 188.987 43.0993 189.637 42.9361C190.372 42.7584 191.121 42.6436 191.876 42.593C192.587 42.546 193.293 42.4433 193.988 42.2858C194.755 42.0879 195.508 41.8402 196.243 41.5443C197.002 41.2377 197.78 40.9843 198.574 40.786C199.567 40.534 201.084 40.1165 202.564 39.7205C204.045 39.3246 205.542 38.907 206.555 38.6526C208.197 38.2375 209.86 37.9327 211.484 37.6423C213.109 37.352 214.717 37.064 216.284 36.6656C217.963 36.2313 219.66 35.6913 221.285 35.149C222.909 34.6067 224.572 34.0811 226.233 33.6492C227.766 33.27 229.302 32.9292 230.792 32.6197C232.254 32.3125 233.771 31.9862 235.232 31.607C235.811 31.4806 236.389 31.3718 236.967 31.2806C237.519 31.2067 238.067 31.1042 238.608 30.9735C240.108 30.5943 241.625 30.1432 243.07 29.728C244.514 29.3128 245.976 28.8785 247.42 28.4993L252.94 27.1075C254.276 26.7643 255.486 26.51 256.642 26.2772C257.799 26.0444 258.917 25.7972 260.144 25.4997C260.47 25.4034 260.79 25.2888 261.104 25.1565C261.445 25.0116 261.795 24.885 262.15 24.7773C263.758 24.379 265.166 23.9998 266.539 23.6375C267.912 23.2751 269.21 22.9343 270.674 22.572C271.324 22.4088 272.154 22.2096 272.965 22.0128C273.777 21.8161 274.573 21.6313 275.188 21.4705C276.418 21.147 277.63 20.7544 278.816 20.2946C279.953 19.8987 281.127 19.4643 282.284 19.174C284.16 18.706 286.003 18.3628 287.772 18.0365C289.452 17.7293 291.059 17.4414 292.593 17.043C294.018 16.6806 295.41 16.2655 296.747 15.8671C298.009 15.488 299.219 15.128 300.392 14.8208C303.137 14.1153 311.431 12.2555 311.534 12.2363C311.627 12.2161 311.725 12.2332 311.805 12.2839C311.886 12.3345 311.944 12.4148 311.966 12.5075C311.987 12.5943 311.974 12.686 311.93 12.7635C311.885 12.8409 311.812 12.8979 311.726 12.9226L300.639 16.9878C300.133 17.1702 299.339 17.5301 298.58 17.8733C297.822 18.2165 297.008 18.5788 296.468 18.778C295.619 19.0852 294.309 19.4979 293.073 19.8987C291.837 20.2994 290.546 20.7098 289.713 21.017C289.008 21.2713 287.942 21.7225 286.932 22.1568C285.922 22.5912 284.82 23.0591 284.115 23.3135C283.212 23.6375 281.823 24.0886 280.486 24.5134C279.15 24.9381 277.777 25.3821 276.887 25.7132C276.236 25.9532 275.26 26.3828 274.305 26.7787C273.349 27.1747 272.354 27.6282 271.686 27.8634C270.837 28.1706 269.527 28.5833 268.291 28.9841C267.055 29.3848 265.745 29.7976 264.914 30.1048C264.3 30.3207 263.362 30.6111 262.459 30.8823C261.557 31.1534 260.636 31.4246 260.04 31.6406C259.515 31.8398 258.704 32.1997 257.926 32.5429C257.149 32.886 256.321 33.2484 255.767 33.4644C255.135 33.7044 254.233 34.0979 253.367 34.4771C252.501 34.8562 251.579 35.2714 250.929 35.5258C250.007 35.8689 248.546 36.3201 247.137 36.7712C245.728 37.2224 244.284 37.6759 243.381 37.9999C241.973 38.5254 239.806 39.3749 237.73 40.1861C235.654 40.9972 233.487 41.8659 232.06 42.3914C231.664 42.5354 231.085 42.6818 230.507 42.8426C230.005 42.9589 229.511 43.1039 229.026 43.2769C228.342 43.5501 227.678 43.8709 227.039 44.2368C226.369 44.6122 225.676 44.944 224.964 45.2303C224.004 45.5927 222.237 46.1158 220.541 46.6222C218.844 47.1285 217.109 47.6708 216.152 48.014C214.712 48.5371 212.811 49.2955 210.971 50.0202C209.13 50.7449 207.215 51.5008 205.77 52.0239C205.427 52.1511 204.688 52.3671 203.894 52.6215C203.1 52.8759 202.358 53.1014 202.051 53.1998C200.913 53.615 199.505 54.1933 198.151 54.7524C196.798 55.3116 195.37 55.8923 194.216 56.3075C193.016 56.7418 190.82 57.4809 188.725 58.2057C186.63 58.9304 184.446 59.6455 183.254 60.1015L170.689 64.709C169.515 65.1433 167.979 65.5585 166.482 65.9568C164.984 66.3552 163.465 66.7703 162.328 67.1855C161.047 67.6654 158.86 68.6133 156.749 69.5348C154.637 70.4563 152.415 71.4306 151.116 71.901L147.956 73.0576C146.871 73.456 143.91 74.3583 141.04 75.2174C138.17 76.0765 135.225 76.986 134.16 77.3772C133.622 77.5913 133.122 77.8903 132.679 78.2627C132.181 78.6782 131.62 79.0134 131.019 79.2562C129.303 79.8897 127.083 80.576 124.935 81.2431C122.788 81.9103 120.582 82.599 118.886 83.2133C118.451 83.3765 117.369 83.8997 116.323 84.4132C115.221 84.9555 114.163 85.4427 113.683 85.6251C113.086 85.8583 112.506 86.1359 111.95 86.4554C111.36 86.8048 110.741 87.1042 110.1 87.3505C109.071 87.7296 106.942 88.344 104.864 88.9415C102.786 89.539 100.676 90.1414 99.6828 90.5133C98.483 90.9645 94.8426 92.5363 94.8066 92.5555C94.754 92.5424 94.6999 92.5367 94.6458 92.5387ZM69.187 80.8832C69.3747 80.8829 69.5621 80.9014 69.7461 80.9384C72.5082 81.4183 74.476 82.0039 77.4925 82.9254C78.3408 83.2075 79.1436 83.6117 79.8754 84.1252C80.4468 84.5084 81.0507 84.8408 81.68 85.1187C82.9807 85.6611 84.6245 86.2394 85.9611 86.7098C87.5306 87.2689 88.3609 87.5593 88.6321 87.7392C89.3736 88.2192 90.0719 88.6247 90.727 89.0039C91.5252 89.4464 92.2968 89.9352 93.038 90.4677C93.2141 90.5878 93.4013 90.6906 93.5971 90.7749C94.0902 90.957 94.5111 91.2938 94.797 91.7348C95.7017 91.3389 98.3726 90.199 99.4213 89.815C100.47 89.4311 102.579 88.8215 104.657 88.224C106.736 87.6265 108.845 87.0241 109.839 86.6522C110.436 86.4199 111.016 86.1423 111.571 85.8219C112.16 85.4761 112.776 85.1799 113.414 84.9363C113.846 84.7732 114.931 84.25 115.977 83.7365C117.079 83.1941 118.137 82.707 118.617 82.5366C120.33 81.9031 122.552 81.2168 124.7 80.5472C126.848 79.8777 129.053 79.1938 130.75 78.5794C131.288 78.3655 131.788 78.0665 132.23 77.6939C132.729 77.2774 133.289 76.9413 133.891 76.698C134.976 76.3021 137.935 75.3974 140.807 74.5383C143.68 73.6792 146.622 72.7673 147.687 72.3785L150.845 71.2218C152.127 70.7419 154.313 69.7964 156.444 68.8749C158.575 67.9534 160.783 66.9695 162.083 66.4728C163.257 66.0384 164.809 65.6233 166.29 65.2273C167.771 64.8313 169.306 64.4138 170.444 63.9986L183.011 59.3911C184.211 58.9568 186.405 58.2153 188.5 57.493C190.594 56.7706 192.778 56.0531 193.971 55.5948C195.108 55.1796 196.517 54.6013 197.87 54.0421C199.224 53.483 200.652 52.9023 201.806 52.4703C202.149 52.3431 202.891 52.1271 203.702 51.8728C204.46 51.6328 205.238 51.3928 205.545 51.2944C206.97 50.7713 208.885 50.013 210.726 49.2883C212.566 48.5635 214.481 47.8076 215.926 47.2845C216.886 46.9221 218.652 46.399 220.351 45.8926C222.05 45.3863 223.78 44.8439 224.738 44.5008C225.422 44.2286 226.086 43.9078 226.725 43.5409C227.395 43.1655 228.088 42.8336 228.801 42.5474C229.197 42.4034 229.775 42.257 230.353 42.0962C230.855 41.9799 231.349 41.8349 231.834 41.6619C233.243 41.1387 235.41 40.2892 237.485 39.4565C239.561 38.6238 241.728 37.7767 243.156 37.2536C244.075 36.9104 245.539 36.4569 246.948 36.0057C248.356 35.5546 249.798 35.1034 250.703 34.777C251.334 34.5371 252.237 34.1459 253.103 33.7644C253.969 33.3828 254.891 32.9701 255.541 32.7181C256.064 32.5189 256.878 32.1565 257.653 31.8134C258.428 31.4702 259.261 31.1102 259.812 30.8919C260.427 30.6759 261.365 30.3855 262.27 30.1144C263.175 29.8432 264.094 29.5744 264.689 29.356C265.536 29.0489 266.849 28.6361 268.082 28.2354C269.315 27.8346 270.628 27.4218 271.458 27.1147C272.109 26.8747 273.085 26.4476 274.041 26.0492C274.996 25.6508 275.992 25.1997 276.659 24.9645C277.563 24.6406 278.953 24.1894 280.289 23.7647C281.626 23.3399 282.996 22.8984 283.889 22.5648C284.592 22.3128 285.641 21.8593 286.67 21.4273C287.7 20.9954 288.782 20.5226 289.485 20.2706C290.335 19.9635 291.645 19.5507 292.881 19.15C294.117 18.7492 295.408 18.3364 296.24 18.0293C296.747 17.8493 297.541 17.4869 298.299 17.1438C299.058 16.8006 299.871 16.4383 300.414 16.2415L306.19 14.1273C304.03 14.6313 301.767 15.1568 300.574 15.4448C299.382 15.7327 298.211 16.0951 296.975 16.4743C295.641 16.8726 294.249 17.2878 292.804 17.6741C291.251 18.0725 289.646 18.3628 287.93 18.6868C286.162 19.0132 284.331 19.3563 282.478 19.8243C281.357 20.1146 280.239 20.513 279.066 20.9282C277.892 21.3433 276.644 21.7945 275.363 22.128C274.732 22.2912 273.923 22.488 273.124 22.6704C272.325 22.8527 271.48 23.0663 270.832 23.2295C269.368 23.6087 268.068 23.935 266.697 24.295C265.327 24.655 263.916 25.0149 262.308 25.4349C261.981 25.5294 261.661 25.644 261.348 25.778C261.007 25.9229 260.657 26.0495 260.302 26.1572C259.073 26.4644 257.902 26.7163 256.762 26.9515C255.623 27.1867 254.399 27.4315 253.079 27.7842L247.559 29.1737C246.134 29.536 244.653 29.9704 243.24 30.3855C241.778 30.8199 240.262 31.2518 238.762 31.6502C238.203 31.7774 237.625 31.8902 237.046 31.9574C236.488 32.0315 235.934 32.134 235.386 32.2645C233.905 32.6437 232.388 32.97 230.927 33.2772C229.427 33.6012 227.894 33.9275 226.367 34.3067C224.724 34.7219 223.063 35.2666 221.474 35.7873C219.83 36.3297 218.134 36.872 216.435 37.3064C214.829 37.7215 213.186 38.0095 211.578 38.2999C209.97 38.5902 208.312 38.8782 206.704 39.2933C205.71 39.5333 204.194 39.9629 202.732 40.3588C201.271 40.7548 199.735 41.1723 198.742 41.4243C197.972 41.6171 197.217 41.8649 196.483 42.1658C195.717 42.4712 194.934 42.7309 194.136 42.9434C193.407 43.1185 192.665 43.2333 191.917 43.2865C191.203 43.3302 190.496 43.4395 189.803 43.6129C189.188 43.7737 188.576 43.992 187.962 44.1912C187.348 44.3904 186.716 44.6232 186.066 44.7863C184.749 45.1295 183.412 45.5279 182.111 45.907C180.811 46.2862 179.457 46.7013 178.121 47.0445C177.448 47.2112 176.767 47.3442 176.081 47.4429C175.431 47.5508 174.744 47.6588 174.094 47.822C172.56 48.2204 171.008 48.6715 169.508 49.1059C168.008 49.5402 166.458 49.9914 164.922 50.3873C163.962 50.6273 163.002 50.8217 162.042 50.9849C161.083 51.1481 160.163 51.3448 159.242 51.58C157.816 51.9424 156.362 52.3743 154.982 52.7919C153.603 53.2094 152.165 53.6222 150.74 53.9917C149.439 54.3157 148.122 54.5341 146.838 54.7309C145.592 54.93 144.294 55.1484 143.065 55.4508C142.271 55.6476 141.477 55.9307 140.718 56.1707C139.96 56.4107 139.147 56.6938 138.335 56.8906C137.649 57.0706 136.963 57.3058 136.312 57.5218C135.662 57.7377 134.94 58.0017 134.253 58.1745C132.629 58.5896 130.985 58.9496 129.38 59.2928C127.827 59.6359 126.219 59.9791 124.667 60.3774C123.114 60.7758 121.614 61.2101 120.133 61.6421C118.653 62.074 117.191 62.5108 115.727 62.8708C115.121 63.0195 114.506 63.1341 113.887 63.2139C113.292 63.3051 112.713 63.3963 112.135 63.5403C111.377 63.7395 110.599 63.9914 109.86 64.2458C109.121 64.5002 108.36 64.7498 107.585 64.9489C106.232 65.2921 104.859 65.5825 103.522 65.8536C102.186 66.1248 100.94 66.396 99.6828 66.7199C99.3406 66.8308 99.017 66.9926 98.7229 67.1999C98.3716 67.434 97.9885 67.6166 97.5855 67.7422C96.8479 67.904 96.0997 68.0122 95.3465 68.0662C94.6473 68.1086 93.9524 68.2056 93.2683 68.3566C90.6286 69.0237 87.9241 69.638 85.3252 70.2356C82.8679 70.7947 80.5401 71.3202 78.366 71.8626C76.487 72.3425 75.0063 72.8561 73.5665 73.3432C72.2107 73.8232 70.9268 74.2647 69.3934 74.6439C67.5336 75.1238 65.0738 75.6734 62.6597 76.2157C60.5479 76.6956 58.5418 77.1564 57.2075 77.4804L46.8886 80.1009C48.2253 80.1921 50.1211 80.2641 52.36 80.2449C53.3686 80.226 54.3755 80.1539 55.3765 80.0289C57.1451 79.8489 58.9761 79.6665 61.3518 79.8849C62.334 80.0321 63.3055 80.243 64.2603 80.516C65.1986 80.756 66.1801 80.996 66.7153 81.0584C67.1565 81.0914 67.6002 81.0607 68.0327 80.9672C68.4119 80.9504 68.791 80.9144 69.1534 80.8952L69.187 80.8832Z" fill="#333333"/>
<path d="M136.843 119.372C136.843 119.372 145.328 116.082 146.231 115.533C148.254 114.285 152.244 111.54 154.265 110.292C157.37 108.372 163.672 104.962 166.779 103.028C170.156 100.933 176.818 96.2894 180.194 94.192C182.685 92.6562 187.614 89.3326 190.088 87.7967C191.288 87.0552 193.755 85.7906 194.945 85.0322C195.468 84.7059 196.589 84.2715 197.105 83.9476C198.406 83.134 200.945 81.0679 202.233 80.2424C203.659 79.3569 206.553 77.821 207.976 76.9355C210.519 75.3637 215.684 72.6712 218.23 71.0826C220.054 69.9427 223.629 67.2142 225.453 66.0767L230.375 63.0123L233.427 61.1165C236.48 59.2183 242.69 55.8754 245.743 53.9796C247.747 52.7318 251.663 49.7873 253.662 48.5586C254.403 48.1051 255.956 47.6539 256.695 47.1836C257.382 46.7684 258.646 45.4678 259.335 45.0238C261.826 43.4712 266.846 40.6155 269.337 39.0629C270.297 38.4654 272.118 36.8215 273.057 36.2432C274.393 35.4129 277.119 33.9658 278.473 33.1235C279.231 32.6436 280.839 32.1636 281.593 31.6837C283.236 30.671 286.414 28.1777 288.057 27.1674C288.537 26.877 291.055 25.5572 291.523 25.2692C294.105 23.6614 298.602 20.6257 301.184 19.0179L311.62 12.5674L306.42 19.3418C305.571 20.4457 305.806 20.8969 304.956 21.9815C304.613 22.4135 303.313 24.4389 302.989 24.8612C301.789 26.4163 299.034 28.9408 297.844 30.5006L293.075 36.6967C291.849 38.3046 290.061 41.3762 288.833 42.9864C286.106 46.5453 279.968 53.7853 277.242 57.3321C275.526 59.5542 272.565 63.9457 270.849 66.1679C269.603 67.7757 266.462 71.1378 265.217 72.7456C264.619 73.5231 263.662 75.0229 263.057 75.7812C262.246 76.8467 261.305 78.8169 260.494 79.8824C259.249 81.5094 256.088 84.869 254.843 86.4793C251.826 90.4172 246.684 98.1156 243.665 102.054C242.311 103.825 238.683 107.53 237.327 109.301C236.281 110.673 235.035 113.366 233.987 114.739C231.767 117.618 227.126 123.339 224.906 126.257C223.749 127.755 220.788 130.865 219.627 132.365C218.777 133.483 217.025 135.688 216.195 136.826C214.551 139.103 211.875 143.259 209.73 146.005C208.828 147.181 205.019 151.301 204.115 152.566C202.888 154.245 199.836 158.618 199.169 159.558C197.237 162.251 194.057 166.758 191.929 169.515C190.429 171.483 186.313 175.754 184.941 177.537C183.604 179.272 180.247 183.661 180.247 183.661C180.247 183.661 180.064 181.53 179.527 178.024C179.237 176.181 179.489 173.688 178.965 171.195C178.082 166.966 176.383 162.215 174.579 156.974C173.297 153.216 171.509 149.367 169.63 145.573C168.963 144.236 167.843 140.639 167.103 139.333C164.881 135.412 163.06 134.599 160.838 131.995C159.412 130.315 157.896 128.381 156.504 127.028C154.788 125.365 153.199 124.316 151.575 122.816C147.008 118.631 136.843 119.372 136.843 119.372Z" fill="white"/>
<path d="M192.939 167.725C192.848 167.038 192.759 166.225 192.651 165.339C192.361 162.738 191.981 159.503 191.477 157.137C191.06 155.167 190.429 153.432 189.762 151.589C189.382 150.523 188.984 149.429 188.605 148.229C188.142 146.882 187.593 145.566 186.961 144.289C186.546 143.423 186.131 142.537 185.761 141.649C185.418 140.8 185.094 139.931 184.787 139.101C183.993 136.97 183.234 134.963 182.147 133.029L181.876 132.549C179.98 129.19 178.176 126.01 175.901 123.262C174.041 121.021 171.622 118.636 169.707 116.812C169.227 116.361 168.733 115.871 168.267 115.403C166.878 114.028 165.433 112.62 164.132 111.643C162.345 110.289 160.737 109.692 159.333 109.149C158.755 108.934 158.195 108.734 157.67 108.482L157.977 107.832C158.483 108.072 159.026 108.264 159.602 108.482C161.066 109.025 162.709 109.639 164.586 111.067C165.923 112.077 167.384 113.505 168.793 114.906C169.273 115.386 169.769 115.845 170.233 116.315C172.164 118.158 174.602 120.563 176.472 122.821C178.802 125.638 180.609 128.837 182.522 132.216L182.793 132.696C183.911 134.666 184.713 136.797 185.483 138.858C185.79 139.689 186.114 140.538 186.457 141.388C186.8 142.237 187.215 143.139 187.631 143.989C188.28 145.293 188.842 146.639 189.31 148.018C189.69 149.218 190.069 150.295 190.448 151.344C191.154 153.181 191.733 155.065 192.181 156.981C192.706 159.381 193.066 162.637 193.38 165.258C193.472 166.124 193.58 166.954 193.652 167.624L192.939 167.725Z" fill="#FFF5DB"/>
<path d="M206.392 149.547C206.087 148.347 205.708 147.017 205.329 145.626C205.003 144.452 204.659 143.24 204.352 142.067C204.208 141.508 204.081 140.946 203.937 140.387C203.684 139.211 203.359 138.052 202.963 136.917C202.625 136.082 202.239 135.267 201.806 134.476C201.535 133.953 201.266 133.43 201.012 132.888L200.58 131.966C199.459 129.545 198.305 127.032 196.932 124.594C196.39 123.618 195.732 122.317 195.072 121.033C194.638 120.184 194.187 119.301 193.772 118.523C193.033 117.112 190.758 114.259 189.241 112.36C188.716 111.71 188.264 111.132 187.993 110.772C187.231 109.697 186.34 108.719 185.339 107.861C184.816 107.41 184.238 106.887 183.319 105.941C180.482 102.978 177.9 101.279 175.159 99.4907C174.679 99.1836 174.238 98.8764 173.768 98.5692L174.166 97.9717C174.646 98.2788 175.087 98.586 175.555 98.8932C178.209 100.628 180.936 102.418 183.844 105.454C184.727 106.376 185.306 106.882 185.812 107.333C186.852 108.222 187.78 109.235 188.574 110.35C188.845 110.712 189.294 111.271 189.819 111.921C191.427 113.947 193.63 116.721 194.425 118.192C194.84 118.969 195.291 119.855 195.725 120.721C196.375 121.986 197.023 123.289 197.566 124.246C198.958 126.704 200.112 129.233 201.249 131.671L201.684 132.593C201.924 133.118 202.207 133.641 202.459 134.148C202.913 134.964 203.314 135.809 203.659 136.677C204.071 137.839 204.403 139.028 204.652 140.236C204.777 140.778 204.904 141.357 205.048 141.899C205.355 143.075 205.698 144.284 206.022 145.46C206.421 146.85 206.781 148.169 207.107 149.398L206.392 149.547Z" fill="#FFF5DB"/>
<path d="M217.896 134.145C217.788 131.506 217.049 129.754 216.271 127.906C216.199 127.743 216.127 127.563 216.055 127.4C215.609 126.33 215.235 125.232 214.935 124.112C214.56 122.648 214.009 121.234 213.293 119.903C213.202 119.721 213.039 119.423 212.859 119.089C212.516 118.439 212.065 117.606 211.885 117.263C211.594 116.74 211.326 116.234 211.054 115.747C210.603 114.914 210.188 114.12 209.663 113.289C209.519 113.049 209.355 112.809 209.211 112.584C208.688 111.753 208.182 110.957 207.642 110.143C207.402 109.783 207.116 109.385 206.828 108.943C205.962 107.659 204.969 106.196 204.21 105.202C203.704 104.533 203.145 103.762 202.567 102.944C201.575 101.533 200.527 100.088 199.588 98.9869C198.65 97.8854 197.477 96.8007 196.375 95.752C195.778 95.1737 195.147 94.5953 194.568 94.017C193.99 93.4387 193.128 92.6251 192.384 91.9388L191.785 91.4301C191.237 90.9565 190.622 90.5668 189.961 90.2734C189.301 89.9816 188.682 89.6048 188.12 89.1527L188.6 88.6128C189.109 89.0281 189.675 89.3683 190.28 89.6231C191.016 89.9344 191.695 90.3685 192.286 90.9069C192.466 91.0701 192.665 91.2669 192.862 91.4493C193.604 92.1524 194.451 92.9299 195.065 93.5442C195.679 94.1586 196.265 94.7009 196.853 95.2793C197.973 96.3447 199.128 97.439 200.104 98.5669C201.081 99.6948 202.125 101.151 203.138 102.579C203.714 103.393 204.256 104.151 204.762 104.821C205.537 105.831 206.531 107.295 207.416 108.595C207.704 109.029 207.975 109.429 208.228 109.795C208.789 110.609 209.312 111.441 209.819 112.253C209.963 112.493 210.107 112.733 210.27 112.958C210.81 113.808 211.244 114.657 211.676 115.471C211.93 115.951 212.201 116.464 212.489 116.97C212.689 117.314 213.121 118.144 213.483 118.813C213.663 119.137 213.807 119.445 213.915 119.608C214.661 120.983 215.232 122.446 215.614 123.963C215.902 125.058 216.263 126.133 216.696 127.179C216.768 127.342 216.84 127.522 216.912 127.685C217.726 129.605 218.484 131.407 218.592 134.165L217.896 134.145Z" fill="#FFF5DB"/>
<path d="M229.287 120.438C228.891 119.534 228.584 118.324 228.241 117.059C227.879 115.651 227.499 114.18 226.993 113.191C226.669 112.524 226.29 111.73 225.911 110.861C225.352 109.615 224.773 108.332 224.231 107.374C223.257 105.658 222.299 103.976 221.253 102.351C220.999 101.953 220.73 101.519 220.439 101.068C219.897 100.201 219.338 99.2798 218.834 98.555C218.236 97.6887 217.749 96.8392 217.262 96.0089C216.625 94.8545 215.904 93.7492 215.102 92.7021C214.784 92.3063 214.427 91.943 214.037 91.6174C213.655 91.2898 213.299 90.9336 212.971 90.5519C212.664 90.1896 212.374 89.832 212.105 89.4864C211.236 88.4186 210.425 87.4251 209.451 86.3668C209.006 85.8962 208.524 85.4613 208.011 85.0661C207.518 84.6969 207.053 84.2918 206.619 83.8543C206.06 83.2759 205.419 83.0047 204.76 82.6976C204.031 82.4208 203.359 82.0143 202.775 81.4977C202.611 81.3412 202.461 81.1718 202.324 80.9914C202.161 80.8114 201.997 80.6122 201.906 80.5114L202.386 79.9883C202.554 80.152 202.71 80.3268 202.854 80.5114C202.984 80.6695 203.123 80.8201 203.269 80.9626C203.799 81.4192 204.404 81.7806 205.057 82.0305C205.832 82.3234 206.538 82.7717 207.133 83.3479C207.542 83.7617 207.984 84.1428 208.453 84.4878C209.002 84.9013 209.515 85.3605 209.986 85.8604C210.98 86.9451 211.793 87.9554 212.659 89.0233C212.947 89.3664 213.219 89.7096 213.526 90.0888C213.829 90.447 214.161 90.7793 214.519 91.0823C214.934 91.438 215.315 91.8316 215.657 92.2581C216.468 93.3385 217.204 94.473 217.86 95.6538C218.34 96.4673 218.834 97.3168 219.412 98.1471C219.919 98.8886 220.495 99.8101 221.037 100.676C221.325 101.13 221.596 101.562 221.831 101.96C222.878 103.604 223.854 105.284 224.829 107.019C225.388 107.996 225.966 109.296 226.525 110.561C226.904 111.41 227.267 112.205 227.591 112.855C228.133 113.923 228.512 115.404 228.891 116.848C229.148 117.962 229.486 119.055 229.902 120.119L229.287 120.438Z" fill="#FFF5DB"/>
<path d="M239.996 106.068C239.617 105.327 239.036 103.774 238.424 102.147C237.704 100.227 236.962 98.2621 236.504 97.4317C235.926 96.4191 235.544 95.7135 235.223 95.1352C234.356 93.5466 234.14 93.1674 232.189 90.4389C231.708 89.6888 231.274 88.9098 230.889 88.1064C230.346 87.0961 229.806 86.0474 229.499 85.649C229.12 85.1427 228.758 84.6555 228.398 84.1684C227.476 82.9205 226.61 81.7279 225.564 80.4824C224.877 79.6497 223.757 78.7114 222.684 77.8067C221.779 77.0878 220.923 76.3093 220.121 75.4766C219.435 74.7182 218.712 74.4279 217.961 74.1039C217.21 73.7799 216.428 73.4704 215.65 72.6641L216.157 72.1577C216.753 72.7285 217.469 73.1604 218.252 73.4224C219.046 73.7487 219.857 74.0919 220.651 74.9774C221.439 75.7761 222.271 76.53 223.142 77.2356C224.244 78.1571 225.381 79.1146 226.104 80.0001C227.15 81.2647 228.023 82.4574 228.957 83.722C229.317 84.202 229.677 84.6987 230.058 85.2027C230.402 85.6562 230.925 86.6665 231.498 87.7704C231.978 88.6919 232.473 89.6302 232.744 90.0094C234.711 92.7739 234.947 93.2082 235.813 94.8088C236.12 95.368 236.499 96.0735 237.075 97.0862C237.582 97.9693 238.323 99.9659 239.045 101.886C239.657 103.496 240.219 105.032 240.579 105.725L239.996 106.068Z" fill="#FFF5DB"/>
<path d="M249.573 93.4603C249.214 92.5143 248.799 91.5911 248.328 90.6958C247.876 89.7935 247.406 88.8336 247.01 87.8761C246.53 86.7386 245.781 85.5652 244.968 84.3173C244.428 83.487 243.869 82.6183 243.362 81.716C243.111 81.236 242.803 80.6673 242.496 80.0722C241.855 78.7495 241.134 77.4672 240.336 76.2326C239.825 75.5142 239.257 74.837 238.64 74.2072C238.369 73.9192 238.042 73.5761 237.699 73.1777C237.356 72.7794 237.049 72.3642 236.761 71.9778C236.352 71.3861 235.887 70.8355 235.371 70.334C234.92 69.9189 234.467 69.3933 233.98 68.8534C233.276 68.0567 232.54 67.2264 231.796 66.6936C231.091 66.1862 230.334 65.7558 229.538 65.4098C229.086 65.1938 228.635 64.9778 228.076 64.6706L228.419 64.0371C228.942 64.3275 229.394 64.5435 229.845 64.757C230.681 65.1207 231.474 65.5754 232.211 66.1129C233.024 66.7104 233.764 67.5527 234.505 68.3902C234.985 68.9326 235.424 69.4197 235.839 69.8181C236.387 70.3481 236.883 70.929 237.32 71.5531C237.591 71.9322 237.881 72.3114 238.222 72.7074C238.563 73.1033 238.873 73.4273 239.163 73.7393C239.804 74.3944 240.39 75.1015 240.915 75.8534C241.673 76.9189 242.448 78.4355 243.135 79.7746C243.442 80.3697 243.73 80.9289 243.984 81.3992C244.464 82.2847 245.03 83.1342 245.553 83.9645C246.367 85.2292 247.142 86.4219 247.648 87.6337C248.047 88.572 248.498 89.5127 248.949 90.4174C249.439 91.3393 249.867 92.2924 250.231 93.2707L249.573 93.4603Z" fill="#FFF5DB"/>
<path d="M267.15 70.1873C266.555 68.4691 265.581 66.8445 264.64 65.2895C264.261 64.6751 263.92 64.0896 263.575 63.4825C263.125 62.6403 262.625 61.8261 262.077 61.0443C261.372 60.0148 259.982 58.1334 259.243 57.2671C258.787 56.7296 258.358 56.1689 257.959 55.5873C257.273 54.6274 256.625 53.7251 255.632 52.8948C254.371 51.8653 253.051 50.9117 251.677 50.0391L252.073 49.4248C253.471 50.3144 254.815 51.2856 256.099 52.3333C257.036 53.1639 257.862 54.1115 258.557 55.153C258.943 55.717 259.359 56.26 259.802 56.78C260.561 57.6823 261.962 59.5805 262.682 60.6196C263.248 61.422 263.761 62.2614 264.215 63.1321C264.542 63.7104 264.885 64.3056 265.264 64.9199C266.224 66.5109 267.213 68.1716 267.827 69.9594L267.15 70.1873Z" fill="#FFF5DB"/>
<path d="M258.737 81.7689C258.394 81.0106 258.087 80.1443 257.744 79.2396C257.233 77.7607 256.624 76.3176 255.92 74.92C255.258 73.7788 254.517 72.6858 253.7 71.6492C253.175 70.9437 252.635 70.2094 252.148 69.463C251.69 68.7964 251.196 68.1555 250.667 67.5432C250.324 67.1281 249.981 66.7129 249.654 66.2786C249.222 65.7002 248.843 65.1219 248.481 64.5628C247.964 63.6907 247.359 62.8737 246.676 62.1246L245.774 61.1647C244.781 60.0825 243.768 58.9786 242.758 58.2203C242.398 57.9647 241.99 57.7866 241.558 57.6971C241.17 57.6014 240.795 57.4622 240.439 57.282L240.783 56.6484C241.088 56.8037 241.41 56.9252 241.743 57.0108C242.256 57.1224 242.741 57.3371 243.168 57.6419C244.217 58.4194 245.263 59.5761 246.273 60.6776C246.58 61.004 246.871 61.3279 247.159 61.6375C247.868 62.4223 248.496 63.2761 249.035 64.186C249.398 64.7283 249.755 65.3067 250.173 65.8658C250.48 66.281 250.823 66.6985 251.166 67.0945C251.708 67.7287 252.214 68.392 252.683 69.0815C253.163 69.8014 253.696 70.5213 254.219 71.2412C255.046 72.313 255.806 73.435 256.494 74.6009C257.252 75.9927 257.811 77.5285 258.37 79.0092C258.697 79.9139 259.021 80.7442 259.347 81.4857L258.737 81.7689Z" fill="#FFF5DB"/>
<path d="M275.455 59.5617C274.841 58.6762 274.354 57.5028 273.886 56.3821C273.406 55.1822 272.893 53.9824 272.242 53.1112C271.899 52.6313 271.537 52.1729 271.196 51.6714C270.291 50.4715 269.372 49.1973 268.467 48.0574C267.476 46.8119 266.987 46.2336 266.013 45.0769L265.869 44.897C265.597 44.5706 264.983 44.3354 264.388 44.1002C263.721 43.8483 263.034 43.5771 262.655 43.1259L263.195 42.646C263.466 42.9724 264.081 43.2051 264.659 43.4235C265.326 43.6947 266.032 43.9658 266.428 44.4338L266.572 44.6162C267.548 45.7728 268.035 46.368 269.029 47.6158C269.948 48.7725 270.87 50.0156 271.772 51.2466C272.134 51.7266 272.477 52.2065 272.821 52.6865C273.524 53.6272 274.047 54.8918 274.553 56.1205C275.004 57.222 275.475 58.3427 276.053 59.173L275.455 59.5617Z" fill="#FFF5DB"/>
<path d="M283.409 49.5882C283.101 49.101 282.852 48.579 282.667 48.0331C282.502 47.53 282.271 47.0508 281.981 46.6077C281.474 45.8888 281.095 45.0874 280.863 44.2391C280.623 43.4808 280.383 42.7393 279.778 41.9978C279.275 41.3793 278.732 40.7941 278.153 40.246C277.619 39.7309 277.113 39.1878 276.637 38.619C276.349 38.2758 275.626 37.9326 274.921 37.5895C274.126 37.2103 273.387 36.848 273.001 36.3896L273.543 35.9097C273.831 36.236 274.534 36.5984 275.223 36.9223C276.037 37.3207 276.795 37.6807 277.174 38.151C277.64 38.7007 278.134 39.2254 278.655 39.7229C279.252 40.2966 279.813 40.9065 280.335 41.549C280.889 42.283 281.297 43.1175 281.534 44.0064C281.789 44.7455 282.014 45.4462 282.547 46.1661C282.876 46.6652 283.137 47.2059 283.322 47.774C283.483 48.2621 283.701 48.7294 283.973 49.1658L283.409 49.5882Z" fill="#FFF5DB"/>
<path d="M290.697 40.0109C290.411 39.5924 290.236 39.1074 290.191 38.6023C290.161 38.2087 290.03 37.8293 289.811 37.5008C289.578 37.1531 289.378 36.7833 289.216 36.3969C289.065 36.0535 288.89 35.7214 288.691 35.4035C288.208 34.7961 287.67 34.2339 287.085 33.7236C286.514 33.2177 285.977 32.6741 285.478 32.0966C285.298 31.8566 284.882 31.6623 284.484 31.4463C284.033 31.2063 283.546 30.9663 283.284 30.6328L283.843 30.1528C284.137 30.4184 284.472 30.6326 284.837 30.7864C285.317 31.0263 285.797 31.2663 286.065 31.6167C286.53 32.1793 287.043 32.6996 287.599 33.1717C288.215 33.7121 288.784 34.3046 289.298 34.9427C289.532 35.3024 289.731 35.6832 289.893 36.0802C290.039 36.417 290.208 36.7433 290.399 37.0569C290.693 37.4787 290.867 37.972 290.903 38.4847C290.939 38.8747 291.063 39.2515 291.266 39.5862L290.697 40.0109Z" fill="#FFF5DB"/>
<path d="M297.522 30.7765C297.189 30.3091 296.95 29.782 296.817 29.2239C296.707 28.7406 296.497 28.2854 296.202 27.8873C296.022 27.6689 295.722 27.3617 295.444 27.0737C295.166 26.7858 294.849 26.4762 294.65 26.2434C294.387 25.9591 294.083 25.7163 293.747 25.5235C293.344 25.2928 292.979 25.0005 292.665 24.6572L293.224 24.2061C293.479 24.494 293.785 24.7324 294.126 24.9092C294.537 25.1382 294.905 25.4379 295.211 25.7947C295.437 26.0728 295.684 26.3328 295.95 26.5722C296.257 26.8794 296.565 27.2057 296.764 27.4385C297.107 27.912 297.358 28.4461 297.503 29.0127C297.619 29.4845 297.821 29.931 298.098 30.3302L297.522 30.7765Z" fill="#FFF5DB"/>
<path d="M304.399 22.5935C304.158 22.2633 303.947 21.9123 303.768 21.5448C303.6 21.2105 303.407 20.8896 303.189 20.5849C302.94 20.2918 302.662 20.0249 302.359 19.7882C302.042 19.5222 301.746 19.2326 301.474 18.9219L302.035 18.4707C302.283 18.7522 302.555 19.0123 302.846 19.2482C303.177 19.5242 303.485 19.8259 303.768 20.1505C304.018 20.4839 304.236 20.8407 304.418 21.216C304.581 21.5432 304.767 21.8577 304.977 22.1567L304.399 22.5935Z" fill="#FFF5DB"/>
<path d="M180.195 184.06C180.157 184.063 180.12 184.056 180.087 184.041C180.014 184.023 179.949 183.982 179.903 183.923C179.857 183.864 179.832 183.791 179.832 183.717C179.832 183.697 179.652 181.557 179.112 178.096C178.999 177.215 178.938 176.328 178.932 175.44C178.896 174.158 178.86 172.695 178.553 171.286C177.759 167.49 176.261 163.172 174.69 158.601L174.183 157.118C172.83 153.18 170.934 149.168 169.254 145.753C168.947 145.138 168.568 144.09 168.153 142.988C167.649 141.632 167.123 140.224 166.727 139.518C165.287 136.972 164.018 135.76 162.684 134.496C161.91 133.788 161.18 133.034 160.498 132.237C160.102 131.758 159.703 131.278 159.298 130.798C158.249 129.55 157.183 128.249 156.178 127.275C155.256 126.37 154.354 125.648 153.488 124.942C152.768 124.364 152.007 123.742 151.266 123.063C146.915 119.034 136.966 119.704 136.867 119.704C136.819 119.709 136.771 119.704 136.725 119.689C136.679 119.674 136.637 119.649 136.601 119.617C136.565 119.584 136.537 119.545 136.517 119.501C136.498 119.457 136.488 119.409 136.488 119.36C136.483 119.282 136.503 119.204 136.547 119.139C136.59 119.073 136.654 119.024 136.728 118.998C139.075 118.077 145.341 115.619 146.063 115.159C147.073 114.525 148.59 113.515 150.071 112.538C151.551 111.561 153.087 110.532 154.097 109.898C155.65 108.922 158.052 107.566 160.363 106.265C162.674 104.964 165.057 103.609 166.602 102.651C168.282 101.602 170.828 99.8866 173.302 98.2428C175.777 96.599 178.32 94.864 180.022 93.8153C181.267 93.0378 183.141 91.8091 184.968 90.6164C186.794 89.4238 188.67 88.1783 189.916 87.42C190.53 87.0408 191.469 86.5345 192.371 86.0281C193.273 85.5218 194.195 85.0346 194.79 84.6555C195.15 84.4431 195.525 84.2555 195.91 84.0939C196.268 83.9374 196.617 83.7628 196.957 83.5708C197.59 83.1724 198.565 82.4501 199.503 81.7446C200.441 81.0391 201.423 80.3048 202.085 79.8848C202.805 79.4337 203.909 78.8193 204.965 78.2218C206.021 77.6243 207.124 77.0219 207.818 76.578C209.099 75.7837 211.067 74.699 212.963 73.6503C214.859 72.6016 216.803 71.5193 218.074 70.7418C218.977 70.1803 220.349 69.206 221.674 68.2485C222.999 67.291 224.381 66.3143 225.302 65.736L233.284 60.7853C234.817 59.8254 237.167 58.508 239.458 57.2073C241.75 55.9066 244.08 54.5868 245.597 53.6485C246.59 53.0342 248.09 51.9687 249.535 50.956C250.98 49.9433 252.496 48.8586 253.507 48.2275C254.009 47.9485 254.534 47.7125 255.076 47.522C255.58 47.3422 256.069 47.1248 256.54 46.8716C256.98 46.5518 257.402 46.2081 257.804 45.8422C258.232 45.4394 258.69 45.0704 259.175 44.7383C260.423 43.9631 262.335 42.8425 264.195 41.7578C266.055 40.6731 267.951 39.5524 269.196 38.7773C269.647 38.487 270.353 37.9278 271.02 37.3855C271.634 36.8791 272.265 36.392 272.916 35.9456C273.566 35.4993 274.631 34.9497 275.642 34.3906C276.652 33.8315 277.665 33.2531 278.334 32.8548C278.854 32.563 279.398 32.315 279.959 32.1132C280.48 31.9214 280.987 31.692 281.475 31.4269C282.287 30.9206 283.496 30.0351 284.689 29.1856C285.881 28.3361 287.108 27.4338 287.938 26.9106C288.192 26.7642 288.915 26.3683 289.69 25.9507C290.41 25.5524 291.17 25.154 291.406 25.01C292.687 24.2157 294.494 23.023 296.227 21.8904C297.959 20.7577 299.766 19.5602 301.064 18.7707L311.448 12.3202C311.53 12.2691 311.628 12.2517 311.722 12.2719C311.816 12.292 311.899 12.3481 311.952 12.4282C311.99 12.4915 312.009 12.5646 312.006 12.6383C312.003 12.712 311.978 12.7833 311.935 12.8434L306.735 19.6202C306.448 19.9945 306.217 20.4084 306.049 20.8489C305.862 21.3546 305.601 21.8294 305.274 22.2575C305.11 22.4735 304.695 23.0878 304.297 23.6974C303.899 24.3069 303.467 24.926 303.303 25.1612C302.692 25.9555 301.679 27.0042 300.705 28.0145C299.73 29.0248 298.737 30.0399 298.158 30.7982L293.393 36.9967C292.778 37.791 292.02 38.9645 291.278 40.1164C290.537 41.2682 289.762 42.4657 289.15 43.2792C287.777 45.067 285.519 47.8123 283.335 50.452C281.151 53.0917 278.91 55.837 277.537 57.6249C276.69 58.7263 275.498 60.4085 274.343 62.0332C273.189 63.6578 271.996 65.34 271.128 66.4607C270.497 67.2742 269.378 68.5388 268.294 69.7675C267.209 70.9962 266.11 72.244 265.496 73.0384C265.208 73.4175 264.809 73.9982 264.43 74.5382C264.051 75.0781 263.653 75.6757 263.348 76.074C262.892 76.7204 262.47 77.39 262.083 78.0802C261.689 78.8056 261.249 79.5054 260.766 80.1752C260.132 80.9887 259.014 82.2726 257.929 83.5012C256.845 84.7299 255.726 85.9753 255.114 86.7888C253.614 88.759 251.539 91.7035 249.535 94.5592C247.531 97.4149 245.455 100.376 243.936 102.366C243.25 103.268 241.969 104.66 240.74 106.016C239.511 107.371 238.268 108.744 237.582 109.615C236.981 110.473 236.432 111.365 235.938 112.288C235.428 113.244 234.861 114.167 234.241 115.055C233.121 116.495 231.388 118.686 229.682 120.815C227.976 122.943 226.25 125.117 225.149 126.562C224.57 127.32 223.505 128.496 222.495 129.634C221.484 130.771 220.436 131.928 219.877 132.669C219.637 133.013 219.281 133.447 218.902 133.934C218.072 135 217.023 136.334 216.464 137.133C215.905 137.932 215.128 139.029 214.352 140.185C212.944 142.228 211.372 144.56 209.999 146.329C209.603 146.854 208.627 147.939 207.6 149.093C206.316 150.533 204.871 152.167 204.384 152.87C203.626 153.919 202.164 155.99 200.991 157.67C200.285 158.663 199.69 159.513 199.438 159.856C199.148 160.271 198.824 160.706 198.478 161.193C196.582 163.849 194 167.463 192.196 169.832C191.418 170.861 189.937 172.486 188.512 174.077C187.156 175.577 185.872 177.005 185.208 177.854C183.871 179.589 180.511 183.978 180.511 183.978C180.412 184.026 180.304 184.054 180.195 184.06ZM138.9 118.955C142.152 118.974 148.398 119.435 151.755 122.555C152.475 123.222 153.195 123.8 153.941 124.398C154.898 125.137 155.814 125.927 156.687 126.764C157.714 127.757 158.798 129.077 159.864 130.342C160.26 130.822 160.658 131.302 161.064 131.75C161.733 132.528 162.456 133.25 163.195 133.956C164.567 135.276 165.885 136.521 167.366 139.161C167.8 139.919 168.325 141.347 168.829 142.739C169.225 143.821 169.604 144.853 169.895 145.429C171.591 148.863 173.494 152.911 174.86 156.885L175.364 158.368C176.955 162.956 178.436 167.293 179.247 171.142C179.506 172.555 179.639 173.989 179.645 175.426C179.644 176.283 179.698 177.14 179.806 177.991C180.149 180.151 180.348 181.804 180.456 182.742C181.469 181.425 183.597 178.641 184.61 177.341C185.277 176.474 186.578 175.027 187.95 173.501C189.376 171.929 190.83 170.302 191.598 169.309C193.403 166.959 195.985 163.345 197.881 160.689C198.224 160.209 198.548 159.767 198.841 159.352C199.092 158.99 199.688 158.152 200.393 157.166C201.567 155.503 203.047 153.408 203.806 152.366C204.329 151.647 205.725 150.072 207.074 148.527C208.084 147.37 209.042 146.286 209.438 145.798C210.794 144.063 212.363 141.731 213.772 139.691C214.566 138.534 215.307 137.45 215.903 136.619C216.498 135.789 217.527 134.486 218.358 133.401C218.737 132.921 219.077 132.48 219.334 132.156C219.91 131.395 220.976 130.222 221.988 129.084C223.001 127.947 224.047 126.788 224.606 126.049C225.725 124.609 227.46 122.399 229.166 120.289C230.872 118.18 232.595 115.989 233.697 114.53C234.298 113.673 234.847 112.78 235.34 111.856C235.85 110.902 236.417 109.979 237.037 109.092C237.723 108.187 239.005 106.795 240.234 105.442C241.462 104.089 242.708 102.714 243.375 101.842C244.875 99.8746 246.95 96.9277 248.954 94.0745C250.958 91.2212 253.034 88.2551 254.553 86.2681C255.184 85.4546 256.305 84.1707 257.387 82.9421C258.469 81.7134 259.59 80.4679 260.204 79.6544C260.659 79.0075 261.08 78.3379 261.466 77.6483C261.862 76.9228 262.303 76.223 262.786 75.5533C263.074 75.1741 263.473 74.5934 263.852 74.0535C264.231 73.5135 264.627 72.9136 264.934 72.5176C265.565 71.7041 266.686 70.4394 267.768 69.2108C268.85 67.9821 269.954 66.7343 270.569 65.9399C271.416 64.8385 272.608 63.1562 273.763 61.5316C274.917 59.907 276.112 58.2248 276.978 57.1041C278.351 55.3139 280.607 52.5686 282.79 49.9049C284.974 47.2412 287.216 44.5199 288.588 42.7489C289.203 41.9546 289.961 40.7787 290.7 39.6292C291.439 38.4798 292.217 37.2799 292.831 36.4664L297.568 30.2894C298.182 29.4951 299.193 28.4465 300.169 27.4338C301.146 26.4211 302.137 25.4108 302.715 24.6525C302.876 24.4365 303.291 23.8222 303.69 23.2126C304.124 22.5815 304.52 21.984 304.7 21.7488C304.988 21.3752 305.219 20.9612 305.386 20.5201C305.573 20.0139 305.835 19.539 306.164 19.1115L310.162 13.9184L301.458 19.3227C300.177 20.117 298.37 21.3096 296.637 22.4423C294.904 23.575 293.097 24.7749 291.799 25.562C291.545 25.706 290.822 26.1043 290.047 26.5219C289.327 26.9202 288.567 27.3162 288.331 27.4626C287.518 27.9665 286.309 28.852 285.118 29.7015C283.928 30.551 282.697 31.4557 281.867 31.9789C281.346 32.2692 280.803 32.5171 280.242 32.7204C279.721 32.9122 279.214 33.1416 278.725 33.4067C278.039 33.8219 277.01 34.4002 275.999 34.9593C274.989 35.5185 273.976 36.0992 273.309 36.4952C272.858 36.7855 272.152 37.3447 271.485 37.887C270.871 38.3934 270.24 38.8805 269.59 39.3269C268.344 40.102 266.429 41.2226 264.569 42.3073C262.709 43.392 260.814 44.5127 259.568 45.2878C259.128 45.6078 258.705 45.9523 258.304 46.3197C257.875 46.7215 257.416 47.0898 256.931 47.4212C256.429 47.7 255.904 47.936 255.361 48.1267C254.858 48.3054 254.368 48.5228 253.898 48.777C252.907 49.3914 251.407 50.4568 249.962 51.4863C248.517 52.5158 247.001 53.5837 245.991 54.2148C244.455 55.1747 242.108 56.4922 239.816 57.7928C237.524 59.0935 235.192 60.4133 233.675 61.3516L225.696 66.3023C224.794 66.8638 223.421 67.8381 222.096 68.798C220.772 69.7579 219.389 70.7178 218.468 71.3082C217.186 72.1025 215.219 73.1871 213.323 74.2358C211.427 75.2845 209.483 76.3668 208.211 77.1443C207.492 77.5955 206.388 78.2098 205.332 78.8073C204.276 79.4049 203.172 80.0072 202.479 80.4511C201.843 80.8711 200.859 81.591 199.947 82.2941C199.035 82.9973 198.015 83.734 197.348 84.1539C196.987 84.3647 196.613 84.5507 196.227 84.7107C195.869 84.8662 195.52 85.0408 195.181 85.2338C194.567 85.613 193.628 86.1193 192.726 86.6257C191.824 87.132 190.902 87.6192 190.305 87.9983C189.059 88.7758 187.185 90.0045 185.359 91.1972C183.533 92.3898 181.639 93.6353 180.394 94.4128C178.714 95.4615 176.168 97.1605 173.694 98.8211C171.22 100.482 168.676 102.2 166.974 103.249C165.422 104.225 163.02 105.579 160.709 106.882C158.398 108.185 156.015 109.536 154.469 110.496C153.459 111.127 151.942 112.14 150.462 113.114C148.981 114.088 147.445 115.12 146.435 115.754C145.761 116.226 141.465 117.945 138.9 118.955Z" fill="#333333"/>
</g>
<mask id="mask3_5348_5665" style="mask-type:luminance" maskUnits="userSpaceOnUse" x="238" y="143" width="12" height="12">
<path d="M249.093 143.504H238.054V154.543H249.093V143.504Z" fill="white"/>
</mask>
<g mask="url(#mask3_5348_5665)">
<path d="M243.573 154.543C246.621 154.543 249.093 152.072 249.093 149.024C249.093 145.976 246.621 143.504 243.573 143.504C240.525 143.504 238.054 145.976 238.054 149.024C238.054 152.072 240.525 154.543 243.573 154.543Z" fill="#AFCA0B"/>
</g>
<mask id="mask4_5348_5665" style="mask-type:luminance" maskUnits="userSpaceOnUse" x="0" y="100" width="107" height="91">
<path d="M106.789 100.309H0.000976562V190.779H106.789V100.309Z" fill="white"/>
</mask>
<g mask="url(#mask4_5348_5665)">
<path d="M29.9132 155.076C29.3372 155.059 28.7613 155.04 28.1853 155.004C27.6094 154.968 27.0359 154.915 26.4599 154.843C25.2955 154.715 24.1416 154.505 23.0067 154.214C21.8602 153.926 20.7452 153.524 19.6783 153.014C18.611 152.51 17.5826 151.927 16.6018 151.27C16.1219 150.946 15.6299 150.605 15.162 150.262C14.694 149.919 14.2429 149.561 13.7941 149.201C12.8451 148.495 11.9551 147.714 11.1328 146.864C10.9168 146.648 10.7369 146.413 10.5377 146.18C10.3426 145.933 10.1623 145.675 9.99774 145.407C9.67618 144.884 9.4242 144.38 9.13624 143.912C8.99749 143.689 8.84689 143.474 8.68508 143.267C8.5243 143.051 8.34432 142.835 8.16434 142.619C7.7539 142.144 7.39811 141.625 7.10366 141.071C6.54452 139.938 6.27575 138.769 5.93259 137.726C5.89659 137.601 5.84379 137.457 5.8078 137.33L5.755 137.169L5.68301 136.929C5.59182 136.641 5.50303 136.372 5.44304 136.084C5.38304 135.796 5.27986 135.544 5.20306 135.275C5.12627 135.007 5.02308 134.752 4.93429 134.484C4.73512 133.963 4.53834 133.423 4.33916 132.847C4.13954 132.278 3.9839 131.695 3.87361 131.102C3.83761 130.958 3.81842 130.814 3.78242 130.654C3.74642 130.493 3.72963 130.346 3.71043 130.202C3.67443 129.898 3.65764 129.61 3.63844 129.302C3.60244 128.71 3.60244 128.134 3.56644 127.577C3.54965 127.289 3.54965 127.02 3.51365 126.749C3.49445 126.605 3.49445 126.509 3.47765 126.372C3.46202 126.239 3.43798 126.107 3.40566 125.976C3.27848 125.401 3.16569 124.808 3.0985 124.213C3.08482 124.063 3.07921 123.914 3.0817 123.764C3.0817 123.62 3.0625 123.476 3.0625 123.332V122.451C3.0625 121.875 3.0817 121.283 3.11769 120.707C3.17049 119.555 3.27848 118.403 3.40566 117.253C3.45846 116.677 3.53045 116.102 3.60244 115.545L3.81842 113.836C3.82542 113.743 3.86904 113.657 3.9397 113.596C4.01036 113.535 4.10225 113.505 4.19518 113.512C4.2881 113.519 4.37443 113.563 4.43519 113.633C4.49594 113.704 4.52614 113.796 4.51914 113.889C4.39435 116.174 4.19518 118.448 4.19518 120.723C4.19518 121.299 4.19517 121.858 4.21437 122.403C4.21437 122.691 4.23117 122.96 4.25037 123.248C4.25037 123.392 4.26717 123.536 4.26717 123.663C4.26717 123.79 4.28637 123.949 4.30316 124.076C4.35836 124.58 4.50234 125.12 4.62713 125.693C4.66312 125.837 4.68232 125.981 4.71832 126.144C4.75431 126.308 4.77111 126.468 4.79031 126.624C4.82631 126.929 4.8431 127.217 4.8623 127.505C4.8983 128.081 4.9151 128.657 4.97029 129.214C4.98709 129.482 5.02308 129.77 5.05908 130.022C5.07471 130.156 5.09876 130.288 5.13107 130.418C5.16707 130.546 5.18627 130.69 5.22226 130.814C5.34145 131.344 5.49128 131.867 5.67101 132.379C5.85099 132.9 6.06697 133.423 6.28295 133.98C6.39093 134.251 6.47972 134.539 6.57091 134.807C6.6621 135.076 6.7509 135.383 6.81089 135.652C6.87088 135.921 6.97167 136.192 7.06286 136.463L7.11565 136.641L7.18765 136.857C7.24284 137.001 7.27884 137.145 7.33163 137.289C7.69159 138.421 7.96036 139.501 8.42831 140.408C8.67388 140.872 8.97006 141.306 9.31141 141.704C9.49139 141.92 9.67137 142.153 9.84895 142.388C10.0265 142.623 10.2089 142.892 10.3721 143.161C10.6769 143.684 10.948 144.186 11.236 144.654C11.3666 144.878 11.51 145.094 11.6656 145.302C11.8287 145.501 12.0087 145.714 12.1887 145.913C12.9442 146.726 13.7688 147.472 14.6532 148.143C15.5507 148.863 16.4146 149.563 17.3505 150.211C18.2613 150.855 19.2173 151.433 20.211 151.939C21.2045 152.436 22.2396 152.844 23.3043 153.161C24.384 153.485 25.4838 153.737 26.5967 153.917C27.7102 154.097 28.8453 154.224 29.9779 154.313C30.0733 154.325 30.1607 154.373 30.2235 154.446C30.2863 154.519 30.3202 154.612 30.3187 154.708C30.2467 154.905 30.0787 155.068 29.906 155.049L29.9132 155.076Z" fill="#3C3C3B"/>
<path d="M40.1836 180.239C39.4445 180.059 38.7078 179.863 37.971 179.627C37.7911 179.575 37.5919 179.503 37.3951 179.431C37.1983 179.359 37.0351 179.268 36.8552 179.191C36.4952 179.011 36.1712 178.831 35.8305 178.651C35.4897 178.471 35.1826 178.272 34.8586 178.111C34.5375 177.943 34.2074 177.793 33.8699 177.662C33.186 177.374 32.4852 177.139 31.7653 176.815C31.4028 176.654 31.0487 176.475 30.7046 176.277C30.5247 176.169 30.3615 176.061 30.2007 175.953L29.7327 175.63C29.104 175.198 28.4921 174.71 27.897 174.226C27.5922 173.986 27.3042 173.722 27.0354 173.453C26.8915 173.326 26.7475 173.182 26.6203 173.057L26.2243 172.661C25.9724 172.421 25.7036 172.181 25.4156 171.96C25.0947 171.708 24.7938 171.431 24.5157 171.132C24.3717 170.969 24.247 170.808 24.103 170.652C23.9761 170.487 23.8615 170.312 23.7598 170.129C23.5438 169.789 23.3638 169.465 23.1671 169.141C22.9703 168.817 22.7903 168.493 22.6103 168.224C22.3976 167.947 22.1693 167.683 21.9264 167.432C21.6382 167.148 21.3733 166.842 21.1345 166.515C20.8801 166.164 20.669 165.784 20.5058 165.383C20.3426 165.003 20.2346 164.644 20.0906 164.339C20.0186 164.195 19.9466 164.032 19.8746 163.888L19.6059 163.408C18.8499 162.112 18.0412 160.818 17.3765 159.398C17.05 158.675 16.7788 157.929 16.5654 157.166C16.3494 156.412 16.1886 155.673 16.0087 154.937L15.7567 153.84C15.6655 153.48 15.5767 153.101 15.5167 152.724C15.3559 151.968 15.2119 151.212 15.104 150.459C14.8728 148.935 14.7581 147.395 14.7608 145.854C14.7608 145.477 14.7608 145.081 14.78 144.702L14.7968 144.414C14.7947 144.312 14.8011 144.21 14.816 144.109C14.8348 143.898 14.8645 143.688 14.9048 143.48C14.9768 143.084 15.068 142.705 15.1447 142.345L15.2527 141.808C15.272 141.729 15.2841 141.649 15.2887 141.568L15.3247 141.296C15.4135 140.56 15.5047 139.804 15.6295 139.031C15.7551 138.248 15.9477 137.477 16.2054 136.727C16.7262 135.218 17.5181 133.869 18.1828 132.557C18.3268 132.233 18.4348 131.909 18.5428 131.597C18.6148 131.417 18.67 131.218 18.7588 131.021C18.7998 130.916 18.8479 130.814 18.9027 130.716L18.9939 130.553L19.0659 130.428C19.4595 129.761 19.8914 129.115 20.3234 128.484C20.7553 127.853 21.2425 127.244 21.7272 126.651L22.104 126.2L22.284 125.984C22.3373 125.928 22.3855 125.868 22.428 125.804C22.5191 125.679 22.6079 125.535 22.6991 125.391C22.7903 125.247 22.8959 125.05 23.0231 124.87C23.1521 124.674 23.3026 124.493 23.4718 124.33C23.6326 124.186 23.7766 124.042 23.9398 123.915C24.2445 123.675 24.5685 123.435 24.8757 123.195C25.1828 122.955 25.4852 122.744 25.7732 122.528C25.9172 122.42 26.0444 122.312 26.1883 122.204L26.6011 121.847C27.1774 121.32 27.784 120.827 28.4177 120.371C28.7514 120.138 29.1001 119.928 29.4616 119.742C29.8215 119.563 30.1815 119.403 30.5415 119.262C30.9014 119.118 31.2422 118.974 31.5829 118.83L32.0629 118.614C32.2135 118.547 32.3581 118.467 32.4948 118.374C32.7996 118.194 33.1236 117.978 33.4547 117.779C33.6408 117.667 33.833 117.565 34.0307 117.474L34.1027 117.438L34.1747 117.402L34.3018 117.347L34.5706 117.239C36.0133 116.669 37.4985 116.212 39.0125 115.874C39.7848 115.724 40.5666 115.627 41.3523 115.586C42.125 115.531 42.8809 115.495 43.6176 115.459C44.3543 115.423 45.1463 115.37 45.9382 115.387C47.52 115.453 49.0835 115.751 50.5793 116.27C50.956 116.394 51.316 116.558 51.6759 116.699L52.1991 116.939L52.4391 117.047L52.691 117.155C53.0342 117.299 53.3942 117.424 53.7709 117.587C53.8621 117.623 53.9509 117.676 54.0589 117.731C54.1171 117.753 54.172 117.783 54.2221 117.82L54.3469 117.892C54.5076 117.983 54.6708 118.072 54.8268 118.132C55.1508 118.295 55.5107 118.473 55.8539 118.672C56.2138 118.884 56.5565 119.125 56.8786 119.392C57.4882 119.916 58.0372 120.507 58.5152 121.153C58.9951 121.765 59.4319 122.394 59.8638 123.042C60.0918 123.375 60.2963 123.724 60.4758 124.086C60.6534 124.454 60.8096 124.832 60.9437 125.218C61.1937 125.961 61.3981 126.718 61.5557 127.486C61.726 128.255 61.8343 129.037 61.8796 129.823L61.9156 130.956C61.9324 131.333 61.9324 131.729 61.9324 132.108C61.932 132.904 61.8597 133.698 61.7164 134.481L61.6445 134.786C61.6085 134.894 61.5917 135.002 61.5557 135.11C61.4874 135.307 61.4072 135.499 61.3157 135.686C61.1549 136.046 60.9749 136.389 60.8357 136.711C60.7997 136.783 60.7637 136.874 60.7277 136.951L60.6198 137.219C60.529 137.432 60.4207 137.637 60.2958 137.831C60.1845 137.975 60.0827 138.126 59.991 138.282C59.9034 138.417 59.831 138.561 59.7751 138.712C59.4679 139.379 59.2159 140.099 58.8752 140.8C58.7069 141.163 58.5203 141.517 58.316 141.86C58.1024 142.201 57.8865 142.508 57.6705 142.82C57.4545 143.132 57.2385 143.449 57.0034 143.756C56.7682 144.063 56.5234 144.385 56.2666 144.69C55.7428 145.266 55.1816 145.807 54.5868 146.31L54.1741 146.686C54.0469 146.813 53.8861 146.926 53.7781 147.046C53.5381 147.286 53.3102 147.586 53.0582 147.891C52.931 148.035 52.8062 148.179 52.643 148.342C52.4799 148.505 52.3575 148.582 52.2303 148.719C51.9903 148.959 51.7815 149.24 51.5104 149.564C51.3699 149.723 51.2201 149.873 51.0616 150.015C50.9704 150.087 50.8984 150.139 50.8096 150.211C50.7206 150.282 50.624 150.342 50.5217 150.391C50.1639 150.56 49.7979 150.711 49.425 150.843C49.2664 150.895 49.1149 150.967 48.9738 151.056C48.8131 151.147 48.6331 151.255 48.4723 151.344C48.1291 151.524 47.8052 151.704 47.4644 151.884C46.7805 152.227 46.0966 152.551 45.3958 152.844C45.3528 152.866 45.3057 152.88 45.2574 152.883C45.2091 152.886 45.1606 152.88 45.1149 152.864C45.0692 152.848 45.0272 152.823 44.9916 152.79C44.956 152.757 44.9275 152.717 44.9078 152.673C44.8881 152.629 44.8777 152.581 44.8772 152.532C44.8767 152.484 44.8861 152.436 44.9049 152.391C44.9236 152.347 44.9513 152.306 44.9862 152.273C45.0211 152.239 45.0625 152.213 45.1079 152.196C45.7726 151.872 46.4397 151.531 47.1044 151.188C47.4284 151.011 47.7524 150.831 48.0763 150.631L48.5563 150.343C48.7365 150.238 48.9224 150.141 49.113 150.056C49.4549 149.933 49.7863 149.783 50.1041 149.607C50.1761 149.571 50.2289 149.516 50.3009 149.48C50.3729 149.444 50.4281 149.372 50.4977 149.319C50.6217 149.208 50.7365 149.088 50.8408 148.959C51.0568 148.719 51.2728 148.366 51.5776 148.059C51.7215 147.915 51.9015 147.754 51.9927 147.663C52.1145 147.539 52.2283 147.408 52.3335 147.269C52.5734 146.981 52.7822 146.693 53.0702 146.37C53.2334 146.206 53.3582 146.082 53.5021 145.954L53.9173 145.561C54.4634 145.07 54.9794 144.547 55.4627 143.994C55.6997 143.718 55.9223 143.431 56.1299 143.132C56.3434 142.825 56.5594 142.52 56.7586 142.213C56.9578 141.906 57.1905 141.584 57.3513 141.296C57.5295 140.986 57.6898 140.665 57.8313 140.337C58.1192 139.672 58.3688 138.969 58.676 138.251C58.7535 138.051 58.8499 137.858 58.9639 137.675C59.0612 137.508 59.1694 137.348 59.2879 137.195C59.3714 137.073 59.4377 136.94 59.4847 136.799L59.5759 136.531C59.6108 136.432 59.6525 136.336 59.7007 136.243C59.8638 135.883 60.0438 135.542 60.1686 135.218C60.2406 135.055 60.2934 134.911 60.3486 134.75L60.4014 134.534L60.4566 134.294C60.5816 133.594 60.6355 132.883 60.6174 132.173C60.6174 131.813 60.6006 131.434 60.5814 131.076L60.5286 129.96C60.4738 129.24 60.3655 128.524 60.2046 127.82C60.0598 127.106 59.8674 126.403 59.6287 125.715C59.4085 125.05 59.0933 124.42 58.6928 123.846C58.28 123.233 57.8489 122.639 57.3993 122.065C56.9669 121.507 56.485 120.989 55.9595 120.517C55.6995 120.303 55.4226 120.111 55.1316 119.941C54.8268 119.761 54.5028 119.6 54.1717 119.437C53.9917 119.348 53.8285 119.257 53.6485 119.169L53.5237 119.097C53.4877 119.077 53.4685 119.061 53.4325 119.041L53.2166 118.933C52.8926 118.789 52.5518 118.665 52.1919 118.521L51.9231 118.413L51.6519 118.288L51.148 118.072C50.8072 117.928 50.4833 117.784 50.1425 117.676C48.7849 117.208 47.3677 116.935 45.9334 116.865C45.2135 116.848 44.4767 116.901 43.7208 116.937C42.9649 116.973 42.209 117.009 41.4723 117.064C40.7355 117.119 40.0324 117.208 39.3125 117.333C37.8782 117.656 36.4709 118.089 35.1034 118.629L34.8634 118.737L34.7362 118.789L34.6642 118.809L34.6114 118.825C34.4634 118.898 34.3192 118.978 34.1795 119.065C33.8723 119.245 33.5675 119.442 33.2196 119.658C33.0423 119.775 32.8562 119.878 32.6628 119.965C32.4828 120.054 32.3029 120.145 32.1229 120.205C31.7629 120.366 31.403 120.51 31.0622 120.654C30.7214 120.798 30.3975 120.942 30.0903 121.103C29.7872 121.267 29.4932 121.447 29.2096 121.643C28.6225 122.075 28.0578 122.537 27.5178 123.027L27.0882 123.406C26.9443 123.531 26.7811 123.658 26.6083 123.783C26.3011 124.023 25.9772 124.232 25.6892 124.467C25.4012 124.702 25.0965 124.899 24.8277 125.132C24.7005 125.24 24.5757 125.348 24.4485 125.475C24.3436 125.576 24.2532 125.69 24.1798 125.816C24.0886 125.941 24.0166 126.085 23.9086 126.248C23.8006 126.411 23.6926 126.608 23.5678 126.788L23.3518 127.056L23.1719 127.272L22.8119 127.704C22.344 128.28 21.8952 128.856 21.4633 129.466C21.0313 130.075 20.6353 130.69 20.2634 131.318C19.9202 131.822 19.8122 132.518 19.4355 133.351C18.7348 134.736 17.9788 135.991 17.5277 137.344C17.2915 138.023 17.1172 138.722 17.0069 139.432C16.8822 140.152 16.8102 140.889 16.719 141.644L16.683 141.932C16.6662 142.038 16.647 142.146 16.6302 142.237C16.5988 142.431 16.5563 142.624 16.503 142.813C16.4142 143.19 16.3422 143.55 16.263 143.891C16.227 144.071 16.2078 144.234 16.191 144.395C16.191 144.467 16.1718 144.558 16.1718 144.635L16.155 144.906C16.1358 145.266 16.1358 145.642 16.1358 146.002C16.1357 147.477 16.2439 148.95 16.4598 150.408C16.5678 151.145 16.6998 151.865 16.8558 152.585C16.9278 152.945 17.0189 153.305 17.1077 153.665L17.3477 154.778C17.6717 156.254 18.0124 157.675 18.6076 158.971C19.2027 160.266 20.009 161.56 20.7673 162.873L21.0553 163.376C21.1627 163.563 21.2589 163.755 21.3433 163.952C21.5041 164.329 21.6312 164.689 21.756 165.013C21.8767 165.313 22.0338 165.597 22.224 165.858C22.4433 166.135 22.6781 166.399 22.9271 166.65C23.2188 166.936 23.4831 167.25 23.7166 167.586C23.9686 167.946 24.1486 168.27 24.3477 168.593C24.5469 168.917 24.7245 169.239 24.9237 169.553C25.0103 169.697 25.1057 169.835 25.2092 169.966C25.3075 170.101 25.4158 170.227 25.5332 170.345C25.7722 170.599 26.0245 170.839 26.2891 171.065C26.5962 171.314 26.8901 171.578 27.1698 171.857C27.3138 172.001 27.441 172.128 27.5658 172.272C27.6906 172.416 27.8058 172.541 27.9617 172.668L28.7729 173.422C29.3165 173.914 29.8869 174.377 30.4815 174.806L30.9302 175.13C31.091 175.238 31.2182 175.33 31.3622 175.438C31.6642 175.623 31.9767 175.792 32.2981 175.941C32.946 176.246 33.6635 176.515 34.3666 176.839C34.7266 177.002 35.0674 177.182 35.4081 177.379C35.7489 177.576 36.0753 177.775 36.38 177.974C36.9843 178.373 37.6275 178.71 38.2998 178.98C39.0005 179.22 39.7013 179.483 40.4212 179.699C40.4676 179.712 40.5112 179.733 40.5492 179.762C40.5872 179.792 40.619 179.828 40.6425 179.87C40.666 179.912 40.6808 179.958 40.6861 180.006C40.6914 180.054 40.687 180.102 40.6731 180.148C40.5152 180.239 40.3345 180.283 40.1524 180.275L40.1836 180.239Z" fill="#3C3C3B"/>
<path d="M106.123 166.191C105.728 166.57 105.35 166.97 104.988 167.391C104.791 167.613 104.575 167.818 104.343 168.003C104.235 168.092 104.103 168.2 103.983 168.291C103.832 168.381 103.676 168.461 103.515 168.531C102.939 168.747 102.399 168.872 101.895 169.052C101.787 169.088 101.655 169.141 101.554 169.177C101.511 169.198 101.468 169.222 101.427 169.249L101.266 169.356C101.057 169.51 100.859 169.679 100.674 169.86C100.257 170.277 99.8053 170.656 99.3226 170.993C99.2506 171.029 99.1978 171.084 99.1258 171.12L98.9458 171.228C98.8378 171.3 98.7059 171.372 98.6051 171.444C98.3891 171.588 98.1731 171.749 97.9211 171.924C97.6774 172.097 97.4251 172.257 97.1652 172.404C97.0316 172.484 96.8938 172.556 96.7525 172.62C96.6172 172.687 96.4787 172.747 96.3373 172.8C95.8166 173.04 95.2766 173.232 94.8087 173.448C94.7188 173.485 94.6342 173.533 94.5567 173.592C94.4728 173.66 94.3927 173.732 94.3167 173.808C94.0998 174.066 93.8449 174.291 93.5608 174.473L93.4336 174.545C93.3808 174.562 93.3448 174.598 93.3088 174.598L93.1121 174.689C92.9681 174.741 92.8409 174.797 92.6969 174.849C92.4282 174.957 92.157 175.049 91.869 175.137C90.7723 175.497 89.6925 175.785 88.687 176.165L87.9118 176.469L87.1223 176.774C86.5992 176.973 86.0593 177.17 85.5385 177.369L83.9547 177.926C83.4339 178.106 82.93 178.303 82.39 178.519C81.8501 178.735 81.3126 178.915 80.7534 179.078C80.1943 179.241 79.6376 179.383 79.0736 179.51L75.7812 180.263C75.2121 180.389 74.6359 180.479 74.0558 180.534C73.4798 180.606 72.9399 180.642 72.4191 180.731C72.2858 180.747 72.1535 180.771 72.0232 180.803C71.9152 180.822 71.8072 180.858 71.6632 180.894C71.4113 180.966 71.1593 181.055 70.8905 181.134C70.6217 181.214 70.3506 181.314 70.0626 181.374C69.9186 181.41 69.7746 181.446 69.6139 181.482C69.4592 181.514 69.303 181.538 69.1459 181.554C68.0039 181.664 66.8567 181.712 65.7095 181.698C65.1677 181.698 64.6266 181.735 64.0897 181.806C63.5689 181.878 63.0122 182.003 62.453 182.094C62.1651 182.147 61.8795 182.183 61.5915 182.219C61.4422 182.241 61.2914 182.253 61.1404 182.255C60.9796 182.255 60.8356 182.274 60.6916 182.274H58.983C58.4239 182.255 57.8503 182.238 57.2912 182.202C56.7321 182.166 56.1585 182.111 55.6114 182.058C55.5245 182.044 55.4461 181.997 55.3917 181.928C55.3373 181.859 55.3108 181.772 55.3174 181.684C55.324 181.596 55.3633 181.514 55.4275 181.453C55.4916 181.393 55.5761 181.359 55.6642 181.358C56.2233 181.374 56.7801 181.394 57.344 181.394C57.9079 181.394 58.4599 181.394 59.0238 181.374C59.5878 181.355 60.1397 181.338 60.7036 181.302C60.8364 181.301 60.9687 181.289 61.0996 181.266L61.4955 181.214C61.7667 181.178 62.0187 181.106 62.2875 181.05C62.8274 180.926 63.3673 180.81 63.9673 180.69C64.5446 180.595 65.1272 180.535 65.7119 180.51C66.8638 180.458 67.9604 180.458 69.0043 180.27C69.1263 180.258 69.2468 180.234 69.3643 180.199C69.4723 180.163 69.6043 180.143 69.7242 180.091C69.9642 180.019 70.2258 179.93 70.497 179.851C70.7681 179.771 71.0369 179.671 71.3249 179.582C71.4781 179.535 71.6344 179.499 71.7928 179.474C71.9342 179.44 72.0777 179.416 72.2224 179.402C72.7983 179.294 73.3742 179.239 73.9142 179.162C74.4541 179.085 74.9749 179.001 75.498 178.893L76.3067 178.694L77.1346 178.497L78.7712 178.12C79.3112 177.993 79.8487 177.849 80.3527 177.688C80.8566 177.528 81.3798 177.345 81.9005 177.148C82.4213 176.952 82.9444 176.752 83.5011 176.553L85.085 175.997C85.6057 175.817 86.1264 175.62 86.6496 175.421L88.231 174.828C89.3301 174.432 90.4268 174.163 91.4683 173.839C91.7202 173.748 91.9914 173.676 92.2434 173.568C92.3682 173.515 92.4833 173.479 92.6201 173.424L92.8001 173.352C92.8361 173.335 92.8553 173.335 92.8721 173.316C92.8889 173.297 92.9081 173.299 92.9273 173.28C93.111 173.157 93.2794 173.012 93.4288 172.848C93.5529 172.726 93.6852 172.612 93.8248 172.507C93.9724 172.397 94.1338 172.307 94.3047 172.239C94.8615 171.999 95.3822 171.823 95.8862 171.607C96.0134 171.555 96.1381 171.499 96.2461 171.447C96.3639 171.393 96.4785 171.333 96.5893 171.267C96.8293 171.139 97.038 171.027 97.2708 170.871C97.5036 170.715 97.7508 170.566 97.9907 170.391L98.3699 170.175L98.5499 170.086C98.5997 170.049 98.6537 170.019 98.7107 169.995C99.1574 169.701 99.5788 169.37 99.9705 169.006C100.199 168.811 100.439 168.631 100.69 168.466L100.887 168.341C100.963 168.292 101.043 168.249 101.127 168.214L101.576 168.053C102.152 167.89 102.692 167.782 103.177 167.621C103.276 167.588 103.372 167.545 103.465 167.494L103.789 167.278C103.999 167.119 104.198 166.945 104.384 166.758C104.783 166.346 105.21 165.961 105.66 165.606C105.698 165.577 105.741 165.556 105.787 165.543C105.833 165.531 105.88 165.529 105.927 165.535C105.974 165.542 106.02 165.558 106.06 165.583C106.101 165.607 106.136 165.639 106.164 165.678C106.196 165.713 106.221 165.754 106.236 165.798C106.252 165.843 106.258 165.89 106.255 165.937C106.251 165.985 106.238 166.031 106.217 166.073C106.195 166.115 106.165 166.152 106.128 166.182L106.123 166.191Z" fill="#3C3C3B"/>
<path d="M48.1146 183.853C49.5645 183.853 50.7399 182.678 50.7399 181.228C50.7399 179.778 49.5645 178.603 48.1146 178.603C46.6647 178.603 45.4893 179.778 45.4893 181.228C45.4893 182.678 46.6647 183.853 48.1146 183.853Z" fill="#3C3C3B"/>
<path d="M37.6642 156.643C39.3832 156.643 40.7767 155.249 40.7767 153.53C40.7767 151.811 39.3832 150.418 37.6642 150.418C35.9453 150.418 34.5518 151.811 34.5518 153.53C34.5518 155.249 35.9453 156.643 37.6642 156.643Z" fill="#FFCE46"/>
<path d="M4.71402 109.085C6.43298 109.085 7.82648 107.692 7.82648 105.973C7.82648 104.254 6.43298 102.86 4.71402 102.86C2.99506 102.86 1.60156 104.254 1.60156 105.973C1.60156 107.692 2.99506 109.085 4.71402 109.085Z" fill="#AFCA0B"/>
</g>
<mask id="mask5_5348_5665" style="mask-type:luminance" maskUnits="userSpaceOnUse" x="262" y="145" width="36" height="36">
<path d="M297.328 145.664H262.771V180.22H297.328V145.664Z" fill="white"/>
</mask>
<g mask="url(#mask5_5348_5665)">
<path d="M297.328 162.942C297.317 167.316 295.648 171.522 292.658 174.713C289.667 177.904 285.578 179.843 281.215 180.138C276.852 180.433 272.539 179.062 269.147 176.303C265.754 173.543 263.534 169.6 262.935 165.268C262.859 164.736 262.811 164.201 262.791 163.665C262.791 163.521 262.771 163.377 262.771 163.23V162.834C262.787 160.564 263.25 158.319 264.133 156.227C265.017 154.136 266.304 152.239 267.921 150.645C269.538 149.052 271.454 147.792 273.558 146.939C275.662 146.086 277.914 145.656 280.184 145.674C281.864 145.692 283.533 145.946 285.142 146.43C285.235 146.453 285.325 146.483 285.413 146.521C285.593 146.576 285.773 146.648 285.953 146.701C286.061 146.737 286.169 146.792 286.296 146.828C286.656 146.972 287.016 147.116 287.359 147.279C290.336 148.674 292.855 150.888 294.62 153.662C296.385 156.436 297.324 159.655 297.328 162.942Z" fill="#EFF4CE"/>
</g>
<mask id="mask6_5348_5665" style="mask-type:luminance" maskUnits="userSpaceOnUse" x="296" y="78" width="10" height="10">
<path d="M305.006 78.7114H296.367V87.3505H305.006V78.7114Z" fill="white"/>
</mask>
<g mask="url(#mask6_5348_5665)">
<path d="M300.687 87.3505C303.072 87.3505 305.006 85.4166 305.006 83.031C305.006 80.6453 303.072 78.7114 300.687 78.7114C298.301 78.7114 296.367 80.6453 296.367 83.031C296.367 85.4166 298.301 87.3505 300.687 87.3505Z" fill="#EFF4CE"/>
</g>
<mask id="mask7_5348_5665" style="mask-type:luminance" maskUnits="userSpaceOnUse" x="45" y="53" width="10" height="10">
<path d="M54.714 53.5142H45.835V62.3932H54.714V53.5142Z" fill="white"/>
</mask>
<g mask="url(#mask7_5348_5665)">
<path d="M50.2745 62.3932C52.7263 62.3932 54.714 60.4055 54.714 57.9537C54.714 55.5018 52.7263 53.5142 50.2745 53.5142C47.8226 53.5142 45.835 55.5018 45.835 57.9537C45.835 60.4055 47.8226 62.3932 50.2745 62.3932Z" fill="#EFF4CE"/>
</g>
<mask id="mask8_5348_5665" style="mask-type:luminance" maskUnits="userSpaceOnUse" x="69" y="108" width="14" height="14">
<path d="M82.3114 108.468H69.5928V121.187H82.3114V108.468Z" fill="white"/>
</mask>
<g mask="url(#mask8_5348_5665)">
<path d="M75.9515 121.192C79.465 121.192 82.3133 118.343 82.3133 114.83C82.3133 111.316 79.465 108.468 75.9515 108.468C72.4381 108.468 69.5898 111.316 69.5898 114.83C69.5898 118.343 72.4381 121.192 75.9515 121.192Z" fill="#EFF4CE"/>
</g>
</g>
<defs>
<clipPath id="clip0_5348_5665">
<rect width="311.999" height="190.779" fill="white"/>
</clipPath>
</defs>
</svg>
