<svg width="192" height="119" viewBox="0 0 192 119" fill="none" xmlns="http://www.w3.org/2000/svg">
<g clip-path="url(#clip0_3509_1121)">
<mask id="mask0_3509_1121" style="mask-type:luminance" maskUnits="userSpaceOnUse" x="104" y="0" width="52" height="52">
<path d="M155.06 0.889557H104.702V51.5034H155.06V0.889557Z" fill="white"/>
</mask>
<g mask="url(#mask0_3509_1121)">
<path d="M129.887 51.5153C143.796 51.5153 155.072 40.1823 155.072 26.2024C155.072 12.2225 143.796 0.889557 129.887 0.889557C115.978 0.889557 104.702 12.2225 104.702 26.2024C104.702 40.1823 115.978 51.5153 129.887 51.5153Z" fill="#EFF4CE"/>
</g>
<mask id="mask1_3509_1121" style="mask-type:luminance" maskUnits="userSpaceOnUse" x="13" y="0" width="112" height="113">
<path d="M124.638 0.889526H13.8809V112.21H124.638V0.889526Z" fill="white"/>
</mask>
<g mask="url(#mask1_3509_1121)">
<path d="M69.2595 112.21C99.8443 112.21 124.638 87.2903 124.638 56.5499C124.638 25.8095 99.8443 0.889526 69.2595 0.889526C38.6747 0.889526 13.8809 25.8095 13.8809 56.5499C13.8809 87.2903 38.6747 112.21 69.2595 112.21Z" fill="#AFCA0B"/>
</g>
<mask id="mask2_3509_1121" style="mask-type:luminance" maskUnits="userSpaceOnUse" x="27" y="8" width="165" height="107">
<path d="M191.979 8.45935H27.3198V114.734H191.979V8.45935Z" fill="white"/>
</mask>
<g mask="url(#mask2_3509_1121)">
<path d="M68.365 100.485C67.4982 100.327 67.3874 97.936 67.1541 97.0707C66.9208 96.2054 67.0876 94.9808 66.8587 94.1318C66.7258 93.6287 66.6033 92.321 66.4689 91.8178C66.1366 90.5993 65.3259 88.03 64.9921 86.8114C64.6584 85.5928 64.4014 83.5816 64.0691 82.3586C63.5803 80.5255 63.2702 77.5198 62.7696 75.6793C62.2808 73.8789 62.2247 73.1753 61.7359 71.3749C61.6029 70.8821 60.6357 68.3232 60.5028 67.8319C60.3359 67.2174 59.3804 61.6737 59.2135 61.0592C58.8916 59.8629 58.2256 57.8843 58.2256 57.8843L59.9977 52.6656L191.758 8.6835L97.8221 74.198L68.365 100.485Z" fill="#FFF5DB"/>
<path d="M78.4159 91.3414C78.0497 88.8181 77.1828 82.8038 77.072 81.652C76.9834 80.8134 76.7501 80.1202 76.4813 79.3276C76.2481 78.6678 76.048 77.9965 75.8818 77.3165C75.6962 76.4751 75.5552 75.6244 75.4594 74.768C75.3486 73.9189 75.2482 73.1026 75.0371 72.4213C74.8061 71.6284 74.6242 70.8219 74.4921 70.0064C74.4153 69.5819 74.3444 69.1797 74.2588 68.819L74.2366 68.7403C73.4702 65.5669 72.9932 63.4325 72.8145 62.4039C72.7182 61.8113 72.5027 61.2446 72.181 60.7386C71.931 60.3509 71.7575 59.9186 71.67 59.4651C71.5932 59.0509 71.5489 58.76 71.4928 58.481C71.4042 57.9778 71.3451 57.531 71.1266 56.5143C70.815 54.9722 68.715 49.8529 68.6929 49.7965L69.1034 49.6288C69.192 49.8425 71.2373 54.8371 71.5711 56.4253C71.7823 57.4524 71.8591 57.8888 71.9477 58.4023C71.9934 58.6828 72.0481 58.9723 72.1145 59.3864C72.1978 59.7923 72.3561 60.179 72.5812 60.5263C72.9267 61.0799 73.1628 61.6952 73.2768 62.3386C73.454 63.3553 73.9324 65.4793 74.6989 68.6409L74.721 68.7195C74.8096 69.0891 74.8879 69.5017 74.9647 69.9381C75.0876 70.7359 75.2663 71.524 75.4993 72.2966C75.7208 73.012 75.8212 73.8388 75.932 74.7101C76.0246 75.5514 76.1617 76.3873 76.3425 77.214C76.5094 77.8849 76.7102 78.5499 76.9332 79.1807C77.2109 80.0074 77.456 80.7125 77.5446 81.606C77.6554 82.7459 78.5222 88.7469 78.8885 91.2731L78.4159 91.3414Z" fill="#FFDA00"/>
<path d="M89.1552 81.7827C88.1776 73.7468 87.4879 68.7848 87.2768 68.1926C86.8441 66.974 86.0437 63.4756 85.8443 61.9587C85.7217 61.0206 85.2329 59.1385 84.8431 57.6335C84.5994 56.6731 84.3764 55.8345 84.2996 55.4323C84.2656 55.2304 84.2332 55.0182 84.1874 54.8178C84.0363 53.7323 83.7643 52.6674 83.3766 51.6429C82.7328 49.9672 81.4317 45.5975 81.4214 45.5574L81.8437 45.4342C81.8541 45.4787 83.1551 49.8366 83.7886 51.4915C84.1878 52.545 84.4672 53.6404 84.6215 54.7569C84.654 54.9692 84.688 55.1696 84.722 55.3714C84.7884 55.7618 85.0099 56.5885 85.2551 57.5504C85.6435 59.0703 86.1323 60.9642 86.2652 61.9319C86.466 63.4296 87.2546 66.8716 87.677 68.0665C87.9723 68.9273 88.9987 77.0077 89.5776 81.7574L89.1552 81.7827Z" fill="#FFDA00"/>
<path d="M153.955 35.1763H153.512C153.546 31.5547 153.558 29.4648 153.546 29.1517C153.512 28.4704 153.446 27.6674 152.979 26.7486C152.603 26.0228 152.669 24.3129 152.758 22.4798C152.78 22.1325 152.79 21.8312 152.79 21.619L153.233 21.6308C153.233 21.8535 153.211 22.1548 153.189 22.5125C153.123 23.7652 153.012 25.8655 153.356 26.5586C153.834 27.4982 153.933 28.3576 153.967 29.1398C154.001 29.4589 153.989 31.4939 153.955 35.1763Z" fill="#FFDA00"/>
<path d="M160.979 29.9071C160.768 25.9382 160.845 25.5701 160.879 25.4543C160.913 25.2762 160.967 25.1085 161.011 24.9407C161.178 24.3589 161.323 23.8676 160.989 23.1596C160.712 22.5659 160.778 21.6842 160.842 20.8338C160.886 20.1643 160.942 19.4593 160.809 19.0125L161.231 18.879C161.379 19.4044 161.342 20.1079 161.286 20.8679C161.231 21.662 161.165 22.4887 161.387 22.9696C161.787 23.829 161.61 24.4539 161.431 25.0595C161.387 25.2079 161.342 25.3831 161.308 25.5389C161.274 25.6948 161.242 26.4785 161.421 29.876L160.979 29.9071Z" fill="#FFDA00"/>
<path d="M169.212 24.5311L168.769 24.5192C168.813 21.8936 168.902 21.7258 168.958 21.6368C169.025 21.5017 169.002 21.1663 168.97 20.8085C168.906 20.2402 168.91 19.6662 168.98 19.0987C169.059 18.5406 168.813 16.9316 168.703 16.3617L169.135 16.283C169.147 16.372 169.525 18.4174 169.413 19.1655C169.348 19.7001 169.345 20.2404 169.403 20.7759C169.437 21.2568 169.469 21.6026 169.336 21.849C169.323 21.8817 169.246 22.2513 169.212 24.5311Z" fill="#FFDA00"/>
<path d="M176.256 19.6805L175.813 19.6137C176.046 18.0033 176.013 17.4897 175.979 17.322C175.746 16.3839 175.624 14.1041 175.624 14.0032L176.067 13.9809C176.067 14.0032 176.189 16.3157 176.412 17.2107C176.501 17.5684 176.445 18.3729 176.256 19.6805Z" fill="#FFDA00"/>
<path d="M182.501 15.0303C182.489 14.539 182.457 14.0477 182.412 13.5668C182.368 13.0309 182.412 11.7856 182.412 11.7233L182.855 11.7337C182.855 11.7456 182.811 13.0191 182.855 13.5222C182.9 14.0254 182.932 14.5167 182.944 15.0199L182.501 15.0303Z" fill="#FFDA00"/>
<path d="M68.365 100.707H68.3325C67.5203 100.559 67.287 99.1323 67.098 97.9805C67.0433 97.6451 66.999 97.3319 66.9429 97.1315C66.8343 96.6325 66.7847 96.1224 66.7952 95.6116C66.7731 95.1085 66.7613 94.5934 66.6475 94.1912C66.5811 93.924 66.5146 93.4758 66.4467 93.0038C66.3803 92.5689 66.3256 92.1132 66.2592 91.8757C66.0923 91.2716 65.8028 90.3113 65.5208 89.3836C65.2387 88.4559 64.9434 87.4837 64.7824 86.8796C64.6214 86.2755 64.4605 85.4384 64.3157 84.6339C64.171 83.8294 64.0204 83.0235 63.8594 82.4313C63.6157 81.5036 63.4046 80.2627 63.2037 79.0783C63.0029 77.8938 62.805 76.6752 62.5599 75.7594C62.3147 74.8436 62.1818 74.2173 62.0371 73.6028C61.8924 72.9883 61.7595 72.3619 61.5261 71.4684C61.4597 71.2324 61.182 70.4621 60.9147 69.7125C60.6194 68.9199 60.3595 68.1822 60.293 67.9314C60.2044 67.6182 59.9371 66.1087 59.6492 64.5175C59.3656 63.011 59.0865 61.448 59.0097 61.1512C58.6981 59.9771 58.0321 58.0104 58.0203 57.9882C58.0095 57.9393 58.0095 57.8886 58.0203 57.8398L59.7924 52.6196C59.8041 52.5851 59.8234 52.5538 59.849 52.528C59.8747 52.5023 59.9058 52.4828 59.9401 52.4711L191.684 8.47123C191.735 8.45414 191.791 8.45661 191.841 8.47819C191.891 8.49977 191.932 8.53896 191.955 8.58839C191.978 8.63783 191.983 8.69409 191.968 8.7466C191.952 8.7991 191.919 8.84421 191.873 8.87346L97.9653 74.3761L68.5216 100.652C68.4765 100.687 68.4217 100.706 68.365 100.707ZM58.4796 57.9021C58.6007 58.2717 59.1677 59.9593 59.4454 61.0191C59.534 61.3323 59.8013 62.8418 60.0907 64.4329C60.3683 65.9409 60.646 67.5054 60.7242 67.7963C60.7907 68.0308 61.0683 68.8026 61.3342 69.5507C61.6295 70.3448 61.8909 71.0825 61.9573 71.3318C62.201 72.2372 62.3354 72.874 62.4786 73.4885C62.6219 74.103 62.7563 74.7293 62.9896 75.6244C63.2347 76.552 63.4459 77.7914 63.6453 78.9759C63.8446 80.1603 64.0455 81.3789 64.2906 82.2962C64.4575 82.9107 64.6126 83.7374 64.7573 84.5419C64.902 85.3464 65.0526 86.1524 65.2121 86.7446C65.3716 87.3368 65.6685 88.309 65.9505 89.2367C66.2326 90.1643 66.5279 91.1365 66.6889 91.7392C66.7554 92.0078 66.8218 92.4546 66.8883 92.9266C66.9562 93.3615 67.0108 93.8172 67.0773 94.0546C67.1881 94.5534 67.2407 95.0635 67.2338 95.5745C67.256 96.0777 67.2663 96.5913 67.3815 96.9935C67.4376 97.2176 67.4937 97.5308 67.5484 97.8841C67.6828 98.6767 67.8939 99.9739 68.3266 100.208L97.6832 74.011C97.6936 74.0006 97.6936 74.0006 97.7054 74.0006L190.355 9.38703L60.1764 52.863L58.4796 57.9021Z" fill="#333333"/>
<path d="M120.811 57.9244C120.011 52.2248 119.678 51.2451 119.566 51.0967C119.188 50.5594 118.777 48.7041 118.311 46.5697C117.955 44.9948 117.6 43.3621 117.245 42.2786C116.722 40.6697 115.933 34.4995 116.034 33.8182L116.477 33.885C116.398 34.3986 117.132 40.4678 117.676 42.1332C118.032 43.2286 118.398 44.8717 118.754 46.4702C119.175 48.3864 119.618 50.3694 119.944 50.8399C120.045 50.9884 120.366 51.4425 121.266 57.8576L120.811 57.9244Z" fill="#FFDA00"/>
<path d="M100.21 72.4094C99.4434 67.403 98.9768 64.5309 98.8808 64.1049C98.8143 63.8481 98.6814 63.3628 98.5145 62.7527C98.0479 61.0428 97.3257 58.4721 97.2253 57.3886C97.0408 55.2406 96.6541 53.115 96.0705 51.0403C95.8918 50.3813 95.7367 49.8113 95.6363 49.2191C95.3144 47.4083 93.2263 41.6493 93.2041 41.5973L93.6265 41.44C93.7165 41.6745 95.75 47.297 96.0823 49.1404C96.1827 49.7104 96.3378 50.27 96.5047 50.9216C97.0977 53.0173 97.4884 55.1655 97.6713 57.3366C97.7717 58.3756 98.4717 60.9241 98.9384 62.6236C99.1052 63.2381 99.2337 63.7294 99.3046 63.9876C99.439 64.5457 100.117 68.8368 100.65 72.3352L100.21 72.4094Z" fill="#FFDA00"/>
<path d="M110.665 65.1335C109.899 61.1557 109.499 58.8639 109.466 58.3281C109.319 55.3878 108.71 53.8575 108.177 52.5053C107.766 51.4544 107.411 50.5594 107.388 49.2636C107.377 48.1014 107.111 47.4825 106.789 46.7047C106.3 45.608 105.977 44.4437 105.832 43.2508C105.721 42.4463 105.51 41.4697 105.299 40.5123C105.088 39.5297 104.856 38.5011 104.755 37.6922L105.198 37.6358C105.297 38.4299 105.52 39.4347 105.732 40.4188C105.943 41.4029 106.154 42.3751 106.275 43.19C106.42 44.3464 106.736 45.4746 107.213 46.537C107.546 47.3296 107.836 48.0213 107.846 49.2636C107.858 50.4703 108.202 51.3416 108.602 52.348C109.125 53.6675 109.769 55.2987 109.931 58.3044C109.954 58.8194 110.366 61.1438 111.113 65.0445L110.665 65.1335Z" fill="#FFDA00"/>
<path d="M128.4 52.7057C128.245 50.4792 127.867 45.2071 127.7 44.0969C127.666 43.8519 127.622 43.561 127.589 43.2597C127.4 41.7947 127.133 39.7835 126.499 38.5427C125.689 36.956 126.288 30.7191 126.31 30.4504L126.753 30.4964C126.743 30.5632 126.143 36.8669 126.901 38.3408C127.569 39.6604 127.834 41.7057 128.035 43.2033C128.079 43.5002 128.112 43.797 128.146 44.0419C128.313 45.1596 128.691 50.457 128.856 52.6804L128.4 52.7057Z" fill="#FFDA00"/>
<path d="M137.423 46.6825L136.98 46.6706C137.091 43.1944 137.046 42.145 136.98 41.8764C136.832 41.2827 136.813 40.2214 136.779 39.0934C136.747 38.0648 136.713 37.0035 136.612 36.1322C136.537 35.4957 136.556 34.8515 136.668 34.2205C136.769 33.5169 136.835 33.0464 136.391 32.3874C135.505 31.0916 135.89 27.3913 135.912 27.2355L136.355 27.28C136.355 27.3141 135.977 30.9788 136.767 32.1306C137.311 32.9351 137.222 33.5496 137.122 34.2769C137.022 34.8652 137.003 35.4646 137.067 36.058C137.178 36.9486 137.215 38.0262 137.244 39.0652C137.278 40.1709 137.311 41.2114 137.433 41.7591C137.456 41.9313 137.566 42.4122 137.423 46.6825Z" fill="#FFDA00"/>
<path d="M145.322 40.9146C145.289 36.7586 145.267 34.544 145.267 34.3318C145.255 33.9296 145.221 33.5169 145.177 33.1147C145.145 32.7896 145.111 32.4319 145.066 32.0193C145.03 31.6066 145.026 31.1917 145.056 30.7784C145.087 30.4135 145.08 30.0464 145.034 29.683C144.922 28.7108 144.656 24.5415 144.644 24.3634L145.087 24.3293C145.087 24.3738 145.365 28.6663 145.477 29.6266C145.523 30.0163 145.53 30.4096 145.499 30.8007C145.469 31.1916 145.473 31.5844 145.509 31.9748C145.543 32.3874 145.588 32.7451 145.61 33.0687C145.666 33.4874 145.696 33.9093 145.698 34.3318C145.698 34.544 145.71 36.7571 145.755 40.9042L145.322 40.9146Z" fill="#FFDA00"/>
<path d="M84.2107 74.7234C83.6318 75.3706 83.843 77.1369 83.3985 77.7855C82.7103 78.8022 82.0546 79.9763 81.365 81.0034C81.0874 81.4057 80.7315 83.8651 80.4657 84.2688C79.9207 85.0629 79.1543 85.9342 78.7541 86.8173C77.6657 89.2308 74.3105 91.7911 73.3654 93.1878C72.8101 94.0027 72.5989 94.6409 72.0437 95.4558C71.6095 96.0926 70.2095 97.8025 69.7768 98.4407C69.4313 98.9543 69.0385 99.971 68.3872 100.486C68.3872 100.486 70.499 99.3342 71.2211 98.7865C72.054 98.1602 73.1409 96.9208 73.9768 96.2944L75.9541 94.8191L77.8547 93.4001C78.41 92.9756 80.0699 92.2928 80.6207 91.8683C81.077 91.5329 81.9985 90.3158 82.4549 89.9803C83.4546 89.2382 85.9991 87.8118 86.9989 87.0622C88.0769 86.2577 89.1328 84.9501 90.2108 84.1456C90.7439 83.7434 94.8552 81.5199 95.3795 81.1177C97.4795 79.5414 99.2191 78.167 100.657 76.9929C99.7714 73.4722 94.9911 72.7018 94.9911 72.7018L84.2107 74.7234Z" fill="#FFDA00"/>
<path d="M86.7432 87.4867L86.4316 87.1617C86.4656 87.129 89.8282 83.8755 90.2712 81.5956C90.4381 80.7585 91.3714 79.3276 92.0433 78.2886C92.2427 77.9755 92.4199 77.7187 92.5322 77.5168C92.6651 77.2927 93.1642 76.2433 94.765 72.5876L95.1756 72.7671C93.8878 75.7357 93.1199 77.4055 92.9205 77.7513C92.798 77.9532 92.6252 78.2204 92.4199 78.5336C91.7982 79.4954 90.8531 80.9366 90.7098 81.6862C90.2299 84.0996 86.8761 87.3517 86.7432 87.4867Z" fill="#FFDA00"/>
<path d="M68.3651 100.707C68.3063 100.707 68.25 100.684 68.2084 100.642C68.1669 100.6 68.1436 100.544 68.1436 100.485C68.1439 100.45 68.152 100.416 68.1674 100.385C68.1827 100.353 68.2049 100.326 68.2322 100.305C68.6427 99.9695 68.9543 99.3995 69.2319 98.8964C69.3545 98.6737 69.4653 98.4615 69.576 98.3027C69.799 97.9791 70.2657 97.375 70.7205 96.7946C71.1754 96.2143 71.6317 95.6206 71.8428 95.3192C72.081 94.9586 72.2998 94.5856 72.4985 94.2016C72.7013 93.8043 72.9276 93.4197 73.1764 93.0498C73.5323 92.5244 74.2101 91.8549 74.9869 91.0727C76.2761 89.7977 77.8769 88.1992 78.5429 86.7134C78.8206 86.087 79.2813 85.4726 79.7243 84.8922C79.9237 84.6235 80.1127 84.3772 80.2678 84.1322C80.38 83.9645 80.5469 83.1927 80.6901 82.5782C80.891 81.6624 81.0239 81.0939 81.179 80.8683C81.5245 80.3652 81.8568 79.8071 82.1905 79.2698C82.5243 78.7324 82.8684 78.164 83.2125 77.6489C83.3793 77.3922 83.4458 76.8667 83.5078 76.365C83.5979 75.6823 83.6747 74.9668 84.0424 74.5646C84.0731 74.528 84.1163 74.5042 84.1635 74.4978L94.9306 72.4525H95.0088C95.2082 72.4866 99.9309 73.2911 100.854 76.9053C100.864 76.9463 100.862 76.9894 100.848 77.0292C100.834 77.0691 100.809 77.1039 100.776 77.1294C99.3092 78.348 97.5267 79.7329 95.4977 81.2646C95.22 81.4769 94.0859 82.1136 92.8867 82.7964C91.7526 83.4435 90.5756 84.1041 90.3305 84.294C89.7737 84.739 89.2469 85.2205 88.7533 85.7353C88.2438 86.2648 87.698 86.7578 87.12 87.2106C86.609 87.5906 85.7082 88.1487 84.831 88.686C83.9538 89.2233 83.0589 89.7695 82.5745 90.1391C82.2585 90.4206 81.9652 90.7268 81.6973 91.0549C81.3311 91.4572 80.9973 91.849 80.7536 92.0271C80.2979 92.3211 79.8222 92.5825 79.33 92.8093C78.8616 93.0276 78.4086 93.278 77.9744 93.5589L74.1097 96.477C73.6346 96.8606 73.1819 97.2714 72.754 97.7075C72.3112 98.1544 71.8438 98.5761 71.354 98.9706C70.6157 99.5183 68.5762 100.636 68.4876 100.691C68.4477 100.702 68.4065 100.708 68.3651 100.707ZM84.3318 74.9238C84.0985 75.237 84.0365 75.8411 83.9538 76.4214C83.8711 77.0018 83.8061 77.5614 83.5772 77.9057C83.2317 78.4074 82.8994 78.967 82.5656 79.5028C82.2319 80.0386 81.8878 80.6101 81.5437 81.1236C81.4315 81.2914 81.2661 82.0632 81.1214 82.6777C80.9205 83.5935 80.7876 84.1619 80.6325 84.3876C80.4657 84.6443 80.2766 84.8907 80.0773 85.1579C79.6549 85.7279 79.2104 86.3097 78.9549 86.9019C78.255 88.4663 76.6217 90.0872 75.2985 91.3948C74.532 92.1548 73.8764 92.8138 73.5426 93.3066C73.3047 93.6673 73.0858 94.0404 72.8869 94.4242C72.6856 94.8218 72.4592 95.206 72.2091 95.5746C71.9876 95.8981 71.5209 96.5022 71.0646 97.0841C70.6083 97.6659 70.1534 98.2566 69.9437 98.5683C69.8256 98.7486 69.7177 98.9355 69.6203 99.1279C69.5158 99.3316 69.401 99.5298 69.2762 99.7216C69.9201 99.352 70.688 98.8934 71.0646 98.6143C71.5403 98.232 71.993 97.8217 72.4203 97.3854C72.8631 96.9384 73.3305 96.5167 73.8202 96.1222L77.6879 93.216C78.1434 92.9226 78.6186 92.6612 79.11 92.4338C79.5782 92.2179 80.0312 91.9699 80.4657 91.6917C80.782 91.41 81.0754 91.1032 81.3429 90.7744C81.6302 90.4243 81.9464 90.0991 82.288 89.8022C82.799 89.4222 83.6983 88.8641 84.577 88.3268C85.4557 87.7895 86.3491 87.2433 86.832 86.8737C87.3892 86.4288 87.9166 85.9473 88.4107 85.4325C88.9198 84.9026 89.4656 84.4096 90.044 83.9571C90.3216 83.7449 91.4543 83.1081 92.6549 82.4268C93.7876 81.7782 94.966 81.1192 95.2215 80.9292C97.1989 79.4449 98.9326 78.0898 100.377 76.8934C99.4908 73.821 95.3987 72.9943 94.966 72.9037L84.3318 74.9238Z" fill="#333333"/>
<path d="M27.5415 50.5713L35.1764 48.6269C36.9086 48.1816 40.509 47.4202 42.6754 46.8606C44.6203 46.3693 45.9538 45.7103 48.1985 45.1403C50.9541 44.4353 54.2207 43.7644 57.3648 42.9718C58.2213 42.7477 59.1369 42.8144 60.0229 42.5918C60.466 42.479 60.8676 42.0768 61.3121 41.9654C62.8908 41.5632 64.5344 41.2945 66.1855 40.87C67.1188 40.6355 68.0299 40.2556 68.9913 40.0092C69.7135 39.831 70.4681 39.7865 71.2065 39.5965C73.0185 39.1379 74.829 38.5234 76.7074 38.0425C78.6405 37.5512 80.6179 37.1935 82.6145 36.6903C83.4592 36.4781 84.2817 36.1204 85.1368 35.8962C86.1144 35.6513 87.0566 35.2595 88.0475 35.0057C89.5922 34.6153 91.2033 34.5025 92.7731 34.1003C94.5172 33.655 96.2406 33.0613 98.0068 32.616C99.1513 32.3191 100.34 32.1707 101.495 31.8738C103.373 31.3929 105.24 30.7666 107.129 30.2871C107.939 30.0734 108.784 30.0066 109.607 29.8062C111.24 29.3921 112.856 28.834 114.496 28.4095C115.273 28.2077 116.019 27.8722 116.796 27.6674C117.763 27.421 118.507 27.5101 119.475 27.2637C120.752 26.9401 121.03 26.6611 122.307 26.3256C123.53 26.0124 125.986 25.3193 127.207 25.0061C129.196 24.5044 131.23 24.2803 133.197 23.7771C135.274 23.2517 137.286 22.4413 139.319 21.9218C141.174 21.4527 143.041 21.1173 144.863 20.6586C145.553 20.4805 146.263 20.4464 146.941 20.2787C148.785 19.8096 150.575 19.207 152.364 18.7484L155.76 17.8875C157.359 17.4734 158.66 17.273 160.19 16.8812C160.524 16.7921 161.102 16.5234 161.423 16.4359C163.368 15.9446 164.835 15.5453 166.667 15.0733C167.468 14.8714 168.679 14.5924 169.457 14.3905C170.98 14.0002 172.402 13.3397 173.824 12.9834C176.046 12.4135 178.202 12.1671 180.174 11.6639C181.886 11.2276 183.474 10.6695 184.975 10.2895C186.675 9.85311 191.82 8.69092 191.82 8.69092L184.997 11.2053C184.352 11.4398 183.086 12.0662 182.43 12.3007C181.397 12.6807 179.307 13.307 178.275 13.687C177.408 14.0106 175.696 14.7928 174.819 15.106C173.719 15.5082 171.474 16.191 170.374 16.5902C169.563 16.8871 167.974 17.6292 167.174 17.9261C166.14 18.3061 164.04 18.9309 163.007 19.3109C162.268 19.5914 160.752 19.9937 160.007 20.2609C159.341 20.5072 158.04 21.1336 157.374 21.3785C156.586 21.6754 155.186 22.3626 154.396 22.6535C153.273 23.0661 150.873 23.7712 149.751 24.1838C148.007 24.8324 144.529 26.2618 142.785 26.9C142.319 27.0677 141.373 27.2681 140.919 27.4358C140.106 27.7327 139.217 28.3413 138.408 28.6322C137.227 29.0686 134.164 29.9176 132.985 30.3539C131.213 31.0011 128.375 32.1751 126.597 32.8342C126.197 32.9826 124.696 33.4041 124.296 33.5615C122.886 34.0869 120.886 34.9686 119.475 35.491C117.998 36.0387 114.197 37.29 112.718 37.8273L108.966 39.1839L104.945 40.6682C103.521 41.1936 101.222 41.673 99.7996 42.1985C98.2106 42.7803 94.4832 44.5347 92.8987 45.1151L90.9552 45.8305C89.6261 46.3233 83.7885 48.0213 82.4771 48.5126C81.6428 48.8094 81.3769 49.3631 80.544 49.6763C78.4426 50.4466 75.176 51.352 73.076 52.1238C72.5105 52.3361 70.443 53.3973 69.8759 53.6081C68.9765 53.9436 68.5763 54.3339 67.6873 54.6694C66.4424 55.128 62.5187 56.1789 61.2767 56.6375C60.5206 56.9166 58.2656 57.8992 58.2656 57.8992C57.9702 57.2847 57.5272 57.2965 57.1432 57.0175C56.3768 56.4579 55.4878 56.0215 54.4422 55.3403C54.1203 55.128 51.7767 54.4022 50.2098 53.7313C49.1982 53.3068 48.6873 52.6923 47.6654 52.3791C45.8932 51.8418 44.6542 51.4618 42.9309 51.1605C42.2752 51.0492 41.7317 51.3505 41.0982 51.2615C40.3598 51.1605 38.5094 50.6024 37.8094 50.5342C35.5086 50.3115 34.0097 50.736 32.2982 50.7583C30.7103 50.7917 29.1219 50.7293 27.5415 50.5713Z" fill="white"/>
<path d="M94.1329 44.7143C94.1329 44.7143 92.9515 42.5577 92.5321 41.7873C92.1127 41.017 90.1693 39.1602 89.2434 38.4448C88.7841 38.0994 88.2971 37.7931 87.7873 37.5289C87.5539 37.4058 87.3103 37.2722 87.0326 37.1044C86.0432 36.49 84.0983 36.4439 84.0791 36.4439L84.0909 35.9987C84.1795 35.9987 86.1791 36.0551 87.2689 36.726C87.5347 36.8937 87.7577 37.005 87.9911 37.1386C88.5213 37.4103 89.0268 37.7281 89.5018 38.0885C90.4691 38.8307 92.4686 40.7483 92.9131 41.5647C93.331 42.335 94.5124 44.4917 94.5124 44.4917L94.1329 44.7143Z" fill="#FFF5DB"/>
<path d="M82.4327 48.6491C82.4209 48.6373 81.5983 47.6651 80.2648 45.9003C80.1029 45.7158 79.9205 45.5504 79.7213 45.4075C79.4945 45.2403 79.2825 45.0535 79.0878 44.8494C78.9401 44.6698 78.7925 44.4917 78.6448 44.3017C78.3535 43.9235 78.0378 43.565 77.6997 43.2286C77.3593 42.931 76.9953 42.662 76.6113 42.4241C76.4636 42.3231 76.3159 42.2341 76.1889 42.145C75.905 41.9521 75.5832 41.8226 75.2453 41.7651C74.9908 41.711 74.7431 41.6283 74.5069 41.5187C74.3193 41.4296 74.1303 41.3391 73.9295 41.2396C73.3665 40.942 72.779 40.6937 72.1736 40.4975C70.6304 40.0952 68.4182 40.4069 68.396 40.4188L68.3296 39.9735C68.4182 39.9617 70.6629 39.6381 72.2858 40.0626C72.9224 40.2638 73.5398 40.5221 74.1303 40.8344C74.3193 40.9235 74.5069 41.0244 74.6959 41.1016C74.9102 41.1963 75.134 41.2675 75.3634 41.3138C75.7518 41.389 76.1216 41.5403 76.4518 41.7591C76.5847 41.8482 76.7191 41.9372 76.8638 42.0382C77.2722 42.2919 77.6585 42.5799 78.0186 42.899C78.375 43.2469 78.7057 43.6205 79.0081 44.0167C79.1557 44.2067 79.296 44.3729 79.4408 44.5407C79.6189 44.7204 79.8083 44.8885 80.0078 45.0438C80.238 45.2069 80.4469 45.3983 80.6296 45.6138C81.9586 47.3682 82.7635 48.3419 82.7738 48.3523L82.4327 48.6491Z" fill="#FFF5DB"/>
<path d="M70.0988 53.4998C70.0988 53.4879 69.7207 52.4147 68.1214 50.8726C67.7212 50.4926 66.6313 49.6213 66.1868 49.3082C65.6316 48.9059 64.7426 48.336 64.143 47.9723C63.7553 47.7477 63.3298 47.5967 62.8877 47.527C62.4998 47.4632 62.1223 47.3468 61.7654 47.1812C61.4116 47.0071 61.0702 46.8087 60.7435 46.5875C60.3433 46.3079 59.9103 46.0791 59.4543 45.9062C59.1739 45.8239 58.8875 45.7638 58.5977 45.7266C58.0021 45.6579 57.4232 45.484 56.8876 45.213C56.527 45.0338 56.1462 44.8987 55.7535 44.8108C54.5704 44.6027 53.3752 44.4718 52.1753 44.4189L52.1989 43.9737C53.4172 44.0295 54.6306 44.1638 55.8318 44.3759C56.2589 44.4648 56.6732 44.6075 57.0649 44.8004C57.3592 44.9426 57.6638 45.0621 57.976 45.1581C58.2094 45.2145 58.4323 45.259 58.6657 45.2917C58.9815 45.3287 59.2937 45.3922 59.599 45.4817C60.0869 45.6721 60.5524 45.916 60.9871 46.209C61.3003 46.4203 61.6268 46.6106 61.9648 46.7789C62.2921 46.9228 62.6351 47.028 62.9867 47.0921C63.4809 47.1691 63.956 47.3399 64.3867 47.5953C64.9877 47.9634 65.887 48.5452 66.4541 48.9579C66.9208 49.2933 68.021 50.1646 68.4433 50.5668C70.1313 52.1876 70.5211 53.3276 70.5433 53.3721L70.0988 53.4998Z" fill="#FFF5DB"/>
<path d="M105.293 40.6356L105.238 40.5688C104.609 39.799 104.11 38.9305 103.762 37.998C103.44 37.1594 102.661 36.3653 102.04 35.7285C101.782 35.4835 101.544 35.2185 101.328 34.9359C100.885 34.3318 98.6697 33.1919 97.8501 32.8015L98.0391 32.3993C98.3507 32.5477 101.095 33.8628 101.684 34.6673C101.895 34.9281 102.121 35.1759 102.362 35.4094C103.017 36.0803 103.828 36.907 104.184 37.8347C104.513 38.7221 104.988 39.5479 105.588 40.2778L105.644 40.3446L105.293 40.6356Z" fill="#FFF5DB"/>
<path d="M116.233 36.6339C116.188 36.5345 115.177 34.2991 115.022 33.7618C114.874 33.2809 114.022 32.426 113 31.4597C111.922 30.4311 109.999 29.9072 109.977 29.8953L110.088 29.4589C110.166 29.4812 112.133 30.0289 113.3 31.1362C114.444 32.2197 115.265 33.036 115.444 33.6283C115.592 34.1314 116.625 36.4217 116.643 36.4484L116.233 36.6339Z" fill="#FFF5DB"/>
<path d="M125.978 33.0464C125.956 32.9796 125.411 31.5161 125.278 31.0471C125.166 30.633 124.444 29.594 123.6 28.6218C122.8 27.6941 120.921 26.9564 120.911 26.9445L121.059 26.5319C121.137 26.5646 123.048 27.3141 123.925 28.3309C124.664 29.1917 125.536 30.3643 125.697 30.9343C125.818 31.3929 126.375 32.8906 126.385 32.9009L125.978 33.0464Z" fill="#FFF5DB"/>
<path d="M135.633 29.5361C135.611 29.4916 135.145 28.3175 135.022 27.893C134.923 27.5249 134.256 26.575 133.489 25.7022C132.751 24.8651 131.399 24.3842 131.389 24.3664L131.537 23.9419C131.591 23.9641 133.014 24.4792 133.826 25.395C134.536 26.1994 135.314 27.2384 135.459 27.7535C135.57 28.1557 136.05 29.3402 136.059 29.3521L135.633 29.5361Z" fill="#FFF5DB"/>
<path d="M144.357 26.2707C144.345 26.2262 143.989 25.2866 143.89 24.9185C143.8 24.5935 143.267 23.789 142.655 23.029C142.065 22.3136 140.778 21.7778 140.756 21.7659L140.923 21.3533C140.978 21.3755 142.345 21.9336 143.001 22.7381C143.567 23.4431 144.2 24.3485 144.33 24.7953C144.431 25.1411 144.786 26.103 144.786 26.103L144.357 26.2707Z" fill="#FFF5DB"/>
<path d="M152.667 23.1448C152.656 23.1003 152.3 22.183 152.224 21.8936C152.168 21.6917 151.824 21.1217 151.301 20.4731C150.869 19.9373 149.972 19.5692 149.958 19.5573L150.124 19.1432C150.169 19.1655 151.135 19.5692 151.635 20.1822C152.068 20.718 152.546 21.4112 152.647 21.7689C152.713 22.0375 153.079 22.9652 153.079 22.9756L152.667 23.1448Z" fill="#FFF5DB"/>
<path d="M160.889 20.0264C160.778 19.8779 159.855 18.5851 159.69 18.171C159.668 18.1265 159.542 17.892 158.767 17.3443L159.023 16.9762C159.634 17.4111 160.002 17.7584 160.101 18.0033C160.223 18.3165 160.979 19.3792 161.257 19.7592L160.889 20.0264Z" fill="#FFF5DB"/>
<path d="M168.711 17.2166C168.711 17.1943 168.29 15.4741 167.357 15.0377L167.544 14.6354C168.679 15.1609 169.133 17.0385 169.156 17.1172L168.711 17.2166Z" fill="#FFF5DB"/>
<path d="M175.789 14.6399C175.789 14.628 175.556 13.4109 174.468 12.9968L174.615 12.5827C175.945 13.0859 176.204 14.5123 176.216 14.5731L175.789 14.6399Z" fill="#FFF5DB"/>
<path d="M182.801 12.2488L182.358 12.1924C182.358 12.1701 182.403 11.7011 181.825 11.3211L182.069 10.9411C182.89 11.4888 182.801 12.2265 182.801 12.2488Z" fill="#FFF5DB"/>
<path d="M58.2434 58.1262C58.2015 58.1283 58.1599 58.1176 58.1241 58.0956C58.0883 58.0737 58.0599 58.0414 58.0425 58.003C57.9809 57.8698 57.8929 57.7506 57.784 57.6526C57.6751 57.5547 57.5475 57.48 57.409 57.4331C57.2627 57.3654 57.1215 57.287 56.9866 57.1986C56.5436 56.8854 56.0755 56.5945 55.6088 56.3273C55.1983 56.0809 54.7656 55.8345 54.2989 55.5332C54.1645 55.4442 53.4424 55.1874 52.7542 54.9395C51.9317 54.6426 50.9098 54.2805 50.0961 53.945C49.6829 53.7625 49.2874 53.5419 48.9146 53.286C48.4994 52.9888 48.0425 52.7552 47.559 52.5929C45.7248 52.0333 44.5257 51.6756 42.8481 51.3861C42.5548 51.3505 42.2577 51.3656 41.9694 51.4307C41.6598 51.4992 41.3412 51.5177 41.0258 51.4856C40.5015 51.3968 39.9819 51.2814 39.4693 51.1398C38.9046 50.9822 38.3317 50.8558 37.7533 50.7613C36.3311 50.6277 35.231 50.739 34.1647 50.8503C33.5194 50.9171 32.9198 50.9735 32.2641 50.9854C30.68 51.007 29.0959 50.9396 27.5193 50.7835C27.4605 50.7772 27.4065 50.7477 27.3692 50.7016C27.3318 50.6554 27.3141 50.5963 27.3199 50.5371C27.326 50.4925 27.3451 50.4506 27.3748 50.4168C27.4045 50.383 27.4434 50.3587 27.4868 50.3472L35.1202 48.4027C35.9428 48.1905 37.1758 47.9115 38.4872 47.6101C39.9536 47.2747 41.4762 46.9274 42.6222 46.6365C43.5555 46.4019 44.3322 46.1348 45.1548 45.8438C46.0409 45.5307 46.9668 45.2175 48.1438 44.9162C49.4729 44.5807 50.9112 44.2453 52.4338 43.8994C54.0331 43.5299 55.6827 43.1573 57.3071 42.7373C57.7487 42.6348 58.1984 42.5712 58.651 42.5473C59.0928 42.5226 59.5316 42.459 59.9623 42.3573C60.1684 42.2878 60.363 42.1877 60.5397 42.0604C60.7575 41.9108 60.9979 41.7976 61.2515 41.725C62.0401 41.5231 62.8509 41.3554 63.6395 41.1892C64.4517 41.0214 65.2846 40.8418 66.1175 40.6296C66.5738 40.5183 67.0404 40.3609 67.485 40.2051C67.9295 40.0492 68.4286 39.8919 68.9174 39.7687C69.2851 39.6796 69.6735 39.6129 70.0398 39.5565C70.406 39.5001 70.7781 39.4451 71.1296 39.3561C72.0157 39.1319 72.9401 38.8529 73.8173 38.5961C74.7285 38.3275 75.6736 38.0484 76.6232 37.802C77.5727 37.5556 78.5784 37.3434 79.5339 37.1311C80.5115 36.9189 81.5231 36.6963 82.511 36.4499C82.9292 36.3413 83.3413 36.2105 83.7456 36.058C84.1665 35.9096 84.5888 35.7612 85.0333 35.6558C85.5118 35.5326 86.0006 35.3767 86.4673 35.2209C86.9339 35.065 87.4449 34.8958 87.944 34.7756C88.7208 34.5752 89.533 34.452 90.3069 34.3184C91.0807 34.1849 91.8855 34.0617 92.6697 33.8598C93.5366 33.6357 94.4152 33.3789 95.2585 33.1177C96.1253 32.8609 97.0143 32.5922 97.9033 32.3755C98.4808 32.2271 99.0847 32.1173 99.6592 32.0059C100.234 31.8946 100.826 31.7833 101.393 31.6378C102.326 31.4018 103.282 31.1228 104.199 30.8437C105.116 30.5647 106.076 30.2857 107.033 30.0497C107.454 29.9383 107.876 29.8715 108.288 29.8048C108.7 29.738 109.111 29.6697 109.509 29.5702C110.321 29.358 111.143 29.1116 111.943 28.8771C112.743 28.6426 113.576 28.3843 114.399 28.1721C114.777 28.0726 115.155 27.9375 115.531 27.8143C115.908 27.6911 116.299 27.5472 116.7 27.4462C117.152 27.3363 117.613 27.2653 118.077 27.234C118.515 27.2049 118.949 27.1414 119.377 27.044C119.849 26.9216 120.313 26.7684 120.765 26.5854C121.232 26.3957 121.711 26.239 122.199 26.1163C122.81 25.9605 123.744 25.7022 124.655 25.4573C125.566 25.2124 126.488 24.9541 127.111 24.7968C128.121 24.54 129.144 24.3515 130.144 24.1719C131.144 23.9923 132.133 23.8142 133.098 23.5678C134.131 23.2992 135.175 22.9652 136.175 22.6298C137.175 22.2943 138.198 21.9693 139.22 21.7021C140.164 21.4676 141.109 21.2568 142.026 21.0653C142.925 20.8753 143.859 20.6735 144.758 20.439C145.115 20.3608 145.47 20.2935 145.826 20.2371C146.166 20.1914 146.503 20.128 146.836 20.0471C147.759 19.8126 148.692 19.5336 149.581 19.2768C150.47 19.02 151.37 18.7513 152.259 18.5168L155.655 17.656C156.478 17.4437 157.222 17.2864 157.934 17.1424C158.646 16.9984 159.334 16.8455 160.088 16.6615C160.289 16.6019 160.486 16.5311 160.679 16.4492C160.889 16.3596 161.104 16.2813 161.323 16.2147C162.312 15.9683 163.179 15.7338 164.024 15.5097C164.869 15.2856 165.668 15.0748 166.568 14.8507C166.969 14.7497 167.48 14.6265 167.979 14.5048C168.478 14.3831 168.968 14.2688 169.346 14.1694C170.104 13.9693 170.849 13.7265 171.579 13.4421C172.279 13.1972 173.001 12.9285 173.713 12.7489C174.868 12.4595 176.002 12.2472 177.09 12.0454C178.124 11.8554 179.114 11.6773 180.057 11.4309C180.934 11.2068 181.791 10.95 182.613 10.7036C183.39 10.4691 184.135 10.2464 184.857 10.0565C186.546 9.62008 191.65 8.46976 191.713 8.45788C191.771 8.44539 191.831 8.45594 191.88 8.48729C191.93 8.51864 191.965 8.56829 191.979 8.62561C191.992 8.6793 191.984 8.73605 191.957 8.78394C191.929 8.83182 191.884 8.86711 191.831 8.88239L185.009 11.3968C184.697 11.5096 184.208 11.7322 183.742 11.9444C183.275 12.1567 182.774 12.3808 182.442 12.504C181.919 12.694 181.113 12.9493 180.353 13.1972C179.592 13.4451 178.798 13.6989 178.285 13.8889C177.851 14.0462 177.195 14.3252 176.574 14.5939C175.952 14.8625 175.274 15.152 174.84 15.3093C174.285 15.5097 173.429 15.7887 172.607 16.0514C171.784 16.3142 170.94 16.5888 170.392 16.7936C169.992 16.942 169.391 17.2077 168.803 17.4526C168.215 17.6975 167.602 17.978 167.192 18.1235C166.669 18.3135 165.863 18.5688 165.102 18.8167C164.341 19.0645 163.535 19.3198 163.024 19.5098C162.646 19.6434 162.069 19.823 161.513 19.9907C160.958 20.1584 160.391 20.3262 160.025 20.4597C159.701 20.5829 159.202 20.8056 158.724 21.0178C158.245 21.2301 157.736 21.4542 157.395 21.5878C157.006 21.7362 156.451 21.9796 155.918 22.2142C155.385 22.4487 154.818 22.7055 154.418 22.8628C153.851 23.075 152.951 23.3541 152.084 23.6331C151.217 23.9122 150.328 24.1927 149.773 24.3931C148.906 24.7181 147.573 25.2436 146.295 25.7453C145.018 26.2469 143.685 26.7843 142.806 27.1093C142.562 27.1984 142.206 27.2889 141.85 27.3884C141.542 27.4603 141.238 27.55 140.939 27.657C140.518 27.826 140.11 28.0244 139.716 28.2507C139.304 28.4829 138.878 28.6882 138.439 28.8652C137.848 29.0893 136.761 29.4129 135.717 29.7261C134.673 30.0393 133.606 30.3747 133.016 30.587C132.13 30.9105 130.961 31.3796 129.828 31.8278C128.695 32.2761 127.517 32.7436 126.628 33.0672C126.417 33.1459 125.962 33.2795 125.473 33.4368C124.984 33.5941 124.528 33.7336 124.339 33.7945C123.639 34.0513 122.772 34.409 121.939 34.7548C121.106 35.1007 120.228 35.4599 119.517 35.7166C118.779 35.9853 117.428 36.4424 116.138 36.8907C114.849 37.3389 113.505 37.7813 112.771 38.0633L105.039 40.9131C104.317 41.1817 103.372 41.4385 102.45 41.6849C101.529 41.9313 100.594 42.1881 99.894 42.4449C99.1054 42.7417 97.7601 43.328 96.4605 43.898C95.161 44.4679 93.7935 45.0705 92.9946 45.3615L91.0497 46.0769C90.3822 46.3233 88.5599 46.8814 86.7936 47.4127C85.0274 47.9441 83.2154 48.5066 82.5598 48.7486C82.2289 48.881 81.9213 49.066 81.6486 49.2963C81.3418 49.5533 80.997 49.7606 80.6267 49.9108C79.5708 50.3026 78.2048 50.7271 76.8831 51.1398C75.5614 51.5524 74.2042 51.9784 73.1602 52.3583C72.8929 52.4593 72.2268 52.7828 71.583 53.1005C70.9051 53.4359 70.2539 53.7372 69.9585 53.85C69.5909 53.9943 69.2345 54.166 68.8923 54.3636C68.5288 54.5797 68.1479 54.7649 67.7537 54.9172C67.1202 55.1518 65.8103 55.5317 64.5314 55.9013C63.2525 56.2709 61.9545 56.6434 61.3431 56.8735C60.6047 57.1526 58.3645 58.1248 58.3423 58.1366C58.31 58.1285 58.2767 58.125 58.2434 58.1262ZM42.5764 50.9171C42.6919 50.9169 42.8072 50.9284 42.9205 50.9513C44.6202 51.2481 45.8312 51.6103 47.6875 52.1802C48.2095 52.3547 48.7035 52.6047 49.1539 52.9224C49.5055 53.1593 49.8771 53.3649 50.2644 53.5369C51.0648 53.8723 52.0764 54.23 52.899 54.5209C53.8648 54.8668 54.3757 55.0464 54.5426 55.1577C54.9989 55.4545 55.4287 55.7054 55.8318 55.9399C56.323 56.2136 56.7978 56.5159 57.2539 56.8453C57.3623 56.9196 57.4775 56.9832 57.598 57.0353C57.9014 57.1479 58.1605 57.3562 58.3364 57.629C58.8931 57.3841 60.5368 56.6791 61.1821 56.4416C61.8275 56.2041 63.1255 55.8271 64.4044 55.4575C65.6833 55.0879 66.9814 54.7154 67.5928 54.4853C67.9607 54.3417 68.3171 54.17 68.659 53.9718C69.0213 53.7579 69.4006 53.5747 69.7931 53.4241C70.059 53.3231 70.7264 52.9995 71.3703 52.6819C72.0482 52.3465 72.6994 52.0452 72.9948 51.9398C74.0492 51.5479 75.4167 51.1234 76.7384 50.7093C78.0601 50.2952 79.4172 49.8722 80.4613 49.4922C80.7922 49.3599 81.0999 49.1749 81.3724 48.9445C81.679 48.6868 82.0238 48.479 82.3944 48.3285C83.0619 48.0836 84.8827 47.5241 86.6504 46.9927C88.4181 46.4613 90.2286 45.8973 90.8843 45.6568L92.8277 44.9414C93.6163 44.6446 94.9616 44.0597 96.273 43.4898C97.5844 42.9198 98.943 42.3113 99.7434 42.004C100.466 41.7354 101.421 41.4786 102.332 41.2337C103.243 40.9888 104.188 40.7305 104.888 40.4737L112.622 37.6239C113.361 37.3553 114.71 36.8966 116 36.4499C117.289 36.0031 118.633 35.5593 119.367 35.2758C120.067 35.019 120.933 34.6613 121.766 34.3155C122.599 33.9696 123.478 33.6104 124.188 33.3433C124.399 33.2646 124.856 33.131 125.355 32.9737C125.822 32.8253 126.3 32.6768 126.489 32.616C127.366 32.2924 128.545 31.8234 129.677 31.3751C130.81 30.9269 131.989 30.4593 132.878 30.1357C133.468 29.9116 134.555 29.588 135.601 29.2749C136.646 28.9617 137.711 28.6262 138.3 28.414C138.721 28.2456 139.13 28.0472 139.523 27.8203C139.935 27.5881 140.362 27.3828 140.8 27.2058C141.044 27.1167 141.4 27.0262 141.756 26.9267C142.064 26.8548 142.369 26.7651 142.667 26.6581C143.534 26.3345 144.867 25.8091 146.145 25.294C147.422 24.779 148.756 24.255 149.634 23.9315C150.2 23.7192 151.101 23.4387 151.968 23.1596C152.835 22.8806 153.722 22.6016 154.279 22.3997C154.667 22.2513 155.222 22.0093 155.756 21.7733C156.289 21.5373 156.856 21.282 157.256 21.1262C157.578 21.003 158.079 20.7789 158.556 20.5666C159.033 20.3544 159.545 20.1317 159.885 19.9967C160.263 19.8631 160.84 19.6835 161.397 19.5157C161.954 19.348 162.519 19.1818 162.885 19.0467C163.407 18.8567 164.214 18.6014 164.974 18.3536C165.733 18.1057 166.54 17.8504 167.051 17.6604C167.452 17.512 168.053 17.2478 168.64 17.0014C169.228 16.755 169.841 16.476 170.251 16.3305C170.808 16.1301 171.663 15.8511 172.486 15.5884C173.308 15.3256 174.152 15.0525 174.701 14.8462C175.134 14.6904 175.779 14.4098 176.413 14.1427C177.046 13.8755 177.712 13.5831 178.145 13.4272C178.668 13.2373 179.474 12.982 180.234 12.7341C180.995 12.4862 181.789 12.2309 182.302 12.0409C182.613 11.9296 183.102 11.7055 183.569 11.4932C184.036 11.281 184.536 11.0569 184.87 10.9351L188.425 9.6275C187.095 9.93919 185.703 10.2642 184.969 10.4424C184.235 10.6205 183.514 10.8446 182.754 11.0791C181.933 11.3255 181.076 11.5823 180.187 11.8213C179.232 12.0677 178.244 12.2472 177.188 12.4476C176.099 12.6495 174.973 12.8617 173.833 13.1512C173.143 13.3308 172.455 13.5772 171.733 13.8339C171.011 14.0907 170.243 14.3698 169.454 14.5761C169.066 14.677 168.568 14.7987 168.076 14.9115C167.584 15.0243 167.065 15.1564 166.666 15.2574C165.765 15.4919 164.965 15.6937 164.121 15.9164C163.278 16.139 162.41 16.3617 161.42 16.6214C161.219 16.6799 161.022 16.7507 160.83 16.8337C160.619 16.9233 160.404 17.0016 160.186 17.0682C159.43 17.2582 158.709 17.414 158.008 17.5595C157.306 17.7049 156.553 17.8563 155.741 18.0745L152.344 18.9339C151.467 19.158 150.556 19.4267 149.686 19.6835C148.787 19.9521 147.853 20.2193 146.93 20.4657C146.586 20.5444 146.23 20.6141 145.875 20.6557C145.531 20.7015 145.19 20.7649 144.853 20.8457C143.941 21.0802 143.008 21.282 142.109 21.472C141.186 21.6724 140.242 21.8743 139.303 22.1088C138.291 22.3656 137.269 22.7025 136.292 23.0246C135.28 23.36 134.236 23.6955 133.191 23.9641C132.203 24.2209 131.191 24.399 130.202 24.5786C129.212 24.7582 128.192 24.9363 127.202 25.1931C126.591 25.3415 125.658 25.6072 124.758 25.8521C123.859 26.097 122.914 26.3553 122.302 26.5111C121.829 26.6304 121.364 26.7836 120.913 26.9698C120.441 27.1587 119.959 27.3193 119.469 27.4507C119.02 27.559 118.563 27.63 118.103 27.6629C117.664 27.69 117.228 27.7576 116.801 27.8648C116.423 27.9643 116.047 28.0993 115.669 28.2225C115.291 28.3457 114.902 28.4897 114.502 28.5906C113.691 28.8029 112.869 29.0493 112.068 29.2838C111.268 29.5183 110.435 29.7751 109.613 29.9873C109.199 30.0904 108.78 30.1727 108.357 30.2337C107.957 30.3005 107.535 30.3673 107.135 30.4682C106.191 30.7146 105.235 30.9937 104.312 31.2623C103.39 31.531 102.436 31.81 101.49 32.0549C100.9 32.2033 100.309 32.3236 99.7183 32.4245C99.1276 32.5254 98.562 32.6471 97.9949 32.7926C97.1177 33.0167 96.2228 33.2839 95.3736 33.5422C94.5245 33.8004 93.6399 34.0557 92.7627 34.2843C91.9623 34.4847 91.1516 34.6197 90.3615 34.7415C89.5951 34.8647 88.7961 34.9997 88.04 35.1867C87.5512 35.3085 87.0624 35.4836 86.5958 35.632C86.1291 35.7805 85.6285 35.9556 85.1293 36.0773C84.707 36.1886 84.2846 36.3341 83.8844 36.4677C83.4842 36.6013 83.0397 36.7645 82.6174 36.8714C81.6176 37.1282 80.606 37.3508 79.618 37.5631C78.6626 37.7753 77.6731 37.9876 76.7177 38.234C75.7622 38.4803 74.8392 38.749 73.9281 39.0162C73.0169 39.2833 72.1176 39.5535 71.2167 39.7761C70.8434 39.8681 70.4653 39.939 70.0841 39.9884C69.7178 40.0448 69.3619 40.1012 69.006 40.1902C68.5394 40.3134 68.0609 40.4693 67.606 40.6266C67.1512 40.7839 66.6831 40.9383 66.2061 41.0615C65.3732 41.2738 64.5285 41.4534 63.7059 41.6211C62.8834 41.7888 62.1169 41.9565 61.3431 42.1569C61.1325 42.2255 60.9333 42.3255 60.7524 42.4538C60.5362 42.5986 60.3004 42.7115 60.0524 42.7892C59.5985 42.8892 59.1381 42.9562 58.6746 42.9896C58.2443 43.0158 57.8167 43.0758 57.3957 43.1692C55.7713 43.5818 54.1069 43.9618 52.5076 44.3314C50.9954 44.6772 49.5629 45.0023 48.225 45.3377C47.0687 45.6346 46.1575 45.9522 45.2715 46.2535C44.4371 46.5504 43.647 46.8235 42.7034 47.058C41.5589 47.3548 40.0452 47.6947 38.5596 48.0302C37.26 48.327 36.0255 48.612 35.2044 48.8124L28.8543 50.4332C29.6768 50.4896 30.8435 50.5342 32.2213 50.5223C32.842 50.5107 33.4616 50.4661 34.0776 50.3887C35.166 50.2774 36.2927 50.1646 37.7547 50.2997C38.3591 50.3907 38.957 50.5211 39.5446 50.69C40.122 50.8384 40.726 50.9869 41.0553 51.0255C41.3269 51.0459 41.5999 51.0269 41.8661 50.9691C42.0994 50.9587 42.3327 50.9364 42.5557 50.9245L42.5764 50.9171Z" fill="#333333"/>
<path d="M84.2109 74.7234C84.2109 74.7234 89.4328 72.6885 89.988 72.3486C91.233 71.5768 93.6888 69.8787 94.9323 69.1069C96.8432 67.9195 100.721 65.8103 102.634 64.614C104.711 63.3182 108.811 60.4462 110.889 59.1489C112.422 58.199 115.455 56.1432 116.977 55.1933C117.716 54.7347 119.234 53.9525 119.966 53.4834C120.288 53.2816 120.978 53.0129 121.295 52.8125C122.096 52.3094 123.658 51.0314 124.451 50.5208C125.328 49.9731 127.109 49.0232 127.985 48.4755C129.551 47.5033 132.729 45.8379 134.295 44.8553C135.418 44.1503 137.618 42.4627 138.74 41.7591L141.769 39.8637L143.648 38.6911C145.526 37.5171 149.348 35.4495 151.227 34.2769C152.46 33.5051 154.87 31.6838 156.1 30.9239C156.556 30.6434 157.512 30.3643 157.966 30.0734C158.389 29.8166 159.167 29.0122 159.591 28.7376C161.124 27.7772 164.213 26.011 165.746 25.0506C166.337 24.681 167.458 23.6643 168.035 23.3066C168.858 22.793 170.535 21.898 171.368 21.377C171.835 21.0802 172.824 20.7833 173.288 20.4865C174.299 19.8601 176.255 18.3179 177.266 17.6931C177.562 17.5135 179.111 16.6971 179.399 16.519C180.988 15.5245 183.755 13.6469 185.344 12.6525L191.767 8.66272L188.566 12.8528C188.044 13.5356 188.188 13.8146 187.666 14.4855C187.454 14.7527 186.654 16.0054 186.455 16.2667C185.716 17.2285 184.021 18.7899 183.289 19.7547L180.354 23.5871C179.6 24.5816 178.499 26.4815 177.743 27.4774C176.066 29.6786 172.288 34.1567 170.611 36.3504C169.555 37.7249 167.732 40.4411 166.676 41.8155C165.91 42.81 163.977 44.8895 163.21 45.8839C162.843 46.3648 162.253 47.2925 161.881 47.7615C161.382 48.4206 160.803 49.6392 160.304 50.2982C159.538 51.3045 157.593 53.3825 156.826 54.3784C154.97 56.8141 151.805 61.5757 149.948 64.0114C149.115 65.1068 146.882 67.3985 146.047 68.4939C145.404 69.3429 144.637 71.0083 143.992 71.8573C142.626 73.6384 139.77 77.1769 138.404 78.9818C137.692 79.908 135.87 81.8316 135.155 82.7593C134.632 83.451 133.554 84.815 133.043 85.5186C132.032 86.9272 130.385 89.4979 129.065 91.1959C128.509 91.9232 126.166 94.4717 125.609 95.2539C124.854 96.2929 122.976 98.9973 122.565 99.5791C121.377 101.244 119.42 104.032 118.11 105.737C117.187 106.954 114.654 109.597 113.81 110.699C112.987 111.772 110.921 114.487 110.921 114.487C110.921 114.487 110.809 113.169 110.478 111.001C110.299 109.861 110.455 108.319 110.133 106.776C109.589 104.161 108.544 101.222 107.433 97.9806C106.644 95.6562 105.544 93.2754 104.388 90.9288C103.977 90.102 103.288 87.8771 102.833 87.0696C101.465 84.6443 100.345 84.1412 98.9771 82.5307C98.0999 81.4917 97.1666 80.2954 96.3101 79.4583C95.2542 78.4297 94.2766 77.781 93.2768 76.8534C90.4665 74.2648 84.2109 74.7234 84.2109 74.7234Z" fill="white"/>
<path d="M118.731 104.63C118.675 104.206 118.621 103.702 118.554 103.155C118.375 101.546 118.142 99.545 117.832 98.0815C117.575 96.8629 117.187 95.7898 116.776 94.6498C116.543 93.9908 116.298 93.314 116.064 92.5719C115.779 91.7386 115.441 90.9245 115.053 90.1347C114.797 89.5989 114.542 89.0512 114.314 88.502C114.103 87.9765 113.904 87.4392 113.715 86.9257C113.226 85.6076 112.759 84.3668 112.09 83.1704L111.923 82.8736C110.757 80.7956 109.646 78.8289 108.246 77.1294C107.102 75.7431 105.613 74.2678 104.435 73.1397C104.139 72.8607 103.835 72.5579 103.549 72.2684C102.694 71.418 101.805 70.5467 101.004 69.9426C99.9041 69.1054 98.9146 68.7359 98.0507 68.4004C97.6948 68.2668 97.3508 68.1436 97.0273 67.9878L97.2164 67.5855C97.528 67.734 97.8617 67.8527 98.2161 67.9878C99.117 68.3232 100.129 68.7032 101.283 69.5863C102.106 70.2112 103.005 71.0944 103.872 71.9612C104.167 72.258 104.473 72.5415 104.758 72.8325C105.947 73.9724 107.447 75.4596 108.598 76.8563C110.032 78.5989 111.144 80.5774 112.321 82.6673L112.488 82.9641C113.176 84.1827 113.669 85.5008 114.143 86.7758C114.332 87.2893 114.531 87.8148 114.743 88.3402C114.954 88.8656 115.209 89.4237 115.465 89.9491C115.865 90.7556 116.21 91.5882 116.498 92.4413C116.732 93.1834 116.965 93.8498 117.198 94.4985C117.633 95.6347 117.989 96.7997 118.265 97.985C118.588 99.4693 118.81 101.483 119.003 103.104C119.059 103.64 119.126 104.154 119.17 104.568L118.731 104.63Z" fill="#FFF5DB"/>
<path d="M127.01 93.3867C126.823 92.6446 126.589 91.8223 126.356 90.9614C126.155 90.2356 125.944 89.486 125.755 88.7602C125.666 88.4144 125.588 88.0671 125.499 87.7212C125.344 86.9941 125.144 86.2773 124.9 85.575C124.692 85.0583 124.454 84.5543 124.188 84.0655C124.021 83.7419 123.856 83.4183 123.699 83.0829L123.433 82.5129C122.744 81.0153 122.034 79.4612 121.189 77.9532C120.855 77.3491 120.45 76.5446 120.044 75.7505C119.777 75.2251 119.499 74.6789 119.244 74.198C118.789 73.3252 117.389 71.5604 116.456 70.3864C116.132 69.9841 115.855 69.6264 115.688 69.4038C115.219 68.7387 114.67 68.134 114.055 67.6033C113.733 67.3243 113.377 67.0007 112.811 66.4159C111.066 64.5828 109.477 63.532 107.79 62.4262C107.495 62.2362 107.223 62.0462 106.934 61.8562L107.179 61.4866C107.474 61.6766 107.746 61.8666 108.034 62.0566C109.667 63.1297 111.345 64.237 113.135 66.1146C113.678 66.6846 114.034 66.9978 114.345 67.2768C114.986 67.8265 115.557 68.4531 116.045 69.1425C116.212 69.3667 116.488 69.7125 116.812 70.1147C117.801 71.3675 119.157 73.0833 119.646 73.9932C119.901 74.4741 120.179 75.0218 120.446 75.5576C120.846 76.3398 121.245 77.1458 121.579 77.738C122.435 79.2579 123.146 80.8223 123.845 82.3303L124.113 82.9003C124.26 83.2254 124.435 83.5489 124.59 83.8621C124.869 84.3671 125.116 84.8897 125.328 85.4266C125.582 86.1454 125.786 86.8808 125.94 87.6277C126.016 87.9632 126.095 88.3209 126.183 88.6563C126.372 89.3836 126.583 90.1317 126.783 90.859C127.028 91.7184 127.249 92.5348 127.45 93.2947L127.01 93.3867Z" fill="#FFF5DB"/>
<path d="M134.09 83.8606C134.023 82.2279 133.569 81.1444 133.09 80.0015C133.046 79.9006 133.001 79.7893 132.957 79.6883C132.683 79.0266 132.452 78.3473 132.267 77.6549C132.037 76.7491 131.698 75.8749 131.257 75.0515C131.201 74.9387 131.101 74.7546 130.99 74.5483C130.779 74.146 130.501 73.631 130.391 73.4188C130.212 73.0952 130.046 72.782 129.88 72.4807C129.602 71.9656 129.346 71.4743 129.023 70.9608C128.934 70.8124 128.834 70.6639 128.745 70.5244C128.423 70.0109 128.112 69.5181 127.78 69.0149C127.632 68.7923 127.456 68.5459 127.279 68.2728C126.746 67.4787 126.134 66.5733 125.668 65.9588C125.356 65.5447 125.012 65.0682 124.656 64.5621C124.046 63.6893 123.401 62.7958 122.824 62.1145C122.246 61.4332 121.524 60.7623 120.846 60.1137C120.478 59.756 120.09 59.3983 119.734 59.0406C119.378 58.6829 118.848 58.1797 118.39 57.7552L118.021 57.4405C117.684 57.1476 117.306 56.9065 116.899 56.7251C116.493 56.5446 116.112 56.3116 115.766 56.0319L116.061 55.698C116.375 55.9548 116.723 56.1652 117.095 56.3228C117.548 56.5154 117.966 56.7839 118.33 57.1169C118.441 57.2179 118.563 57.3396 118.684 57.4524C119.141 57.8873 119.662 58.3682 120.04 58.7482C120.418 59.1281 120.778 59.4636 121.14 59.8213C121.83 60.4803 122.54 61.1571 123.141 61.8547C123.742 62.5524 124.385 63.4533 125.008 64.3365C125.362 64.8396 125.696 65.3087 126.007 65.7228C126.484 66.3477 127.096 67.2531 127.641 68.0575C127.818 68.3257 127.984 68.5731 128.14 68.7997C128.485 69.3029 128.807 69.8179 129.119 70.3196C129.208 70.468 129.296 70.6164 129.397 70.7559C129.729 71.2814 129.996 71.8068 130.262 72.31C130.419 72.6069 130.585 72.9245 130.763 73.2377C130.885 73.4499 131.151 73.9635 131.374 74.3776C131.485 74.578 131.573 74.768 131.64 74.8689C132.099 75.7194 132.45 76.6245 132.685 77.5628C132.862 78.2402 133.085 78.9047 133.351 79.5518C133.396 79.6527 133.44 79.764 133.484 79.865C133.985 81.0524 134.452 82.1671 134.518 83.8725L134.09 83.8606Z" fill="#FFF5DB"/>
<path d="M141.1 75.3825C140.856 74.8229 140.667 74.0748 140.456 73.2926C140.233 72.4213 140 71.5115 139.688 70.9C139.489 70.4873 139.255 69.996 139.022 69.4587C138.678 68.6884 138.322 67.8943 137.988 67.3021C137.389 66.2408 136.8 65.2003 136.156 64.1955C135.999 63.9491 135.834 63.6804 135.655 63.4014C135.321 62.8656 134.977 62.2956 134.667 61.8473C134.299 61.3115 134 60.7861 133.7 60.2725C133.308 59.5585 132.864 58.8748 132.371 58.2272C132.175 57.9824 131.955 57.7577 131.715 57.5563C131.48 57.3536 131.261 57.1333 131.059 56.8973C130.87 56.6732 130.692 56.452 130.526 56.2383C129.992 55.5778 129.493 54.9633 128.893 54.3087C128.619 54.0177 128.323 53.7487 128.007 53.5042C127.703 53.2758 127.417 53.0253 127.15 52.7547C126.806 52.397 126.412 52.2292 126.006 52.0392C125.558 51.8681 125.144 51.6166 124.785 51.2971C124.684 51.2003 124.591 51.0955 124.507 50.9839C124.407 50.8726 124.306 50.7494 124.25 50.6871L124.545 50.3635C124.648 50.4648 124.745 50.5729 124.833 50.6871C124.913 50.7849 124.998 50.878 125.089 50.9661C125.415 51.2486 125.787 51.472 126.189 51.6266C126.666 51.8078 127.1 52.0851 127.466 52.4415C127.718 52.6974 127.99 52.9331 128.279 53.1465C128.616 53.4023 128.932 53.6863 129.222 53.9955C129.834 54.6664 130.334 55.2913 130.867 55.9518C131.045 56.164 131.211 56.3763 131.4 56.6108C131.587 56.8324 131.791 57.0379 132.012 57.2253C132.267 57.4453 132.502 57.6888 132.712 57.9526C133.211 58.6208 133.664 59.3225 134.068 60.0528C134.363 60.556 134.667 61.0815 135.023 61.595C135.335 62.0537 135.689 62.6236 136.023 63.1594C136.2 63.44 136.367 63.7071 136.512 63.9535C137.155 64.9703 137.756 66.0093 138.356 67.0824C138.7 67.6865 139.056 68.491 139.4 69.2732C139.633 69.7986 139.856 70.2899 140.056 70.6922C140.39 71.3527 140.623 72.2685 140.856 73.162C141.014 73.8506 141.222 74.5268 141.478 75.1851L141.1 75.3825Z" fill="#FFF5DB"/>
<path d="M147.689 66.4946C147.456 66.0359 147.099 65.0756 146.722 64.0693C146.279 62.8818 145.823 61.6662 145.541 61.1527C145.185 60.5263 144.95 60.0899 144.752 59.7322C144.219 58.7496 144.086 58.5151 142.885 56.8275C142.589 56.3635 142.322 55.8817 142.085 55.3848C141.751 54.7599 141.419 54.1113 141.23 53.8649C140.997 53.5517 140.774 53.2504 140.552 52.9491C139.985 52.1772 139.452 51.4396 138.808 50.6692C138.386 50.1542 137.696 49.5738 137.036 49.0142C136.479 48.5696 135.952 48.0881 135.459 47.573C135.036 47.104 134.592 46.9244 134.13 46.724C133.667 46.5236 133.186 46.3322 132.708 45.8334L133.019 45.5203C133.386 45.8733 133.826 46.1404 134.308 46.3025C134.797 46.5043 135.296 46.7166 135.785 47.2643C136.27 47.7583 136.781 48.2246 137.318 48.661C137.996 49.231 138.696 49.8232 139.14 50.3709C139.784 51.1531 140.322 51.8908 140.896 52.673C141.118 52.9698 141.339 53.2771 141.574 53.5888C141.785 53.8693 142.107 54.4942 142.46 55.177C142.755 55.7469 143.06 56.3273 143.227 56.5618C144.437 58.2717 144.582 58.5403 145.115 59.5304C145.304 59.8762 145.538 60.3126 145.892 60.9389C146.204 61.4851 146.66 62.7201 147.104 63.9075C147.481 64.9034 147.827 65.8534 148.048 66.2823L147.689 66.4946Z" fill="#FFF5DB"/>
<path d="M153.583 58.6962C153.363 58.1111 153.107 57.5401 152.817 56.9863C152.539 56.4282 152.25 55.8345 152.006 55.2423C151.711 54.5388 151.25 53.8129 150.749 53.0411C150.417 52.5276 150.073 51.9903 149.761 51.4322C149.606 51.1353 149.417 50.7835 149.228 50.4154C148.834 49.5973 148.39 48.8043 147.899 48.0406C147.584 47.5963 147.235 47.1774 146.855 46.7879C146.688 46.6098 146.487 46.3975 146.276 46.1511C146.065 45.9047 145.876 45.6479 145.699 45.409C145.447 45.043 145.161 44.7024 144.844 44.3922C144.566 44.1355 144.287 43.8104 143.987 43.4764C143.555 42.9837 143.101 42.4701 142.643 42.1406C142.21 41.8267 141.744 41.5605 141.254 41.3465C140.976 41.2129 140.699 41.0793 140.354 40.8893L140.566 40.4975C140.888 40.6771 141.165 40.8107 141.443 40.9428C141.957 41.1677 142.446 41.449 142.899 41.7814C143.4 42.151 143.854 42.672 144.311 43.19C144.606 43.5254 144.876 43.8267 145.132 44.0731C145.469 44.4009 145.774 44.7603 146.043 45.1463C146.21 45.3808 146.389 45.6153 146.598 45.8602C146.808 46.1051 146.998 46.3055 147.177 46.4984C147.572 46.9036 147.932 47.341 148.255 47.8061C148.722 48.4651 149.199 49.4032 149.621 50.2314C149.81 50.5995 149.987 50.9453 150.144 51.2362C150.439 51.7839 150.788 52.3094 151.11 52.8229C151.61 53.6052 152.087 54.3428 152.399 55.0924C152.644 55.6727 152.922 56.2546 153.199 56.8142C153.501 57.3843 153.764 57.9739 153.988 58.579L153.583 58.6962Z" fill="#FFF5DB"/>
<path d="M164.401 44.3017C164.034 43.2389 163.435 42.2341 162.856 41.2723C162.623 40.8923 162.413 40.5301 162.2 40.1546C161.924 39.6337 161.616 39.1301 161.279 38.6466C160.845 38.0098 159.99 36.8462 159.535 36.3103C159.254 35.9778 158.99 35.6311 158.745 35.2713C158.322 34.6776 157.924 34.1195 157.312 33.606C156.536 32.9692 155.724 32.3794 154.878 31.8397L155.122 31.4597C155.983 32.01 156.81 32.6107 157.6 33.2587C158.177 33.7724 158.685 34.3585 159.112 35.0027C159.35 35.3515 159.606 35.6874 159.879 36.009C160.345 36.5671 161.208 37.7412 161.651 38.3839C161.999 38.8802 162.315 39.3994 162.595 39.9379C162.795 40.2956 163.007 40.6637 163.24 41.0437C163.831 42.0278 164.439 43.0549 164.817 44.1607L164.401 44.3017Z" fill="#FFF5DB"/>
<path d="M159.223 51.4648C159.012 50.9958 158.823 50.46 158.611 49.9004C158.297 48.9857 157.922 48.0931 157.489 47.2287C157.082 46.5228 156.625 45.8468 156.123 45.2056C155.8 44.7692 155.467 44.3151 155.168 43.8534C154.886 43.4411 154.582 43.0447 154.256 42.666C154.045 42.4092 153.834 42.1525 153.633 41.8838C153.367 41.5261 153.134 41.1684 152.911 40.8225C152.593 40.2832 152.221 39.7779 151.801 39.3145L151.245 38.7208C150.634 38.0514 150.011 37.3686 149.389 36.8996C149.168 36.7416 148.916 36.6314 148.651 36.576C148.412 36.5168 148.181 36.4307 147.962 36.3192L148.174 35.9274C148.362 36.0234 148.56 36.0986 148.764 36.1515C149.08 36.2205 149.378 36.3534 149.642 36.5419C150.287 37.0228 150.931 37.7382 151.552 38.4195C151.741 38.6214 151.92 38.8217 152.097 39.0132C152.534 39.4987 152.92 40.0267 153.252 40.5895C153.475 40.925 153.695 41.2827 153.952 41.6285C154.141 41.8853 154.352 42.1436 154.564 42.3885C154.897 42.7807 155.208 43.191 155.497 43.6174C155.792 44.0627 156.12 44.508 156.442 44.9533C156.951 45.6162 157.418 46.3102 157.842 47.0313C158.309 47.8922 158.653 48.8421 158.997 49.7579C159.198 50.3175 159.397 50.831 159.598 51.2897L159.223 51.4648Z" fill="#FFF5DB"/>
<path d="M169.511 37.7293C169.133 37.1816 168.833 36.4558 168.546 35.7626C168.25 35.0205 167.934 34.2784 167.534 33.7396C167.323 33.4427 167.1 33.1592 166.89 32.849C166.333 32.1069 165.768 31.3187 165.211 30.6137C164.601 29.8433 164.3 29.4856 163.7 28.7702L163.612 28.6589C163.445 28.457 163.067 28.3116 162.7 28.1661C162.29 28.0103 161.868 27.8425 161.634 27.5635L161.967 27.2666C162.133 27.4685 162.511 27.6125 162.867 27.7475C163.278 27.9153 163.712 28.083 163.956 28.3724L164.044 28.4852C164.645 29.2006 164.945 29.5687 165.557 30.3406C166.122 31.056 166.689 31.8248 167.245 32.5863C167.467 32.8831 167.679 33.18 167.89 33.4768C168.323 34.0587 168.644 34.8409 168.956 35.6008C169.234 36.2821 169.523 36.9753 169.879 37.4888L169.511 37.7293Z" fill="#FFF5DB"/>
<path d="M174.405 31.5607C174.216 31.2593 174.063 30.9365 173.949 30.5988C173.847 30.2877 173.705 29.9913 173.527 29.7172C173.215 29.2725 172.982 28.7769 172.838 28.2522C172.691 27.7832 172.543 27.3245 172.171 26.8659C171.861 26.4833 171.527 26.1214 171.171 25.7824C170.842 25.4638 170.531 25.1279 170.238 24.776C170.061 24.5638 169.616 24.3515 169.182 24.1393C168.693 23.9048 168.238 23.6806 168 23.3971L168.334 23.1003C168.511 23.3021 168.944 23.5263 169.368 23.7266C169.869 23.973 170.335 24.1957 170.569 24.4866C170.855 24.8266 171.159 25.1511 171.48 25.4588C171.847 25.8137 172.192 26.1909 172.513 26.5883C172.855 27.0423 173.106 27.5584 173.252 28.1082C173.408 28.5654 173.547 28.9988 173.875 29.4441C174.077 29.7528 174.238 30.0872 174.352 30.4385C174.451 30.7405 174.585 31.0295 174.752 31.2994L174.405 31.5607Z" fill="#FFF5DB"/>
<path d="M178.89 25.6369C178.714 25.378 178.607 25.0781 178.579 24.7657C178.56 24.5222 178.48 24.2876 178.345 24.0844C178.202 23.8693 178.079 23.6406 177.979 23.4016C177.886 23.1892 177.778 22.9838 177.656 22.7871C177.358 22.4115 177.028 22.0637 176.668 21.7481C176.316 21.4352 175.986 21.099 175.678 20.7418C175.568 20.5934 175.312 20.4731 175.067 20.3395C174.789 20.1911 174.49 20.0427 174.329 19.8364L174.673 19.5395C174.853 19.7038 175.06 19.8362 175.284 19.9314C175.579 20.0798 175.875 20.2282 176.04 20.4449C176.326 20.7929 176.642 21.1148 176.984 21.4067C177.363 21.741 177.713 22.1075 178.029 22.5021C178.173 22.7246 178.296 22.9601 178.396 23.2057C178.486 23.414 178.59 23.6159 178.707 23.8098C178.888 24.0707 178.995 24.3758 179.017 24.6929C179.039 24.9341 179.115 25.1672 179.24 25.3742L178.89 25.6369Z" fill="#FFF5DB"/>
<path d="M183.091 19.9254C182.886 19.6363 182.738 19.3103 182.656 18.9651C182.589 18.6662 182.46 18.3847 182.278 18.1384C182.168 18.0033 181.983 17.8133 181.812 17.6352C181.64 17.4571 181.445 17.2656 181.323 17.1216C181.161 16.9458 180.974 16.7956 180.768 16.6763C180.519 16.5337 180.294 16.3529 180.102 16.1405L180.446 15.8615C180.602 16.0396 180.791 16.187 181.001 16.2964C181.254 16.438 181.48 16.6234 181.668 16.8441C181.807 17.0161 181.959 17.1769 182.123 17.325C182.312 17.515 182.501 17.7168 182.624 17.8608C182.835 18.1537 182.989 18.484 183.079 18.8345C183.15 19.1263 183.275 19.4024 183.445 19.6494L183.091 19.9254Z" fill="#FFF5DB"/>
<path d="M187.323 14.864C187.174 14.6598 187.044 14.4427 186.934 14.2154C186.831 14.0086 186.712 13.8101 186.578 13.6217C186.425 13.4404 186.254 13.2753 186.067 13.1289C185.873 12.9644 185.69 12.7853 185.522 12.5931L185.868 12.314C186.021 12.4881 186.188 12.649 186.367 12.7949C186.571 12.9656 186.76 13.1522 186.934 13.353C187.088 13.5592 187.222 13.7799 187.334 14.012C187.434 14.2144 187.549 14.4089 187.679 14.5939L187.323 14.864Z" fill="#FFF5DB"/>
<path d="M110.889 114.734C110.866 114.735 110.843 114.731 110.822 114.722C110.777 114.711 110.737 114.685 110.709 114.649C110.681 114.613 110.665 114.568 110.666 114.521C110.666 114.509 110.555 113.186 110.222 111.045C110.153 110.5 110.116 109.952 110.112 109.402C110.09 108.609 110.067 107.704 109.878 106.833C109.39 104.485 108.468 101.814 107.501 98.9869L107.189 98.0696C106.356 95.6339 105.19 93.1522 104.156 91.0401C103.967 90.6601 103.734 90.0115 103.478 89.3302C103.168 88.4916 102.845 87.6203 102.601 87.184C101.715 85.6091 100.934 84.8596 100.113 84.0774C99.6364 83.6396 99.1871 83.1732 98.7672 82.6807C98.5236 82.3838 98.2784 82.087 98.0289 81.7901C97.3835 81.0183 96.7278 80.2138 96.1091 79.6112C95.542 79.0516 94.9867 78.6048 94.4536 78.1685C94.0106 77.8107 93.5424 77.4263 93.0861 77.0063C90.4088 74.5142 84.2861 74.9283 84.2255 74.9283C84.196 74.9314 84.1661 74.9282 84.1379 74.919C84.1097 74.9097 84.0837 74.8946 84.0617 74.8746C84.0397 74.8545 84.0221 74.8301 84.0101 74.8027C83.9982 74.7754 83.992 74.7459 83.9922 74.716C83.9889 74.6675 84.0016 74.6193 84.0283 74.5788C84.055 74.5383 84.0942 74.5078 84.1399 74.4919C85.5842 73.9219 89.44 72.402 89.8845 72.1171C90.5062 71.7252 91.4395 71.1003 92.3507 70.4962C93.2619 69.8921 94.207 69.2554 94.8287 68.8635C95.7842 68.2594 97.2624 67.4208 98.6845 66.6163C100.107 65.8118 101.573 64.9732 102.524 64.381C103.558 63.7324 105.125 62.6711 106.647 61.6544C108.17 60.6377 109.735 59.5645 110.782 58.9159C111.549 58.435 112.702 57.675 113.826 56.9374C114.95 56.1997 116.104 55.4293 116.871 54.9603C117.249 54.7258 117.826 54.4126 118.382 54.0994C118.937 53.7862 119.504 53.4849 119.87 53.2504C120.092 53.1191 120.322 53.003 120.56 52.9031C120.78 52.8063 120.995 52.6983 121.204 52.5795C121.594 52.3331 122.193 51.8864 122.771 51.45C123.348 51.0136 123.952 50.5594 124.36 50.2997C124.803 50.0206 125.482 49.6407 126.132 49.2711C126.781 48.9015 127.461 48.5289 127.888 48.2543C128.676 47.763 129.887 47.0921 131.054 46.4435C132.22 45.7949 133.417 45.1255 134.199 44.6446C134.754 44.2973 135.599 43.6946 136.414 43.1024C137.23 42.5102 138.08 41.9061 138.647 41.5484L143.559 38.4863C144.503 37.8926 145.948 37.0777 147.359 36.2733C148.769 35.4688 150.203 34.6524 151.136 34.0721C151.748 33.6921 152.671 33.0331 153.56 32.4067C154.449 31.7804 155.382 31.1095 156.004 30.7191C156.313 30.5465 156.636 30.4006 156.969 30.2827C157.279 30.1716 157.58 30.0371 157.87 29.8805C158.141 29.6826 158.401 29.4701 158.649 29.2437C158.912 28.9946 159.194 28.7664 159.492 28.561C160.26 28.0815 161.437 27.3884 162.581 26.7175C163.726 26.0466 164.892 25.3534 165.659 24.874C165.936 24.6944 166.371 24.3486 166.781 24.0131C167.159 23.6999 167.548 23.3986 167.948 23.1226C168.348 22.8465 169.004 22.5066 169.625 22.1608C170.247 21.8149 170.87 21.4572 171.282 21.2108C171.602 21.0304 171.937 20.877 172.282 20.7522C172.603 20.6335 172.915 20.4917 173.215 20.3277C173.714 20.0145 174.459 19.4668 175.193 18.9414C175.927 18.4159 176.681 17.8578 177.192 17.5343C177.349 17.4437 177.793 17.1988 178.27 16.9406C178.713 16.6942 179.181 16.4478 179.326 16.3587C180.115 15.8674 181.227 15.1297 182.293 14.4292C183.359 13.7286 184.471 12.9879 185.27 12.4996L191.66 8.50986C191.71 8.47821 191.771 8.46748 191.829 8.47996C191.887 8.49243 191.937 8.52712 191.97 8.57665C191.994 8.61582 192.005 8.66098 192.003 8.7066C192.001 8.75221 191.986 8.79629 191.96 8.83343L188.76 13.025C188.583 13.2565 188.441 13.5125 188.337 13.785C188.223 14.0977 188.062 14.3914 187.86 14.6562C187.76 14.7898 187.505 15.1698 187.259 15.5468C187.014 15.9238 186.748 16.3068 186.648 16.4522C186.271 16.9435 185.648 17.5921 185.049 18.217C184.449 18.8419 183.838 19.4698 183.482 19.9388L180.549 23.7727C180.171 24.264 179.704 24.9898 179.248 25.7022C178.792 26.4147 178.315 27.1553 177.938 27.6585C177.093 28.7643 175.704 30.4623 174.36 32.095C173.016 33.7277 171.637 35.4257 170.792 36.5315C170.271 37.2128 169.537 38.2533 168.826 39.2581C168.116 40.263 167.382 41.3035 166.848 41.9966C166.459 42.4998 165.771 43.282 165.103 44.042C164.436 44.8019 163.76 45.5737 163.382 46.065C163.204 46.2995 162.959 46.6587 162.726 46.9927C162.493 47.3267 162.247 47.6963 162.06 47.9426C161.779 48.3424 161.519 48.7566 161.282 49.1835C161.039 49.6322 160.768 50.065 160.471 50.4793C160.081 50.9824 159.393 51.7765 158.725 52.5365C158.058 53.2964 157.37 54.0668 156.993 54.5699C156.07 55.7885 154.793 57.6097 153.56 59.376C152.327 61.1423 151.049 62.9739 150.114 64.2044C149.692 64.7625 148.903 65.6233 148.147 66.462C147.391 67.3006 146.626 68.1496 146.204 68.6884C145.834 69.2187 145.496 69.7709 145.192 70.3419C144.878 70.9326 144.53 71.504 144.148 72.0532C143.459 72.9438 142.392 74.2989 141.342 75.6155C140.292 76.932 139.231 78.2768 138.553 79.1703C138.197 79.6394 137.541 80.3667 136.919 81.0702C136.298 81.7738 135.652 82.4892 135.308 82.9478C135.161 83.1601 134.942 83.4287 134.709 83.73C134.198 84.3891 133.552 85.2143 133.208 85.7086C132.864 86.2028 132.386 86.8812 131.909 87.5966C131.042 88.8597 130.075 90.3024 129.23 91.3963C128.986 91.7214 128.385 92.3923 127.753 93.1062C126.963 93.9968 126.074 95.0076 125.774 95.4425C125.308 96.0911 124.408 97.372 123.686 98.411C123.252 99.0255 122.886 99.5509 122.731 99.7632C122.552 100.02 122.353 100.289 122.14 100.59C120.973 102.233 119.384 104.468 118.274 105.933C117.795 106.57 116.884 107.575 116.007 108.559C115.173 109.487 114.383 110.37 113.973 110.895C113.151 111.968 111.083 114.683 111.083 114.683C111.022 114.713 110.956 114.73 110.889 114.734ZM85.4764 74.4652C87.4774 74.4771 91.3214 74.762 93.3874 76.6916C93.8304 77.1042 94.2734 77.4619 94.7327 77.8315C95.3211 78.2891 95.885 78.7776 96.4221 79.295C97.0542 79.9095 97.7217 80.7259 98.3774 81.5081C98.621 81.8049 98.8662 82.1018 99.1157 82.3793C99.5278 82.8603 99.9723 83.307 100.427 83.7434C101.272 84.5597 102.083 85.3301 102.994 86.9628C103.261 87.4318 103.584 88.315 103.895 89.1759C104.138 89.8453 104.372 90.4835 104.55 90.8397C105.594 92.9637 106.765 95.4677 107.606 97.9257L107.916 98.8429C108.895 101.681 109.806 104.363 110.305 106.744C110.465 107.618 110.547 108.504 110.55 109.393C110.55 109.924 110.583 110.454 110.649 110.98C110.86 112.316 110.983 113.338 111.049 113.919C111.673 113.104 112.983 111.382 113.606 110.578C114.016 110.042 114.817 109.147 115.661 108.203C116.539 107.231 117.434 106.224 117.906 105.61C119.017 104.157 120.606 101.921 121.772 100.278C121.983 99.9814 122.183 99.7083 122.363 99.4515C122.518 99.2274 122.884 98.7094 123.318 98.0993C124.041 97.0707 124.952 95.775 125.418 95.1308C125.74 94.6855 126.6 93.7118 127.43 92.7559C128.051 92.0405 128.641 91.3696 128.884 91.0683C129.719 89.9952 130.685 88.5525 131.551 87.2908C132.04 86.5754 132.497 85.9045 132.863 85.391C133.229 84.8774 133.863 84.0714 134.373 83.4005C134.607 83.1037 134.817 82.8306 134.975 82.6302C135.329 82.1597 135.985 81.4339 136.608 80.7303C137.231 80.0268 137.875 79.3099 138.219 78.8527C138.907 77.9621 139.975 76.5951 141.025 75.2904C142.075 73.9858 143.135 72.6306 143.813 71.7282C144.183 71.198 144.521 70.6459 144.825 70.0747C145.138 69.4843 145.487 68.9133 145.869 68.3648C146.291 67.8052 147.08 66.9444 147.836 66.1072C148.592 65.2701 149.358 64.4196 149.769 63.8808C150.692 62.6637 151.969 60.841 153.202 59.0762C154.435 57.3114 155.713 55.4768 156.648 54.2478C157.036 53.7447 157.726 52.9506 158.392 52.1906C159.058 51.4307 159.747 50.6604 160.125 50.1572C160.405 49.757 160.664 49.3429 160.902 48.9163C161.145 48.4676 161.417 48.0348 161.714 47.6206C161.892 47.386 162.137 47.0268 162.37 46.6929C162.603 46.3589 162.847 45.9879 163.036 45.7429C163.424 45.2398 164.114 44.4576 164.78 43.6976C165.446 42.9377 166.125 42.1658 166.503 41.6745C167.025 40.9933 167.759 39.9528 168.469 38.9479C169.179 37.9431 169.915 36.9026 170.448 36.2094C171.293 35.1022 172.681 33.4042 174.025 31.7566C175.368 30.1091 176.748 28.4259 177.592 27.3305C177.971 26.8392 178.437 26.1119 178.892 25.4009C179.347 24.69 179.825 23.9478 180.203 23.4447L183.119 19.6241C183.497 19.1328 184.118 18.4842 184.719 17.8578C185.32 17.2315 185.93 16.6066 186.286 16.1376C186.385 16.004 186.641 15.624 186.886 15.247C187.153 14.8566 187.397 14.487 187.507 14.3416C187.685 14.1105 187.827 13.8544 187.93 13.5816C188.044 13.2685 188.206 12.9748 188.408 12.7104L190.869 9.49839L185.512 12.841C184.724 13.3323 183.612 14.07 182.546 14.7705C181.479 15.4711 180.367 16.2133 179.568 16.7001C179.412 16.7892 178.967 17.0355 178.49 17.2938C178.047 17.5402 177.579 17.7851 177.434 17.8756C176.934 18.1873 176.19 18.735 175.457 19.2605C174.725 19.7859 173.967 20.3455 173.456 20.6691C173.136 20.8486 172.801 21.002 172.456 21.1277C172.135 21.2463 171.823 21.3882 171.523 21.5522C171.101 21.809 170.467 22.1667 169.845 22.5125C169.224 22.8584 168.6 23.2176 168.19 23.4625C167.912 23.6421 167.478 23.9879 167.068 24.3233C166.69 24.6365 166.301 24.9378 165.901 25.2139C165.134 25.6933 163.956 26.3865 162.812 27.0574C161.667 27.7283 160.5 28.4214 159.734 28.9009C159.463 29.0987 159.203 29.3118 158.956 29.5391C158.692 29.7876 158.41 30.0154 158.111 30.2204C157.802 30.3929 157.479 30.5388 157.145 30.6568C156.835 30.7673 156.534 30.9018 156.244 31.059C155.634 31.439 154.711 32.098 153.822 32.7347C152.933 33.3715 152 34.032 151.378 34.4224C150.433 35.0161 148.989 35.8309 147.579 36.6354C146.168 37.4399 144.733 38.2562 143.8 38.8366L138.889 41.8987C138.334 42.246 137.489 42.8486 136.674 43.4423C135.859 44.036 135.008 44.6297 134.441 44.9949C133.653 45.4862 132.442 46.1571 131.275 46.8057C130.109 47.4543 128.912 48.1237 128.13 48.6046C127.687 48.8837 127.007 49.2636 126.358 49.6332C125.708 50.0028 125.029 50.3754 124.602 50.65C124.21 50.9097 123.605 51.355 123.044 51.7899C122.483 52.2248 121.855 52.6805 121.444 52.9402C121.223 53.0705 120.992 53.1856 120.755 53.2846C120.535 53.3808 120.32 53.4888 120.111 53.6081C119.733 53.8426 119.155 54.1558 118.6 54.469C118.045 54.7822 117.478 55.0835 117.11 55.318C116.344 55.7989 115.19 56.5589 114.067 57.2966C112.943 58.0342 111.778 58.8046 111.011 59.2855C109.977 59.9341 108.411 60.985 106.888 62.0121C105.365 63.0392 103.8 64.102 102.753 64.7506C101.798 65.3547 100.319 66.1918 98.8972 66.9978C97.4751 67.8037 96.0086 68.6394 95.0576 69.2331C94.4359 69.6235 93.5026 70.2498 92.5914 70.8525C91.6802 71.4551 90.7351 72.0933 90.1134 72.4852C89.6984 72.7776 87.055 73.8403 85.4764 74.4652Z" fill="#333333"/>
</g>
<mask id="mask3_3509_1121" style="mask-type:luminance" maskUnits="userSpaceOnUse" x="146" y="89" width="8" height="8">
<path d="M153.288 89.6493H146.495V96.477H153.288V89.6493Z" fill="white"/>
</mask>
<g mask="url(#mask3_3509_1121)">
<path d="M149.892 96.477C151.768 96.477 153.288 94.9486 153.288 93.0632C153.288 91.1777 151.768 89.6493 149.892 89.6493C148.016 89.6493 146.495 91.1777 146.495 93.0632C146.495 94.9486 148.016 96.477 149.892 96.477Z" fill="#AFCA0B"/>
</g>
<mask id="mask4_3509_1121" style="mask-type:luminance" maskUnits="userSpaceOnUse" x="0" y="62" width="66" height="57">
<path d="M65.717 62.9323H0.000976562V118.89H65.717V62.9323Z" fill="white"/>
</mask>
<g mask="url(#mask4_3509_1121)">
<path d="M18.4083 96.8064C18.0539 96.7961 17.6994 96.7842 17.345 96.7619C16.9906 96.7397 16.6376 96.707 16.2832 96.6625C15.5666 96.5832 14.8565 96.4533 14.1582 96.2736C13.4526 96.0951 12.7665 95.8465 12.1099 95.5315C11.4531 95.2194 10.8202 94.8587 10.2167 94.4524C9.92131 94.252 9.61858 94.0412 9.33061 93.829C9.04264 93.6167 8.76501 93.3956 8.48885 93.1729C7.90484 92.7365 7.35712 92.253 6.85112 91.7272C6.71821 91.5937 6.60746 91.4482 6.48489 91.3042C6.36485 91.1516 6.2539 90.9921 6.15261 90.8263C5.95473 90.5027 5.79967 90.191 5.62246 89.9016C5.53708 89.7636 5.4444 89.6303 5.34482 89.5023C5.24588 89.3687 5.13512 89.2352 5.02437 89.1016C4.77179 88.808 4.55284 88.4869 4.37164 88.1442C4.02755 87.4436 3.86215 86.7208 3.65098 86.0751C3.62882 85.9979 3.59633 85.9089 3.57418 85.8302L3.5417 85.7308L3.49739 85.5823C3.44127 85.4042 3.38663 85.238 3.34972 85.0599C3.3128 84.8818 3.2493 84.7259 3.20204 84.5597C3.15478 84.3934 3.09128 84.2361 3.03664 84.0699C2.91407 83.7478 2.79298 83.4138 2.6704 83.0576C2.54756 82.7058 2.45178 82.345 2.38391 81.9785C2.36176 81.8895 2.34995 81.8004 2.32779 81.701C2.30564 81.6015 2.29531 81.511 2.28349 81.4219C2.26134 81.2334 2.251 81.0553 2.23919 80.8653C2.21704 80.4987 2.21704 80.1425 2.19489 79.7981C2.18455 79.62 2.18455 79.4538 2.1624 79.2861C2.15058 79.197 2.15058 79.1376 2.14025 79.053C2.13063 78.9705 2.11583 78.8887 2.09594 78.8081C2.01767 78.4519 1.94827 78.0853 1.90692 77.7172C1.8985 77.6249 1.89505 77.5322 1.89658 77.4396C1.89658 77.3505 1.88477 77.2615 1.88477 77.1724V76.6277C1.88477 76.2715 1.89658 75.9049 1.91873 75.5486C1.95122 74.8362 2.01767 74.1237 2.09594 73.4128C2.12843 73.0565 2.17273 72.7003 2.21704 72.356L2.34995 71.2991C2.35425 71.2417 2.3811 71.1883 2.42458 71.1507C2.46806 71.1131 2.52462 71.0944 2.5818 71.0988C2.63898 71.1031 2.69211 71.1301 2.7295 71.1738C2.76689 71.2175 2.78547 71.2743 2.78116 71.3318C2.70437 72.7448 2.5818 74.1519 2.5818 75.559C2.5818 75.9152 2.5818 76.2611 2.59361 76.598C2.59361 76.7761 2.60395 76.9424 2.61576 77.1205C2.61576 77.2095 2.6261 77.2986 2.6261 77.3773C2.6261 77.4559 2.63792 77.5539 2.64825 77.6326C2.68222 77.9443 2.77082 78.2782 2.84762 78.633C2.86977 78.722 2.88158 78.8111 2.90373 78.912C2.92588 79.0129 2.93622 79.1124 2.94804 79.2089C2.97019 79.3974 2.98052 79.5755 2.99234 79.7536C3.01449 80.1098 3.02483 80.466 3.05879 80.8104C3.06913 80.9766 3.09128 81.1547 3.11343 81.3106C3.12305 81.3931 3.13785 81.4749 3.15774 81.5555C3.17989 81.6342 3.1917 81.7232 3.21385 81.8004C3.2872 82.1281 3.3794 82.4512 3.49001 82.7682C3.60076 83.0902 3.73367 83.4138 3.86658 83.7582C3.93304 83.9259 3.98768 84.104 4.04379 84.2702C4.09991 84.4365 4.15455 84.6265 4.19147 84.7927C4.22839 84.959 4.29041 85.1267 4.34653 85.2944L4.37902 85.4042L4.42332 85.5378C4.45729 85.6269 4.47944 85.7159 4.51193 85.805C4.73344 86.5056 4.89884 87.1735 5.18681 87.7345C5.33793 88.0211 5.52019 88.2899 5.73026 88.5361C5.84102 88.6696 5.95177 88.8136 6.06105 88.9591C6.17033 89.1045 6.28257 89.2708 6.38299 89.437C6.57054 89.7606 6.73741 90.0708 6.91462 90.3602C6.99497 90.4988 7.08323 90.6326 7.17896 90.761C7.27938 90.8842 7.39014 91.0163 7.5009 91.1395C7.96584 91.6423 8.47329 92.1037 9.01754 92.5184C9.56985 92.9636 10.1015 93.3971 10.6774 93.7978C11.2379 94.1961 11.8262 94.5532 12.4377 94.8665C13.0491 95.1736 13.6861 95.4264 14.3413 95.622C15.0057 95.8224 15.6825 95.9786 16.3674 96.0895C17.0526 96.2009 17.7511 96.2795 18.4482 96.3344C18.5069 96.3424 18.5606 96.3718 18.5993 96.4169C18.6379 96.462 18.6587 96.5198 18.6579 96.5793C18.6135 96.7011 18.5102 96.802 18.4038 96.7901L18.4083 96.8064Z" fill="#3C3C3B"/>
<path d="M24.7284 112.371C24.2735 112.259 23.8202 112.138 23.3668 111.992C23.256 111.959 23.1335 111.915 23.0124 111.87C22.8913 111.826 22.7908 111.769 22.6801 111.722C22.4586 111.611 22.2592 111.499 22.0495 111.388C21.8398 111.277 21.6508 111.153 21.4514 111.054C21.2538 110.95 21.0507 110.858 20.843 110.776C20.4221 110.598 19.9909 110.453 19.5479 110.253C19.3248 110.153 19.1069 110.042 18.8951 109.92C18.7844 109.853 18.684 109.786 18.585 109.72L18.2971 109.519C17.9101 109.252 17.5336 108.951 17.1673 108.651C16.9798 108.503 16.8026 108.339 16.6372 108.173C16.5486 108.094 16.46 108.005 16.3817 107.928L16.138 107.683C15.983 107.535 15.8176 107.386 15.6404 107.25C15.4429 107.094 15.2577 106.923 15.0866 106.738C14.998 106.637 14.9212 106.537 14.8326 106.441C14.7545 106.338 14.6839 106.23 14.6214 106.117C14.4885 105.907 14.3777 105.706 14.2566 105.506C14.1355 105.305 14.0248 105.105 13.914 104.939C13.7831 104.768 13.6426 104.604 13.4931 104.449C13.3158 104.273 13.1528 104.084 13.0058 103.882C12.8493 103.665 12.7194 103.43 12.6189 103.181C12.5185 102.947 12.452 102.724 12.3634 102.536C12.3191 102.447 12.2748 102.346 12.2305 102.257L12.0651 101.96C11.5999 101.158 11.1023 100.358 10.6932 99.4796C10.4923 99.0329 10.3254 98.5714 10.1941 98.0993C10.0611 97.6332 9.9622 97.176 9.85144 96.7204L9.69638 96.042C9.64027 95.8194 9.58563 95.5849 9.54871 95.3519C9.44976 94.8843 9.36116 94.4168 9.2947 93.9507C9.15245 93.008 9.08185 92.0558 9.08353 91.1024C9.08353 90.8693 9.08353 90.6244 9.09534 90.3899L9.10568 90.2118C9.10438 90.1488 9.10833 90.0857 9.11749 90.0233C9.12908 89.8928 9.14732 89.763 9.17213 89.6344C9.21643 89.3895 9.27255 89.155 9.31981 88.9324L9.38626 88.5999C9.39813 88.5512 9.40555 88.5015 9.40842 88.4515L9.43057 88.2837C9.48521 87.8281 9.54132 87.3605 9.61812 86.8826C9.69538 86.3983 9.81396 85.9215 9.97254 85.4577C10.293 84.5241 10.7803 83.6899 11.1894 82.878C11.278 82.6776 11.3445 82.4772 11.4109 82.2843C11.4552 82.173 11.4892 82.0498 11.5438 81.9281C11.5691 81.8633 11.5987 81.8003 11.6324 81.7395L11.6885 81.6386L11.7328 81.5614C11.975 81.1488 12.2408 80.7495 12.5067 80.3592C12.7725 79.9688 13.0723 79.5918 13.3706 79.2252L13.6024 78.9461L13.7132 78.8126C13.746 78.7782 13.7757 78.741 13.8018 78.7012C13.8579 78.6241 13.9125 78.535 13.9687 78.4459C14.0248 78.3569 14.0898 78.2352 14.168 78.1238C14.2474 78.0026 14.3401 77.8905 14.4442 77.7899C14.5431 77.7008 14.6317 77.6118 14.7321 77.5331C14.9197 77.3847 15.1191 77.2363 15.3081 77.0878C15.4971 76.9394 15.6832 76.8088 15.8604 76.6752C15.949 76.6084 16.0273 76.5416 16.1159 76.4748L16.3699 76.2537C16.7245 75.9278 17.0978 75.623 17.4878 75.3408C17.6931 75.1971 17.9077 75.0672 18.1302 74.9519C18.3517 74.8411 18.5732 74.7422 18.7947 74.6551C19.0162 74.566 19.2259 74.477 19.4356 74.3879L19.731 74.2543C19.8237 74.2127 19.9126 74.163 19.9968 74.1059C20.1844 73.9946 20.3837 73.861 20.5875 73.7378C20.702 73.6683 20.8203 73.6053 20.9419 73.5493L20.9862 73.527L21.0305 73.5048L21.1088 73.4706L21.2742 73.4039C22.162 73.051 23.076 72.7686 24.0077 72.5593C24.483 72.4665 24.9641 72.407 25.4475 72.3812C25.9231 72.3471 26.3882 72.3248 26.8416 72.3025C27.295 72.2803 27.7823 72.2476 28.2696 72.258C29.2431 72.2993 30.2052 72.4833 31.1257 72.8042C31.3576 72.8814 31.5791 72.9823 31.8006 73.0699L32.1225 73.2183L32.2702 73.2851L32.4253 73.3519C32.6364 73.441 32.858 73.5181 33.0898 73.6191C33.1459 73.6413 33.2006 73.674 33.267 73.7081C33.3028 73.7218 33.3366 73.7402 33.3674 73.763L33.4442 73.8076C33.5432 73.864 33.6436 73.9189 33.7396 73.956C33.9389 74.0569 34.1605 74.1668 34.3716 74.29C34.5931 74.4215 34.804 74.5704 35.0022 74.7353C35.3774 75.0594 35.7152 75.4249 36.0094 75.8247C36.3047 76.2032 36.5735 76.5921 36.8393 76.9928C36.9796 77.199 37.1054 77.4148 37.2159 77.6385C37.3252 77.8663 37.4213 78.1002 37.5038 78.3391C37.6577 78.7985 37.7835 79.2669 37.8804 79.7417C37.9852 80.2175 38.0519 80.7009 38.0798 81.1874L38.1019 81.888C38.1123 82.121 38.1123 82.3659 38.1123 82.6004C38.112 83.0928 38.0675 83.5841 37.9794 84.0684L37.9351 84.2569C37.9129 84.3237 37.9026 84.3905 37.8804 84.4573C37.8384 84.5789 37.7891 84.6979 37.7327 84.8135C37.6338 85.0361 37.523 85.2484 37.4374 85.4473C37.4152 85.4918 37.3931 85.5482 37.3709 85.5957L37.3045 85.7619C37.2487 85.8935 37.182 86.0201 37.1051 86.1404C37.0366 86.2292 36.974 86.3224 36.9176 86.4195C36.8637 86.5028 36.8191 86.592 36.7847 86.6852C36.5956 87.0978 36.4406 87.5431 36.2309 87.9765C36.1274 88.2009 36.0125 88.4199 35.8868 88.6325C35.7554 88.8433 35.6225 89.0333 35.4895 89.2262C35.3566 89.4192 35.2237 89.6151 35.079 89.8051C34.9343 89.9951 34.7836 90.194 34.6256 90.3825C34.3033 90.7388 33.9579 91.0735 33.5919 91.3844L33.3379 91.6174C33.2596 91.6961 33.1607 91.7658 33.0942 91.8401C32.9466 91.9885 32.8063 92.174 32.6512 92.3625C32.5729 92.4516 32.4961 92.5406 32.3957 92.6416C32.2953 92.7425 32.22 92.79 32.1417 92.8746C31.994 93.023 31.8656 93.1967 31.6987 93.3971C31.6123 93.4955 31.5201 93.5887 31.4225 93.6761C31.3664 93.7206 31.3221 93.7533 31.2675 93.7978C31.2127 93.8414 31.1533 93.8787 31.0903 93.9091C30.8701 94.0134 30.6448 94.1066 30.4154 94.1882C30.3178 94.2206 30.2246 94.265 30.1377 94.3203C30.0388 94.3767 29.928 94.4435 29.8291 94.4984C29.6179 94.6097 29.4186 94.721 29.2089 94.8324C28.788 95.0446 28.3671 95.245 27.9359 95.4261C27.9094 95.4399 27.8804 95.4481 27.8507 95.4502C27.821 95.4523 27.7911 95.4483 27.763 95.4384C27.7349 95.4284 27.7091 95.4129 27.6871 95.3926C27.6652 95.3722 27.6477 95.3476 27.6356 95.3203C27.6235 95.2929 27.6171 95.2633 27.6167 95.2333C27.6164 95.2034 27.6222 95.1737 27.6338 95.1461C27.6453 95.1184 27.6623 95.0935 27.6838 95.0727C27.7053 95.0519 27.7308 95.0358 27.7587 95.0253C28.1677 94.8249 28.5783 94.6142 28.9874 94.4019C29.1867 94.2921 29.3861 94.1807 29.5854 94.0576L29.8808 93.8794C29.9917 93.8139 30.1061 93.7545 30.2234 93.7013C30.4338 93.6254 30.6377 93.5325 30.8333 93.4238C30.8776 93.4015 30.9101 93.3674 30.9544 93.3451C30.9987 93.3228 31.0327 93.2783 31.0755 93.2457C31.1518 93.1774 31.2224 93.1029 31.2867 93.023C31.4196 92.8746 31.5525 92.6564 31.74 92.4664C31.8286 92.3774 31.9394 92.2779 31.9955 92.2215C32.0705 92.1449 32.1405 92.0636 32.2052 91.9781C32.3529 91.8 32.4814 91.6219 32.6586 91.4215C32.759 91.3205 32.8358 91.2434 32.9244 91.1647L33.1799 90.9213C33.5159 90.6176 33.8335 90.294 34.1309 89.9521C34.2767 89.7816 34.4138 89.6037 34.5415 89.4192C34.6729 89.2292 34.8058 89.0407 34.9284 88.8507C35.0509 88.6607 35.1942 88.4618 35.2931 88.2837C35.4028 88.0917 35.5014 87.8934 35.5885 87.69C35.7657 87.2789 35.9193 86.844 36.1083 86.4002C36.156 86.2761 36.2154 86.1568 36.2855 86.0439C36.3454 85.9407 36.412 85.8415 36.4849 85.7471C36.5363 85.6715 36.577 85.5891 36.606 85.5022L36.6621 85.3359C36.6836 85.2749 36.7092 85.2154 36.7389 85.1578C36.8393 84.9352 36.9501 84.7244 37.0269 84.524C37.0712 84.4231 37.1036 84.3341 37.1376 84.2346L37.1701 84.101L37.2041 83.9526C37.281 83.5197 37.3142 83.0801 37.303 82.6405C37.303 82.4179 37.2927 82.1833 37.2809 81.9622L37.2484 81.272C37.2146 80.8263 37.148 80.3838 37.049 79.948C36.9599 79.5067 36.8415 79.0718 36.6946 78.6463C36.5591 78.235 36.3651 77.8455 36.1186 77.4901C35.8646 77.1111 35.5993 76.744 35.3227 76.3887C35.0566 76.0435 34.76 75.7231 34.4366 75.4314C34.2766 75.299 34.1062 75.1799 33.9271 75.0752C33.7396 74.9638 33.5402 74.8644 33.3364 74.7634C33.2257 74.7085 33.1252 74.6521 33.0145 74.5972L32.9377 74.5527C32.9155 74.5408 32.9037 74.5304 32.8816 74.5186L32.7487 74.4517C32.5493 74.3627 32.3396 74.2855 32.1181 74.1965L31.9527 74.1297L31.7858 74.0525L31.4757 73.9189C31.266 73.8298 31.0666 73.7408 30.8569 73.674C30.0215 73.3846 29.1494 73.2157 28.2667 73.1723C27.8237 73.1619 27.3703 73.1946 26.9051 73.2168C26.4399 73.2391 25.9748 73.2614 25.5214 73.2955C25.068 73.3296 24.6353 73.3845 24.1923 73.4617C23.3096 73.6614 22.4436 73.9294 21.6021 74.2632L21.4544 74.33L21.3761 74.3627L21.3318 74.3746L21.2993 74.385C21.2082 74.4298 21.1195 74.4793 21.0335 74.5334C20.8445 74.6447 20.6569 74.7664 20.4428 74.9C20.3337 74.9722 20.2192 75.0358 20.1002 75.09C19.9894 75.1449 19.8787 75.2013 19.7679 75.2384C19.5464 75.3379 19.3249 75.4269 19.1152 75.516C18.9055 75.605 18.7061 75.6941 18.5171 75.7935C18.3306 75.8949 18.1496 76.0064 17.9751 76.1275C17.6138 76.395 17.2663 76.6809 16.934 76.9839L16.6697 77.2184C16.5811 77.2956 16.4806 77.3743 16.3743 77.4515C16.1853 77.5999 15.9859 77.729 15.8087 77.8745C15.6315 78.02 15.4439 78.1417 15.2786 78.2856C15.2003 78.3524 15.1235 78.4192 15.0452 78.4979C14.9807 78.5601 14.925 78.6311 14.8798 78.7087C14.8237 78.7858 14.7794 78.8749 14.713 78.9758C14.6465 79.0768 14.58 79.1985 14.5033 79.3098L14.3703 79.476L14.2596 79.6096L14.0381 79.8768C13.7501 80.233 13.4739 80.5892 13.2081 80.9662C12.9423 81.3432 12.6986 81.7232 12.4697 82.1121C12.2586 82.4238 12.1921 82.8542 11.9603 83.3693C11.529 84.2257 11.0639 85.002 10.7862 85.8391C10.6409 86.259 10.5336 86.6912 10.4658 87.1304C10.389 87.5757 10.3447 88.0314 10.2886 88.4989L10.2664 88.6771C10.2561 88.7424 10.2443 88.8092 10.2339 88.8656C10.2146 88.9857 10.1884 89.1046 10.1557 89.2218C10.101 89.4548 10.0567 89.6775 10.008 89.8882C9.98583 89.9995 9.97401 90.1005 9.96368 90.1999C9.96368 90.2445 9.95186 90.3009 9.95186 90.3484L9.94153 90.5161C9.92971 90.7387 9.92971 90.9718 9.92971 91.1944C9.9296 92.1065 9.99624 93.0173 10.1291 93.9195C10.1955 94.3752 10.2768 94.8205 10.3727 95.2658C10.417 95.4884 10.4732 95.711 10.5278 95.9337L10.6755 96.6224C10.8748 97.5352 11.0845 98.4139 11.4508 99.2154C11.817 100.017 12.3132 100.817 12.7799 101.629L12.9571 101.941C13.0232 102.056 13.0824 102.175 13.1343 102.297C13.2332 102.53 13.3115 102.752 13.3883 102.953C13.4625 103.138 13.5592 103.314 13.6763 103.475C13.8113 103.647 13.9557 103.81 14.109 103.965C14.2885 104.142 14.4511 104.336 14.5948 104.544C14.7499 104.767 14.8606 104.967 14.9832 105.167C15.1058 105.368 15.2151 105.567 15.3376 105.761C15.391 105.85 15.4496 105.935 15.5134 106.016C15.5738 106.1 15.6405 106.178 15.7127 106.251C15.8598 106.408 16.0151 106.556 16.1779 106.696C16.3668 106.85 16.5477 107.013 16.7199 107.186C16.8085 107.275 16.8867 107.354 16.9635 107.443C17.0403 107.532 17.1112 107.609 17.2072 107.688L17.7064 108.154C18.0409 108.458 18.3919 108.744 18.7578 109.01L19.034 109.211C19.1329 109.277 19.2112 109.334 19.2998 109.401C19.4856 109.515 19.6779 109.62 19.8757 109.712C20.2744 109.901 20.716 110.067 21.1487 110.267C21.3702 110.368 21.5799 110.48 21.7896 110.601C21.9993 110.723 22.2001 110.846 22.3877 110.969C22.7596 111.216 23.1554 111.425 23.5691 111.591C24.0003 111.74 24.4315 111.903 24.8746 112.037C24.9032 112.044 24.93 112.057 24.9534 112.076C24.9768 112.094 24.9963 112.116 25.0107 112.142C25.0252 112.168 25.0343 112.197 25.0376 112.226C25.0408 112.256 25.0381 112.286 25.0296 112.314C24.9324 112.37 24.8213 112.398 24.7092 112.393L24.7284 112.371Z" fill="#3C3C3B"/>
<path d="M65.3074 103.682C65.0643 103.916 64.8314 104.164 64.6089 104.424C64.4875 104.561 64.3546 104.688 64.2117 104.802C64.1452 104.857 64.064 104.924 63.9902 104.98C63.8974 105.036 63.8012 105.085 63.7022 105.129C63.3478 105.262 63.0155 105.34 62.7054 105.451C62.6389 105.473 62.5577 105.506 62.4957 105.528C62.4688 105.541 62.4427 105.556 62.4174 105.573L62.3185 105.639C62.1898 105.735 62.0679 105.839 61.9537 105.951C61.6975 106.209 61.4193 106.443 61.1223 106.652C61.078 106.674 61.0455 106.708 61.0012 106.73L60.8904 106.797C60.824 106.842 60.7428 106.886 60.6807 106.931C60.5478 107.02 60.4149 107.119 60.2599 107.228C60.1099 107.334 59.9546 107.433 59.7947 107.524C59.7125 107.573 59.6277 107.618 59.5407 107.658C59.4575 107.699 59.3722 107.737 59.2852 107.769C58.9647 107.918 58.6325 108.036 58.3445 108.17C58.2892 108.193 58.2371 108.223 58.1894 108.259C58.1378 108.301 58.0885 108.345 58.0418 108.393C57.9082 108.553 57.7514 108.691 57.5766 108.804L57.4983 108.848C57.4658 108.859 57.4437 108.881 57.4215 108.881L57.3004 108.937C57.2118 108.97 57.1335 109.004 57.0449 109.037C56.8795 109.104 56.7127 109.16 56.5355 109.215C55.8606 109.438 55.196 109.616 54.5773 109.85L54.1003 110.039L53.6144 110.227C53.2925 110.35 52.9602 110.472 52.6398 110.595L51.6651 110.94C51.3446 111.051 51.0345 111.173 50.7022 111.306C50.37 111.44 50.0392 111.551 49.6951 111.652C49.351 111.753 49.0084 111.841 48.6614 111.919L46.6352 112.385C46.2851 112.463 45.9305 112.519 45.5734 112.553C45.219 112.598 44.8867 112.62 44.5663 112.675C44.4842 112.685 44.4028 112.699 44.3226 112.719C44.2562 112.731 44.1897 112.754 44.1011 112.776C43.946 112.82 43.791 112.875 43.6256 112.924C43.4602 112.973 43.2933 113.036 43.1161 113.073C43.0275 113.095 42.9389 113.117 42.8399 113.139C42.7448 113.159 42.6487 113.174 42.552 113.184C41.8492 113.252 41.1432 113.282 40.4373 113.273C40.1039 113.273 39.7709 113.295 39.4404 113.34C39.12 113.384 38.7774 113.462 38.4333 113.518C38.2561 113.551 38.0803 113.573 37.9031 113.595C37.8112 113.609 37.7184 113.616 37.6255 113.617C37.5266 113.617 37.4379 113.629 37.3493 113.629H36.2979C35.9538 113.617 35.6009 113.607 35.2568 113.585C34.9127 113.562 34.5597 113.528 34.223 113.496C34.1695 113.487 34.1213 113.458 34.0878 113.415C34.0544 113.372 34.038 113.318 34.0421 113.264C34.0462 113.21 34.0704 113.159 34.1098 113.121C34.1493 113.084 34.2013 113.063 34.2555 113.062C34.5996 113.073 34.9422 113.085 35.2893 113.085C35.6363 113.085 35.976 113.085 36.323 113.073C36.67 113.061 37.0097 113.05 37.3567 113.028C37.4384 113.027 37.5199 113.02 37.6004 113.006L37.8441 112.973C38.0109 112.951 38.166 112.906 38.3314 112.872C38.6637 112.795 38.9959 112.724 39.3651 112.65C39.7204 112.591 40.079 112.554 40.4387 112.538C41.1476 112.506 41.8225 112.506 42.4649 112.39C42.5399 112.382 42.6141 112.367 42.6864 112.345C42.7528 112.323 42.834 112.311 42.9079 112.279C43.0556 112.234 43.2165 112.179 43.3834 112.13C43.5503 112.081 43.7157 112.019 43.8929 111.964C43.9872 111.935 44.0834 111.912 44.1809 111.897C44.2679 111.876 44.3562 111.861 44.4452 111.853C44.7996 111.786 45.154 111.752 45.4863 111.704C45.8186 111.657 46.139 111.605 46.461 111.538L46.9586 111.415L47.4681 111.293L48.4753 111.06C48.8076 110.981 49.1383 110.892 49.4485 110.793C49.7586 110.693 50.0805 110.581 50.401 110.459C50.7214 110.337 51.0434 110.214 51.386 110.091L52.3606 109.746C52.6811 109.635 53.0016 109.513 53.3235 109.39L54.2967 109.024C54.973 108.779 55.6479 108.612 56.2888 108.412C56.4439 108.356 56.6108 108.311 56.7658 108.244C56.8426 108.212 56.9135 108.189 56.9977 108.155L57.1084 108.111C57.1306 108.1 57.1424 108.1 57.1527 108.088C57.1631 108.077 57.1749 108.078 57.1867 108.066C57.2998 107.99 57.4034 107.9 57.4954 107.799C57.5717 107.723 57.6531 107.653 57.739 107.588C57.8299 107.52 57.9292 107.464 58.0344 107.422C58.377 107.274 58.6974 107.165 59.0076 107.032C59.0858 106.999 59.1626 106.965 59.2291 106.932C59.3015 106.899 59.372 106.862 59.4403 106.821C59.5879 106.742 59.7164 106.672 59.8597 106.576C60.0029 106.479 60.155 106.387 60.3027 106.279L60.536 106.146L60.6468 106.091C60.6774 106.068 60.7106 106.049 60.7457 106.034C61.0206 105.852 61.28 105.648 61.521 105.423C61.6615 105.302 61.8094 105.19 61.964 105.089L62.0851 105.012C62.1318 104.981 62.1813 104.954 62.2328 104.933L62.509 104.833C62.8634 104.732 63.1957 104.666 63.494 104.566C63.5552 104.545 63.6145 104.519 63.6712 104.488L63.8705 104.354C64.0002 104.256 64.1226 104.148 64.2368 104.032C64.4827 103.777 64.7451 103.539 65.0224 103.319C65.0455 103.302 65.072 103.288 65.1002 103.281C65.1285 103.273 65.1579 103.272 65.1868 103.276C65.2157 103.28 65.2435 103.29 65.2686 103.305C65.2936 103.32 65.3153 103.34 65.3325 103.364C65.3522 103.386 65.3672 103.411 65.3768 103.439C65.3864 103.466 65.3902 103.495 65.3882 103.525C65.3861 103.554 65.3781 103.582 65.3648 103.608C65.3514 103.634 65.3329 103.657 65.3104 103.676L65.3074 103.682Z" fill="#3C3C3B"/>
<path d="M29.6092 114.606C30.5015 114.606 31.2248 113.879 31.2248 112.982C31.2248 112.085 30.5015 111.358 29.6092 111.358C28.717 111.358 27.9937 112.085 27.9937 112.982C27.9937 113.879 28.717 114.606 29.6092 114.606Z" fill="#3C3C3B"/>
<path d="M23.1781 97.7757C24.2359 97.7757 25.0934 96.9138 25.0934 95.8506C25.0934 94.7874 24.2359 93.9255 23.1781 93.9255C22.1202 93.9255 21.2627 94.7874 21.2627 95.8506C21.2627 96.9138 22.1202 97.7757 23.1781 97.7757Z" fill="#FFCE46"/>
<path d="M2.9012 68.3606C3.95903 68.3606 4.81657 67.4987 4.81657 66.4355C4.81657 65.3723 3.95903 64.5104 2.9012 64.5104C1.84338 64.5104 0.98584 65.3723 0.98584 66.4355C0.98584 67.4987 1.84338 68.3606 2.9012 68.3606Z" fill="#AFCA0B"/>
</g>
<mask id="mask5_3509_1121" style="mask-type:luminance" maskUnits="userSpaceOnUse" x="161" y="90" width="22" height="23">
<path d="M182.971 90.9851H161.706V112.359H182.971V90.9851Z" fill="white"/>
</mask>
<g mask="url(#mask5_3509_1121)">
<path d="M182.971 101.672C182.965 104.377 181.938 106.979 180.098 108.952C178.257 110.926 175.741 112.125 173.056 112.308C170.371 112.49 167.717 111.642 165.629 109.936C163.541 108.229 162.175 105.79 161.806 103.11C161.76 102.782 161.73 102.451 161.718 102.119C161.718 102.03 161.706 101.941 161.706 101.85V101.605C161.716 100.201 162 98.8123 162.544 97.5187C163.088 96.225 163.88 95.0518 164.875 94.0661C165.87 93.0803 167.049 92.3014 168.344 91.7738C169.639 91.2462 171.024 90.9802 172.421 90.9912C173.455 91.0021 174.482 91.1595 175.472 91.4587C175.53 91.4728 175.585 91.4917 175.639 91.5151C175.75 91.5493 175.861 91.5938 175.972 91.6264C176.038 91.6487 176.105 91.6828 176.183 91.7051C176.404 91.7942 176.626 91.8832 176.837 91.9842C178.669 92.8471 180.219 94.2164 181.305 95.9319C182.392 97.6475 182.969 99.6385 182.971 101.672Z" fill="#EFF4CE"/>
</g>
<mask id="mask6_3509_1121" style="mask-type:luminance" maskUnits="userSpaceOnUse" x="182" y="49" width="6" height="6">
<path d="M187.696 49.5739H182.38V54.9172H187.696V49.5739Z" fill="white"/>
</mask>
<g mask="url(#mask6_3509_1121)">
<path d="M185.038 54.9172C186.506 54.9172 187.696 53.7211 187.696 52.2456C187.696 50.77 186.506 49.5739 185.038 49.5739C183.57 49.5739 182.38 50.77 182.38 52.2456C182.38 53.7211 183.57 54.9172 185.038 54.9172Z" fill="#EFF4CE"/>
</g>
<mask id="mask7_3509_1121" style="mask-type:luminance" maskUnits="userSpaceOnUse" x="28" y="33" width="6" height="7">
<path d="M33.6701 33.9889H28.2061V39.4807H33.6701V33.9889Z" fill="white"/>
</mask>
<g mask="url(#mask7_3509_1121)">
<path d="M30.9381 39.4807C32.4469 39.4807 33.6701 38.2514 33.6701 36.7348C33.6701 35.2183 32.4469 33.9889 30.9381 33.9889C29.4292 33.9889 28.2061 35.2183 28.2061 36.7348C28.2061 38.2514 29.4292 39.4807 30.9381 39.4807Z" fill="#EFF4CE"/>
</g>
<mask id="mask8_3509_1121" style="mask-type:luminance" maskUnits="userSpaceOnUse" x="42" y="67" width="9" height="9">
<path d="M50.6535 67.9789H42.8267V75.8455H50.6535V67.9789Z" fill="white"/>
</mask>
<g mask="url(#mask8_3509_1121)">
<path d="M46.7396 75.8485C48.9018 75.8485 50.6545 74.0868 50.6545 71.9137C50.6545 69.7406 48.9018 67.9789 46.7396 67.9789C44.5775 67.9789 42.8247 69.7406 42.8247 71.9137C42.8247 74.0868 44.5775 75.8485 46.7396 75.8485Z" fill="#EFF4CE"/>
</g>
</g>
<defs>
<clipPath id="clip0_3509_1121">
<rect width="192" height="118" fill="white" transform="translate(0 0.889526)"/>
</clipPath>
</defs>
</svg>
