<?xml version="1.0" encoding="UTF-8"?>
<svg version="1.1" xmlns="http://www.w3.org/2000/svg" width="60" height="60">
<path d="M0 0 C19.8 0 39.6 0 60 0 C60 19.8 60 39.6 60 60 C40.2 60 20.4 60 0 60 C0 40.2 0 20.4 0 0 Z " fill="#FBFBFB" transform="translate(0,0)"/>
<path d="M0 0 C3.3 0.020625 6.6 0.04125 10 0.0625 C10 7.3225 10 14.5825 10 22.0625 C5.71 22.0625 1.42 22.0625 -3 22.0625 C-3 24.0425 -3 26.0225 -3 28.0625 C-12.57 28.0625 -22.14 28.0625 -32 28.0625 C-32 21.4625 -32 14.8625 -32 8.0625 C-27.71 8.0625 -23.42 8.0625 -19 8.0625 C-19 5.7525 -19 3.4425 -19 1.0625 C-12.62591987 0.1078913 -6.43793944 -0.05726442 0 0 Z M-16 2.0625 C-16 2.7225 -16 3.3825 -16 4.0625 C-16.66 3.7325 -17.32 3.4025 -18 3.0625 C-18 4.7125 -18 6.3625 -18 8.0625 C-13.05 8.0625 -8.1 8.0625 -3 8.0625 C-2.67 9.0525 -2.34 10.0425 -2 11.0625 C-1.34 10.7325 -0.68 10.4025 0 10.0625 C0 11.0525 0 12.0425 0 13.0625 C-0.99 13.0625 -1.98 13.0625 -3 13.0625 C-3 15.3725 -3 17.6825 -3 20.0625 C-1.37509046 20.08948189 0.24994633 20.10888757 1.875 20.125 C2.77992187 20.13660156 3.68484375 20.14820312 4.6171875 20.16015625 C7.0168585 20.22499257 7.0168585 20.22499257 9 19.0625 C9 13.7825 9 8.5025 9 3.0625 C7.02 4.0525 7.02 4.0525 5 5.0625 C5.66 4.0725 6.32 3.0825 7 2.0625 C-0.59 2.0625 -8.18 2.0625 -16 2.0625 Z M-31 9.0625 C-31 15.0025 -31 20.9425 -31 27.0625 C-22.09 27.0625 -13.18 27.0625 -4 27.0625 C-4 21.1225 -4 15.1825 -4 9.0625 C-8.95 9.0625 -13.9 9.0625 -19 9.0625 C-18.67 10.0525 -18.34 11.0425 -18 12.0625 C-21.63 12.0625 -25.26 12.0625 -29 12.0625 C-29 11.0725 -29 10.0825 -29 9.0625 C-29.66 9.0625 -30.32 9.0625 -31 9.0625 Z " fill="#B9B9B9" transform="translate(39,24.9375)"/>
<path d="M0 0 C3.34125 0.020625 6.6825 0.04125 10.125 0.0625 C10.125 7.3225 10.125 14.5825 10.125 22.0625 C5.835 22.0625 1.545 22.0625 -2.875 22.0625 C-2.875 21.4025 -2.875 20.7425 -2.875 20.0625 C-2.24851562 20.00191406 -1.62203125 19.94132812 -0.9765625 19.87890625 C-0.15929687 19.79511719 0.65796875 19.71132813 1.5 19.625 C2.31210937 19.54378906 3.12421875 19.46257813 3.9609375 19.37890625 C6.16772805 19.17159886 6.16772805 19.17159886 8.125 18.0625 C8.125 13.4425 8.125 8.8225 8.125 4.0625 C7.135 5.0525 6.145 6.0425 5.125 7.0625 C4.465 6.7325 3.805 6.4025 3.125 6.0625 C4.115 5.0725 5.105 4.0825 6.125 3.0625 C-0.805 3.0625 -7.735 3.0625 -14.875 3.0625 C-14.545 3.7225 -14.215 4.3825 -13.875 5.0625 C-15.195 4.4025 -16.515 3.7425 -17.875 3.0625 C-17.545 2.4025 -17.215 1.7425 -16.875 1.0625 C-11.36548046 -0.37358788 -5.65036222 -0.04938058 0 0 Z " fill="#CCCCCC" transform="translate(38.875,24.9375)"/>
<path d="M0 0 C0.79921875 0.00902344 1.5984375 0.01804688 2.421875 0.02734375 C3.02515625 0.03894531 3.6284375 0.05054688 4.25 0.0625 C4.58 2.0425 4.91 4.0225 5.25 6.0625 C0.96 6.0625 -3.33 6.0625 -7.75 6.0625 C-8.08 4.4125 -8.41 2.7625 -8.75 1.0625 C-5.75519083 0.1901588 -3.11424089 -0.04579766 0 0 Z " fill="#ECECEC" transform="translate(28.75,43.9375)"/>
<path d="M0 0 C3.96 0.33 7.92 0.66 12 1 C12.33 1.99 12.66 2.98 13 4 C8.71 4 4.42 4 0 4 C0 2.68 0 1.36 0 0 Z " fill="#ACACAC" transform="translate(3,8)"/>
<path d="M0 0 C3.63 0.33 7.26 0.66 11 1 C11 1.99 11 2.98 11 4 C7.7 4 4.4 4 1 4 C0.67 2.68 0.34 1.36 0 0 Z " fill="#D7D7D7" transform="translate(21,45)"/>
<path d="M0 0 C3.3 0 6.6 0 10 0 C10.33 0.99 10.66 1.98 11 3 C7.37 3 3.74 3 0 3 C0 2.01 0 1.02 0 0 Z " fill="#D0D0D0" transform="translate(10,34)"/>
<path d="M0 0 C0.99 0 1.98 0 3 0 C2.67 0.66 2.34 1.32 2 2 C1.34 1.34 0.68 0.68 0 0 Z M-3 0 C-2.01 0.33 -1.02 0.66 0 1 C0.33 2.65 0.66 4.3 1 6 C-0.98 6 -2.96 6 -5 6 C-5 4.35 -5 2.7 -5 1 C-4.34 1 -3.68 1 -3 1 C-3 0.67 -3 0.34 -3 0 Z " fill="#F4F4F4" transform="translate(26,27)"/>
<path d="M0 0 C1.65 0 3.3 0 5 0 C5 1.32 5 2.64 5 4 C3.02 4 1.04 4 -1 4 C-0.67 2.68 -0.34 1.36 0 0 Z " fill="#B5B5B5" transform="translate(18,8)"/>
</svg>
