<?xml version="1.0" encoding="UTF-8"?>
<!DOCTYPE svg PUBLIC "-//W3C//DTD SVG 1.1//EN" "http://www.w3.org/Graphics/SVG/1.1/DTD/svg11.dtd">
<!-- Creator: Corel App -->
<svg xmlns="http://www.w3.org/2000/svg" xml:space="preserve" width="40mm" height="40mm" version="1.1" style="shape-rendering:geometricPrecision; text-rendering:geometricPrecision; image-rendering:optimizeQuality; fill-rule:evenodd; clip-rule:evenodd"
viewBox="0 0 488.36 488.36"
 xmlns:xlink="http://www.w3.org/1999/xlink"
 xmlns:xodm="http://www.corel.com/coreldraw/odm/2003">
 <defs>
  <style type="text/css">
   <![CDATA[
    .str0 {stroke:#2B2A29;stroke-width:2.44;stroke-miterlimit:22.9256}
    .fil0 {fill:none}
    .fil1 {fill:#FEFEFE}
    .fil2 {fill:#2B2A29;fill-rule:nonzero}
   ]]>
  </style>
   <clipPath id="id0">
    <rect x="50.46" y="246.45" width="136.45" height="147.82"/>
   </clipPath>
   <clipPath id="id1">
    <rect x="161.07" y="244.39" width="206.74" height="151.95"/>
   </clipPath>
 </defs>
 <g id="Livello_x0020_1">
  <metadata id="CorelCorpID_0Corel-Layer"/>
  <rect class="fil0" x="-0" y="0" width="488.36" height="488.36" rx="34.88" ry="40.14"/>
  <rect class="fil1 str0" x="45.59" y="234.51" width="229.09" height="161.21" rx="4.84" ry="7.04"/>
  <g style="clip-path:url(#id0)">
   <image id="_21743169-un-bellissimo-donna-spettacoli-un-gesto-di-approvazione-freddo-o-ok-pollice-sollevato-su-vettoriale.jpg" x="50.46" y="246.45" width="136.45" height="147.82" xlink:href="cartolina-personalizzata_Images\cartolina-personalizzata_ImgID1.png"/>
  </g>
  <g style="clip-path:url(#id1)">
   <image x="161.07" y="244.39" width="206.74" height="151.95" xlink:href="cartolina-personalizzata_Images\cartolina-personalizzata_ImgID2.png"/>
  </g>
  <rect class="fil1 str0" x="152.63" y="113.39" width="229.09" height="161.21" rx="3.39" ry="4.93"/>
  <rect class="fil0 str0" x="336.05" y="131" width="28.87" height="38.73"/>
  <line class="fil0 str0" x1="291.69" y1="202.82" x2="367.74" y2= "202.82" />
  <line class="fil0 str0" x1="290.98" y1="223.24" x2="367.03" y2= "223.24" />
  <line class="fil0 str0" x1="262.11" y1="131.7" x2="263.52" y2= "257.04" />
  <g>
   <path class="fil2" d="M139.22 80.51l30.39 -13.02 0 0 -0.39 0.81 -0.37 0.81 -0.34 0.81 -0.32 0.81 -0.29 0.81 -0.27 0.81 -0.24 0.81 -0.22 0.81 -0.19 0.81 -0.16 0.81 -0.14 0.81 -0.11 0.81 -0.09 0.81 -0.06 0.81 -0.04 0.81 -0.01 0.81 0.01 0.81 0.04 0.81 0.06 0.81 0.09 0.81 0.11 0.81 0.14 0.81 0.16 0.81 0.19 0.81 0.22 0.81 0.24 0.81 0.27 0.81 0.29 0.81 0.32 0.81 0.34 0.81 0.37 0.81 0.39 0.81 -30.39 -13.02zm245.27 -3.8l0 2.44 -7.09 0.01 -7.11 0.02 -7.12 0.03 -7.14 0.05 -7.15 0.06 -7.17 0.07 -7.18 0.08 -7.19 0.09 -7.2 0.09 -7.21 0.1 -7.22 0.11 -7.22 0.11 -7.23 0.11 -7.23 0.12 -7.24 0.12 -7.24 0.12 -7.24 0.12 -7.24 0.12 -7.24 0.12 -7.23 0.11 -7.23 0.11 -7.22 0.11 -7.21 0.1 -7.21 0.09 -7.2 0.09 -7.19 0.08 -7.18 0.07 -7.17 0.06 -7.15 0.05 -7.14 0.03 -7.12 0.02 -7.1 0.01 0 -2.44 7.1 -0.01 7.12 -0.02 7.13 -0.03 7.15 -0.05 7.16 -0.06 7.17 -0.07 7.18 -0.08 7.2 -0.09 7.21 -0.09 7.21 -0.1 7.22 -0.11 7.23 -0.11 7.23 -0.11 7.24 -0.12 7.24 -0.12 7.24 -0.12 7.24 -0.12 7.24 -0.12 7.23 -0.12 7.23 -0.11 7.23 -0.11 7.22 -0.11 7.21 -0.1 7.2 -0.09 7.19 -0.09 7.18 -0.08 7.17 -0.07 7.16 -0.06 7.14 -0.05 7.13 -0.03 7.11 -0.02 7.09 -0.01zm15.27 1.22l-30.39 13.02 0.39 -0.81 0.37 -0.81 0.34 -0.81 0.32 -0.81 0.29 -0.81 0.27 -0.81 0.24 -0.81 0.22 -0.81 0.19 -0.81 0.16 -0.81 0.14 -0.81 0.11 -0.81 0.09 -0.81 0.06 -0.81 0.04 -0.81 0.01 -0.81 -0.01 -0.81 -0.04 -0.81 -0.06 -0.81 -0.09 -0.81 -0.11 -0.81 -0.14 -0.81 -0.16 -0.81 -0.19 -0.81 -0.22 -0.81 -0.24 -0.81 -0.27 -0.81 -0.29 -0.81 -0.32 -0.81 -0.34 -0.81 -0.37 -0.81 -0.39 -0.81 0 0 30.39 13.02z"/>
  </g>
  <g>
   <path class="fil2" d="M421.96 276.68l-13.02 -30.39 0 0 0.81 0.39 0.81 0.37 0.81 0.34 0.81 0.32 0.81 0.29 0.81 0.27 0.81 0.24 0.81 0.22 0.81 0.19 0.81 0.16 0.81 0.14 0.81 0.11 0.81 0.09 0.81 0.06 0.81 0.04 0.81 0.01 0.81 -0.01 0.81 -0.04 0.81 -0.06 0.81 -0.09 0.81 -0.11 0.81 -0.14 0.81 -0.16 0.81 -0.19 0.81 -0.22 0.81 -0.24 0.81 -0.27 0.81 -0.29 0.81 -0.32 0.81 -0.34 0.81 -0.37 0.81 -0.39 -13.02 30.39zm-3.8 -147.07l2.44 0 0.01 4.06 0.02 4.07 0.03 4.08 0.05 4.09 0.06 4.1 0.07 4.1 0.08 4.11 0.09 4.12 0.09 4.12 0.1 4.13 0.11 4.14 0.11 4.14 0.11 4.14 0.12 4.14 0.12 4.15 0.12 4.15 0.12 4.15 0.12 4.15 0.12 4.15 0.11 4.14 0.11 4.14 0.11 4.14 0.1 4.14 0.09 4.13 0.09 4.13 0.08 4.12 0.07 4.12 0.06 4.11 0.05 4.1 0.03 4.09 0.02 4.08 0.01 4.07 -2.44 0 -0.01 -4.06 -0.02 -4.07 -0.03 -4.09 -0.05 -4.09 -0.06 -4.1 -0.07 -4.11 -0.08 -4.12 -0.09 -4.12 -0.09 -4.13 -0.1 -4.13 -0.11 -4.14 -0.11 -4.14 -0.11 -4.14 -0.12 -4.14 -0.12 -4.15 -0.12 -4.15 -0.12 -4.15 -0.12 -4.15 -0.12 -4.15 -0.11 -4.14 -0.11 -4.14 -0.11 -4.14 -0.1 -4.13 -0.09 -4.13 -0.09 -4.12 -0.08 -4.12 -0.07 -4.11 -0.06 -4.1 -0.05 -4.1 -0.03 -4.09 -0.02 -4.08 -0.01 -4.07zm1.22 -15.27l13.02 30.39 -0.81 -0.39 -0.81 -0.37 -0.81 -0.34 -0.81 -0.32 -0.81 -0.29 -0.81 -0.27 -0.81 -0.24 -0.81 -0.22 -0.81 -0.19 -0.81 -0.16 -0.81 -0.14 -0.81 -0.11 -0.81 -0.09 -0.81 -0.06 -0.81 -0.04 -0.81 -0.01 -0.81 0.01 -0.81 0.04 -0.81 0.06 -0.81 0.09 -0.81 0.11 -0.81 0.14 -0.81 0.16 -0.81 0.19 -0.81 0.22 -0.81 0.24 -0.81 0.27 -0.81 0.29 -0.81 0.32 -0.81 0.34 -0.81 0.37 -0.81 0.39 0 0 13.02 -30.39z"/>
  </g>
 </g>
</svg>
