<svg width="34" height="34" viewBox="0 0 34 34" fill="none" xmlns="http://www.w3.org/2000/svg">
<path d="M25.4557 8.51472C24.3414 7.40042 23.0185 6.5165 21.5626 5.91345C20.1067 5.31039 18.5463 5 16.9704 5C15.3945 5 13.8341 5.31039 12.3782 5.91344C10.9223 6.5165 9.59942 7.40041 8.48512 8.51472C7.37082 9.62902 6.4869 10.9519 5.88384 12.4078C5.28079 13.8637 4.9704 15.4241 4.9704 17C4.9704 18.5759 5.28079 20.1363 5.88385 21.5922C6.4869 23.0481 7.37081 24.371 8.48512 25.4853L16.9704 17L25.4557 8.51472Z" fill="black" stroke="#D0D0D0"/>
<path d="M8.48526 25.4559C10.7357 27.7063 13.7879 28.9706 16.9705 28.9706C20.1531 28.9706 23.2054 27.7063 25.4558 25.4559C27.7063 23.2054 28.9705 20.1532 28.9705 16.9706C28.9705 13.788 27.7063 10.7357 25.4558 8.4853L16.9705 16.9706L8.48526 25.4559Z" fill="white" stroke="#D0D0D0"/>
</svg>
