<svg width="97" height="99" viewBox="0 0 97 99" fill="none" xmlns="http://www.w3.org/2000/svg">
<g clip-path="url(#clip0_4551_4930)">
<path d="M86.1983 17.0398C86.1983 20.9604 89.3668 24.1289 93.2875 24.1289H96.088V30.282H93.2875C89.3668 30.282 86.1983 33.4505 86.1983 37.3712C86.1983 41.2918 89.3668 44.4604 93.2875 44.4604H96.088V50.6134H93.2875C89.3668 50.6134 86.1983 53.7819 86.1983 57.7026C86.1983 61.6233 89.3668 64.7918 93.2875 64.7918H96.088V70.9448H93.2875C89.3668 70.9448 86.1983 74.1134 86.1983 78.034C86.1983 81.9547 89.3668 85.1232 93.2875 85.1232H96.088V98.3654H86.0623V95.613C86.0623 93.6607 85.2701 91.8923 83.9899 90.6041C82.7097 89.3239 80.9334 88.5238 78.9731 88.5238C75.0604 88.5238 71.8839 91.7003 71.8839 95.613V98.3654H65.7309V95.613C65.7309 93.6607 64.9387 91.8923 63.6585 90.6041C62.3783 89.3239 60.61 88.5238 58.6417 88.5238C54.729 88.5238 51.5525 91.7003 51.5525 95.613V98.3654H45.3994V95.613C45.3994 93.6607 44.6073 91.8923 43.3271 90.6041C42.0469 89.3239 40.2706 88.5238 38.3102 88.5238C34.3976 88.5238 31.2211 91.7003 31.2211 95.613V98.3654H25.068V95.613C25.068 93.6607 24.2759 91.8923 22.9957 90.6041C21.7155 89.3239 19.9472 88.5238 17.9788 88.5238C14.0662 88.5238 10.8896 91.7003 10.8896 95.613V98.3654H0.959961V85.1232H3.76043C5.72076 85.1232 7.48906 84.3311 8.77728 83.0509C10.0655 81.7707 10.8496 80.0023 10.8496 78.034C10.8496 74.1134 7.68109 70.9448 3.76043 70.9448H0.959961V64.7918H3.76043C5.72076 64.7918 7.48906 63.9997 8.77728 62.7194C10.0575 61.4392 10.8496 59.6629 10.8496 57.7026C10.8496 53.7819 7.68109 50.6134 3.76043 50.6134H0.959961V44.4604H3.76043C5.72076 44.4604 7.48906 43.6682 8.77728 42.388C10.0655 41.1078 10.8496 39.3395 10.8496 37.3712C10.8496 33.4505 7.68109 30.282 3.76043 30.282H0.959961V24.1289H3.76043C5.72076 24.1289 7.48906 23.3368 8.77728 22.0566C10.0655 20.7764 10.8496 19.0001 10.8496 17.0398C10.8496 13.1191 7.68109 9.95056 3.76043 9.95056H0.959961V0.25293H10.9456V2.67734C10.9456 6.598 14.1142 9.76653 18.0268 9.76653C21.9395 9.76653 25.116 6.598 25.116 2.67734V0.25293H31.2611V2.67734C31.2611 6.598 34.4376 9.76653 38.3503 9.76653C42.2629 9.76653 45.4314 6.598 45.4314 2.67734V0.25293H51.5925V2.67734C51.5925 6.598 54.761 9.76653 58.6737 9.76653C62.5863 9.76653 65.7629 6.598 65.7629 2.67734V0.25293H71.9079V2.67734C71.9079 6.598 75.0844 9.76653 78.9971 9.76653C82.9098 9.76653 86.0783 6.598 86.0783 2.67734V0.25293H96.064V9.95056H93.2635C89.3428 9.95056 86.1743 13.1191 86.1743 17.0398H86.1983Z" fill="#AFCA0B"/>
<path d="M81.8456 12.751V84.203H16.7146V12.751C16.7146 12.751 16.7306 12.751 16.7386 12.751H81.8376H81.8456Z" fill="#BBE1FE"/>
<path d="M81.8456 12.7587V84.2267H16.7146V12.7587C16.7146 12.7587 16.7306 12.7347 16.7386 12.7587H81.8376H81.8456Z" fill="#4E83E8"/>
<path d="M78.9332 61.015H67.2272C66.2591 59.5188 65.699 57.7344 65.699 55.8221C65.699 50.5252 69.9957 46.2285 75.2926 46.2285C77.821 46.2285 80.1254 47.2047 81.8377 48.8129V58.1105C81.8377 59.7188 80.5335 61.015 78.9332 61.015Z" fill="#F4A669"/>
<path d="M81.8376 58.0703H16.7146V70.7925H81.8376V58.0703Z" fill="#BBE1FE"/>
<path d="M81.8376 70.793H16.7146V84.2272H81.8376V70.793Z" fill="#F9AB4B"/>
<path d="M64.8988 36.2508C64.8988 37.595 63.8106 38.6832 62.4663 38.6832C61.1221 38.6832 60.0339 37.595 60.0339 36.2508C60.0339 34.9065 61.1221 33.8184 62.4663 33.8184C63.8106 33.8184 64.8988 34.9065 64.8988 36.2508Z" fill="white"/>
<path d="M71.3638 36.2508C71.3638 37.595 70.2757 38.6832 68.9314 38.6832C67.5872 38.6832 66.499 37.595 66.499 36.2508C66.499 34.9065 67.5872 33.8184 68.9314 33.8184C70.2757 33.8184 71.3638 34.9065 71.3638 36.2508Z" fill="white"/>
<path d="M68.9314 35.4028C68.9314 37.0831 67.5711 38.4433 65.8909 38.4433C64.2106 38.4433 62.8503 37.0831 62.8503 35.4028C62.8503 33.7225 64.2106 32.3623 65.8909 32.3623C67.5711 32.3623 68.9314 33.7225 68.9314 35.4028Z" fill="white"/>
<path d="M69.0435 35.7949H62.3064V38.6834H69.0435V35.7949Z" fill="white"/>
<path d="M38.9265 53.2381C37.9024 53.2381 37.3663 52.518 37.0542 51.9419C36.7422 52.51 36.2061 53.2381 35.1819 53.2381C34.1577 53.2381 33.6297 52.518 33.3096 51.9499C32.9975 52.518 32.4615 53.2381 31.4373 53.2381C30.2051 53.2381 29.677 52.1819 29.3969 51.6218C29.3489 51.5338 29.2929 51.4138 29.2449 51.3258C28.7168 51.1818 28.3328 50.7017 28.3328 50.1336C28.3328 49.4535 28.8849 48.9014 29.565 48.9014C30.5811 48.9014 31.1172 49.6215 31.4373 50.1896C31.7493 49.6215 32.2854 48.9014 33.3096 48.9014C34.3338 48.9014 34.8619 49.6215 35.1819 50.1896C35.494 49.6215 36.0301 48.9014 37.0542 48.9014C38.2864 48.9014 38.8145 49.9575 39.0946 50.5176C39.1426 50.6057 39.1986 50.7257 39.2466 50.8137C39.7747 50.9577 40.1588 51.4378 40.1588 52.0059C40.1588 52.686 39.6067 53.2381 38.9265 53.2381Z" fill="white"/>
<path d="M48.5198 72.8172C47.7276 72.8172 47.2476 72.3532 46.9435 71.9051C46.6395 72.3532 46.1594 72.8172 45.3673 72.8172C44.5751 72.8172 44.095 72.3532 43.791 71.9131C43.4869 72.3612 43.0069 72.8172 42.2147 72.8172C41.0545 72.8172 40.5584 71.8251 40.3264 71.345C40.3024 71.297 40.2704 71.233 40.2384 71.169C39.7583 71.0009 39.4062 70.5449 39.4062 70.0008C39.4062 69.3206 39.9583 68.7686 40.6385 68.7686C41.4306 68.7686 41.9107 69.2326 42.2147 69.6727C42.5188 69.2246 42.9989 68.7686 43.791 68.7686C44.5831 68.7686 45.0632 69.2326 45.3673 69.6807C45.6713 69.2326 46.1514 68.7686 46.9435 68.7686C48.1037 68.7686 48.5998 69.7607 48.8398 70.2408C48.8638 70.2888 48.8958 70.3528 48.9279 70.4168C49.4079 70.5849 49.76 71.0409 49.76 71.585C49.76 72.2651 49.2079 72.8172 48.5278 72.8172H48.5198Z" fill="white"/>
<path d="M72.3721 67.1356C71.5799 67.1356 71.0999 66.6715 70.7958 66.2234C70.4918 66.6715 70.0117 67.1356 69.2195 67.1356C68.4274 67.1356 67.9473 66.6715 67.6433 66.2314C67.3392 66.6795 66.8592 67.1356 66.067 67.1356C64.9068 67.1356 64.4107 66.1434 64.1787 65.6633C64.1547 65.6153 64.1227 65.5513 64.0907 65.4873C63.6106 65.3193 63.2585 64.8632 63.2585 64.3191C63.2585 63.639 63.8106 63.0869 64.4908 63.0869C65.2829 63.0869 65.763 63.551 66.067 63.9911C66.3711 63.543 66.8511 63.0869 67.6433 63.0869C68.4354 63.0869 68.9155 63.551 69.2195 63.9991C69.5236 63.551 70.0037 63.0869 70.7958 63.0869C71.956 63.0869 72.4521 64.0791 72.6921 64.5592C72.7161 64.6072 72.7481 64.6712 72.7801 64.7352C73.2602 64.9032 73.6123 65.3593 73.6123 65.9034C73.6123 66.5835 73.0602 67.1356 72.3801 67.1356H72.3721Z" fill="white"/>
<path d="M21.2034 58.0711L32.9894 25.4336L51.8165 58.0711H21.2034Z" fill="#AD3E2A"/>
<path d="M69.5078 58.0705H38.9106L45.8558 46.2285L50.6966 37.9551L58.4259 46.2285L69.5078 58.0705Z" fill="#AD3E2A"/>
<path d="M35.198 33.131C35.198 35.3233 33.4137 37.1076 31.2213 37.1076C29.0289 37.1076 27.2446 35.3233 27.2446 33.131C27.2446 30.9386 29.0209 29.1543 31.2213 29.1543C33.4217 29.1543 35.198 30.9386 35.198 33.131Z" fill="white"/>
<path d="M45.7678 33.131C45.7678 35.3233 43.9915 37.1076 41.7911 37.1076C39.5907 37.1076 37.8145 35.3233 37.8145 33.131C37.8145 30.9386 39.5907 29.1543 41.7911 29.1543C43.9915 29.1543 45.7678 30.9386 45.7678 33.131Z" fill="white"/>
<path d="M36.8224 36.7072C39.5666 36.7072 41.7912 34.4826 41.7912 31.7384C41.7912 28.9942 39.5666 26.7695 36.8224 26.7695C34.0781 26.7695 31.8535 28.9942 31.8535 31.7384C31.8535 34.4826 34.0781 36.7072 36.8224 36.7072Z" fill="white"/>
<path d="M41.9671 32.3867H30.9573V37.1075H41.9671V32.3867Z" fill="white"/>
<path d="M40.2867 60.2469C39.2625 60.2469 38.7264 59.5268 38.4143 58.9507C38.1023 59.5188 37.5662 60.2469 36.542 60.2469C35.5179 60.2469 34.9898 59.5268 34.6697 58.9587C34.3577 59.5268 33.8216 60.2469 32.7974 60.2469C31.5652 60.2469 31.0371 59.1907 30.7571 58.6306C30.709 58.5426 30.653 58.4226 30.605 58.3346C30.0769 58.1905 29.6929 57.7105 29.6929 57.1424C29.6929 56.4622 30.245 55.9102 30.9251 55.9102C31.9413 55.9102 32.4773 56.6303 32.7974 57.1984C33.1094 56.6303 33.6455 55.9102 34.6697 55.9102C35.6939 55.9102 36.222 56.6303 36.542 57.1984C36.8541 56.6303 37.3902 55.9102 38.4143 55.9102C39.6465 55.9102 40.1746 56.9663 40.4547 57.5264C40.5027 57.6144 40.5587 57.7345 40.6067 57.8225C41.1348 57.9665 41.5189 58.4466 41.5189 59.0147C41.5189 59.6948 40.9668 60.2469 40.2867 60.2469Z" fill="white"/>
<path d="M40.2867 60.2469C39.2625 60.2469 38.7264 59.5268 38.4143 58.9507C38.1023 59.5188 37.5662 60.2469 36.542 60.2469C35.5179 60.2469 34.9898 59.5268 34.6697 58.9587C34.3577 59.5268 33.8216 60.2469 32.7974 60.2469C31.5652 60.2469 31.0371 59.1907 30.7571 58.6306C30.709 58.5426 30.653 58.4226 30.605 58.3346C30.0769 58.1905 29.6929 57.7105 29.6929 57.1424C29.6929 56.4622 30.245 55.9102 30.9251 55.9102C31.9413 55.9102 32.4773 56.6303 32.7974 57.1984C33.1094 56.6303 33.6455 55.9102 34.6697 55.9102C35.6939 55.9102 36.222 56.6303 36.542 57.1984C36.8541 56.6303 37.3902 55.9102 38.4143 55.9102C39.6465 55.9102 40.1746 56.9663 40.4547 57.5264C40.5027 57.6144 40.5587 57.7345 40.6067 57.8225C41.1348 57.9665 41.5189 58.4466 41.5189 59.0147C41.5189 59.6948 40.9668 60.2469 40.2867 60.2469Z" fill="white"/>
<path d="M58.4256 46.2285H45.8555L50.6963 37.9551L58.4256 46.2285Z" fill="white"/>
<path d="M40.5347 33.283H27.9646L32.8054 25.0176L40.5347 33.283Z" fill="white"/>
</g>
<defs>
<clipPath id="clip0_4551_4930">
<rect width="95.12" height="98.1045" fill="white" transform="translate(0.959961 0.25293)"/>
</clipPath>
</defs>
</svg>
