<svg width="97" height="99" viewBox="0 0 97 99" fill="none" xmlns="http://www.w3.org/2000/svg">
<g clip-path="url(#clip0_3140_9414)">
<path d="M86.1983 17.0398C86.1983 20.9604 89.3668 24.1289 93.2875 24.1289H96.088V30.282H93.2875C89.3668 30.282 86.1983 33.4505 86.1983 37.3712C86.1983 41.2918 89.3668 44.4604 93.2875 44.4604H96.088V50.6134H93.2875C89.3668 50.6134 86.1983 53.7819 86.1983 57.7026C86.1983 61.6233 89.3668 64.7918 93.2875 64.7918H96.088V70.9448H93.2875C89.3668 70.9448 86.1983 74.1134 86.1983 78.034C86.1983 81.9547 89.3668 85.1232 93.2875 85.1232H96.088V98.3654H86.0623V95.613C86.0623 93.6607 85.2701 91.8923 83.9899 90.6041C82.7097 89.3239 80.9334 88.5238 78.9731 88.5238C75.0604 88.5238 71.8839 91.7003 71.8839 95.613V98.3654H65.7309V95.613C65.7309 93.6607 64.9387 91.8923 63.6585 90.6041C62.3783 89.3239 60.61 88.5238 58.6417 88.5238C54.729 88.5238 51.5525 91.7003 51.5525 95.613V98.3654H45.3994V95.613C45.3994 93.6607 44.6073 91.8923 43.3271 90.6041C42.0469 89.3239 40.2706 88.5238 38.3102 88.5238C34.3976 88.5238 31.2211 91.7003 31.2211 95.613V98.3654H25.068V95.613C25.068 93.6607 24.2759 91.8923 22.9957 90.6041C21.7155 89.3239 19.9472 88.5238 17.9788 88.5238C14.0662 88.5238 10.8896 91.7003 10.8896 95.613V98.3654H0.959961V85.1232H3.76043C5.72076 85.1232 7.48906 84.3311 8.77728 83.0509C10.0655 81.7707 10.8496 80.0023 10.8496 78.034C10.8496 74.1134 7.68109 70.9448 3.76043 70.9448H0.959961V64.7918H3.76043C5.72076 64.7918 7.48906 63.9997 8.77728 62.7194C10.0575 61.4392 10.8496 59.6629 10.8496 57.7026C10.8496 53.7819 7.68109 50.6134 3.76043 50.6134H0.959961V44.4604H3.76043C5.72076 44.4604 7.48906 43.6682 8.77728 42.388C10.0655 41.1078 10.8496 39.3395 10.8496 37.3712C10.8496 33.4505 7.68109 30.282 3.76043 30.282H0.959961V24.1289H3.76043C5.72076 24.1289 7.48906 23.3368 8.77728 22.0566C10.0655 20.7764 10.8496 19.0001 10.8496 17.0398C10.8496 13.1191 7.68109 9.95056 3.76043 9.95056H0.959961V0.25293H10.9456V2.67734C10.9456 6.598 14.1142 9.76653 18.0268 9.76653C21.9395 9.76653 25.116 6.598 25.116 2.67734V0.25293H31.2611V2.67734C31.2611 6.598 34.4376 9.76653 38.3503 9.76653C42.2629 9.76653 45.4314 6.598 45.4314 2.67734V0.25293H51.5925V2.67734C51.5925 6.598 54.761 9.76653 58.6737 9.76653C62.5863 9.76653 65.7629 6.598 65.7629 2.67734V0.25293H71.9079V2.67734C71.9079 6.598 75.0844 9.76653 78.9971 9.76653C82.9098 9.76653 86.0783 6.598 86.0783 2.67734V0.25293H96.064V9.95056H93.2635C89.3428 9.95056 86.1743 13.1191 86.1743 17.0398H86.1983Z" fill="#AFCA0B"/>
<path d="M81.8458 12.751V84.203H16.7148V12.751C16.7148 12.751 16.7308 12.751 16.7388 12.751H81.8378H81.8458Z" fill="#BBE1FE"/>
<path d="M81.8458 12.7587V84.2267H16.7148V12.7587C16.7148 12.7587 16.7308 12.7347 16.7388 12.7587H81.8378H81.8458Z" fill="#4E83E8"/>
<path d="M78.933 61.015H67.227C66.2588 59.5188 65.6987 57.7344 65.6987 55.8221C65.6987 50.5252 69.9955 46.2285 75.2923 46.2285C77.8208 46.2285 80.1252 47.2047 81.8374 48.8129V58.1105C81.8374 59.7188 80.5332 61.015 78.933 61.015Z" fill="#F4A669"/>
<path d="M81.8378 58.0703H16.7148V70.7925H81.8378V58.0703Z" fill="#BBE1FE"/>
<path d="M81.8378 70.793H16.7148V84.2272H81.8378V70.793Z" fill="#F9AB4B"/>
<path d="M64.899 36.2503C64.899 37.5945 63.8108 38.6827 62.4666 38.6827C61.1224 38.6827 60.0342 37.5945 60.0342 36.2503C60.0342 34.9061 61.1224 33.8179 62.4666 33.8179C63.8108 33.8179 64.899 34.9061 64.899 36.2503Z" fill="white"/>
<path d="M71.3643 36.2503C71.3643 37.5945 70.2761 38.6827 68.9319 38.6827C67.5877 38.6827 66.4995 37.5945 66.4995 36.2503C66.4995 34.9061 67.5877 33.8179 68.9319 33.8179C70.2761 33.8179 71.3643 34.9061 71.3643 36.2503Z" fill="white"/>
<path d="M68.9316 35.4023C68.9316 37.0826 67.5714 38.4428 65.8911 38.4428C64.2108 38.4428 62.8506 37.0826 62.8506 35.4023C62.8506 33.722 64.2108 32.3618 65.8911 32.3618C67.5714 32.3618 68.9316 33.722 68.9316 35.4023Z" fill="white"/>
<path d="M69.0438 35.7944H62.3066V38.6829H69.0438V35.7944Z" fill="white"/>
<path d="M38.9263 53.2376C37.9021 53.2376 37.366 52.5175 37.054 51.9414C36.7419 52.5095 36.2058 53.2376 35.1817 53.2376C34.1575 53.2376 33.6294 52.5175 33.3094 51.9494C32.9973 52.5175 32.4612 53.2376 31.437 53.2376C30.2048 53.2376 29.6767 52.1814 29.3967 51.6213C29.3487 51.5333 29.2927 51.4133 29.2447 51.3253C28.7166 51.1813 28.3325 50.7012 28.3325 50.1331C28.3325 49.453 28.8846 48.9009 29.5647 48.9009C30.5809 48.9009 31.117 49.621 31.437 50.1891C31.7491 49.621 32.2852 48.9009 33.3094 48.9009C34.3335 48.9009 34.8616 49.621 35.1817 50.1891C35.4937 49.621 36.0298 48.9009 37.054 48.9009C38.2862 48.9009 38.8143 49.9571 39.0943 50.5172C39.1423 50.6052 39.1983 50.7252 39.2464 50.8132C39.7744 50.9572 40.1585 51.4373 40.1585 52.0054C40.1585 52.6855 39.6064 53.2376 38.9263 53.2376Z" fill="white"/>
<path d="M48.5198 72.8172C47.7276 72.8172 47.2476 72.3532 46.9435 71.9051C46.6395 72.3532 46.1594 72.8172 45.3673 72.8172C44.5751 72.8172 44.095 72.3532 43.791 71.9131C43.4869 72.3612 43.0069 72.8172 42.2147 72.8172C41.0545 72.8172 40.5584 71.8251 40.3264 71.345C40.3024 71.297 40.2704 71.233 40.2384 71.169C39.7583 71.0009 39.4062 70.5449 39.4062 70.0008C39.4062 69.3206 39.9583 68.7686 40.6385 68.7686C41.4306 68.7686 41.9107 69.2326 42.2147 69.6727C42.5188 69.2246 42.9989 68.7686 43.791 68.7686C44.5831 68.7686 45.0632 69.2326 45.3673 69.6807C45.6713 69.2326 46.1514 68.7686 46.9435 68.7686C48.1037 68.7686 48.5998 69.7607 48.8398 70.2408C48.8638 70.2888 48.8958 70.3528 48.9279 70.4168C49.4079 70.5849 49.76 71.0409 49.76 71.585C49.76 72.2651 49.2079 72.8172 48.5278 72.8172H48.5198Z" fill="white"/>
<path d="M72.3723 67.1361C71.5802 67.1361 71.1001 66.672 70.7961 66.2239C70.492 66.672 70.0119 67.1361 69.2198 67.1361C68.4277 67.1361 67.9476 66.672 67.6435 66.2319C67.3395 66.68 66.8594 67.1361 66.0673 67.1361C64.9071 67.1361 64.411 66.1439 64.1789 65.6638C64.1549 65.6158 64.1229 65.5518 64.0909 65.4878C63.6108 65.3198 63.2588 64.8637 63.2588 64.3196C63.2588 63.6395 63.8109 63.0874 64.491 63.0874C65.2831 63.0874 65.7632 63.5515 66.0673 63.9916C66.3713 63.5435 66.8514 63.0874 67.6435 63.0874C68.4357 63.0874 68.9157 63.5515 69.2198 63.9996C69.5238 63.5515 70.0039 63.0874 70.7961 63.0874C71.9563 63.0874 72.4523 64.0796 72.6924 64.5597C72.7164 64.6077 72.7484 64.6717 72.7804 64.7357C73.2605 64.9037 73.6125 65.3598 73.6125 65.9039C73.6125 66.584 73.0604 67.1361 72.3803 67.1361H72.3723Z" fill="white"/>
<path d="M21.2031 58.0706L32.9891 25.4331L51.8163 58.0706H21.2031Z" fill="#AD3E2A"/>
<path d="M69.5078 58.071H38.9106L45.8558 46.229L50.6966 37.9556L58.4259 46.229L69.5078 58.071Z" fill="#AD3E2A"/>
<path d="M35.198 33.1305C35.198 35.3228 33.4137 37.1071 31.2213 37.1071C29.0289 37.1071 27.2446 35.3228 27.2446 33.1305C27.2446 30.9381 29.0209 29.1538 31.2213 29.1538C33.4217 29.1538 35.198 30.9381 35.198 33.1305Z" fill="white"/>
<path d="M45.7678 33.1305C45.7678 35.3228 43.9915 37.1071 41.7911 37.1071C39.5907 37.1071 37.8145 35.3228 37.8145 33.1305C37.8145 30.9381 39.5907 29.1538 41.7911 29.1538C43.9915 29.1538 45.7678 30.9381 45.7678 33.1305Z" fill="white"/>
<path d="M36.8224 36.7072C39.5666 36.7072 41.7912 34.4826 41.7912 31.7384C41.7912 28.9942 39.5666 26.7695 36.8224 26.7695C34.0781 26.7695 31.8535 28.9942 31.8535 31.7384C31.8535 34.4826 34.0781 36.7072 36.8224 36.7072Z" fill="white"/>
<path d="M41.9669 32.3867H30.957V37.1075H41.9669V32.3867Z" fill="white"/>
<path d="M40.2867 60.2469C39.2625 60.2469 38.7264 59.5268 38.4143 58.9507C38.1023 59.5188 37.5662 60.2469 36.542 60.2469C35.5179 60.2469 34.9898 59.5268 34.6697 58.9587C34.3577 59.5268 33.8216 60.2469 32.7974 60.2469C31.5652 60.2469 31.0371 59.1907 30.7571 58.6306C30.709 58.5426 30.653 58.4226 30.605 58.3346C30.0769 58.1905 29.6929 57.7105 29.6929 57.1424C29.6929 56.4622 30.245 55.9102 30.9251 55.9102C31.9413 55.9102 32.4773 56.6303 32.7974 57.1984C33.1094 56.6303 33.6455 55.9102 34.6697 55.9102C35.6939 55.9102 36.222 56.6303 36.542 57.1984C36.8541 56.6303 37.3902 55.9102 38.4143 55.9102C39.6465 55.9102 40.1746 56.9663 40.4547 57.5264C40.5027 57.6144 40.5587 57.7345 40.6067 57.8225C41.1348 57.9665 41.5189 58.4466 41.5189 59.0147C41.5189 59.6948 40.9668 60.2469 40.2867 60.2469Z" fill="white"/>
<path d="M40.2867 60.2469C39.2625 60.2469 38.7264 59.5268 38.4143 58.9507C38.1023 59.5188 37.5662 60.2469 36.542 60.2469C35.5179 60.2469 34.9898 59.5268 34.6697 58.9587C34.3577 59.5268 33.8216 60.2469 32.7974 60.2469C31.5652 60.2469 31.0371 59.1907 30.7571 58.6306C30.709 58.5426 30.653 58.4226 30.605 58.3346C30.0769 58.1905 29.6929 57.7105 29.6929 57.1424C29.6929 56.4622 30.245 55.9102 30.9251 55.9102C31.9413 55.9102 32.4773 56.6303 32.7974 57.1984C33.1094 56.6303 33.6455 55.9102 34.6697 55.9102C35.6939 55.9102 36.222 56.6303 36.542 57.1984C36.8541 56.6303 37.3902 55.9102 38.4143 55.9102C39.6465 55.9102 40.1746 56.9663 40.4547 57.5264C40.5027 57.6144 40.5587 57.7345 40.6067 57.8225C41.1348 57.9665 41.5189 58.4466 41.5189 59.0147C41.5189 59.6948 40.9668 60.2469 40.2867 60.2469Z" fill="white"/>
<path d="M58.4256 46.229H45.8555L50.6963 37.9556L58.4256 46.229Z" fill="white"/>
<path d="M40.5345 33.2825H27.9644L32.8052 25.0171L40.5345 33.2825Z" fill="white"/>
</g>
<defs>
<clipPath id="clip0_3140_9414">
<rect width="95.12" height="98.1045" fill="white" transform="translate(0.959961 0.25293)"/>
</clipPath>
</defs>
</svg>
