<svg width="96" height="99" viewBox="0 0 96 99" fill="none" xmlns="http://www.w3.org/2000/svg">
<g clip-path="url(#clip0_4551_3817)">
<path d="M86.1182 17.0398C86.1182 20.9604 89.2868 24.1289 93.2074 24.1289H96.0079V30.282H93.2074C89.2868 30.282 86.1182 33.4505 86.1182 37.3712C86.1182 41.2918 89.2868 44.4604 93.2074 44.4604H96.0079V50.6134H93.2074C89.2868 50.6134 86.1182 53.7819 86.1182 57.7026C86.1182 61.6233 89.2868 64.7918 93.2074 64.7918H96.0079V70.9448H93.2074C89.2868 70.9448 86.1182 74.1134 86.1182 78.034C86.1182 81.9547 89.2868 85.1232 93.2074 85.1232H96.0079V98.3654H85.9822V95.613C85.9822 93.6607 85.1901 91.8923 83.9099 90.6041C82.6296 89.3239 80.8533 88.5238 78.893 88.5238C74.9804 88.5238 71.8038 91.7003 71.8038 95.613V98.3654H65.6508V95.613C65.6508 93.6607 64.8587 91.8923 63.5784 90.6041C62.2982 89.3239 60.5299 88.5238 58.5616 88.5238C54.6489 88.5238 51.4724 91.7003 51.4724 95.613V98.3654H45.3194V95.613C45.3194 93.6607 44.5272 91.8923 43.247 90.6041C41.9668 89.3239 40.1905 88.5238 38.2302 88.5238C34.3175 88.5238 31.141 91.7003 31.141 95.613V98.3654H24.9879V95.613C24.9879 93.6607 24.1958 91.8923 22.9156 90.6041C21.6354 89.3239 19.8671 88.5238 17.8987 88.5238C13.9861 88.5238 10.8096 91.7003 10.8096 95.613V98.3654H0.879883V85.1232H3.68035C5.64068 85.1232 7.40898 84.3311 8.6972 83.0509C9.98542 81.7707 10.7695 80.0023 10.7695 78.034C10.7695 74.1134 7.60101 70.9448 3.68035 70.9448H0.879883V64.7918H3.68035C5.64068 64.7918 7.40898 63.9997 8.6972 62.7194C9.97741 61.4392 10.7695 59.6629 10.7695 57.7026C10.7695 53.7819 7.60101 50.6134 3.68035 50.6134H0.879883V44.4604H3.68035C5.64068 44.4604 7.40898 43.6682 8.6972 42.388C9.98542 41.1078 10.7695 39.3395 10.7695 37.3712C10.7695 33.4505 7.60101 30.282 3.68035 30.282H0.879883V24.1289H3.68035C5.64068 24.1289 7.40898 23.3368 8.6972 22.0566C9.98542 20.7764 10.7695 19.0001 10.7695 17.0398C10.7695 13.1191 7.60101 9.95056 3.68035 9.95056H0.879883V0.25293H10.8656V2.67734C10.8656 6.598 14.0341 9.76653 17.9468 9.76653C21.8594 9.76653 25.0359 6.598 25.0359 2.67734V0.25293H31.181V2.67734C31.181 6.598 34.3575 9.76653 38.2702 9.76653C42.1828 9.76653 45.3514 6.598 45.3514 2.67734V0.25293H51.5124V2.67734C51.5124 6.598 54.6809 9.76653 58.5936 9.76653C62.5063 9.76653 65.6828 6.598 65.6828 2.67734V0.25293H71.8278V2.67734C71.8278 6.598 75.0044 9.76653 78.917 9.76653C82.8297 9.76653 85.9982 6.598 85.9982 2.67734V0.25293H95.9839V9.95056H93.1834C89.2628 9.95056 86.0942 13.1191 86.0942 17.0398H86.1182Z" fill="#D0D0D0"/>
<path d="M81.7655 12.751V84.203H16.6345V12.751C16.6345 12.751 16.6505 12.751 16.6585 12.751H81.7575H81.7655Z" fill="#D7D7D7"/>
<path d="M81.7655 12.7592V84.2272H16.6345V12.7592C16.6345 12.7592 16.6505 12.7352 16.6585 12.7592H81.7575H81.7655Z" fill="#AAAAAA"/>
<path d="M78.8531 61.015H67.1472C66.179 59.5188 65.6189 57.7344 65.6189 55.8221C65.6189 50.5252 69.9156 46.2285 75.2125 46.2285C77.7409 46.2285 80.0453 47.2047 81.7576 48.8129V58.1105C81.7576 59.7188 80.4534 61.015 78.8531 61.015Z" fill="#CCCCCC"/>
<path d="M81.7575 58.0708H16.6345V70.7929H81.7575V58.0708Z" fill="#D7D7D7"/>
<path d="M81.7575 70.793H16.6345V84.2272H81.7575V70.793Z" fill="#EBEBEB"/>
<path d="M64.8189 36.2508C64.8189 37.595 63.7307 38.6832 62.3865 38.6832C61.0423 38.6832 59.9541 37.595 59.9541 36.2508C59.9541 34.9065 61.0423 33.8184 62.3865 33.8184C63.7307 33.8184 64.8189 34.9065 64.8189 36.2508Z" fill="white"/>
<path d="M71.284 36.2508C71.284 37.595 70.1958 38.6832 68.8516 38.6832C67.5074 38.6832 66.4192 37.595 66.4192 36.2508C66.4192 34.9065 67.5074 33.8184 68.8516 33.8184C70.1958 33.8184 71.284 34.9065 71.284 36.2508Z" fill="white"/>
<path d="M68.8515 35.4028C68.8515 37.0831 67.4913 38.4433 65.811 38.4433C64.1307 38.4433 62.7705 37.0831 62.7705 35.4028C62.7705 33.7225 64.1307 32.3623 65.811 32.3623C67.4913 32.3623 68.8515 33.7225 68.8515 35.4028Z" fill="white"/>
<path d="M68.9637 35.7949H62.2266V38.6834H68.9637V35.7949Z" fill="white"/>
<path d="M38.8465 53.2376C37.8223 53.2376 37.2862 52.5175 36.9742 51.9414C36.6621 52.5095 36.126 53.2376 35.1018 53.2376C34.0777 53.2376 33.5496 52.5175 33.2295 51.9494C32.9175 52.5175 32.3814 53.2376 31.3572 53.2376C30.125 53.2376 29.5969 52.1814 29.3169 51.6213C29.2689 51.5333 29.2128 51.4133 29.1648 51.3253C28.6367 51.1813 28.2527 50.7012 28.2527 50.1331C28.2527 49.453 28.8048 48.9009 29.4849 48.9009C30.5011 48.9009 31.0372 49.621 31.3572 50.1891C31.6693 49.621 32.2054 48.9009 33.2295 48.9009C34.2537 48.9009 34.7818 49.621 35.1018 50.1891C35.4139 49.621 35.95 48.9009 36.9742 48.9009C38.2064 48.9009 38.7344 49.9571 39.0145 50.5172C39.0625 50.6052 39.1185 50.7252 39.1665 50.8132C39.6946 50.9572 40.0787 51.4373 40.0787 52.0054C40.0787 52.6855 39.5266 53.2376 38.8465 53.2376Z" fill="white"/>
<path d="M48.4399 72.8172C47.6478 72.8172 47.1677 72.3532 46.8637 71.9051C46.5596 72.3532 46.0796 72.8172 45.2874 72.8172C44.4953 72.8172 44.0152 72.3532 43.7112 71.9131C43.4071 72.3612 42.927 72.8172 42.1349 72.8172C40.9747 72.8172 40.4786 71.8251 40.2466 71.345C40.2226 71.297 40.1906 71.233 40.1586 71.169C39.6785 71.0009 39.3264 70.5449 39.3264 70.0008C39.3264 69.3206 39.8785 68.7686 40.5586 68.7686C41.3508 68.7686 41.8308 69.2326 42.1349 69.6727C42.4389 69.2246 42.919 68.7686 43.7112 68.7686C44.5033 68.7686 44.9834 69.2326 45.2874 69.6807C45.5915 69.2326 46.0716 68.7686 46.8637 68.7686C48.0239 68.7686 48.52 69.7607 48.76 70.2408C48.784 70.2888 48.816 70.3528 48.848 70.4168C49.3281 70.5849 49.6802 71.0409 49.6802 71.585C49.6802 72.2651 49.1281 72.8172 48.448 72.8172H48.4399Z" fill="white"/>
<path d="M72.292 67.1361C71.4999 67.1361 71.0198 66.672 70.7157 66.2239C70.4117 66.672 69.9316 67.1361 69.1395 67.1361C68.3473 67.1361 67.8673 66.672 67.5632 66.2319C67.2592 66.68 66.7791 67.1361 65.9869 67.1361C64.8267 67.1361 64.3307 66.1439 64.0986 65.6638C64.0746 65.6158 64.0426 65.5518 64.0106 65.4878C63.5305 65.3198 63.1785 64.8637 63.1785 64.3196C63.1785 63.6395 63.7306 63.0874 64.4107 63.0874C65.2028 63.0874 65.6829 63.5515 65.9869 63.9916C66.291 63.5435 66.7711 63.0874 67.5632 63.0874C68.3553 63.0874 68.8354 63.5515 69.1395 63.9996C69.4435 63.5515 69.9236 63.0874 70.7157 63.0874C71.8759 63.0874 72.372 64.0796 72.6121 64.5597C72.6361 64.6077 72.6681 64.6717 72.7001 64.7357C73.1802 64.9037 73.5322 65.3598 73.5322 65.9039C73.5322 66.584 72.9801 67.1361 72.3 67.1361H72.292Z" fill="white"/>
<path d="M21.1235 58.0706L32.9095 25.4331L51.7367 58.0706H21.1235Z" fill="#939393"/>
<path d="M69.4275 58.0705H38.8303L45.7755 46.2285L50.6163 37.9551L58.3456 46.2285L69.4275 58.0705Z" fill="#939393"/>
<path d="M35.1179 33.1305C35.1179 35.3228 33.3336 37.1071 31.1412 37.1071C28.9489 37.1071 27.1646 35.3228 27.1646 33.1305C27.1646 30.9381 28.9409 29.1538 31.1412 29.1538C33.3416 29.1538 35.1179 30.9381 35.1179 33.1305Z" fill="white"/>
<path d="M45.6875 33.1305C45.6875 35.3228 43.9112 37.1071 41.7108 37.1071C39.5104 37.1071 37.7341 35.3228 37.7341 33.1305C37.7341 30.9381 39.5104 29.1538 41.7108 29.1538C43.9112 29.1538 45.6875 30.9381 45.6875 33.1305Z" fill="white"/>
<path d="M36.742 36.7072C39.4862 36.7072 41.7109 34.4826 41.7109 31.7384C41.7109 28.9942 39.4862 26.7695 36.742 26.7695C33.9978 26.7695 31.7732 28.9942 31.7732 31.7384C31.7732 34.4826 33.9978 36.7072 36.742 36.7072Z" fill="white"/>
<path d="M41.8868 32.3867H30.877V37.1075H41.8868V32.3867Z" fill="white"/>
<path d="M40.2066 60.2469C39.1824 60.2469 38.6463 59.5268 38.3343 58.9507C38.0222 59.5188 37.4861 60.2469 36.4619 60.2469C35.4378 60.2469 34.9097 59.5268 34.5896 58.9587C34.2776 59.5268 33.7415 60.2469 32.7173 60.2469C31.4851 60.2469 30.957 59.1907 30.677 58.6306C30.629 58.5426 30.573 58.4226 30.5249 58.3346C29.9969 58.1905 29.6128 57.7105 29.6128 57.1424C29.6128 56.4622 30.1649 55.9102 30.845 55.9102C31.8612 55.9102 32.3973 56.6303 32.7173 57.1984C33.0294 56.6303 33.5655 55.9102 34.5896 55.9102C35.6138 55.9102 36.1419 56.6303 36.4619 57.1984C36.774 56.6303 37.3101 55.9102 38.3343 55.9102C39.5665 55.9102 40.0946 56.9663 40.3746 57.5264C40.4226 57.6144 40.4786 57.7345 40.5266 57.8225C41.0547 57.9665 41.4388 58.4466 41.4388 59.0147C41.4388 59.6948 40.8867 60.2469 40.2066 60.2469Z" fill="white"/>
<path d="M40.2066 60.2469C39.1824 60.2469 38.6463 59.5268 38.3343 58.9507C38.0222 59.5188 37.4861 60.2469 36.4619 60.2469C35.4378 60.2469 34.9097 59.5268 34.5896 58.9587C34.2776 59.5268 33.7415 60.2469 32.7173 60.2469C31.4851 60.2469 30.957 59.1907 30.677 58.6306C30.629 58.5426 30.573 58.4226 30.5249 58.3346C29.9969 58.1905 29.6128 57.7105 29.6128 57.1424C29.6128 56.4622 30.1649 55.9102 30.845 55.9102C31.8612 55.9102 32.3973 56.6303 32.7173 57.1984C33.0294 56.6303 33.5655 55.9102 34.5896 55.9102C35.6138 55.9102 36.1419 56.6303 36.4619 57.1984C36.774 56.6303 37.3101 55.9102 38.3343 55.9102C39.5665 55.9102 40.0946 56.9663 40.3746 57.5264C40.4226 57.6144 40.4786 57.7345 40.5266 57.8225C41.0547 57.9665 41.4388 58.4466 41.4388 59.0147C41.4388 59.6948 40.8867 60.2469 40.2066 60.2469Z" fill="white"/>
<path d="M58.3457 46.2285H45.7756L50.6164 37.9551L58.3457 46.2285Z" fill="white"/>
<path d="M40.4546 33.2825H27.8845L32.7253 25.0171L40.4546 33.2825Z" fill="white"/>
</g>
<defs>
<clipPath id="clip0_4551_3817">
<rect width="95.12" height="98.1045" fill="white" transform="translate(0.879883 0.25293)"/>
</clipPath>
</defs>
</svg>
