<svg width="96" height="108" viewBox="0 0 96 108" fill="none" xmlns="http://www.w3.org/2000/svg">
<g clip-path="url(#clip0_3188_10613)">
<path d="M18.2346 1.20228H84.8482C90.3094 1.20228 94.7396 5.6325 94.7396 11.0937V97.6641C94.7396 103.125 90.3094 107.556 84.8482 107.556H18.2346C12.7735 107.556 8.34326 103.125 8.34326 97.6641V11.0867C8.34326 5.62554 12.7735 1.19531 18.2346 1.19531V1.20228Z" fill="#6C6C6C"/>
<path d="M10.1961 1.20228H76.8096C82.2708 1.20228 86.701 5.6325 86.701 11.0937V97.6641C86.701 103.125 82.2708 107.556 76.8096 107.556H10.1961C4.73491 107.556 0.304688 103.125 0.304688 97.6641V11.0867C0.304688 5.62554 4.73491 1.19531 10.1961 1.19531V1.20228Z" fill="#D0D0D0"/>
<path d="M77.6387 6.13477H16.6743C15.4009 6.13477 14.3687 7.16705 14.3687 8.44043V93.9869C14.3687 95.2603 15.4009 96.2926 16.6743 96.2926H77.6387C78.912 96.2926 79.9443 95.2603 79.9443 93.9869V8.44043C79.9443 7.16705 78.912 6.13477 77.6387 6.13477Z" fill="#D0D0D0"/>
<path d="M71.6133 6.13477H10.6489C9.37554 6.13477 8.34326 7.16705 8.34326 8.44043V93.9869C8.34326 95.2603 9.37554 96.2926 10.6489 96.2926H71.6133C72.8867 96.2926 73.9189 95.2603 73.9189 93.9869V8.44043C73.9189 7.16705 72.8867 6.13477 71.6133 6.13477Z" fill="white"/>
<path d="M65.0099 23.1234H56.6301C55.8708 23.1234 55.2578 22.5104 55.2578 21.7512C55.2578 20.9919 55.8708 20.3789 56.6301 20.3789H65.0099C65.7691 20.3789 66.3821 20.9919 66.3821 21.7512C66.3821 22.5104 65.7691 23.1234 65.0099 23.1234Z" fill="#D0D0D0"/>
<path d="M45.7424 23.1234H17.9977C17.2385 23.1234 16.6255 22.5104 16.6255 21.7512C16.6255 20.9919 17.2385 20.3789 17.9977 20.3789H45.7424C46.5016 20.3789 47.1146 20.9919 47.1146 21.7512C47.1146 22.5104 46.5016 23.1234 45.7424 23.1234Z" fill="#D0D0D0"/>
<path d="M65.0097 32.4369H17.9977C17.2385 32.4369 16.6255 31.8239 16.6255 31.0646C16.6255 30.3054 17.2385 29.6924 17.9977 29.6924H65.0097C65.7689 29.6924 66.3819 30.3054 66.3819 31.0646C66.3819 31.8239 65.7689 32.4369 65.0097 32.4369Z" fill="#D0D0D0"/>
<path d="M65.0095 41.7572H41.507C40.7478 41.7572 40.1348 41.1442 40.1348 40.385C40.1348 39.6257 40.7478 39.0127 41.507 39.0127H65.0095C65.7688 39.0127 66.3818 39.6257 66.3818 40.385C66.3818 41.1442 65.7688 41.7572 65.0095 41.7572Z" fill="#D0D0D0"/>
<path d="M30.3689 41.7572H17.9977C17.2385 41.7572 16.6255 41.1442 16.6255 40.385C16.6255 39.6257 17.2385 39.0127 17.9977 39.0127H30.3689C31.1282 39.0127 31.7412 39.6257 31.7412 40.385C31.7412 41.1442 31.1282 41.7572 30.3689 41.7572Z" fill="#D0D0D0"/>
<path d="M65.0097 51.0775H17.9977C17.2385 51.0775 16.6255 50.4645 16.6255 49.7053C16.6255 48.946 17.2385 48.333 17.9977 48.333H65.0097C65.7689 48.333 66.3819 48.946 66.3819 49.7053C66.3819 50.4645 65.7689 51.0775 65.0097 51.0775Z" fill="#D0D0D0"/>
<path d="M65.0096 60.391H56.5671C55.8078 60.391 55.1948 59.778 55.1948 59.0187C55.1948 58.2595 55.8078 57.6465 56.5671 57.6465H65.0096C65.7688 57.6465 66.3818 58.2595 66.3818 59.0187C66.3818 59.778 65.7688 60.391 65.0096 60.391Z" fill="#D0D0D0"/>
<path d="M46.216 60.391H17.9977C17.2385 60.391 16.6255 59.778 16.6255 59.0187C16.6255 58.2595 17.2385 57.6465 17.9977 57.6465H46.216C46.9753 57.6465 47.5883 58.2595 47.5883 59.0187C47.5883 59.778 46.9753 60.391 46.216 60.391Z" fill="#D0D0D0"/>
<path d="M65.0096 69.7103H48.1315C47.3723 69.7103 46.7593 69.0973 46.7593 68.3381C46.7593 67.5788 47.3723 66.9658 48.1315 66.9658H65.0096C65.7688 66.9658 66.3818 67.5788 66.3818 68.3381C66.3818 69.0973 65.7688 69.7103 65.0096 69.7103Z" fill="#D0D0D0"/>
<path d="M37.3138 69.7103H17.9977C17.2385 69.7103 16.6255 69.0973 16.6255 68.3381C16.6255 67.5788 17.2385 66.9658 17.9977 66.9658H37.3138C38.0731 66.9658 38.6861 67.5788 38.6861 68.3381C38.6861 69.0973 38.0731 69.7103 37.3138 69.7103Z" fill="#D0D0D0"/>
<path d="M65.0096 79.0238H48.1315C47.3723 79.0238 46.7593 78.4108 46.7593 77.6516C46.7593 76.8923 47.3723 76.2793 48.1315 76.2793H65.0096C65.7688 76.2793 66.3818 76.8923 66.3818 77.6516C66.3818 78.4108 65.7688 79.0238 65.0096 79.0238Z" fill="#D0D0D0"/>
</g>
<defs>
<clipPath id="clip0_3188_10613">
<rect width="94.7343" height="106.576" fill="white" transform="translate(0.304688 0.972656)"/>
</clipPath>
</defs>
</svg>
