<svg width="68" height="68" viewBox="0 0 68 68" fill="none" xmlns="http://www.w3.org/2000/svg">
<circle cx="34" cy="34" r="33.5" fill="#AFCA0B"/>
<path d="M28.4165 41.7609L21.9584 35.3028C21.6104 34.9548 21.1385 34.7593 20.6463 34.7593C20.1542 34.7593 19.6822 34.9548 19.3343 35.3028C18.9863 35.6508 18.7908 36.1228 18.7908 36.6149C18.7908 36.8586 18.8388 37.0998 18.932 37.325C19.0253 37.5501 19.1619 37.7547 19.3343 37.927L27.1137 45.7064C27.8395 46.4322 29.012 46.4322 29.7379 45.7064L49.4284 26.0159C49.7764 25.6679 49.9719 25.1959 49.9719 24.7038C49.9719 24.2116 49.7764 23.7397 49.4284 23.3917C49.0804 23.0437 48.6085 22.8482 48.1163 22.8482C47.6242 22.8482 47.1522 23.0437 46.8043 23.3917L28.4165 41.7609Z" fill="white"/>
</svg>
