<svg width="35" height="34" viewBox="0 0 35 34" fill="none" xmlns="http://www.w3.org/2000/svg">
<path d="M29.9119 16.9706C29.9119 15.2135 29.526 13.4778 28.7815 11.8862C28.037 10.2946 26.9521 8.88588 25.6033 7.75964L17.9119 16.9706H29.9119Z" fill="#7C3695"/>
<path d="M26.397 8.4853C25.1545 7.24283 23.6544 6.28837 22.0025 5.68937C20.3506 5.09038 18.5874 4.86145 16.8373 5.01878L17.9117 16.9706L26.397 8.4853Z" fill="#A61E48"/>
<path d="M17.9119 4.97046C16.1547 4.97046 14.4191 5.35634 12.8275 6.10083C11.2358 6.84533 9.82716 7.93027 8.70092 9.279L17.9119 16.9705L17.9119 4.97046Z" fill="#EF5326"/>
<path d="M9.42658 8.48532C8.18411 9.72779 7.22965 11.228 6.63066 12.8798C6.03166 14.5317 5.80273 16.295 5.96006 18.045L17.9119 16.9706L9.42658 8.48532Z" fill="#F89A1E"/>
<path d="M5.91187 16.9706C5.91187 18.7277 6.29775 20.4634 7.04224 22.055C7.78673 23.6466 8.87168 25.0553 10.2204 26.1815L17.9119 16.9706L5.91187 16.9706Z" fill="#CEDC37"/>
<path d="M9.42672 25.4559C10.6692 26.6983 12.1694 27.6528 13.8212 28.2518C15.4731 28.8508 17.2364 29.0797 18.9864 28.9224L17.912 16.9706L9.42672 25.4559Z" fill="#61B046"/>
<path d="M17.9119 28.9707C19.669 28.9707 21.4047 28.5848 22.9963 27.8403C24.5879 27.0958 25.9966 26.0109 27.1228 24.6622L17.9119 16.9707L17.9119 28.9707Z" fill="#1294CE"/>
<path d="M26.3971 25.4558C27.6396 24.2134 28.5941 22.7132 29.1931 21.0613C29.7921 19.4095 30.021 17.6462 29.8637 15.8961L17.9119 16.9706L26.3971 25.4558Z" fill="#3E5EAA"/>
<circle cx="17.9412" cy="17" r="5" fill="white"/>
</svg>
