<svg width="68" height="68" viewBox="0 0 68 68" fill="none" xmlns="http://www.w3.org/2000/svg">
<path d="M62.125 0.25H5.875C4.38316 0.25 2.95242 0.842632 1.89752 1.89752C0.842632 2.95242 0.25 4.38316 0.25 5.875V62.125C0.25 63.6168 0.842632 65.0476 1.89752 66.1025C2.95242 67.1574 4.38316 67.75 5.875 67.75H62.125C63.6168 67.75 65.0476 67.1574 66.1025 66.1025C67.1574 65.0476 67.75 63.6168 67.75 62.125V5.875C67.75 4.38316 67.1574 2.95242 66.1025 1.89752C65.0476 0.842632 63.6168 0.25 62.125 0.25ZM52.8648 48.8852C53.1262 49.1465 53.3334 49.4567 53.4749 49.7981C53.6163 50.1395 53.6891 50.5055 53.6891 50.875C53.6891 51.2445 53.6163 51.6105 53.4749 51.9519C53.3334 52.2933 53.1262 52.6035 52.8648 52.8648C52.6035 53.1262 52.2933 53.3334 51.9519 53.4749C51.6105 53.6163 51.2445 53.6891 50.875 53.6891C50.5055 53.6891 50.1395 53.6163 49.7981 53.4749C49.4567 53.3334 49.1465 53.1262 48.8852 52.8648L34 37.9762L19.1148 52.8648C18.5871 53.3926 17.8713 53.6891 17.125 53.6891C16.3787 53.6891 15.6629 53.3926 15.1352 52.8648C14.6074 52.3371 14.3109 51.6213 14.3109 50.875C14.3109 50.1287 14.6074 49.4129 15.1352 48.8852L30.0238 34L15.1352 19.1148C14.6074 18.5871 14.3109 17.8713 14.3109 17.125C14.3109 16.3787 14.6074 15.6629 15.1352 15.1352C15.6629 14.6074 16.3787 14.3109 17.125 14.3109C17.8713 14.3109 18.5871 14.6074 19.1148 15.1352L34 30.0238L48.8852 15.1352C49.4129 14.6074 50.1287 14.3109 50.875 14.3109C51.6213 14.3109 52.3371 14.6074 52.8648 15.1352C53.3926 15.6629 53.6891 16.3787 53.6891 17.125C53.6891 17.8713 53.3926 18.5871 52.8648 19.1148L37.9762 34L52.8648 48.8852Z" fill="#FF4B4B"/>
</svg>
