<svg width="90" height="90" viewBox="0 0 90 90" fill="none" xmlns="http://www.w3.org/2000/svg">
<path d="M73.125 11.25H16.875C15.3832 11.25 13.9524 11.8426 12.8975 12.8975C11.8426 13.9524 11.25 15.3832 11.25 16.875V73.125C11.25 74.6168 11.8426 76.0476 12.8975 77.1025C13.9524 78.1574 15.3832 78.75 16.875 78.75H73.125C74.6168 78.75 76.0476 78.1574 77.1025 77.1025C78.1574 76.0476 78.75 74.6168 78.75 73.125V16.875C78.75 15.3832 78.1574 13.9524 77.1025 12.8975C76.0476 11.8426 74.6168 11.25 73.125 11.25ZM63.8648 59.8852C64.1262 60.1465 64.3334 60.4567 64.4749 60.7981C64.6163 61.1395 64.6891 61.5055 64.6891 61.875C64.6891 62.2445 64.6163 62.6105 64.4749 62.9519C64.3334 63.2933 64.1262 63.6035 63.8648 63.8648C63.6035 64.1262 63.2933 64.3334 62.9519 64.4749C62.6105 64.6163 62.2445 64.6891 61.875 64.6891C61.5055 64.6891 61.1395 64.6163 60.7981 64.4749C60.4567 64.3334 60.1465 64.1262 59.8852 63.8648L45 48.9762L30.1148 63.8648C29.5871 64.3926 28.8713 64.6891 28.125 64.6891C27.3787 64.6891 26.6629 64.3926 26.1352 63.8648C25.6074 63.3371 25.3109 62.6213 25.3109 61.875C25.3109 61.1287 25.6074 60.4129 26.1352 59.8852L41.0238 45L26.1352 30.1148C25.6074 29.5871 25.3109 28.8713 25.3109 28.125C25.3109 27.3787 25.6074 26.6629 26.1352 26.1352C26.6629 25.6074 27.3787 25.3109 28.125 25.3109C28.8713 25.3109 29.5871 25.6074 30.1148 26.1352L45 41.0238L59.8852 26.1352C60.4129 25.6074 61.1287 25.3109 61.875 25.3109C62.6213 25.3109 63.3371 25.6074 63.8648 26.1352C64.3926 26.6629 64.6891 27.3787 64.6891 28.125C64.6891 28.8713 64.3926 29.5871 63.8648 30.1148L48.9762 45L63.8648 59.8852Z" fill="#AAAAAA"/>
</svg>
