<svg width="90" height="90" viewBox="0 0 90 90" fill="none" xmlns="http://www.w3.org/2000/svg">
<path d="M72.8421 17.1809C69.1923 13.495 64.8503 10.5666 60.0654 8.56392C55.2805 6.56122 50.147 5.52369 44.9599 5.51092C39.7729 5.49816 34.6344 6.51041 29.8397 8.48953C25.045 10.4687 20.6885 13.3756 17.0207 17.0435C13.3529 20.7113 10.4459 25.0677 8.46676 29.8624C6.48764 34.6571 5.47539 39.7956 5.48816 44.9827C5.50092 50.1698 6.53846 55.3033 8.54116 60.0882C10.5439 64.8731 13.4722 69.2151 17.1581 72.8648C20.8078 76.5507 25.1499 79.4791 29.9348 81.4818C34.7197 83.4845 39.8531 84.522 45.0402 84.5348C50.2273 84.5476 55.3658 83.5353 60.1605 81.5562C64.9552 79.5771 69.3116 76.6701 72.9795 73.0022C76.6473 69.3344 79.5543 64.978 81.5334 60.1833C83.5125 55.3886 84.5248 50.2501 84.512 45.063C84.4993 39.8759 83.4617 34.7425 81.459 29.9576C79.4563 25.1726 76.5279 20.8306 72.8421 17.1809ZM11.2501 45.0229C11.2488 42.0358 11.6449 39.0619 12.4278 36.1793C13.7181 38.9566 15.5919 41.3561 16.8663 44.2055C18.5134 47.8688 22.936 46.8527 24.889 50.0625C26.6222 52.9119 24.7712 56.5154 26.0684 59.4967C27.0106 61.6606 29.2325 62.1334 30.7653 63.7154C32.3315 65.3115 32.2981 67.4982 32.5372 69.5795C32.807 72.0248 33.2445 74.4487 33.8468 76.834C33.8468 76.8516 33.8468 76.8709 33.8608 76.8885C20.7071 72.269 11.2501 59.7305 11.2501 45.0229ZM45.0001 78.7729C43.1153 78.7723 41.2338 78.6147 39.3751 78.3018C39.3944 77.8254 39.4032 77.3807 39.4507 77.0713C39.8778 74.2764 41.277 71.543 43.1649 69.4512C45.03 67.3875 47.5858 65.9918 49.1608 63.6504C50.7042 61.3652 51.1665 58.2891 50.5302 55.619C49.5933 51.6744 44.2337 50.3578 41.3438 48.2186C39.6827 46.9881 38.2044 45.0861 36.0229 44.9314C35.0175 44.8611 34.1755 45.0773 33.1788 44.8207C32.2647 44.5834 31.5476 44.0912 30.5737 44.2195C28.7544 44.4586 27.6065 46.4027 25.6518 46.1391C23.7974 45.8912 21.8866 43.7203 21.4647 41.9537C20.9233 39.6826 22.7198 38.9461 24.6446 38.7439C25.4479 38.6596 26.3497 38.5682 27.1214 38.8635C28.1374 39.2397 28.6173 40.2346 29.5296 40.7373C31.2399 41.676 31.5862 40.1766 31.3243 38.6578C30.9323 36.3832 30.4753 35.4568 32.5038 33.8906C33.9101 32.8113 35.1124 32.0309 34.8874 30.092C34.7538 28.9529 34.1298 28.4379 34.7116 27.3041C35.1528 26.441 36.364 25.6623 37.1532 25.1473C39.1905 23.8184 45.8808 23.9168 43.1474 20.1973C42.344 19.1057 40.8622 17.1545 39.456 16.8873C37.6981 16.5551 36.9177 18.5168 35.6925 19.3816C34.4268 20.2764 31.9624 21.2924 30.695 19.909C28.9899 18.0475 31.8253 17.4375 32.4528 16.1367C32.7429 15.5303 32.4528 14.6883 31.9642 13.8955C32.5981 13.6283 33.2427 13.3805 33.8977 13.152C34.3083 13.4552 34.7953 13.6378 35.304 13.6793C36.48 13.7566 37.5891 13.1203 38.6157 13.9219C39.7548 14.8008 40.5757 15.9117 42.0874 16.1859C43.5499 16.4514 45.0985 15.5988 45.4606 14.1012C45.6804 13.1906 45.4606 12.2291 45.2497 11.2887C51.824 11.3265 58.2422 13.2954 63.7067 16.9506C63.3552 16.817 62.9351 16.8328 62.4165 17.0736C61.3495 17.5693 59.8378 18.8315 59.713 20.083C59.5706 21.5033 61.6659 21.7037 62.6608 21.7037C64.155 21.7037 65.6685 21.0357 65.1868 19.3096C64.9776 18.5607 64.6929 17.782 64.2341 17.3109C65.3369 18.0762 66.3935 18.9062 67.3981 19.7965C67.3823 19.8123 67.3665 19.8264 67.3507 19.844C66.3382 20.8986 65.1622 21.7336 64.4696 23.0168C63.981 23.9203 63.4308 24.3492 62.4411 24.583C61.8962 24.7113 61.2739 24.7588 60.8169 25.1244C59.5442 26.1264 60.2685 28.5346 61.4743 29.257C62.9983 30.1693 65.2589 29.7404 66.4085 28.4379C67.3067 27.4184 67.8358 25.6482 69.4513 25.65C70.1625 25.6485 70.8457 25.927 71.3532 26.4252C72.0212 27.1178 71.8894 27.7647 72.0317 28.6295C72.2831 30.1658 73.6384 29.3326 74.4628 28.5574C75.0637 29.6269 75.6059 30.7283 76.087 31.8568C75.18 33.1629 74.4593 34.5867 72.2778 33.0645C70.9718 32.1522 70.1684 30.8285 68.5284 30.4172C67.0958 30.0656 65.628 30.4313 64.213 30.6756C62.6046 30.9551 60.6974 31.0781 59.4774 32.2963C58.2979 33.4705 57.6739 35.042 56.4188 36.2215C53.9913 38.5066 52.9665 41.001 54.538 44.2318C56.0497 47.3379 59.212 49.0236 62.6239 48.8022C65.9761 48.5789 69.4583 46.6348 69.3616 51.5057C69.3265 53.2301 69.6868 54.4236 70.2159 56.025C70.7063 57.5016 70.6729 58.9324 70.7854 60.4565C70.8924 62.2411 71.1714 64.0112 71.6186 65.7422C68.4679 69.7988 64.4317 73.0817 59.8184 75.3401C55.205 77.5985 50.1366 78.7726 45.0001 78.7729Z" fill="#AAAAAA"/>
</svg>
