<svg width="24" height="25" viewBox="0 0 24 25" fill="none" xmlns="http://www.w3.org/2000/svg">
<path d="M6.66643 23.7091H17.3336C19.413 23.7091 20.4476 22.6543 20.4476 20.5651V11.4446C20.4476 10.1486 20.307 9.58634 19.5034 8.76263L13.9586 3.12777C13.1957 2.34391 12.5726 2.17334 11.4377 2.17334H6.66643C4.59729 2.17334 3.55243 3.23791 3.55243 5.32763V20.5651C3.55243 22.6642 4.59729 23.7091 6.66643 23.7091ZM6.74657 22.0921C5.712 22.0921 5.16943 21.5392 5.16943 20.5351V5.35763C5.16943 4.36334 5.712 3.79034 6.75686 3.79034H11.2166V9.62663C11.2166 10.8922 11.8594 11.5149 13.1049 11.5149H18.8306V20.5351C18.8306 21.5392 18.2979 22.0921 17.2534 22.0921H6.74657ZM13.2857 9.99777C12.894 9.99777 12.7329 9.83748 12.7329 9.43548V4.10191L18.5186 9.9982L13.2857 9.99777Z" fill="#AFCA0B"/>
</svg>
