<svg width="50" height="107" viewBox="0 0 50 107" fill="none" xmlns="http://www.w3.org/2000/svg">
<g clip-path="url(#clip0_4551_3866)">
<path d="M43.5031 15.2103C41.871 15.2103 40.5479 13.8872 40.5479 12.2551V2.96158C40.5479 1.32947 41.871 0.00634766 43.5031 0.00634766C45.1352 0.00634766 46.4583 1.32947 46.4583 2.96158V12.263C46.4583 13.8951 45.1352 15.2183 43.5031 15.2183V15.2103Z" fill="#D0D0D0"/>
<path d="M43.5031 41.6329C39.914 41.6329 37.0063 38.7252 37.0063 35.1362V12.2629C37.0063 8.67381 39.914 5.76611 43.5031 5.76611C47.0922 5.76611 49.9999 8.67381 49.9999 12.2629V35.1441C49.9999 38.7332 47.0922 41.6409 43.5031 41.6409V41.6329Z" fill="#6C6C6C"/>
<path d="M43.5033 75.0044C40.8967 75.0044 38.7812 72.8889 38.7812 70.2823V36.4754C38.7812 33.8688 40.8967 31.7534 43.5033 31.7534C46.1099 31.7534 48.2253 33.8688 48.2253 36.4754V70.2823C48.2253 72.8889 46.1099 75.0044 43.5033 75.0044Z" fill="#D0D0D0"/>
<path d="M43.5031 94.9301C39.914 94.9301 37.0063 92.0224 37.0063 88.4333V70.2741C37.0063 66.685 39.914 63.7773 43.5031 63.7773C47.0922 63.7773 49.9999 66.685 49.9999 70.2741V88.4333C49.9999 92.0224 47.0922 94.9301 43.5031 94.9301Z" fill="#6C6C6C"/>
<path d="M43.5033 102.314C40.8967 102.314 38.7812 100.199 38.7812 97.5925V93.013C38.7812 90.4064 40.8967 88.291 43.5033 88.291C46.1099 88.291 48.2253 90.4064 48.2253 93.013V97.5925C48.2253 100.199 46.1099 102.314 43.5033 102.314Z" fill="#D0D0D0"/>
<path d="M43.5031 106.299C42.1958 106.299 41.1421 105.238 41.1421 103.938V99.3591C41.1421 98.0518 42.2038 96.998 43.5031 96.998C44.8025 96.998 45.8641 98.0597 45.8641 99.3591V103.938C45.8641 105.246 44.8025 106.299 43.5031 106.299Z" fill="#6C6C6C"/>
<path d="M32.8706 37.204C31.7297 37.204 30.8027 36.277 30.8027 35.1361V16.9056C30.8027 13.5305 33.552 10.7812 36.9271 10.7812C38.068 10.7812 38.995 11.7082 38.995 12.8491C38.995 13.99 38.068 14.917 36.9271 14.917C35.7862 14.917 34.9385 15.8123 34.9385 16.9135V35.1441C34.9385 36.285 34.0115 37.2119 32.8706 37.2119V37.204Z" fill="#D0D0D0"/>
<path d="M6.02832 17.8088C2.97009 17.8088 0.490234 15.329 0.490234 12.2708V6.08301C0.490234 3.02478 2.97009 0.544922 6.02832 0.544922C9.08654 0.544922 11.5664 3.02478 11.5664 6.08301V12.2708C11.5664 15.329 9.08654 17.8088 6.02832 17.8088Z" fill="#D0D0D0"/>
<path d="M6.02832 24.084C2.97009 24.084 0.490234 21.6041 0.490234 18.5459V12.271C0.490234 9.21277 2.97009 6.73291 6.02832 6.73291C9.08654 6.73291 11.5664 9.21277 11.5664 12.271V18.5459C11.5664 21.6041 9.08654 24.084 6.02832 24.084Z" fill="white"/>
<path d="M6.02832 81.2792C2.97009 81.2792 0.490234 78.7993 0.490234 75.7411V18.5459C0.490234 15.4877 2.97009 13.0078 6.02832 13.0078C9.08654 13.0078 11.5664 15.4877 11.5664 18.5459V75.7411C11.5664 78.7993 9.08654 81.2792 6.02832 81.2792Z" fill="#D0D0D0"/>
<path d="M11.5664 75.7412H0.490234V91.6662H11.5664V75.7412Z" fill="#D0D0D0"/>
<path d="M6.02837 78.5062C4.49926 78.5062 3.25537 77.2703 3.25537 75.7332V15.67C3.25537 14.1409 4.49134 12.897 6.02837 12.897C7.56541 12.897 8.80138 14.1329 8.80138 15.67V75.7411C8.80138 77.2703 7.56541 78.5142 6.02837 78.5142V78.5062Z" fill="#6C6C6C"/>
<path d="M8.80127 75.7412H3.26318V91.6662H8.80127V75.7412Z" fill="#6C6C6C"/>
<path d="M6.17874 86.4763C6.24212 86.4763 6.30551 86.4763 6.36889 86.4763C7.01856 86.5001 7.63655 86.6348 8.19907 86.8566C11.0038 87.9658 12.517 91.3172 11.2256 94.3041L8.74575 100.024L5.79052 106.846L3.7385 101.427L3.16013 99.8897L0.957571 94.0585C-0.421008 90.4061 2.27277 86.4129 6.17874 86.4763Z" fill="#969696"/>
<path d="M6.17885 86.4766C6.24223 86.4766 6.30562 86.4766 6.369 86.4766C7.01867 86.5003 7.63666 86.635 8.19918 86.8569C8.74586 88.1958 8.80132 89.7646 8.15164 91.2382L5.67179 96.9585L3.73068 101.435L3.15232 99.8979L0.949759 94.0667C-0.42882 90.4142 2.26495 86.4211 6.17093 86.4845L6.17885 86.4766Z" fill="#969696"/>
<path d="M3.15978 99.8897C3.20732 97.9011 8.79294 98.0358 8.7454 100.024L5.78225 106.854L3.15186 99.8897H3.15978Z" fill="#6C6C6C"/>
<path d="M3.27872 74.1405C2.60527 74.1405 2.05859 73.5938 2.05859 72.9204V48.7318C2.05859 48.0584 2.60527 47.5117 3.27872 47.5117C3.95216 47.5117 4.49884 48.0584 4.49884 48.7318V72.9204C4.49884 73.5938 3.95216 74.1405 3.27872 74.1405Z" fill="white"/>
<path d="M42.0375 41.9023C41.3641 41.9023 40.8174 41.3556 40.8174 40.6822V36.4672C40.8174 35.7937 41.3641 35.2471 42.0375 35.2471C42.7109 35.2471 43.2576 35.7937 43.2576 36.4672V40.6822C43.2576 41.3556 42.7109 41.9023 42.0375 41.9023Z" fill="white"/>
<path d="M42.0375 58.8655C41.3641 58.8655 40.8174 58.3188 40.8174 57.6453V49.1679C40.8174 48.4944 41.3641 47.9478 42.0375 47.9478C42.7109 47.9478 43.2576 48.4944 43.2576 49.1679V57.6453C43.2576 58.3188 42.7109 58.8655 42.0375 58.8655Z" fill="white"/>
</g>
<defs>
<clipPath id="clip0_4551_3866">
<rect width="49.51" height="106.848" fill="white" transform="translate(0.490234 0.00634766)"/>
</clipPath>
</defs>
</svg>
