<svg width="90" height="90" viewBox="0 0 90 90" fill="none" xmlns="http://www.w3.org/2000/svg">
<path d="M2.39087 45C2.39087 63.4219 14.2034 79.0312 30.5159 84.7969V5.20312C14.2034 10.9688 2.39087 26.5781 2.39087 45Z" fill="#D0D0D0"/>
<path d="M86.7659 45C86.7659 26.5781 74.9534 10.9688 58.6409 5.20312V84.7969C75.094 79.0312 86.7659 63.4219 86.7659 45Z" fill="#AAAAAA"/>
<path d="M30.5159 84.7969C34.8752 86.3438 39.6565 87.1875 44.5784 87.1875C49.5002 87.1875 54.2815 86.3438 58.6409 84.7969V5.20312C54.2815 3.65625 49.5002 2.8125 44.5784 2.8125C39.6565 2.8125 34.8752 3.65625 30.5159 5.20312V84.7969Z" fill="white"/>
</svg>
