<svg width="84" height="99" viewBox="0 0 84 99" fill="none" xmlns="http://www.w3.org/2000/svg">
<g clip-path="url(#clip0_4559_285)">
<path d="M83.4175 43.815V90.6036C83.4175 94.9759 79.8717 98.5217 75.4927 98.5217H9.08896C4.7167 98.5217 1.1709 94.9759 1.1709 90.6036V43.815C1.1709 41.169 2.47058 38.8296 4.45676 37.3899C5.04329 36.9567 5.68313 36.6168 6.37629 36.3702C7.14277 36.0903 7.95591 35.9236 8.8157 35.897C8.90901 35.897 9.00232 35.897 9.09563 35.897H75.4994C75.5927 35.897 75.6927 35.897 75.786 35.897C75.806 35.897 75.8193 35.897 75.8393 35.897C76.6791 35.9236 77.4789 36.0903 78.2254 36.3635C78.9119 36.6168 79.5584 36.9567 80.1449 37.3833C82.1378 38.8229 83.4308 41.1623 83.4308 43.8084L83.4175 43.815Z" fill="#6C6C6C"/>
<path d="M82.2978 43.815V90.6036C82.2978 94.9759 78.752 98.5217 74.3731 98.5217H7.96934C3.59707 98.5217 0.0512695 94.9759 0.0512695 90.6036V43.815C0.0512695 41.169 1.35095 38.8296 3.33713 37.3899C3.92366 36.9567 4.5635 36.6168 5.25666 36.3702C6.02314 36.0903 6.83628 35.9236 7.69607 35.897C7.78938 35.897 7.88269 35.897 7.976 35.897H74.3798C74.4731 35.897 74.5731 35.897 74.6664 35.897C74.6864 35.897 74.6997 35.897 74.7197 35.897C75.5595 35.9236 76.3593 36.0903 77.1058 36.3635C77.7923 36.6168 78.4388 36.9567 79.0253 37.3833C81.0182 38.8229 82.3112 41.1623 82.3112 43.8084L82.2978 43.815Z" fill="#D0D0D0"/>
<path d="M78.6518 97.0025C78.1719 97.0025 77.692 96.8426 77.2988 96.5093L42.2874 67.1165L7.27591 96.5093C6.3828 97.2558 5.05646 97.1425 4.30997 96.2494C3.56349 95.3563 3.67679 94.0299 4.56991 93.2835L40.9344 62.7576C41.7142 62.0977 42.8606 62.0977 43.6404 62.7576L80.0048 93.2835C80.8979 94.0299 81.0112 95.3563 80.2647 96.2494C79.8515 96.7426 79.2517 97.0025 78.6518 97.0025Z" fill="#6C6C6C"/>
<path d="M6.36963 36.3705L37.7353 70.1689C40.1947 72.8149 44.387 72.8149 46.8464 70.1689L78.2121 36.3705L75.826 35.904L75.7793 35.8906H8.80237L6.36963 36.3705Z" fill="#AFAFAF"/>
<path d="M80.1316 37.3903L76.3326 41.4893L48.3927 71.5952C46.8198 73.2815 44.6003 74.2546 42.2942 74.2546C39.9881 74.2546 37.7686 73.2815 36.1957 71.5952L21.8992 56.1923L10.0221 43.3955L4.45679 37.3903C4.45679 37.3903 4.48345 37.3703 4.49678 37.3703C5.06997 36.9437 5.70315 36.6171 6.37632 36.3705L8.19587 36.0106L8.6491 35.9239L8.80906 35.8906L10.1754 37.3703L11.5484 38.8432L19.4731 47.3811L26.5647 55.0259L39.2816 68.7293C40.0614 69.5757 41.1345 70.0423 42.2942 70.0423C43.4539 70.0423 44.5203 69.5757 45.3068 68.7293L67.4481 44.8684L73.04 38.8366L74.413 37.3636L75.1195 36.5971L75.7794 35.8906H75.826C75.8593 35.8906 75.8993 35.8906 75.9327 35.8906C76.7325 35.9306 77.4989 36.0906 78.2121 36.3572C78.8853 36.6038 79.5118 36.9304 80.0916 37.3569C80.105 37.3569 80.1183 37.3703 80.1316 37.3769V37.3903Z" fill="#6C6C6C"/>
<path d="M78.2121 38.3635L46.8464 4.56508C44.387 1.91906 40.1947 1.91906 37.7353 4.56508L6.36963 38.3635L8.75571 38.83L8.80237 38.8434H75.7793L78.2121 38.3635Z" fill="#6C6C6C"/>
<path d="M78.2121 38.3634C78.8986 38.1101 79.5451 37.7702 80.1316 37.3436L48.3927 3.13201C46.8198 1.44575 44.6003 0.472656 42.2942 0.472656C39.9881 0.472656 37.7686 1.44575 36.1957 3.13201L4.45679 37.337C5.04331 37.7702 5.68315 38.1101 6.37632 38.3567C7.1228 38.63 7.92261 38.7966 8.7624 38.8233L8.80906 38.8366L39.2816 5.99131C40.0681 5.14485 41.1345 4.6783 42.2942 4.6783C43.4539 4.6783 44.527 5.14485 45.3068 5.99131L75.7794 38.8299L78.2121 38.3567V38.3634Z" fill="#6C6C6C"/>
<path d="M75.1194 36.6038L74.4129 37.3703L73.04 38.8432L67.448 44.8751L45.3067 68.7359C44.5203 69.5824 43.4539 70.0489 42.2941 70.0489C41.1344 70.0489 40.0613 69.5824 39.2815 68.7359L26.5646 55.0326L19.473 47.3878L11.5483 38.8499L10.1753 37.3769L8.80898 35.9039L8.64902 35.9306L8.1958 36.0173L7.66926 33.8911L4.46338 20.9809L24.1986 16.0821L27.9243 15.1557L31.6567 14.2292L48.9525 9.9303L51.2853 9.3571L53.618 8.77725L67.3613 5.36475L73.5398 30.2453L74.5862 34.4643L74.9462 35.9039L75.1261 36.6171L75.1194 36.6038Z" fill="#ECEAEA"/>
<path d="M32.7163 26.6794C32.0898 26.6794 31.5166 26.2529 31.3633 25.6197C31.1767 24.8732 31.6366 24.1134 32.3831 23.9268L62.1758 16.5219C62.9223 16.3353 63.6821 16.7885 63.8687 17.5417C64.0553 18.2882 63.5955 19.048 62.849 19.2346L33.0563 26.6395C32.9429 26.6661 32.8296 26.6794 32.7163 26.6794Z" fill="#D0D0D0"/>
<path d="M14.5943 31.1847C13.9678 31.1847 13.3946 30.7581 13.2413 30.125C13.0546 29.3785 13.5145 28.6187 14.261 28.432L21.3926 26.6591C22.1391 26.4725 22.8989 26.9257 23.0855 27.6789C23.2721 28.4254 22.8123 29.1852 22.0658 29.3718L14.9342 31.1447C14.8209 31.1714 14.7076 31.1847 14.5943 31.1847Z" fill="#D0D0D0"/>
<path d="M50.4856 31.6713C49.8591 31.6713 49.2859 31.2448 49.1326 30.6116C48.946 29.8651 49.4059 29.1053 50.1524 28.9187L64.3756 25.3862C65.122 25.1996 65.8819 25.6528 66.0685 26.4059C66.2551 27.1524 65.7952 27.9122 65.0487 28.0989L50.8255 31.6313C50.7122 31.658 50.5989 31.6713 50.4856 31.6713Z" fill="#D0D0D0"/>
<path d="M16.8006 40.0428C16.174 40.0428 15.6009 39.6162 15.4476 38.983C15.2609 38.2365 15.7208 37.4767 16.4673 37.2901L37.5288 32.0581C38.2753 31.8714 39.0351 32.3247 39.2218 33.0778C39.4084 33.8243 38.9485 34.5841 38.202 34.7707L17.1405 40.0028C17.0272 40.0294 16.9139 40.0428 16.8006 40.0428Z" fill="#D0D0D0"/>
<path d="M23.8587 47.6941C23.2322 47.6941 22.659 47.2676 22.5057 46.6344C22.319 45.8879 22.7789 45.1281 23.5254 44.9415L66.5749 34.2441C67.3214 34.0575 68.0812 34.5107 68.2678 35.2638C68.4544 36.0103 67.9946 36.7701 67.2481 36.9568L24.1986 47.6542C24.0853 47.6808 23.972 47.6941 23.8587 47.6941Z" fill="#D0D0D0"/>
<path d="M34.1297 54.5457C33.5032 54.5457 32.93 54.1191 32.7767 53.4859C32.59 52.7395 33.0499 51.9796 33.7964 51.793L61.3897 44.9414C62.1362 44.7547 62.896 45.208 63.0826 45.9611C63.2692 46.7076 62.8093 47.4674 62.0628 47.654L34.4696 54.5057C34.3563 54.5323 34.243 54.5457 34.1297 54.5457Z" fill="#D0D0D0"/>
<path d="M8.18926 69.742C7.62273 69.742 7.16284 69.2821 7.16284 68.7156V54.6124C7.16284 54.0458 7.62273 53.5859 8.18926 53.5859C8.75579 53.5859 9.21567 54.0458 9.21567 54.6124V68.7156C9.21567 69.2821 8.75579 69.742 8.18926 69.742Z" fill="white"/>
</g>
<defs>
<clipPath id="clip0_4559_285">
<rect width="83.3663" height="98.0427" fill="white" transform="translate(0.0512695 0.472656)"/>
</clipPath>
</defs>
</svg>
