<svg width="84" height="99" viewBox="0 0 84 99" fill="none" xmlns="http://www.w3.org/2000/svg">
<g clip-path="url(#clip0_4559_224)">
<path d="M83.4174 43.815V90.6036C83.4174 94.9758 79.8716 98.5216 75.4927 98.5216H9.08896C4.7167 98.5216 1.1709 94.9758 1.1709 90.6036V43.815C1.1709 41.169 2.47058 38.8296 4.45676 37.3899C5.04328 36.9567 5.68313 36.6168 6.37629 36.3702C7.14277 36.0903 7.9559 35.9236 8.81569 35.897C8.909 35.897 9.00231 35.897 9.09562 35.897H75.4993C75.5926 35.897 75.6926 35.897 75.7859 35.897C75.8059 35.897 75.8193 35.897 75.8393 35.897C76.6791 35.9236 77.4789 36.0903 78.2253 36.3635C78.9118 36.6168 79.5583 36.9567 80.1449 37.3833C82.1377 38.8229 83.4307 41.1623 83.4307 43.8084L83.4174 43.815Z" fill="#5F6D10"/>
<path d="M82.2978 43.815V90.6036C82.2978 94.9758 78.752 98.5216 74.373 98.5216H7.96933C3.59707 98.5216 0.0512695 94.9758 0.0512695 90.6036V43.815C0.0512695 41.169 1.35095 38.8296 3.33713 37.3899C3.92365 36.9567 4.5635 36.6168 5.25666 36.3702C6.02314 36.0903 6.83627 35.9236 7.69606 35.897C7.78937 35.897 7.88268 35.897 7.97599 35.897H74.3797C74.473 35.897 74.573 35.897 74.6663 35.897C74.6863 35.897 74.6996 35.897 74.7196 35.897C75.5594 35.9236 76.3592 36.0903 77.1057 36.3635C77.7922 36.6168 78.4387 36.9567 79.0252 37.3833C81.0181 38.8229 82.3111 41.1623 82.3111 43.8084L82.2978 43.815Z" fill="#AFCA0B"/>
<path d="M78.6517 97.002C78.1719 97.002 77.692 96.8421 77.2987 96.5088L42.2873 67.116L7.27591 96.5088C6.3828 97.2553 5.05645 97.142 4.30997 96.2489C3.56349 95.3558 3.67679 94.0294 4.56991 93.2829L40.9343 62.7571C41.7141 62.0972 42.8605 62.0972 43.6403 62.7571L80.0047 93.2829C80.8978 94.0294 81.0112 95.3558 80.2647 96.2489C79.8514 96.7421 79.2516 97.002 78.6517 97.002Z" fill="#5F6D10"/>
<path d="M6.36963 36.3705L37.7353 70.1689C40.1947 72.8149 44.387 72.8149 46.8464 70.1689L78.212 36.3705L75.8259 35.904L75.7793 35.8906H8.80237L6.36963 36.3705Z" fill="#D8694F"/>
<path d="M80.1316 37.3903L76.3325 41.4893L48.3927 71.5952C46.8197 73.2815 44.6003 74.2545 42.2942 74.2545C39.9881 74.2545 37.7686 73.2815 36.1957 71.5952L21.8992 56.1923L10.0221 43.3955L4.45679 37.3903C4.45679 37.3903 4.48345 37.3703 4.49678 37.3703C5.06997 36.9437 5.70315 36.6171 6.37632 36.3705L8.19587 36.0106L8.64909 35.9239L8.80905 35.8906L10.1754 37.3703L11.5484 38.8432L19.4731 47.3811L26.5647 55.0259L39.2816 68.7292C40.0614 69.5757 41.1345 70.0422 42.2942 70.0422C43.4539 70.0422 44.5203 69.5757 45.3068 68.7292L67.448 44.8684L73.04 38.8366L74.413 37.3636L75.1195 36.5971L75.7793 35.8906H75.826C75.8593 35.8906 75.8993 35.8906 75.9326 35.8906C76.7324 35.9306 77.4989 36.0906 78.212 36.3572C78.8852 36.6038 79.5117 36.9304 80.0916 37.3569C80.1049 37.3569 80.1182 37.3703 80.1316 37.3769V37.3903Z" fill="#5F6D10"/>
<path d="M78.212 38.3632L46.8464 4.56484C44.387 1.91882 40.1947 1.91882 37.7353 4.56484L6.36963 38.3632L8.75571 38.8298L8.80237 38.8431H75.7793L78.212 38.3632Z" fill="#5F6D10"/>
<path d="M78.212 38.3631C78.8985 38.1098 79.545 37.7699 80.1316 37.3434L48.3927 3.13176C46.8197 1.44551 44.6003 0.472412 42.2942 0.472412C39.9881 0.472412 37.7686 1.44551 36.1957 3.13176L4.45679 37.3367C5.04331 37.7699 5.68315 38.1098 6.37632 38.3565C7.1228 38.6297 7.9226 38.7963 8.7624 38.823L8.80905 38.8363L39.2816 5.99106C40.0681 5.1446 41.1345 4.67805 42.2942 4.67805C43.4539 4.67805 44.527 5.1446 45.3068 5.99106L75.7793 38.8297L78.212 38.3565V38.3631Z" fill="#5F6D10"/>
<path d="M75.1191 36.6038L74.4126 37.3702L73.0397 38.8432L67.4477 44.8751L45.3065 68.7359C44.52 69.5823 43.4536 70.0489 42.2939 70.0489C41.1341 70.0489 40.0611 69.5823 39.2813 68.7359L26.5644 55.0326L19.4728 47.3878L11.5481 38.8499L10.1751 37.3769L8.80874 35.9039L8.64878 35.9306L8.19555 36.0172L7.66902 33.8911L4.46313 20.9809L24.1983 16.0821L27.924 15.1557L31.6565 14.2292L48.9522 9.93029L51.285 9.3571L53.6177 8.77724L67.361 5.36475L73.5395 30.2453L74.5859 34.4643L74.9459 35.9039L75.1258 36.6171L75.1191 36.6038Z" fill="white"/>
<path d="M32.7163 26.6794C32.0898 26.6794 31.5166 26.2529 31.3633 25.6197C31.1767 24.8732 31.6366 24.1134 32.3831 23.9268L62.1758 16.5219C62.9223 16.3353 63.6821 16.7885 63.8687 17.5417C64.0553 18.2882 63.5954 19.048 62.8489 19.2346L33.0563 26.6394C32.9429 26.6661 32.8296 26.6794 32.7163 26.6794Z" fill="#BBE1FE"/>
<path d="M14.594 31.1849C13.9675 31.1849 13.3943 30.7584 13.241 30.1252C13.0544 29.3787 13.5143 28.6189 14.2608 28.4323L21.3924 26.6594C22.1388 26.4728 22.8987 26.926 23.0853 27.6791C23.2719 28.4256 22.812 29.1854 22.0655 29.372L14.9339 31.1449C14.8206 31.1716 14.7073 31.1849 14.594 31.1849Z" fill="#BBE1FE"/>
<path d="M50.4854 31.6716C49.8589 31.6716 49.2857 31.245 49.1324 30.6118C48.9458 29.8653 49.4056 29.1055 50.1521 28.9189L64.3753 25.3864C65.1218 25.1998 65.8816 25.653 66.0682 26.4062C66.2548 27.1527 65.795 27.9125 65.0485 28.0991L50.8253 31.6316C50.712 31.6582 50.5987 31.6716 50.4854 31.6716Z" fill="#BBE1FE"/>
<path d="M16.8001 40.0428C16.1736 40.0428 15.6004 39.6162 15.4471 38.983C15.2605 38.2365 15.7203 37.4767 16.4668 37.2901L37.5283 32.0581C38.2748 31.8714 39.0346 32.3247 39.2212 33.0778C39.4079 33.8243 38.948 34.5841 38.2015 34.7707L17.14 40.0028C17.0267 40.0294 16.9134 40.0428 16.8001 40.0428Z" fill="#BBE1FE"/>
<path d="M23.8587 47.6941C23.2322 47.6941 22.659 47.2676 22.5057 46.6344C22.319 45.8879 22.7789 45.1281 23.5254 44.9415L66.5749 34.2441C67.3213 34.0575 68.0812 34.5107 68.2678 35.2638C68.4544 36.0103 67.9945 36.7701 67.248 36.9568L24.1986 47.6541C24.0853 47.6808 23.972 47.6941 23.8587 47.6941Z" fill="#BBE1FE"/>
<path d="M34.1294 54.5459C33.5029 54.5459 32.9297 54.1194 32.7764 53.4862C32.5898 52.7397 33.0497 51.9799 33.7962 51.7933L61.3894 44.9416C62.1359 44.755 62.8957 45.2082 63.0823 45.9614C63.2689 46.7078 62.8091 47.4676 62.0626 47.6543L34.4693 54.5059C34.356 54.5326 34.2427 54.5459 34.1294 54.5459Z" fill="#BBE1FE"/>
<path d="M8.18926 69.7422C7.62273 69.7422 7.16284 69.2823 7.16284 68.7158V54.6126C7.16284 54.0461 7.62273 53.5862 8.18926 53.5862C8.75578 53.5862 9.21567 54.0461 9.21567 54.6126V68.7158C9.21567 69.2823 8.75578 69.7422 8.18926 69.7422Z" fill="white"/>
</g>
<defs>
<clipPath id="clip0_4559_224">
<rect width="83.3662" height="98.0426" fill="white" transform="translate(0.0512695 0.472412)"/>
</clipPath>
</defs>
</svg>
