<svg width="105" height="91" viewBox="0 0 105 91" fill="none" xmlns="http://www.w3.org/2000/svg">
<g clip-path="url(#clip0_930_448)">
<path fill-rule="evenodd" clip-rule="evenodd" d="M45.4688 7.5C66.18 7.5 82.9688 24.2888 82.9688 45C82.9688 65.7113 66.18 82.5 45.4688 82.5C24.7575 82.5 7.96875 65.7113 7.96875 45C7.96875 24.2888 24.7575 7.5 45.4688 7.5ZM51.0263 63.525C47.3274 63.827 43.6101 63.827 39.9112 63.525C40.26 65.0138 40.65 66.3937 41.0737 67.6575C42.015 70.4888 43.0612 72.5062 44.0363 73.74C44.5125 74.3475 44.8988 74.67 45.1613 74.8275L45.3525 74.9325L45.465 74.9625L45.585 74.9325L45.7762 74.8313C46.2114 74.5366 46.5921 74.1687 46.9012 73.7438C47.8763 72.5063 48.9225 70.4888 49.8638 67.6575C50.2875 66.3937 50.6775 65.0138 51.0263 63.525ZM18.495 58.1437C21.9004 65.1155 27.8667 70.5028 35.1488 73.1812C34.7066 72.1487 34.3087 71.0977 33.9563 70.0312C33.1382 67.536 32.4868 64.9891 32.0062 62.4075C27.3645 61.4677 22.8354 60.0384 18.495 58.1437ZM72.4463 58.1437C68.1525 60.0187 63.63 61.455 58.9275 62.4075C58.4492 64.9908 57.7977 67.5391 56.9775 70.035C56.6175 71.1225 56.22 72.18 55.785 73.1775C63.0696 70.5003 69.0387 65.113 72.4463 58.14V58.1437ZM52.8787 40.7663C47.96 41.4147 42.9775 41.4147 38.0588 40.7663C37.8448 45.8036 38.0216 50.85 38.5875 55.86C43.1602 56.3815 47.7773 56.3815 52.35 55.86C52.7659 52.255 52.9725 48.6289 52.9688 45C52.9688 43.56 52.9388 42.15 52.8787 40.7625V40.7663ZM17.5987 33.87C15.7653 38.4552 15.0954 43.4229 15.6487 48.33C20.4245 51.071 25.5571 53.1369 30.9 54.4688C30.4389 49.4159 30.3462 44.3363 30.6225 39.27C26.0709 38.0266 21.6948 36.2121 17.5987 33.87ZM73.3387 33.87C69.2426 36.2121 64.8666 38.0265 60.315 39.27C60.5914 44.3363 60.4987 49.4159 60.0375 54.4688C65.3791 53.1366 70.5104 51.0707 75.285 48.33C75.8377 43.4242 75.1678 38.4578 73.335 33.8738L73.3387 33.87ZM45.5287 15.045L45.4875 15.0375L45.4125 15.0487L45.27 15.105C44.7903 15.4095 44.3708 15.7997 44.0325 16.2563C43.0575 17.4938 42.015 19.5112 41.07 22.3387C40.0575 25.3687 39.24 29.0888 38.6963 33.285C43.1897 33.9093 47.7478 33.9093 52.2412 33.285C51.6975 29.085 50.8763 25.3687 49.8675 22.3387C48.9225 19.5112 47.88 17.49 46.905 16.2563C46.5945 15.8325 46.2141 15.4647 45.78 15.1688L45.5287 15.045ZM35.1488 16.8225C29.5781 18.8698 24.7376 22.5192 21.2362 27.3113C24.3975 29.1262 27.7837 30.5963 31.3425 31.6725C31.9425 27.3075 32.8313 23.3362 33.9563 19.965C34.32 18.8737 34.7175 17.82 35.1488 16.8225ZM55.7887 16.8225C56.22 17.82 56.6138 18.8737 56.9812 19.965C58.1063 23.34 58.995 27.3075 59.595 31.6725C63.1184 30.6072 66.509 29.144 69.7012 27.3113C66.2001 22.519 61.3595 18.8696 55.7887 16.8225Z" fill="#AAAAAA"/>
</g>
<path d="M61.1956 68.5C61.1956 77.7109 67.1018 85.5156 75.2581 88.3984V48.6016C67.1018 51.4844 61.1956 59.2891 61.1956 68.5Z" fill="#D0D0D0"/>
<path d="M103.383 68.5C103.383 59.2891 97.4768 51.4844 89.3206 48.6016V88.3984C97.5471 85.5156 103.383 77.7109 103.383 68.5Z" fill="#AAAAAA"/>
<path d="M75.2581 88.3984C77.4377 89.1719 79.8284 89.5938 82.2893 89.5938C84.7502 89.5938 87.1409 89.1719 89.3206 88.3984V48.6016C87.1409 47.8281 84.7502 47.4062 82.2893 47.4062C79.8284 47.4062 77.4377 47.8281 75.2581 48.6016V88.3984Z" fill="white"/>
<defs>
<clipPath id="clip0_930_448">
<rect width="90" height="90" fill="white" transform="translate(0.46875)"/>
</clipPath>
</defs>
</svg>
