<svg width="64" height="64" viewBox="0 0 64 64" fill="none" xmlns="http://www.w3.org/2000/svg">
<rect width="64" height="64" rx="17.4545" fill="#FFDA00" fill-opacity="0.2"/>
<path d="M18.9091 46.5455C18.497 46.5455 18.1518 46.4059 17.8735 46.1266C17.5952 45.8473 17.4556 45.5021 17.4546 45.091V33.4546C17.4546 33.0425 17.5942 32.6973 17.8735 32.419C18.1528 32.1406 18.498 32.001 18.9091 32H23.2728V26.1819C23.2728 23.7576 24.1213 21.697 25.8182 20C27.5152 18.3031 29.5758 17.4546 32 17.4546H37.8182C40.2425 17.4546 42.3031 18.3031 44 20C45.697 21.697 46.5455 23.7576 46.5455 26.1819V45.091C46.5455 45.5031 46.4059 45.8488 46.1266 46.128C45.8473 46.4073 45.5021 46.5465 45.091 46.5455C44.6788 46.5455 44.3336 46.4059 44.0553 46.1266C43.777 45.8473 43.6374 45.5021 43.6364 45.091V42.1819H37.8182V45.091C37.8182 45.5031 37.6786 45.8488 37.3993 46.128C37.12 46.4073 36.7748 46.5465 36.3637 46.5455H18.9091ZM37.8182 39.2728H43.6364V26.1819C43.6364 24.5819 43.0667 23.2122 41.9273 22.0728C40.7879 20.9334 39.4182 20.3637 37.8182 20.3637H32C30.4 20.3637 29.0303 20.9334 27.891 22.0728C26.7516 23.2122 26.1819 24.5819 26.1819 26.1819V32H36.3637C36.7758 32 37.1215 32.1397 37.4008 32.419C37.68 32.6982 37.8192 33.0434 37.8182 33.4546V39.2728ZM27.6364 39.0546L34.9091 34.9091H20.3637L27.6364 39.0546ZM20.3637 43.6364H34.9091V37.4546L29.091 40.7637C28.8728 40.8849 28.6425 40.9819 28.4 41.0546C28.1576 41.1273 27.9031 41.1637 27.6364 41.1637C27.3697 41.1637 27.1152 41.1273 26.8728 41.0546C26.6303 40.9819 26.4 40.8849 26.1819 40.7637L20.3637 37.4546V43.6364ZM30.5455 29.091C30.1334 29.091 29.7882 28.9513 29.5099 28.672C29.2316 28.3928 29.0919 28.0476 29.091 27.6364C29.091 27.2243 29.2306 26.8791 29.5099 26.6008C29.7891 26.3225 30.1343 26.1828 30.5455 26.1819H39.2728C39.6849 26.1819 40.0306 26.3215 40.3099 26.6008C40.5891 26.88 40.7283 27.2253 40.7273 27.6364C40.7273 28.0485 40.5877 28.3942 40.3084 28.6735C40.0291 28.9528 39.6839 29.0919 39.2728 29.091H30.5455Z" fill="#FFDA00"/>
</svg>
